<?xml version="1.0" encoding="utf-8"?>
<!-- Generator: Adobe Illustrator 26.0.1, SVG Export Plug-In . SVG Version: 6.00 Build 0)  -->
<svg version="1.1" id="Laag_1" xmlns="http://www.w3.org/2000/svg" xmlns:xlink="http://www.w3.org/1999/xlink" x="0px" y="0px"
	 viewBox="0 0 595.3 589.9" style="enable-background:new 0 0 595.3 589.9;" xml:space="preserve">
<style type="text/css">
	.st0{fill:#FCF5E1;stroke:#020203;stroke-width:3;stroke-miterlimit:10;}
	.st1{fill:#FFFFFF;stroke:#020203;stroke-width:3;stroke-miterlimit:10;}
	.st2{fill:#020203;}
	.st3{font-family:'OpenSans';}
	.st4{font-size:138px;}
	.st5{fill:#FBEA22;stroke:#020203;stroke-width:3;stroke-miterlimit:10;}
</style>
<circle class="st0" cx="294" cy="299.7" r="268.9"/>
<circle class="st1" cx="294" cy="299.7" r="192.4"/>
<text transform="matrix(0.9661 0 0 1 162.8893 340.1956)" class="st2 st3 st4">88%</text>
<path class="st5" d="M579.6,282.2c-0.2-3.9-0.6-10.1-1.6-18.2c-3-27.5-9.3-48.2-12.9-58.9c-8.6-25.2-29.6-58.6-29.6-58.6
	c-10.5-16.6-36-52.7-81.5-83.5c-40.8-27.6-78.6-37.9-94.9-41.7c-26-5.9-48.7-7.2-65.4-7.1v113.1c13.1-0.5,33.4,0.2,56.7,7.5
	c54.4,17.1,90.2,70.3,90.2,70.3c6.6,9.9,15.5,25.3,21.6,45.6c6.7,25,6.3,46.2,5.9,57.5c-0.2,7-0.9,13.7-1.7,20.1
	c-4.3,24.2-12.4,41-14.9,45.8c-22.4,44.7-58,65.8-73.2,74.4c-5.8,3.3-11.5,6.1-17,8.6c0,0-31.7,10.6-56.1,11.9
	c-61.3,3.2-104.4-29-112.1-35c-39.5-30.6-53.2-69.7-58.8-86.3c-2.6-7.8-4.5-15.3-6-22.4c-1.6-10.6-1.8-18.4-1.9-21.5
	c-0.7-50,21.2-85.1,30.7-99.8c15.9-24.6,34.3-40.8,46.8-50.2c-20-29.5-40.1-59-60.1-88.4c-21.3,13.5-65,45.3-95.8,103.6
	c-7.3,13.9-31.2,61.9-31.9,128.5c0,0.8,0,1.6,0,2.4c0,0.4,0,0.8,0,1.2c0,25.1,3.4,58.7,16.9,95.5c2.9,8.1,6.3,16.4,10.2,25
	c20.8,44.6,48,72.9,60,84.5c19.3,18.4,54.4,36.4,54.4,36.4c18.9,10.7,44.3,22.4,75.5,30c47.9,11.6,86.9,8,103.5,5.9
	c26.4-3.6,63.3-17.6,63.3-17.6c18.6-7,38.8-17,59.1-31c13.6-9.4,60.6-43.7,92-108.2c4.9-10,12.9-28.1,19.3-52.3
	C576.7,345.5,581.4,316,579.6,282.2z"/>
</svg>
