<?xml version="1.0" encoding="UTF-8"?><svg xmlns="http://www.w3.org/2000/svg" xmlns:xlink="http://www.w3.org/1999/xlink" viewBox="0 0 320.31 327.25"><defs><style>.j{clip-path:url(#h);}.k{clip-path:url(#e);}.l{clip-path:url(#d);}.m{fill:none;}.n{clip-path:url(#f);}.o{clip-path:url(#i);}.p{clip-path:url(#g);}</style><clipPath id="d"><rect class="m" x="192.51" width="71.59" height="101.95"/></clipPath><clipPath id="e"><rect class="m" x="66.82" y="225.07" width="67.92" height="102.18"/></clipPath><clipPath id="f"><rect class="m" x="192.51" y="225.3" width="71.59" height="101.95"/></clipPath><clipPath id="g"><rect class="m" x="66.82" width="67.92" height="102.18"/></clipPath><clipPath id="h"><rect class="m" y="106.21" width="71.59" height="101.95"/></clipPath><clipPath id="i"><rect class="m" x="252.38" y="105.98" width="67.92" height="102.18"/></clipPath></defs><g id="a"/><g id="b"><g id="c"><g><g class="l"><path d="M224.88,83.42c-3.81,0-5.72-2.56-5.8-2.67l-.82,.59-.82,.58c.1,.14,2.56,3.51,7.44,3.51,3.9,0,7.19-3.24,7.33-3.38l-1.42-1.42s-2.85,2.79-5.91,2.79h0Z"/><path d="M257.14,32.96c-2.56,2.15-5.93,3.43-9.64,4.07-.25-.2-.56-.33-.9-.33-.49,0-.92,.25-1.18,.62-1.99,.22-4.05,.27-6.11,.19-.23-.48-.71-.81-1.28-.81-.5,0-.94,.26-1.19,.65-2.63-.23-5.21-.66-7.58-1.21-1.28-.3-2.51-.61-3.7-.92,.61-.16,1.06-.71,1.06-1.37,0-.79-.64-1.43-1.43-1.43s-1.43,.64-1.43,1.43c0,.39,.16,.75,.41,1-2.37-.65-4.55-1.32-6.51-1.97-.26-.28-.63-.46-1.04-.46-.08,0-.16,.01-.24,.02-1.46-.5-2.78-.99-3.97-1.46,.75-.04,1.36-.66,1.36-1.42s-.64-1.43-1.43-1.43-1.43,.64-1.43,1.43c0,.38,.15,.73,.4,.98-2.32-.94-4.04-1.73-5.08-2.24-.51-.25-1.12-.23-1.62,.05-.01,0-.02,.02-.03,.02-.23-.15-.5-.24-.8-.24-.79,0-1.43,.64-1.43,1.43,0,.71,.52,1.3,1.21,1.41-.41,1.94-1.55,4.55-4.64,6.26-2.05,1.13-3.44,2.74-4.4,4.37v-2.22c.21,.12,.44,.19,.69,.19,.79,0,1.43-.64,1.43-1.43s-.64-1.43-1.43-1.43c-.25,0-.49,.07-.69,.19v-6.08c.21,.12,.44,.19,.69,.19,.79,0,1.43-.64,1.43-1.43s-.64-1.43-1.43-1.43c-.25,0-.49,.07-.69,.19v-6.08c.21,.12,.44,.19,.69,.19,.79,0,1.43-.64,1.43-1.43s-.64-1.43-1.43-1.43c-.25,0-.49,.07-.69,.19v-.02c0-2.51,.69-4.38,2.04-5.56,1.48-1.29,3.57-1.63,5.33-1.63,.16,0,.32,0,.48,0,.06,.73,.67,1.31,1.42,1.31s1.39-.61,1.42-1.38c.2-.1,.38-.22,.54-.38,.47-.46,.7-1.09,.63-1.74-.13-1.22-.02-3,1.24-4.55,.78-.96,1.9-1.72,3.36-2.29-.03,.11-.05,.23-.05,.35,0,.79,.64,1.43,1.43,1.43s1.43-.64,1.43-1.43c0-.41-.18-.78-.46-1.04,.79-.17,1.64-.3,2.56-.39,3.21-.32,11.68-.93,20.9,.17,.17,.02,.33,.04,.49,.06-.4,.25-.66,.7-.66,1.2,0,.79,.64,1.43,1.43,1.43s1.43-.64,1.43-1.43c0-.37-.14-.7-.37-.95,2.18,.33,4.22,.74,6.11,1.23,.13,.65,.71,1.15,1.4,1.15,.41,0,.77-.17,1.04-.45,3.89,1.24,7.03,2.88,9.39,4.89,3.11,2.66,4.8,6,5.03,9.94,.34,5.78-1.32,10.25-4.91,13.27h0Zm-13.21,58.82c-5.28,5.33-11.72,8.15-18.64,8.15-7.46,0-14.99-4.04-20.66-11.07-6-7.45-9.51-17.58-9.88-28.5l-.15-8.61h2.16c-.54,5.37,.05,14.94,10.85,16.02,14.42,1.45,15.32-10.21,15.32-11.02s1.18-2.46,2.52-2.46h0c1.34,0,2.52,1.65,2.52,2.46s.9,12.47,15.32,11.02c10.79-1.09,11.38-10.65,10.85-16.02h2c-.11,4.54-.42,13.58-1.28,18-1.76,8.99-5.53,16.61-10.89,22.03h0Zm-49.41-43.74c.04-.5,.65-6.46,5.37-9.05,4.5-2.48,5.57-6.65,5.82-8.7,3.24,1.55,11.32,5.07,23.1,7.81,4.29,1,18.13,3.58,27.36-1.98l-.02,11.94h-4.58c-6.45-.23-15.95-.43-19.03,1.2-2.96,1.57-6.18,1.71-6.95,1.71h-.35c-.77,0-3.99-.14-6.95-1.71-3.07-1.63-12.58-1.43-19.03-1.2h-4.75Zm69.54-28.49c-.26-4.51-2.19-8.33-5.73-11.35C246.13-2.22,218.76,.13,215.68,.44c-4.54,.45-7.78,1.83-9.63,4.11-1.7,2.09-1.85,4.44-1.68,6.04,0,.01,0,.05-.03,.08-.02,.02-.06,.04-.11,.03-2.18-.3-6.26-.43-9,1.96-1.81,1.58-2.73,3.96-2.73,7.08v28.29l.22,12.38c.39,11.37,4.05,21.93,10.33,29.71,6.05,7.51,14.16,11.82,22.23,11.82,7.47,0,14.4-3.03,20.07-8.75,5.64-5.7,9.59-13.67,11.43-23.06,1.21-6.2,1.37-20.5,1.37-21.11l.02-14.32c.09-.07,.17-.14,.25-.21,4.1-3.46,5.99-8.48,5.62-14.93h0Z"/></g><path d="M220.91,2.44c-.79,0-1.43,.64-1.43,1.43s.64,1.43,1.43,1.43,1.43-.64,1.43-1.43-.64-1.43-1.43-1.43h0Z"/><path d="M229.47,2.44c-.79,0-1.43,.64-1.43,1.43s.64,1.43,1.43,1.43,1.43-.64,1.43-1.43-.64-1.43-1.43-1.43h0Z"/><path d="M212.34,11.01c-.79,0-1.43,.64-1.43,1.43s.64,1.43,1.43,1.43,1.43-.64,1.43-1.43-.64-1.43-1.43-1.43h0Z"/><path d="M220.91,11.01c-.79,0-1.43,.64-1.43,1.43s.64,1.43,1.43,1.43,1.43-.64,1.43-1.43-.64-1.43-1.43-1.43h0Z"/><path d="M229.47,11.01c-.79,0-1.43,.64-1.43,1.43s.64,1.43,1.43,1.43,1.43-.64,1.43-1.43-.64-1.43-1.43-1.43h0Z"/><path d="M238.04,11.01c-.79,0-1.43,.64-1.43,1.43s.64,1.43,1.43,1.43,1.43-.64,1.43-1.43-.64-1.43-1.43-1.43h0Z"/><path d="M246.6,11.01c-.79,0-1.43,.64-1.43,1.43s.64,1.43,1.43,1.43,1.43-.64,1.43-1.43-.64-1.43-1.43-1.43h0Z"/><path d="M255.17,11.01c-.79,0-1.43,.64-1.43,1.43s.64,1.43,1.43,1.43,1.43-.64,1.43-1.43-.64-1.43-1.43-1.43h0Z"/><path d="M208.06,6.73c-.79,0-1.43,.64-1.43,1.43s.64,1.43,1.43,1.43,1.43-.64,1.43-1.43-.64-1.43-1.43-1.43h0Z"/><path d="M216.63,6.73c-.79,0-1.43,.64-1.43,1.43s.64,1.43,1.43,1.43,1.43-.64,1.43-1.43-.64-1.43-1.43-1.43h0Z"/><path d="M225.19,6.73c-.79,0-1.43,.64-1.43,1.43s.64,1.43,1.43,1.43,1.43-.64,1.43-1.43-.64-1.43-1.43-1.43h0Z"/><path d="M233.76,6.73c-.79,0-1.43,.64-1.43,1.43s.64,1.43,1.43,1.43,1.43-.64,1.43-1.43-.64-1.43-1.43-1.43h0Z"/><path d="M242.32,6.73c-.79,0-1.43,.64-1.43,1.43s.64,1.43,1.43,1.43,1.43-.64,1.43-1.43-.64-1.43-1.43-1.43h0Z"/><path d="M250.89,6.73c-.79,0-1.43,.64-1.43,1.43s.64,1.43,1.43,1.43,1.43-.64,1.43-1.43-.64-1.43-1.43-1.43h0Z"/><path d="M199.5,15.29c-.79,0-1.43,.64-1.43,1.43s.64,1.43,1.43,1.43,1.43-.64,1.43-1.43-.64-1.43-1.43-1.43h0Z"/><path d="M208.06,15.29c-.79,0-1.43,.64-1.43,1.43s.64,1.43,1.43,1.43,1.43-.64,1.43-1.43-.64-1.43-1.43-1.43h0Z"/><path d="M216.63,15.29c-.79,0-1.43,.64-1.43,1.43s.64,1.43,1.43,1.43,1.43-.64,1.43-1.43-.64-1.43-1.43-1.43h0Z"/><path d="M225.19,15.29c-.79,0-1.43,.64-1.43,1.43s.64,1.43,1.43,1.43,1.43-.64,1.43-1.43-.64-1.43-1.43-1.43h0Z"/><path d="M233.76,15.29c-.79,0-1.43,.64-1.43,1.43s.64,1.43,1.43,1.43,1.43-.64,1.43-1.43-.64-1.43-1.43-1.43h0Z"/><path d="M242.32,15.29c-.79,0-1.43,.64-1.43,1.43s.64,1.43,1.43,1.43,1.43-.64,1.43-1.43-.64-1.43-1.43-1.43h0Z"/><path d="M250.89,15.29c-.79,0-1.43,.64-1.43,1.43s.64,1.43,1.43,1.43,1.43-.64,1.43-1.43-.64-1.43-1.43-1.43h0Z"/><path d="M259.45,15.29c-.79,0-1.43,.64-1.43,1.43s.64,1.43,1.43,1.43,1.43-.64,1.43-1.43-.64-1.43-1.43-1.43h0Z"/><path d="M203.78,19.57c-.79,0-1.43,.64-1.43,1.43s.64,1.43,1.43,1.43,1.43-.64,1.43-1.43-.64-1.43-1.43-1.43h0Z"/><path d="M212.34,19.57c-.79,0-1.43,.64-1.43,1.43s.64,1.43,1.43,1.43,1.43-.64,1.43-1.43-.64-1.43-1.43-1.43h0Z"/><path d="M220.91,19.57c-.79,0-1.43,.64-1.43,1.43s.64,1.43,1.43,1.43,1.43-.64,1.43-1.43-.64-1.43-1.43-1.43h0Z"/><path d="M229.47,19.57c-.79,0-1.43,.64-1.43,1.43s.64,1.43,1.43,1.43,1.43-.64,1.43-1.43-.64-1.43-1.43-1.43h0Z"/><path d="M238.04,19.57c-.79,0-1.43,.64-1.43,1.43s.64,1.43,1.43,1.43,1.43-.64,1.43-1.43-.64-1.43-1.43-1.43h0Z"/><path d="M246.6,19.57c-.79,0-1.43,.64-1.43,1.43s.64,1.43,1.43,1.43,1.43-.64,1.43-1.43-.64-1.43-1.43-1.43h0Z"/><path d="M255.17,19.57c-.79,0-1.43,.64-1.43,1.43s.64,1.43,1.43,1.43,1.43-.64,1.43-1.43-.64-1.43-1.43-1.43h0Z"/><path d="M220.91,28.14c-.79,0-1.43,.64-1.43,1.43s.64,1.43,1.43,1.43,1.43-.64,1.43-1.43-.64-1.43-1.43-1.43h0Z"/><path d="M229.47,28.14c-.79,0-1.43,.64-1.43,1.43s.64,1.43,1.43,1.43,1.43-.64,1.43-1.43-.64-1.43-1.43-1.43h0Z"/><path d="M238.04,28.14c-.79,0-1.43,.64-1.43,1.43s.64,1.43,1.43,1.43,1.43-.64,1.43-1.43-.64-1.43-1.43-1.43h0Z"/><path d="M246.6,28.14c-.79,0-1.43,.64-1.43,1.43s.64,1.43,1.43,1.43,1.43-.64,1.43-1.43-.64-1.43-1.43-1.43h0Z"/><path d="M255.17,28.14c-.79,0-1.43,.64-1.43,1.43s.64,1.43,1.43,1.43,1.43-.64,1.43-1.43-.64-1.43-1.43-1.43h0Z"/><path d="M199.5,23.85c-.79,0-1.43,.64-1.43,1.43s.64,1.43,1.43,1.43,1.43-.64,1.43-1.43-.64-1.43-1.43-1.43h0Z"/><path d="M208.06,23.85c-.79,0-1.43,.64-1.43,1.43s.64,1.43,1.43,1.43,1.43-.64,1.43-1.43-.64-1.43-1.43-1.43h0Z"/><path d="M216.63,23.85c-.79,0-1.43,.64-1.43,1.43s.64,1.43,1.43,1.43,1.43-.64,1.43-1.43-.64-1.43-1.43-1.43h0Z"/><path d="M225.19,23.85c-.79,0-1.43,.64-1.43,1.43s.64,1.43,1.43,1.43,1.43-.64,1.43-1.43-.64-1.43-1.43-1.43h0Z"/><path d="M233.76,23.85c-.79,0-1.43,.64-1.43,1.43s.64,1.43,1.43,1.43,1.43-.64,1.43-1.43-.64-1.43-1.43-1.43h0Z"/><path d="M242.32,23.85c-.79,0-1.43,.64-1.43,1.43s.64,1.43,1.43,1.43,1.43-.64,1.43-1.43-.64-1.43-1.43-1.43h0Z"/><path d="M250.89,23.85c-.79,0-1.43,.64-1.43,1.43s.64,1.43,1.43,1.43,1.43-.64,1.43-1.43-.64-1.43-1.43-1.43h0Z"/><path d="M259.45,23.85c-.79,0-1.43,.64-1.43,1.43s.64,1.43,1.43,1.43,1.43-.64,1.43-1.43-.64-1.43-1.43-1.43h0Z"/><path d="M199.5,32.42c-.79,0-1.43,.64-1.43,1.43s.64,1.43,1.43,1.43,1.43-.64,1.43-1.43-.64-1.43-1.43-1.43h0Z"/><path d="M233.76,32.42c-.79,0-1.43,.64-1.43,1.43s.64,1.43,1.43,1.43,1.43-.64,1.43-1.43-.64-1.43-1.43-1.43h0Z"/><path d="M242.32,32.42c-.79,0-1.43,.64-1.43,1.43s.64,1.43,1.43,1.43,1.43-.64,1.43-1.43-.64-1.43-1.43-1.43h0Z"/><path d="M250.89,32.42c-.79,0-1.43,.64-1.43,1.43s.64,1.43,1.43,1.43,1.43-.64,1.43-1.43-.64-1.43-1.43-1.43h0Z"/></g><g><g class="k"><path d="M123.14,298.1c-.68,0-1.35-.07-2.01-.21-.25-.39-.68-.66-1.18-.66-.2,0-.38,.04-.55,.11-.06-.03-.13-.06-.19-.09,2.03-3.04,3.63-6.37,4.71-9.82,.07,.01,.14,.02,.22,.02,.77,0,1.4-.62,1.4-1.4,0-.59-.37-1.09-.88-1.29,.44-1.87,.72-3.75,.86-5.64,1.12,.28,2.16,.75,3.08,1.38-.08-.02-.17-.03-.26-.03-.77,0-1.4,.62-1.4,1.4s.62,1.4,1.4,1.4,1.4-.62,1.4-1.4c0-.2-.04-.39-.12-.57,1.05,.95,1.88,2.12,2.43,3.45-.53,.2-.91,.7-.91,1.3,0,.77,.62,1.4,1.4,1.4,.07,0,.13-.01,.2-.02,.03,.34,.06,.68,.06,1.03,0,5.31-4.32,9.63-9.63,9.63h0Zm4.88,7.54c-.62,.14-1.09,.69-1.09,1.36,0,.57,.34,1.06,.83,1.28-.41,1.27-1.21,2.37-2.25,3.15,.01-.08,.02-.16,.02-.24,0-.77-.62-1.4-1.4-1.4s-1.4,.62-1.4,1.4c0,.55,.32,1.01,.77,1.24-.57,.17-1.17,.26-1.79,.26-3.49,0-6.34-2.84-6.34-6.34,0-.75,.14-1.47,.38-2.14,.77,0,1.39-.63,1.39-1.39,0-.24-.07-.46-.17-.66,1.16-1.31,2.85-2.14,4.74-2.14,3.25,0,5.94,2.46,6.29,5.62h0Zm-6.79,17.55c-.22-.49-.71-.84-1.28-.84-.77,0-1.4,.62-1.4,1.4,0,.43,.2,.82,.51,1.07-.7,.3-1.46,.47-2.27,.47-1.47,0-2.82-.56-3.83-1.48,0-.02,.01-.03,.01-.06,0-.69-.51-1.26-1.17-1.37-.48-.84-.75-1.8-.75-2.83s.27-1.97,.73-2.8c.67-.1,1.19-.67,1.19-1.37,0-.04,0-.06-.02-.08,1.02-.92,2.36-1.49,3.84-1.49,.81,0,1.59,.17,2.29,.48-.32,.26-.53,.65-.53,1.09,0,.77,.62,1.4,1.4,1.4,.58,0,1.08-.35,1.29-.85,.81,.99,1.3,2.25,1.3,3.63s-.49,2.65-1.31,3.64h0Zm-3.15-24.28l-.04,.02,.02-.03h.02Zm-19.09,9.64c-11.1,0-24.66-14.65-24.66-31.75,0-.5,0-1.07,.03-1.7h3.32c.49,4.88,4.61,8.69,9.62,8.69s9.13-3.81,9.62-8.69h3.53c.49,4.88,4.61,8.69,9.62,8.69s9.13-3.81,9.62-8.69h3.89c.04,.81,.05,1.39,.05,1.7,0,17.1-13.55,31.75-24.65,31.75h0Zm-29.07-42.02c.68-.1,1.2-.67,1.2-1.38,0-.77-.62-1.4-1.4-1.4-.15,0-.29,.03-.43,.07-.34-1.85-.52-3.75-.52-5.66,0-.12,0-.24,0-.36,.25,.23,.57,.37,.93,.37,.77,0,1.4-.62,1.4-1.4s-.62-1.4-1.4-1.4c-.31,0-.6,.11-.83,.28,.16-2.02,.52-3.99,1.05-5.89,.67-.1,1.18-.68,1.18-1.37,0-.39-.16-.74-.42-1,3.25-8.79,10.36-15.72,19.27-18.73,.2,.12,.44,.19,.69,.19,.55,0,1.02-.32,1.24-.78,1.86-.5,3.8-.82,5.78-.96-.03,.11-.05,.22-.05,.34,0,.77,.62,1.4,1.4,1.4s1.4-.62,1.4-1.4c0-.15-.03-.28-.07-.42,1.94,.03,3.83,.23,5.67,.6,.09,.68,.67,1.22,1.38,1.22,.47,0,.89-.24,1.14-.59,9.43,2.73,17.03,9.81,20.48,18.92-.2-.12-.44-.19-.69-.19-.77,0-1.4,.62-1.4,1.4s.62,1.4,1.4,1.4c.58,0,1.08-.36,1.29-.87,.91,2.92,1.4,6.02,1.4,9.23,0,6.28-1.91,12.42-5.43,17.56-.04-1.15-.15-3.02-.45-5.42,.24-.25,.4-.59,.4-.97,0-.52-.28-.96-.7-1.2-.05-.31-.1-.64-.16-.96-.16-.93-.99-1.61-1.92-1.57h0c-.36,.01-.87,.03-1.49,.03,.06-.15,.09-.31,.09-.48,0-.77-.62-1.4-1.4-1.4s-1.4,.62-1.4,1.4c0,.16,.03,.31,.08,.46-1.65-.04-3.62-.15-5.67-.39,0-.02,0-.04,0-.07,0-.77-.62-1.4-1.4-1.4-.66,0-1.21,.46-1.35,1.07-1.01-.17-2.03-.38-3.01-.64-2.42-.62-4.78-1.46-7.03-2.45,.15-.22,.23-.49,.23-.77,0-.77-.62-1.4-1.4-1.4-.63,0-1.16,.42-1.33,1-6.01-3.01-11.11-6.95-14.46-10.32-.36-.36-.86-.56-1.37-.55-.52,.01-1.01,.24-1.36,.63-2.56,2.84-4.32,6.27-5.53,9.76-.26-.31-.64-.51-1.07-.51-.77,0-1.4,.62-1.4,1.4s.62,1.4,1.4,1.4c.13,0,.25-.02,.37-.06-.58,2.05-.99,4.08-1.28,5.98-.29,.26-.48,.63-.48,1.05,0,.29,.09,.56,.24,.78-.12,.99-.2,1.93-.26,2.8-1.1-2.04-1.96-4.18-2.58-6.4h0Zm27.01,6.6c-.49-4.88-4.61-8.69-9.62-8.69s-9.13,3.81-9.62,8.69h-3.23c.39-5.99,1.94-15.26,7.46-21.44,4.98,4.99,13.61,11.14,23.4,14.01-2.66,1.51-4.53,4.24-4.86,7.43h-3.53Zm22.77,0c-.22-2.16-1.14-4.1-2.54-5.6,2.39,.11,4.39,.08,5.6,.04,.37,2.18,.58,4.07,.71,5.57h-3.77Zm15.04,15.35c0-5.11-3.26-9.49-7.97-11.02,4.02-5.6,6.22-12.36,6.22-19.29,0-18.24-14.84-33.08-33.08-33.08-14.6,0-27.01,9.51-31.39,22.65-.08,.15-.14,.3-.16,.48-.99,3.14-1.53,6.49-1.53,9.96,0,6.57,1.92,12.9,5.55,18.34,0,.09,0,.19,0,.28,0,8.33,3.18,16.94,8.72,23.61,5.26,6.33,11.95,10.11,17.91,10.11,4.88,0,10.26-2.55,14.94-6.95-.32,.88-.5,1.82-.5,2.8,0,2.15,.83,4.11,2.18,5.59-3.68,.58-6.51,3.76-6.51,7.6,0,4.25,3.46,7.71,7.71,7.71s7.71-3.46,7.71-7.71c0-1.88-.68-3.61-1.81-4.95,4.12-.48,7.33-3.99,7.33-8.24,0-2.8-1.4-5.28-3.53-6.78,4.76-1.44,8.24-5.87,8.24-11.1h0Z"/></g><path d="M107.21,292.87c-1.23-.56-2.17-.96-3.37-1.48-1.14-.5-2.54-.96-3.5-.19-.29,.24-.5,.56-.81,.8-.16,.12-.37,.21-.57,.23-.2-.02-.41-.1-.57-.23-.3-.23-.51-.56-.81-.8-.96-.77-2.36-.31-3.5,.19-1.2,.52-2.14,.92-3.37,1.48-.79,.39-.81,1.3-.61,1.76,.19,.47,.58,.87,.97,1.25,.97,.95,2.02,1.87,3.33,2.51,1.37,.67,2.98,.96,4.56,.88,1.58,.08,3.19-.21,4.56-.88,1.31-.64,2.37-1.56,3.33-2.51,.39-.38,.77-.78,.97-1.25,.19-.47,.18-1.37-.61-1.76h0Z"/><path d="M86.47,233.05c.77,0,1.4-.62,1.4-1.4s-.62-1.4-1.4-1.4-1.4,.62-1.4,1.4,.62,1.4,1.4,1.4h0Z"/><path d="M94.84,233.05c.77,0,1.4-.62,1.4-1.4s-.62-1.4-1.4-1.4-1.4,.62-1.4,1.4,.62,1.4,1.4,1.4h0Z"/><path d="M103.21,233.05c.77,0,1.4-.62,1.4-1.4s-.62-1.4-1.4-1.4-1.4,.62-1.4,1.4,.62,1.4,1.4,1.4h0Z"/><path d="M111.59,233.05c.77,0,1.4-.62,1.4-1.4s-.62-1.4-1.4-1.4-1.4,.62-1.4,1.4,.62,1.4,1.4,1.4h0Z"/><path d="M82.29,237.23c.77,0,1.4-.62,1.4-1.4s-.62-1.4-1.4-1.4-1.4,.62-1.4,1.4,.62,1.4,1.4,1.4h0Z"/><path d="M90.66,237.23c.77,0,1.4-.62,1.4-1.4s-.62-1.4-1.4-1.4-1.4,.62-1.4,1.4,.62,1.4,1.4,1.4h0Z"/><path d="M99.03,237.23c.77,0,1.4-.62,1.4-1.4s-.62-1.4-1.4-1.4-1.4,.62-1.4,1.4,.62,1.4,1.4,1.4h0Z"/><path d="M107.4,237.23c.77,0,1.39-.62,1.39-1.4s-.62-1.4-1.39-1.4-1.4,.62-1.4,1.4,.62,1.4,1.4,1.4h0Z"/><path d="M115.77,237.23c.77,0,1.4-.62,1.4-1.4s-.62-1.4-1.4-1.4-1.4,.62-1.4,1.4,.62,1.4,1.4,1.4h0Z"/><path d="M78.1,241.42c.77,0,1.4-.62,1.4-1.4s-.62-1.4-1.4-1.4-1.4,.62-1.4,1.4,.62,1.4,1.4,1.4h0Z"/><path d="M86.47,241.42c.77,0,1.4-.62,1.4-1.4s-.62-1.4-1.4-1.4-1.4,.62-1.4,1.4,.62,1.4,1.4,1.4h0Z"/><path d="M94.84,241.42c.77,0,1.4-.62,1.4-1.4s-.62-1.4-1.4-1.4-1.4,.62-1.4,1.4,.62,1.4,1.4,1.4h0Z"/><path d="M103.21,241.42c.77,0,1.4-.62,1.4-1.4s-.62-1.4-1.4-1.4-1.4,.62-1.4,1.4,.62,1.4,1.4,1.4h0Z"/><path d="M111.59,241.42c.77,0,1.4-.62,1.4-1.4s-.62-1.4-1.4-1.4-1.4,.62-1.4,1.4,.62,1.4,1.4,1.4h0Z"/><path d="M119.96,241.42c.77,0,1.4-.62,1.4-1.4s-.62-1.4-1.4-1.4-1.4,.62-1.4,1.4,.62,1.4,1.4,1.4h0Z"/><path d="M78.1,249.79c.77,0,1.4-.62,1.4-1.4s-.62-1.4-1.4-1.4-1.4,.62-1.4,1.4,.62,1.4,1.4,1.4h0Z"/><path d="M86.47,249.79c.77,0,1.4-.62,1.4-1.4s-.62-1.4-1.4-1.4-1.4,.62-1.4,1.4,.62,1.4,1.4,1.4h0Z"/><path d="M94.84,249.79c.77,0,1.4-.62,1.4-1.4s-.62-1.4-1.4-1.4-1.4,.62-1.4,1.4,.62,1.4,1.4,1.4h0Z"/><path d="M103.21,249.79c.77,0,1.4-.62,1.4-1.4s-.62-1.4-1.4-1.4-1.4,.62-1.4,1.4,.62,1.4,1.4,1.4h0Z"/><path d="M111.59,249.79c.77,0,1.4-.62,1.4-1.4s-.62-1.4-1.4-1.4-1.4,.62-1.4,1.4,.62,1.4,1.4,1.4h0Z"/><path d="M119.96,249.79c.77,0,1.4-.62,1.4-1.4s-.62-1.4-1.4-1.4-1.4,.62-1.4,1.4,.62,1.4,1.4,1.4h0Z"/><path d="M73.91,245.6c.77,0,1.4-.62,1.4-1.4s-.62-1.4-1.4-1.4-1.4,.62-1.4,1.4,.62,1.4,1.4,1.4h0Z"/><path d="M82.29,245.6c.77,0,1.4-.62,1.4-1.4s-.62-1.4-1.4-1.4-1.4,.62-1.4,1.4,.62,1.4,1.4,1.4h0Z"/><path d="M90.66,245.6c.77,0,1.4-.62,1.4-1.4s-.62-1.4-1.4-1.4-1.4,.62-1.4,1.4,.62,1.4,1.4,1.4h0Z"/><path d="M99.03,245.6c.77,0,1.4-.62,1.4-1.4s-.62-1.4-1.4-1.4-1.4,.62-1.4,1.4,.62,1.4,1.4,1.4h0Z"/><path d="M107.4,245.6c.77,0,1.39-.62,1.39-1.4s-.62-1.4-1.39-1.4-1.4,.62-1.4,1.4,.62,1.4,1.4,1.4h0Z"/><path d="M115.77,245.6c.77,0,1.4-.62,1.4-1.4s-.62-1.4-1.4-1.4-1.4,.62-1.4,1.4,.62,1.4,1.4,1.4h0Z"/><path d="M124.14,245.6c.77,0,1.4-.62,1.4-1.4s-.62-1.4-1.4-1.4-1.4,.62-1.4,1.4,.62,1.4,1.4,1.4h0Z"/><path d="M73.91,253.97c.77,0,1.4-.62,1.4-1.4s-.62-1.4-1.4-1.4-1.4,.62-1.4,1.4,.62,1.4,1.4,1.4h0Z"/><path d="M90.66,253.97c.77,0,1.4-.62,1.4-1.4s-.62-1.4-1.4-1.4-1.4,.62-1.4,1.4,.62,1.4,1.4,1.4h0Z"/><path d="M99.03,253.97c.77,0,1.4-.62,1.4-1.4s-.62-1.4-1.4-1.4-1.4,.62-1.4,1.4,.62,1.4,1.4,1.4h0Z"/><path d="M107.4,253.97c.77,0,1.39-.62,1.39-1.4s-.62-1.4-1.39-1.4-1.4,.62-1.4,1.4,.62,1.4,1.4,1.4h0Z"/><path d="M115.77,253.97c.77,0,1.4-.62,1.4-1.4s-.62-1.4-1.4-1.4-1.4,.62-1.4,1.4,.62,1.4,1.4,1.4h0Z"/><path d="M124.14,253.97c.77,0,1.4-.62,1.4-1.4s-.62-1.4-1.4-1.4-1.4,.62-1.4,1.4,.62,1.4,1.4,1.4h0Z"/><path d="M94.84,258.16c.77,0,1.4-.62,1.4-1.4s-.62-1.4-1.4-1.4-1.4,.62-1.4,1.4,.62,1.4,1.4,1.4h0Z"/><path d="M103.21,258.16c.77,0,1.4-.62,1.4-1.4s-.62-1.4-1.4-1.4-1.4,.62-1.4,1.4,.62,1.4,1.4,1.4h0Z"/><path d="M111.59,258.16c.77,0,1.4-.62,1.4-1.4s-.62-1.4-1.4-1.4-1.4,.62-1.4,1.4,.62,1.4,1.4,1.4h0Z"/><path d="M119.96,258.16c.77,0,1.4-.62,1.4-1.4s-.62-1.4-1.4-1.4-1.4,.62-1.4,1.4,.62,1.4,1.4,1.4h0Z"/><path d="M128.33,258.16c.77,0,1.4-.62,1.4-1.4s-.62-1.4-1.4-1.4-1.4,.62-1.4,1.4,.62,1.4,1.4,1.4h0Z"/><path d="M128.33,266.53c.77,0,1.4-.62,1.4-1.4s-.62-1.4-1.4-1.4-1.4,.62-1.4,1.4,.62,1.4,1.4,1.4h0Z"/><path d="M107.4,262.35c.77,0,1.39-.62,1.39-1.4s-.62-1.4-1.39-1.4-1.4,.62-1.4,1.4,.62,1.4,1.4,1.4h0Z"/><path d="M115.77,262.35c.77,0,1.4-.62,1.4-1.4s-.62-1.4-1.4-1.4-1.4,.62-1.4,1.4,.62,1.4,1.4,1.4h0Z"/><path d="M124.14,262.35c.77,0,1.4-.62,1.4-1.4s-.62-1.4-1.4-1.4-1.4,.62-1.4,1.4,.62,1.4,1.4,1.4h0Z"/><path d="M128.33,288.86c-.77,0-1.4,.62-1.4,1.4s.62,1.4,1.4,1.4,1.4-.62,1.4-1.4-.62-1.4-1.4-1.4h0Z"/><path d="M124.14,293.04c-.77,0-1.4,.62-1.4,1.4s.62,1.4,1.4,1.4,1.4-.62,1.4-1.4-.62-1.4-1.4-1.4h0Z"/><path d="M124.14,301.41c-.77,0-1.4,.62-1.4,1.4s.62,1.4,1.4,1.4,1.4-.62,1.4-1.4-.62-1.4-1.4-1.4h0Z"/><path d="M119.96,305.6c-.77,0-1.4,.62-1.4,1.4s.62,1.4,1.4,1.4,1.4-.62,1.4-1.4-.62-1.4-1.4-1.4h0Z"/><path d="M115.77,318.16c-.77,0-1.4,.62-1.4,1.4s.62,1.4,1.4,1.4,1.4-.62,1.4-1.4-.62-1.4-1.4-1.4h0Z"/></g><g><g class="n"><path d="M224.88,308.72c-3.81,0-5.72-2.56-5.8-2.67l-.82,.59-.82,.58c.1,.14,2.56,3.51,7.44,3.51,3.9,0,7.19-3.24,7.33-3.38l-1.42-1.42s-2.85,2.79-5.91,2.79h0Z"/><path d="M257.14,258.26c-2.56,2.15-5.93,3.43-9.64,4.07-.25-.2-.56-.33-.9-.33-.49,0-.92,.25-1.18,.62-1.99,.22-4.05,.27-6.11,.19-.23-.48-.71-.81-1.28-.81-.5,0-.94,.26-1.19,.65-2.63-.23-5.21-.66-7.58-1.21-1.28-.3-2.51-.61-3.7-.92,.61-.16,1.06-.71,1.06-1.37,0-.79-.64-1.43-1.43-1.43s-1.43,.64-1.43,1.43c0,.39,.16,.75,.41,1-2.37-.65-4.55-1.32-6.51-1.97-.26-.28-.63-.46-1.04-.46-.08,0-.16,.01-.24,.02-1.46-.5-2.78-.99-3.97-1.46,.75-.04,1.36-.66,1.36-1.42s-.64-1.43-1.43-1.43-1.43,.64-1.43,1.43c0,.38,.15,.73,.4,.98-2.32-.94-4.04-1.73-5.08-2.24-.51-.25-1.12-.23-1.62,.05-.01,0-.02,.02-.03,.02-.23-.15-.5-.24-.8-.24-.79,0-1.43,.64-1.43,1.43,0,.71,.52,1.3,1.21,1.41-.41,1.94-1.55,4.55-4.64,6.26-2.05,1.13-3.44,2.74-4.4,4.37v-2.22c.21,.12,.44,.19,.69,.19,.79,0,1.43-.64,1.43-1.43s-.64-1.43-1.43-1.43c-.25,0-.49,.07-.69,.19v-6.08c.21,.12,.44,.19,.69,.19,.79,0,1.43-.64,1.43-1.43s-.64-1.43-1.43-1.43c-.25,0-.49,.07-.69,.19v-6.08c.21,.12,.44,.19,.69,.19,.79,0,1.43-.64,1.43-1.43s-.64-1.43-1.43-1.43c-.25,0-.49,.07-.69,.19v-.02c0-2.51,.69-4.38,2.04-5.56,1.48-1.29,3.57-1.63,5.33-1.63,.16,0,.32,0,.48,0,.06,.73,.67,1.31,1.42,1.31s1.39-.61,1.42-1.38c.2-.1,.38-.22,.54-.38,.47-.46,.7-1.09,.63-1.74-.13-1.22-.02-3,1.24-4.55,.78-.96,1.9-1.72,3.36-2.29-.03,.11-.05,.23-.05,.35,0,.79,.64,1.43,1.43,1.43s1.43-.64,1.43-1.43c0-.41-.18-.78-.46-1.04,.79-.17,1.64-.3,2.56-.39,3.21-.32,11.68-.93,20.9,.17,.17,.02,.33,.04,.49,.06-.4,.25-.66,.7-.66,1.2,0,.79,.64,1.43,1.43,1.43s1.43-.64,1.43-1.43c0-.37-.14-.7-.37-.95,2.18,.33,4.22,.74,6.11,1.23,.13,.65,.71,1.15,1.4,1.15,.41,0,.77-.17,1.04-.45,3.89,1.24,7.03,2.88,9.39,4.89,3.11,2.66,4.8,6,5.03,9.94,.34,5.78-1.32,10.25-4.91,13.27h0Zm-13.21,58.82c-5.28,5.33-11.72,8.15-18.64,8.15-7.46,0-14.99-4.04-20.66-11.07-6-7.45-9.51-17.58-9.88-28.5l-.15-8.61h2.16c-.54,5.37,.05,14.94,10.85,16.02,14.42,1.45,15.32-10.21,15.32-11.02s1.18-2.46,2.52-2.46h0c1.34,0,2.52,1.65,2.52,2.46s.9,12.47,15.32,11.02c10.79-1.09,11.38-10.65,10.85-16.02h2c-.11,4.54-.42,13.58-1.28,18-1.76,8.99-5.53,16.61-10.89,22.03h0Zm-49.41-43.74c.04-.5,.65-6.46,5.37-9.05,4.5-2.48,5.57-6.65,5.82-8.7,3.24,1.55,11.32,5.07,23.1,7.81,4.29,1,18.13,3.58,27.36-1.98l-.02,11.94h-4.58c-6.45-.23-15.95-.43-19.03,1.2-2.96,1.57-6.18,1.71-6.95,1.71h-.35c-.77,0-3.99-.14-6.95-1.71-3.07-1.63-12.58-1.43-19.03-1.2h-4.75Zm69.54-28.49c-.26-4.51-2.19-8.33-5.73-11.35-12.2-10.43-39.57-8.08-42.65-7.78-4.54,.45-7.78,1.83-9.63,4.11-1.7,2.09-1.85,4.44-1.68,6.04,0,.01,0,.05-.03,.08-.02,.02-.06,.04-.11,.03-2.18-.3-6.26-.43-9,1.96-1.81,1.58-2.73,3.96-2.73,7.08v28.29l.22,12.38c.39,11.37,4.05,21.93,10.33,29.71,6.05,7.51,14.16,11.82,22.23,11.82,7.47,0,14.4-3.03,20.07-8.75,5.64-5.7,9.59-13.67,11.43-23.06,1.21-6.2,1.37-20.5,1.37-21.11l.02-14.32c.09-.07,.17-.14,.25-.21,4.1-3.46,5.99-8.48,5.62-14.93h0Z"/></g><path d="M220.91,227.74c-.79,0-1.43,.64-1.43,1.43s.64,1.43,1.43,1.43,1.43-.64,1.43-1.43-.64-1.43-1.43-1.43h0Z"/><path d="M229.47,227.74c-.79,0-1.43,.64-1.43,1.43s.64,1.43,1.43,1.43,1.43-.64,1.43-1.43-.64-1.43-1.43-1.43h0Z"/><path d="M212.34,236.31c-.79,0-1.43,.64-1.43,1.43s.64,1.43,1.43,1.43,1.43-.64,1.43-1.43-.64-1.43-1.43-1.43h0Z"/><path d="M220.91,236.31c-.79,0-1.43,.64-1.43,1.43s.64,1.43,1.43,1.43,1.43-.64,1.43-1.43-.64-1.43-1.43-1.43h0Z"/><path d="M229.47,236.31c-.79,0-1.43,.64-1.43,1.43s.64,1.43,1.43,1.43,1.43-.64,1.43-1.43-.64-1.43-1.43-1.43h0Z"/><path d="M238.04,236.31c-.79,0-1.43,.64-1.43,1.43s.64,1.43,1.43,1.43,1.43-.64,1.43-1.43-.64-1.43-1.43-1.43h0Z"/><path d="M246.6,236.31c-.79,0-1.43,.64-1.43,1.43s.64,1.43,1.43,1.43,1.43-.64,1.43-1.43-.64-1.43-1.43-1.43h0Z"/><path d="M255.17,236.31c-.79,0-1.43,.64-1.43,1.43s.64,1.43,1.43,1.43,1.43-.64,1.43-1.43-.64-1.43-1.43-1.43h0Z"/><path d="M208.06,232.02c-.79,0-1.43,.64-1.43,1.43s.64,1.43,1.43,1.43,1.43-.64,1.43-1.43-.64-1.43-1.43-1.43h0Z"/><path d="M216.63,232.02c-.79,0-1.43,.64-1.43,1.43s.64,1.43,1.43,1.43,1.43-.64,1.43-1.43-.64-1.43-1.43-1.43h0Z"/><path d="M225.19,232.02c-.79,0-1.43,.64-1.43,1.43s.64,1.43,1.43,1.43,1.43-.64,1.43-1.43-.64-1.43-1.43-1.43h0Z"/><path d="M233.76,232.02c-.79,0-1.43,.64-1.43,1.43s.64,1.43,1.43,1.43,1.43-.64,1.43-1.43-.64-1.43-1.43-1.43h0Z"/><path d="M242.32,232.02c-.79,0-1.43,.64-1.43,1.43s.64,1.43,1.43,1.43,1.43-.64,1.43-1.43-.64-1.43-1.43-1.43h0Z"/><path d="M250.89,232.02c-.79,0-1.43,.64-1.43,1.43s.64,1.43,1.43,1.43,1.43-.64,1.43-1.43-.64-1.43-1.43-1.43h0Z"/><path d="M199.5,240.59c-.79,0-1.43,.64-1.43,1.43s.64,1.43,1.43,1.43,1.43-.64,1.43-1.43-.64-1.43-1.43-1.43h0Z"/><path d="M208.06,240.59c-.79,0-1.43,.64-1.43,1.43s.64,1.43,1.43,1.43,1.43-.64,1.43-1.43-.64-1.43-1.43-1.43h0Z"/><path d="M216.63,240.59c-.79,0-1.43,.64-1.43,1.43s.64,1.43,1.43,1.43,1.43-.64,1.43-1.43-.64-1.43-1.43-1.43h0Z"/><path d="M225.19,240.59c-.79,0-1.43,.64-1.43,1.43s.64,1.43,1.43,1.43,1.43-.64,1.43-1.43-.64-1.43-1.43-1.43h0Z"/><path d="M233.76,240.59c-.79,0-1.43,.64-1.43,1.43s.64,1.43,1.43,1.43,1.43-.64,1.43-1.43-.64-1.43-1.43-1.43h0Z"/><path d="M242.32,240.59c-.79,0-1.43,.64-1.43,1.43s.64,1.43,1.43,1.43,1.43-.64,1.43-1.43-.64-1.43-1.43-1.43h0Z"/><path d="M250.89,240.59c-.79,0-1.43,.64-1.43,1.43s.64,1.43,1.43,1.43,1.43-.64,1.43-1.43-.64-1.43-1.43-1.43h0Z"/><path d="M259.45,240.59c-.79,0-1.43,.64-1.43,1.43s.64,1.43,1.43,1.43,1.43-.64,1.43-1.43-.64-1.43-1.43-1.43h0Z"/><path d="M203.78,244.87c-.79,0-1.43,.64-1.43,1.43s.64,1.43,1.43,1.43,1.43-.64,1.43-1.43-.64-1.43-1.43-1.43h0Z"/><path d="M212.34,244.87c-.79,0-1.43,.64-1.43,1.43s.64,1.43,1.43,1.43,1.43-.64,1.43-1.43-.64-1.43-1.43-1.43h0Z"/><path d="M220.91,244.87c-.79,0-1.43,.64-1.43,1.43s.64,1.43,1.43,1.43,1.43-.64,1.43-1.43-.64-1.43-1.43-1.43h0Z"/><path d="M229.47,244.87c-.79,0-1.43,.64-1.43,1.43s.64,1.43,1.43,1.43,1.43-.64,1.43-1.43-.64-1.43-1.43-1.43h0Z"/><path d="M238.04,244.87c-.79,0-1.43,.64-1.43,1.43s.64,1.43,1.43,1.43,1.43-.64,1.43-1.43-.64-1.43-1.43-1.43h0Z"/><path d="M246.6,244.87c-.79,0-1.43,.64-1.43,1.43s.64,1.43,1.43,1.43,1.43-.64,1.43-1.43-.64-1.43-1.43-1.43h0Z"/><path d="M255.17,244.87c-.79,0-1.43,.64-1.43,1.43s.64,1.43,1.43,1.43,1.43-.64,1.43-1.43-.64-1.43-1.43-1.43h0Z"/><path d="M220.91,253.44c-.79,0-1.43,.64-1.43,1.43s.64,1.43,1.43,1.43,1.43-.64,1.43-1.43-.64-1.43-1.43-1.43h0Z"/><path d="M229.47,253.44c-.79,0-1.43,.64-1.43,1.43s.64,1.43,1.43,1.43,1.43-.64,1.43-1.43-.64-1.43-1.43-1.43h0Z"/><path d="M238.04,253.44c-.79,0-1.43,.64-1.43,1.43s.64,1.43,1.43,1.43,1.43-.64,1.43-1.43-.64-1.43-1.43-1.43h0Z"/><path d="M246.6,253.44c-.79,0-1.43,.64-1.43,1.43s.64,1.43,1.43,1.43,1.43-.64,1.43-1.43-.64-1.43-1.43-1.43h0Z"/><path d="M255.17,253.44c-.79,0-1.43,.64-1.43,1.43s.64,1.43,1.43,1.43,1.43-.64,1.43-1.43-.64-1.43-1.43-1.43h0Z"/><path d="M199.5,249.15c-.79,0-1.43,.64-1.43,1.43s.64,1.43,1.43,1.43,1.43-.64,1.43-1.43-.64-1.43-1.43-1.43h0Z"/><path d="M208.06,249.15c-.79,0-1.43,.64-1.43,1.43s.64,1.43,1.43,1.43,1.43-.64,1.43-1.43-.64-1.43-1.43-1.43h0Z"/><path d="M216.63,249.15c-.79,0-1.43,.64-1.43,1.43s.64,1.43,1.43,1.43,1.43-.64,1.43-1.43-.64-1.43-1.43-1.43h0Z"/><path d="M225.19,249.15c-.79,0-1.43,.64-1.43,1.43s.64,1.43,1.43,1.43,1.43-.64,1.43-1.43-.64-1.43-1.43-1.43h0Z"/><path d="M233.76,249.15c-.79,0-1.43,.64-1.43,1.43s.64,1.43,1.43,1.43,1.43-.64,1.43-1.43-.64-1.43-1.43-1.43h0Z"/><path d="M242.32,249.15c-.79,0-1.43,.64-1.43,1.43s.64,1.43,1.43,1.43,1.43-.64,1.43-1.43-.64-1.43-1.43-1.43h0Z"/><path d="M250.89,249.15c-.79,0-1.43,.64-1.43,1.43s.64,1.43,1.43,1.43,1.43-.64,1.43-1.43-.64-1.43-1.43-1.43h0Z"/><path d="M259.45,249.15c-.79,0-1.43,.64-1.43,1.43s.64,1.43,1.43,1.43,1.43-.64,1.43-1.43-.64-1.43-1.43-1.43h0Z"/><path d="M199.5,257.72c-.79,0-1.43,.64-1.43,1.43s.64,1.43,1.43,1.43,1.43-.64,1.43-1.43-.64-1.43-1.43-1.43h0Z"/><path d="M233.76,257.72c-.79,0-1.43,.64-1.43,1.43s.64,1.43,1.43,1.43,1.43-.64,1.43-1.43-.64-1.43-1.43-1.43h0Z"/><path d="M242.32,257.72c-.79,0-1.43,.64-1.43,1.43s.64,1.43,1.43,1.43,1.43-.64,1.43-1.43-.64-1.43-1.43-1.43h0Z"/><path d="M250.89,257.72c-.79,0-1.43,.64-1.43,1.43s.64,1.43,1.43,1.43,1.43-.64,1.43-1.43-.64-1.43-1.43-1.43h0Z"/></g><g><g class="p"><path d="M123.14,73.03c-.68,0-1.35-.07-2.01-.21-.25-.39-.68-.66-1.18-.66-.2,0-.38,.04-.55,.11-.06-.03-.13-.06-.19-.09,2.03-3.04,3.63-6.37,4.71-9.82,.07,.01,.14,.02,.22,.02,.77,0,1.4-.62,1.4-1.4,0-.59-.37-1.09-.88-1.29,.44-1.87,.72-3.75,.86-5.64,1.12,.28,2.16,.75,3.08,1.38-.08-.02-.17-.03-.26-.03-.77,0-1.4,.62-1.4,1.4s.62,1.4,1.4,1.4,1.4-.62,1.4-1.4c0-.2-.04-.39-.12-.57,1.05,.95,1.88,2.12,2.43,3.45-.53,.2-.91,.7-.91,1.3,0,.77,.62,1.4,1.4,1.4,.07,0,.13-.01,.2-.02,.03,.34,.06,.68,.06,1.03,0,5.31-4.32,9.63-9.63,9.63h0Zm4.88,7.54c-.62,.14-1.09,.69-1.09,1.36,0,.57,.34,1.06,.83,1.28-.41,1.27-1.21,2.37-2.25,3.15,.01-.08,.02-.16,.02-.24,0-.77-.62-1.4-1.4-1.4s-1.4,.62-1.4,1.4c0,.55,.32,1.01,.77,1.24-.57,.17-1.17,.26-1.79,.26-3.49,0-6.34-2.84-6.34-6.34,0-.75,.14-1.47,.38-2.14,.77,0,1.39-.63,1.39-1.39,0-.24-.07-.46-.17-.66,1.16-1.31,2.85-2.14,4.74-2.14,3.25,0,5.94,2.46,6.29,5.62h0Zm-6.79,17.55c-.22-.49-.71-.84-1.28-.84-.77,0-1.4,.62-1.4,1.4,0,.43,.2,.82,.51,1.07-.7,.3-1.46,.47-2.27,.47-1.47,0-2.82-.56-3.83-1.48,0-.02,.01-.03,.01-.06,0-.69-.51-1.26-1.17-1.37-.48-.84-.75-1.8-.75-2.83s.27-1.97,.73-2.8c.67-.1,1.19-.67,1.19-1.37,0-.04,0-.06-.02-.08,1.02-.92,2.36-1.49,3.84-1.49,.81,0,1.59,.17,2.29,.48-.32,.26-.53,.65-.53,1.09,0,.77,.62,1.4,1.4,1.4,.58,0,1.08-.35,1.29-.85,.81,.99,1.3,2.25,1.3,3.63s-.49,2.65-1.31,3.64h0Zm-3.15-24.28l-.04,.02,.02-.03h.02Zm-19.09,9.64c-11.1,0-24.66-14.65-24.66-31.75,0-.5,0-1.07,.03-1.7h3.32c.49,4.88,4.61,8.69,9.62,8.69s9.13-3.81,9.62-8.69h3.53c.49,4.88,4.61,8.69,9.62,8.69s9.13-3.81,9.62-8.69h3.89c.04,.81,.05,1.39,.05,1.7,0,17.1-13.55,31.75-24.65,31.75h0Zm-29.07-42.02c.68-.1,1.2-.67,1.2-1.38,0-.77-.62-1.4-1.4-1.4-.15,0-.29,.03-.43,.07-.34-1.85-.52-3.75-.52-5.66,0-.12,0-.24,0-.36,.25,.23,.57,.37,.93,.37,.77,0,1.4-.62,1.4-1.4s-.62-1.4-1.4-1.4c-.31,0-.6,.11-.83,.28,.16-2.02,.52-3.99,1.05-5.89,.67-.1,1.18-.68,1.18-1.37,0-.39-.16-.74-.42-1,3.25-8.79,10.36-15.72,19.27-18.73,.2,.12,.44,.19,.69,.19,.55,0,1.02-.32,1.24-.78,1.86-.5,3.8-.82,5.78-.96-.03,.11-.05,.22-.05,.34,0,.77,.62,1.4,1.4,1.4s1.4-.62,1.4-1.4c0-.15-.03-.28-.07-.42,1.94,.03,3.83,.23,5.67,.6,.09,.68,.67,1.22,1.38,1.22,.47,0,.89-.24,1.14-.59,9.43,2.73,17.03,9.81,20.48,18.92-.2-.12-.44-.19-.69-.19-.77,0-1.4,.62-1.4,1.4s.62,1.4,1.4,1.4c.58,0,1.08-.36,1.29-.87,.91,2.92,1.4,6.02,1.4,9.23,0,6.28-1.91,12.42-5.43,17.56-.04-1.15-.15-3.02-.45-5.42,.24-.25,.4-.59,.4-.97,0-.52-.28-.96-.7-1.2-.05-.31-.1-.64-.16-.96-.16-.93-.99-1.61-1.92-1.57h0c-.36,.01-.87,.03-1.49,.03,.06-.15,.09-.31,.09-.48,0-.77-.62-1.4-1.4-1.4s-1.4,.62-1.4,1.4c0,.16,.03,.31,.08,.46-1.65-.04-3.62-.15-5.67-.39,0-.02,0-.04,0-.07,0-.77-.62-1.4-1.4-1.4-.66,0-1.21,.46-1.35,1.07-1.01-.17-2.03-.38-3.01-.64-2.42-.62-4.78-1.46-7.03-2.45,.15-.22,.23-.49,.23-.77,0-.77-.62-1.4-1.4-1.4-.63,0-1.16,.42-1.33,1-6.01-3.01-11.11-6.95-14.46-10.32-.36-.36-.86-.56-1.37-.55-.52,.01-1.01,.24-1.36,.63-2.56,2.84-4.32,6.27-5.53,9.76-.26-.31-.64-.51-1.07-.51-.77,0-1.4,.62-1.4,1.4s.62,1.4,1.4,1.4c.13,0,.25-.02,.37-.06-.58,2.05-.99,4.08-1.28,5.98-.29,.26-.48,.63-.48,1.05,0,.29,.09,.56,.24,.78-.12,.99-.2,1.93-.26,2.8-1.1-2.04-1.96-4.18-2.58-6.4h0Zm27.01,6.6c-.49-4.88-4.61-8.69-9.62-8.69s-9.13,3.81-9.62,8.69h-3.23c.39-5.99,1.94-15.26,7.46-21.44,4.98,4.99,13.61,11.14,23.4,14.01-2.66,1.51-4.53,4.24-4.86,7.43h-3.53Zm22.77,0c-.22-2.16-1.14-4.1-2.54-5.6,2.39,.11,4.39,.08,5.6,.04,.37,2.18,.58,4.07,.71,5.57h-3.77Zm15.04,15.35c0-5.11-3.26-9.49-7.97-11.02,4.02-5.6,6.22-12.36,6.22-19.29C132.98,14.84,118.14,0,99.9,0,85.31,0,72.9,9.51,68.51,22.65c-.08,.15-.14,.3-.16,.48-.99,3.14-1.53,6.49-1.53,9.96,0,6.57,1.92,12.9,5.55,18.34,0,.09,0,.19,0,.28,0,8.33,3.18,16.94,8.72,23.61,5.26,6.33,11.95,10.11,17.91,10.11,4.88,0,10.26-2.55,14.94-6.95-.32,.88-.5,1.82-.5,2.8,0,2.15,.83,4.11,2.18,5.59-3.68,.58-6.51,3.76-6.51,7.6,0,4.25,3.46,7.71,7.71,7.71s7.71-3.46,7.71-7.71c0-1.88-.68-3.61-1.81-4.95,4.12-.48,7.33-3.99,7.33-8.24,0-2.8-1.4-5.28-3.53-6.78,4.76-1.44,8.24-5.87,8.24-11.1h0Z"/></g><path d="M107.21,67.8c-1.23-.56-2.17-.96-3.37-1.48-1.14-.5-2.54-.96-3.5-.19-.29,.24-.5,.56-.81,.8-.16,.12-.37,.21-.57,.23-.2-.02-.41-.1-.57-.23-.3-.23-.51-.56-.81-.8-.96-.77-2.36-.31-3.5,.19-1.2,.52-2.14,.92-3.37,1.48-.79,.39-.81,1.3-.61,1.76,.19,.47,.58,.87,.97,1.25,.97,.95,2.02,1.87,3.33,2.51,1.37,.67,2.98,.96,4.56,.88,1.58,.08,3.19-.21,4.56-.88,1.31-.64,2.37-1.56,3.33-2.51,.39-.38,.77-.78,.97-1.25,.19-.47,.18-1.37-.61-1.76h0Z"/><path d="M86.47,7.98c.77,0,1.4-.62,1.4-1.4s-.62-1.4-1.4-1.4-1.4,.62-1.4,1.4,.62,1.4,1.4,1.4h0Z"/><path d="M94.84,7.98c.77,0,1.4-.62,1.4-1.4s-.62-1.4-1.4-1.4-1.4,.62-1.4,1.4,.62,1.4,1.4,1.4h0Z"/><path d="M103.21,7.98c.77,0,1.4-.62,1.4-1.4s-.62-1.4-1.4-1.4-1.4,.62-1.4,1.4,.62,1.4,1.4,1.4h0Z"/><path d="M111.59,7.98c.77,0,1.4-.62,1.4-1.4s-.62-1.4-1.4-1.4-1.4,.62-1.4,1.4,.62,1.4,1.4,1.4h0Z"/><path d="M82.29,12.16c.77,0,1.4-.62,1.4-1.4s-.62-1.4-1.4-1.4-1.4,.62-1.4,1.4,.62,1.4,1.4,1.4h0Z"/><path d="M90.66,12.16c.77,0,1.4-.62,1.4-1.4s-.62-1.4-1.4-1.4-1.4,.62-1.4,1.4,.62,1.4,1.4,1.4h0Z"/><path d="M99.03,12.16c.77,0,1.4-.62,1.4-1.4s-.62-1.4-1.4-1.4-1.4,.62-1.4,1.4,.62,1.4,1.4,1.4h0Z"/><path d="M107.4,12.16c.77,0,1.39-.62,1.39-1.4s-.62-1.4-1.39-1.4-1.4,.62-1.4,1.4,.62,1.4,1.4,1.4h0Z"/><path d="M115.77,12.16c.77,0,1.4-.62,1.4-1.4s-.62-1.4-1.4-1.4-1.4,.62-1.4,1.4,.62,1.4,1.4,1.4h0Z"/><path d="M78.1,16.35c.77,0,1.4-.62,1.4-1.4s-.62-1.4-1.4-1.4-1.4,.62-1.4,1.4,.62,1.4,1.4,1.4h0Z"/><path d="M86.47,16.35c.77,0,1.4-.62,1.4-1.4s-.62-1.4-1.4-1.4-1.4,.62-1.4,1.4,.62,1.4,1.4,1.4h0Z"/><path d="M94.84,16.35c.77,0,1.4-.62,1.4-1.4s-.62-1.4-1.4-1.4-1.4,.62-1.4,1.4,.62,1.4,1.4,1.4h0Z"/><path d="M103.21,16.35c.77,0,1.4-.62,1.4-1.4s-.62-1.4-1.4-1.4-1.4,.62-1.4,1.4,.62,1.4,1.4,1.4h0Z"/><path d="M111.59,16.35c.77,0,1.4-.62,1.4-1.4s-.62-1.4-1.4-1.4-1.4,.62-1.4,1.4,.62,1.4,1.4,1.4h0Z"/><path d="M119.96,16.35c.77,0,1.4-.62,1.4-1.4s-.62-1.4-1.4-1.4-1.4,.62-1.4,1.4,.62,1.4,1.4,1.4h0Z"/><path d="M78.1,24.72c.77,0,1.4-.62,1.4-1.4s-.62-1.4-1.4-1.4-1.4,.62-1.4,1.4,.62,1.4,1.4,1.4h0Z"/><path d="M86.47,24.72c.77,0,1.4-.62,1.4-1.4s-.62-1.4-1.4-1.4-1.4,.62-1.4,1.4,.62,1.4,1.4,1.4h0Z"/><path d="M94.84,24.72c.77,0,1.4-.62,1.4-1.4s-.62-1.4-1.4-1.4-1.4,.62-1.4,1.4,.62,1.4,1.4,1.4h0Z"/><path d="M103.21,24.72c.77,0,1.4-.62,1.4-1.4s-.62-1.4-1.4-1.4-1.4,.62-1.4,1.4,.62,1.4,1.4,1.4h0Z"/><path d="M111.59,24.72c.77,0,1.4-.62,1.4-1.4s-.62-1.4-1.4-1.4-1.4,.62-1.4,1.4,.62,1.4,1.4,1.4h0Z"/><path d="M119.96,24.72c.77,0,1.4-.62,1.4-1.4s-.62-1.4-1.4-1.4-1.4,.62-1.4,1.4,.62,1.4,1.4,1.4h0Z"/><path d="M73.91,20.53c.77,0,1.4-.62,1.4-1.4s-.62-1.4-1.4-1.4-1.4,.62-1.4,1.4,.62,1.4,1.4,1.4h0Z"/><path d="M82.29,20.53c.77,0,1.4-.62,1.4-1.4s-.62-1.4-1.4-1.4-1.4,.62-1.4,1.4,.62,1.4,1.4,1.4h0Z"/><path d="M90.66,20.53c.77,0,1.4-.62,1.4-1.4s-.62-1.4-1.4-1.4-1.4,.62-1.4,1.4,.62,1.4,1.4,1.4h0Z"/><path d="M99.03,20.53c.77,0,1.4-.62,1.4-1.4s-.62-1.4-1.4-1.4-1.4,.62-1.4,1.4,.62,1.4,1.4,1.4h0Z"/><path d="M107.4,20.53c.77,0,1.39-.62,1.39-1.4s-.62-1.4-1.39-1.4-1.4,.62-1.4,1.4,.62,1.4,1.4,1.4h0Z"/><path d="M115.77,20.53c.77,0,1.4-.62,1.4-1.4s-.62-1.4-1.4-1.4-1.4,.62-1.4,1.4,.62,1.4,1.4,1.4h0Z"/><path d="M124.14,20.53c.77,0,1.4-.62,1.4-1.4s-.62-1.4-1.4-1.4-1.4,.62-1.4,1.4,.62,1.4,1.4,1.4h0Z"/><path d="M73.91,28.9c.77,0,1.4-.62,1.4-1.4s-.62-1.4-1.4-1.4-1.4,.62-1.4,1.4,.62,1.4,1.4,1.4h0Z"/><path d="M90.66,28.9c.77,0,1.4-.62,1.4-1.4s-.62-1.4-1.4-1.4-1.4,.62-1.4,1.4,.62,1.4,1.4,1.4h0Z"/><path d="M99.03,28.9c.77,0,1.4-.62,1.4-1.4s-.62-1.4-1.4-1.4-1.4,.62-1.4,1.4,.62,1.4,1.4,1.4h0Z"/><path d="M107.4,28.9c.77,0,1.39-.62,1.39-1.4s-.62-1.4-1.39-1.4-1.4,.62-1.4,1.4,.62,1.4,1.4,1.4h0Z"/><path d="M115.77,28.9c.77,0,1.4-.62,1.4-1.4s-.62-1.4-1.4-1.4-1.4,.62-1.4,1.4,.62,1.4,1.4,1.4h0Z"/><path d="M124.14,28.9c.77,0,1.4-.62,1.4-1.4s-.62-1.4-1.4-1.4-1.4,.62-1.4,1.4,.62,1.4,1.4,1.4h0Z"/><path d="M94.84,33.09c.77,0,1.4-.62,1.4-1.4s-.62-1.4-1.4-1.4-1.4,.62-1.4,1.4,.62,1.4,1.4,1.4h0Z"/><path d="M103.21,33.09c.77,0,1.4-.62,1.4-1.4s-.62-1.4-1.4-1.4-1.4,.62-1.4,1.4,.62,1.4,1.4,1.4h0Z"/><path d="M111.59,33.09c.77,0,1.4-.62,1.4-1.4s-.62-1.4-1.4-1.4-1.4,.62-1.4,1.4,.62,1.4,1.4,1.4h0Z"/><path d="M119.96,33.09c.77,0,1.4-.62,1.4-1.4s-.62-1.4-1.4-1.4-1.4,.62-1.4,1.4,.62,1.4,1.4,1.4h0Z"/><path d="M128.33,33.09c.77,0,1.4-.62,1.4-1.4s-.62-1.4-1.4-1.4-1.4,.62-1.4,1.4,.62,1.4,1.4,1.4h0Z"/><path d="M128.33,41.46c.77,0,1.4-.62,1.4-1.4s-.62-1.4-1.4-1.4-1.4,.62-1.4,1.4,.62,1.4,1.4,1.4h0Z"/><path d="M107.4,37.28c.77,0,1.39-.62,1.39-1.4s-.62-1.4-1.39-1.4-1.4,.62-1.4,1.4,.62,1.4,1.4,1.4h0Z"/><path d="M115.77,37.28c.77,0,1.4-.62,1.4-1.4s-.62-1.4-1.4-1.4-1.4,.62-1.4,1.4,.62,1.4,1.4,1.4h0Z"/><path d="M124.14,37.28c.77,0,1.4-.62,1.4-1.4s-.62-1.4-1.4-1.4-1.4,.62-1.4,1.4,.62,1.4,1.4,1.4h0Z"/><path d="M128.33,63.79c-.77,0-1.4,.62-1.4,1.4s.62,1.4,1.4,1.4,1.4-.62,1.4-1.4-.62-1.4-1.4-1.4h0Z"/><path d="M124.14,67.97c-.77,0-1.4,.62-1.4,1.4s.62,1.4,1.4,1.4,1.4-.62,1.4-1.4-.62-1.4-1.4-1.4h0Z"/><path d="M124.14,76.34c-.77,0-1.4,.62-1.4,1.4s.62,1.4,1.4,1.4,1.4-.62,1.4-1.4-.62-1.4-1.4-1.4h0Z"/><path d="M119.96,80.53c-.77,0-1.4,.62-1.4,1.4s.62,1.4,1.4,1.4,1.4-.62,1.4-1.4-.62-1.4-1.4-1.4h0Z"/><path d="M115.77,93.09c-.77,0-1.4,.62-1.4,1.4s.62,1.4,1.4,1.4,1.4-.62,1.4-1.4-.62-1.4-1.4-1.4h0Z"/></g><g><g class="j"><path d="M32.37,189.63c-3.81,0-5.72-2.56-5.8-2.67l-.82,.59-.82,.58c.1,.14,2.56,3.51,7.44,3.51,3.9,0,7.19-3.24,7.33-3.38l-1.42-1.42s-2.85,2.79-5.91,2.79h0Z"/><path d="M64.63,139.17c-2.56,2.15-5.93,3.43-9.64,4.07-.25-.2-.56-.33-.9-.33-.49,0-.92,.25-1.18,.62-1.99,.22-4.05,.27-6.11,.19-.23-.48-.71-.81-1.28-.81-.5,0-.94,.26-1.19,.65-2.63-.23-5.21-.66-7.58-1.21-1.28-.3-2.51-.61-3.7-.92,.61-.16,1.06-.71,1.06-1.37,0-.79-.64-1.43-1.43-1.43s-1.43,.64-1.43,1.43c0,.39,.16,.75,.41,1-2.37-.65-4.55-1.32-6.51-1.97-.26-.28-.63-.46-1.04-.46-.08,0-.16,.01-.24,.02-1.46-.5-2.78-.99-3.97-1.46,.75-.04,1.36-.66,1.36-1.42s-.64-1.43-1.43-1.43-1.43,.64-1.43,1.43c0,.38,.15,.73,.4,.98-2.32-.94-4.04-1.73-5.08-2.24-.51-.25-1.12-.23-1.62,.05-.01,0-.02,.02-.03,.02-.23-.15-.5-.24-.8-.24-.79,0-1.43,.64-1.43,1.43,0,.71,.52,1.3,1.21,1.41-.41,1.94-1.55,4.55-4.64,6.26-2.05,1.13-3.44,2.74-4.4,4.37v-2.22c.21,.12,.44,.19,.69,.19,.79,0,1.43-.64,1.43-1.43s-.64-1.43-1.43-1.43c-.25,0-.49,.07-.69,.19v-6.08c.21,.12,.44,.19,.69,.19,.79,0,1.43-.64,1.43-1.43s-.64-1.43-1.43-1.43c-.25,0-.49,.07-.69,.19v-6.08c.21,.12,.44,.19,.69,.19,.79,0,1.43-.64,1.43-1.43s-.64-1.43-1.43-1.43c-.25,0-.49,.07-.69,.19v-.02c0-2.51,.69-4.38,2.04-5.56,1.48-1.29,3.57-1.63,5.33-1.63,.16,0,.32,0,.48,0,.06,.73,.67,1.31,1.42,1.31s1.39-.61,1.42-1.38c.2-.1,.38-.22,.54-.38,.47-.46,.7-1.09,.63-1.74-.13-1.22-.02-3,1.24-4.55,.78-.96,1.9-1.72,3.36-2.29-.03,.11-.05,.23-.05,.35,0,.79,.64,1.43,1.43,1.43s1.43-.64,1.43-1.43c0-.41-.18-.78-.46-1.04,.79-.17,1.64-.3,2.56-.39,3.21-.32,11.68-.93,20.9,.17,.17,.02,.33,.04,.49,.06-.4,.25-.66,.7-.66,1.2,0,.79,.64,1.43,1.43,1.43s1.43-.64,1.43-1.43c0-.37-.14-.7-.37-.95,2.18,.33,4.22,.74,6.11,1.23,.13,.65,.71,1.15,1.4,1.15,.41,0,.77-.17,1.04-.45,3.89,1.24,7.03,2.88,9.39,4.89,3.11,2.66,4.8,6,5.03,9.94,.34,5.78-1.32,10.25-4.91,13.27h0Zm-13.21,58.82c-5.28,5.33-11.72,8.15-18.64,8.15-7.46,0-14.99-4.04-20.66-11.07-6-7.45-9.51-17.58-9.88-28.5l-.15-8.61h2.16c-.54,5.37,.05,14.94,10.85,16.02,14.42,1.45,15.32-10.21,15.32-11.02s1.18-2.46,2.52-2.46h0c1.34,0,2.52,1.65,2.52,2.46s.9,12.47,15.32,11.02c10.79-1.09,11.38-10.65,10.85-16.02h2c-.11,4.54-.42,13.58-1.28,18-1.76,8.99-5.53,16.61-10.89,22.03h0ZM2.01,154.26c.04-.5,.65-6.46,5.37-9.05,4.5-2.48,5.57-6.65,5.82-8.7,3.24,1.55,11.32,5.07,23.1,7.81,4.29,1,18.13,3.58,27.36-1.98l-.02,11.94h-4.58c-6.45-.23-15.95-.43-19.03,1.2-2.96,1.57-6.18,1.71-6.95,1.71h-.35c-.77,0-3.99-.14-6.95-1.71-3.07-1.63-12.58-1.43-19.03-1.2H2.01Zm69.54-28.49c-.26-4.51-2.19-8.33-5.73-11.35-12.2-10.43-39.57-8.08-42.65-7.78-4.54,.45-7.78,1.83-9.63,4.11-1.7,2.09-1.85,4.44-1.68,6.04,0,.01,0,.05-.03,.08-.02,.02-.06,.04-.11,.03-2.18-.3-6.26-.43-9,1.96C.92,120.45,0,122.83,0,125.95v28.29l.22,12.38c.39,11.37,4.05,21.93,10.33,29.71,6.05,7.51,14.16,11.82,22.23,11.82,7.47,0,14.4-3.03,20.07-8.75,5.64-5.7,9.59-13.67,11.43-23.06,1.21-6.2,1.37-20.5,1.37-21.11l.02-14.32c.09-.07,.17-.14,.25-.21,4.1-3.46,5.99-8.48,5.62-14.93h0Z"/></g><path d="M28.4,108.66c-.79,0-1.43,.64-1.43,1.43s.64,1.43,1.43,1.43,1.43-.64,1.43-1.43-.64-1.43-1.43-1.43h0Z"/><path d="M36.96,108.66c-.79,0-1.43,.64-1.43,1.43s.64,1.43,1.43,1.43,1.43-.64,1.43-1.43-.64-1.43-1.43-1.43h0Z"/><path d="M19.83,117.22c-.79,0-1.43,.64-1.43,1.43s.64,1.43,1.43,1.43,1.43-.64,1.43-1.43-.64-1.43-1.43-1.43h0Z"/><path d="M28.4,117.22c-.79,0-1.43,.64-1.43,1.43s.64,1.43,1.43,1.43,1.43-.64,1.43-1.43-.64-1.43-1.43-1.43h0Z"/><path d="M36.96,117.22c-.79,0-1.43,.64-1.43,1.43s.64,1.43,1.43,1.43,1.43-.64,1.43-1.43-.64-1.43-1.43-1.43h0Z"/><path d="M45.53,117.22c-.79,0-1.43,.64-1.43,1.43s.64,1.43,1.43,1.43,1.43-.64,1.43-1.43-.64-1.43-1.43-1.43h0Z"/><path d="M54.09,117.22c-.79,0-1.43,.64-1.43,1.43s.64,1.43,1.43,1.43,1.43-.64,1.43-1.43-.64-1.43-1.43-1.43h0Z"/><path d="M62.66,117.22c-.79,0-1.43,.64-1.43,1.43s.64,1.43,1.43,1.43,1.43-.64,1.43-1.43-.64-1.43-1.43-1.43h0Z"/><path d="M15.55,112.94c-.79,0-1.43,.64-1.43,1.43s.64,1.43,1.43,1.43,1.43-.64,1.43-1.43-.64-1.43-1.43-1.43h0Z"/><path d="M24.12,112.94c-.79,0-1.43,.64-1.43,1.43s.64,1.43,1.43,1.43,1.43-.64,1.43-1.43-.64-1.43-1.43-1.43h0Z"/><path d="M32.68,112.94c-.79,0-1.43,.64-1.43,1.43s.64,1.43,1.43,1.43,1.43-.64,1.43-1.43-.64-1.43-1.43-1.43h0Z"/><path d="M41.25,112.94c-.79,0-1.43,.64-1.43,1.43s.64,1.43,1.43,1.43,1.43-.64,1.43-1.43-.64-1.43-1.43-1.43h0Z"/><path d="M49.81,112.94c-.79,0-1.43,.64-1.43,1.43s.64,1.43,1.43,1.43,1.43-.64,1.43-1.43-.64-1.43-1.43-1.43h0Z"/><path d="M58.37,112.94c-.79,0-1.43,.64-1.43,1.43s.64,1.43,1.43,1.43,1.43-.64,1.43-1.43-.64-1.43-1.43-1.43h0Z"/><path d="M6.99,121.5c-.79,0-1.43,.64-1.43,1.43s.64,1.43,1.43,1.43,1.43-.64,1.43-1.43-.64-1.43-1.43-1.43h0Z"/><path d="M15.55,121.5c-.79,0-1.43,.64-1.43,1.43s.64,1.43,1.43,1.43,1.43-.64,1.43-1.43-.64-1.43-1.43-1.43h0Z"/><path d="M24.12,121.5c-.79,0-1.43,.64-1.43,1.43s.64,1.43,1.43,1.43,1.43-.64,1.43-1.43-.64-1.43-1.43-1.43h0Z"/><path d="M32.68,121.5c-.79,0-1.43,.64-1.43,1.43s.64,1.43,1.43,1.43,1.43-.64,1.43-1.43-.64-1.43-1.43-1.43h0Z"/><path d="M41.25,121.5c-.79,0-1.43,.64-1.43,1.43s.64,1.43,1.43,1.43,1.43-.64,1.43-1.43-.64-1.43-1.43-1.43h0Z"/><path d="M49.81,121.5c-.79,0-1.43,.64-1.43,1.43s.64,1.43,1.43,1.43,1.43-.64,1.43-1.43-.64-1.43-1.43-1.43h0Z"/><path d="M58.37,121.5c-.79,0-1.43,.64-1.43,1.43s.64,1.43,1.43,1.43,1.43-.64,1.43-1.43-.64-1.43-1.43-1.43h0Z"/><path d="M66.94,121.5c-.79,0-1.43,.64-1.43,1.43s.64,1.43,1.43,1.43,1.43-.64,1.43-1.43-.64-1.43-1.43-1.43h0Z"/><path d="M11.27,125.79c-.79,0-1.43,.64-1.43,1.43s.64,1.43,1.43,1.43,1.43-.64,1.43-1.43-.64-1.43-1.43-1.43h0Z"/><path d="M19.83,125.79c-.79,0-1.43,.64-1.43,1.43s.64,1.43,1.43,1.43,1.43-.64,1.43-1.43-.64-1.43-1.43-1.43h0Z"/><path d="M28.4,125.79c-.79,0-1.43,.64-1.43,1.43s.64,1.43,1.43,1.43,1.43-.64,1.43-1.43-.64-1.43-1.43-1.43h0Z"/><path d="M36.96,125.79c-.79,0-1.43,.64-1.43,1.43s.64,1.43,1.43,1.43,1.43-.64,1.43-1.43-.64-1.43-1.43-1.43h0Z"/><path d="M45.53,125.79c-.79,0-1.43,.64-1.43,1.43s.64,1.43,1.43,1.43,1.43-.64,1.43-1.43-.64-1.43-1.43-1.43h0Z"/><path d="M54.09,125.79c-.79,0-1.43,.64-1.43,1.43s.64,1.43,1.43,1.43,1.43-.64,1.43-1.43-.64-1.43-1.43-1.43h0Z"/><path d="M62.66,125.79c-.79,0-1.43,.64-1.43,1.43s.64,1.43,1.43,1.43,1.43-.64,1.43-1.43-.64-1.43-1.43-1.43h0Z"/><path d="M28.4,134.35c-.79,0-1.43,.64-1.43,1.43s.64,1.43,1.43,1.43,1.43-.64,1.43-1.43-.64-1.43-1.43-1.43h0Z"/><path d="M36.96,134.35c-.79,0-1.43,.64-1.43,1.43s.64,1.43,1.43,1.43,1.43-.64,1.43-1.43-.64-1.43-1.43-1.43h0Z"/><path d="M45.53,134.35c-.79,0-1.43,.64-1.43,1.43s.64,1.43,1.43,1.43,1.43-.64,1.43-1.43-.64-1.43-1.43-1.43h0Z"/><path d="M54.09,134.35c-.79,0-1.43,.64-1.43,1.43s.64,1.43,1.43,1.43,1.43-.64,1.43-1.43-.64-1.43-1.43-1.43h0Z"/><path d="M62.66,134.35c-.79,0-1.43,.64-1.43,1.43s.64,1.43,1.43,1.43,1.43-.64,1.43-1.43-.64-1.43-1.43-1.43h0Z"/><path d="M6.99,130.07c-.79,0-1.43,.64-1.43,1.43s.64,1.43,1.43,1.43,1.43-.64,1.43-1.43-.64-1.43-1.43-1.43h0Z"/><path d="M15.55,130.07c-.79,0-1.43,.64-1.43,1.43s.64,1.43,1.43,1.43,1.43-.64,1.43-1.43-.64-1.43-1.43-1.43h0Z"/><path d="M24.12,130.07c-.79,0-1.43,.64-1.43,1.43s.64,1.43,1.43,1.43,1.43-.64,1.43-1.43-.64-1.43-1.43-1.43h0Z"/><path d="M32.68,130.07c-.79,0-1.43,.64-1.43,1.43s.64,1.43,1.43,1.43,1.43-.64,1.43-1.43-.64-1.43-1.43-1.43h0Z"/><path d="M41.25,130.07c-.79,0-1.43,.64-1.43,1.43s.64,1.43,1.43,1.43,1.43-.64,1.43-1.43-.64-1.43-1.43-1.43h0Z"/><path d="M49.81,130.07c-.79,0-1.43,.64-1.43,1.43s.64,1.43,1.43,1.43,1.43-.64,1.43-1.43-.64-1.43-1.43-1.43h0Z"/><path d="M58.37,130.07c-.79,0-1.43,.64-1.43,1.43s.64,1.43,1.43,1.43,1.43-.64,1.43-1.43-.64-1.43-1.43-1.43h0Z"/><path d="M66.94,130.07c-.79,0-1.43,.64-1.43,1.43s.64,1.43,1.43,1.43,1.43-.64,1.43-1.43-.64-1.43-1.43-1.43h0Z"/><path d="M6.99,138.63c-.79,0-1.43,.64-1.43,1.43s.64,1.43,1.43,1.43,1.43-.64,1.43-1.43-.64-1.43-1.43-1.43h0Z"/><path d="M41.25,138.63c-.79,0-1.43,.64-1.43,1.43s.64,1.43,1.43,1.43,1.43-.64,1.43-1.43-.64-1.43-1.43-1.43h0Z"/><path d="M49.81,138.63c-.79,0-1.43,.64-1.43,1.43s.64,1.43,1.43,1.43,1.43-.64,1.43-1.43-.64-1.43-1.43-1.43h0Z"/><path d="M58.37,138.63c-.79,0-1.43,.64-1.43,1.43s.64,1.43,1.43,1.43,1.43-.64,1.43-1.43-.64-1.43-1.43-1.43h0Z"/></g><g><g class="o"><path d="M308.71,179.01c-.68,0-1.35-.07-2.01-.21-.25-.39-.68-.66-1.18-.66-.2,0-.38,.04-.55,.11-.06-.03-.13-.06-.19-.09,2.03-3.04,3.63-6.37,4.71-9.82,.07,.01,.14,.02,.22,.02,.77,0,1.4-.62,1.4-1.4,0-.59-.37-1.09-.88-1.29,.44-1.87,.72-3.75,.86-5.64,1.12,.28,2.16,.75,3.08,1.38-.08-.02-.17-.03-.26-.03-.77,0-1.4,.62-1.4,1.4s.62,1.4,1.4,1.4,1.4-.62,1.4-1.4c0-.2-.04-.39-.12-.57,1.05,.95,1.88,2.12,2.43,3.45-.53,.2-.91,.7-.91,1.3,0,.77,.62,1.4,1.4,1.4,.07,0,.13-.01,.2-.02,.03,.34,.06,.68,.06,1.03,0,5.31-4.32,9.63-9.63,9.63h0Zm4.88,7.54c-.62,.14-1.09,.69-1.09,1.36,0,.57,.34,1.06,.83,1.28-.41,1.27-1.21,2.37-2.25,3.15,.01-.08,.02-.16,.02-.24,0-.77-.62-1.4-1.4-1.4s-1.4,.62-1.4,1.4c0,.55,.32,1.01,.77,1.24-.57,.17-1.17,.26-1.79,.26-3.49,0-6.34-2.84-6.34-6.34,0-.75,.14-1.47,.38-2.14,.77,0,1.39-.63,1.39-1.39,0-.24-.07-.46-.17-.66,1.16-1.31,2.85-2.14,4.74-2.14,3.25,0,5.94,2.46,6.29,5.62h0Zm-6.79,17.55c-.22-.49-.71-.84-1.28-.84-.77,0-1.4,.62-1.4,1.4,0,.43,.2,.82,.51,1.07-.7,.3-1.46,.47-2.27,.47-1.47,0-2.82-.56-3.83-1.48,0-.02,.01-.03,.01-.06,0-.69-.51-1.26-1.17-1.37-.48-.84-.75-1.8-.75-2.83s.27-1.97,.73-2.8c.67-.1,1.19-.67,1.19-1.37,0-.04,0-.06-.02-.08,1.02-.92,2.36-1.49,3.84-1.49,.81,0,1.59,.17,2.29,.48-.32,.26-.53,.65-.53,1.09,0,.77,.62,1.4,1.4,1.4,.58,0,1.08-.35,1.29-.85,.81,.99,1.3,2.25,1.3,3.63s-.49,2.65-1.31,3.64h0Zm-3.15-24.28l-.04,.02,.02-.03h.02Zm-19.09,9.64c-11.1,0-24.66-14.65-24.66-31.75,0-.5,0-1.07,.03-1.7h3.32c.49,4.88,4.61,8.69,9.62,8.69s9.13-3.81,9.62-8.69h3.53c.49,4.88,4.61,8.69,9.62,8.69s9.13-3.81,9.62-8.69h3.89c.04,.81,.05,1.39,.05,1.7,0,17.1-13.55,31.75-24.65,31.75h0Zm-29.07-42.02c.68-.1,1.2-.67,1.2-1.38,0-.77-.62-1.4-1.4-1.4-.15,0-.29,.03-.43,.07-.34-1.85-.52-3.75-.52-5.66,0-.12,0-.24,0-.36,.25,.23,.57,.37,.93,.37,.77,0,1.4-.62,1.4-1.4s-.62-1.4-1.4-1.4c-.31,0-.6,.11-.83,.28,.16-2.02,.52-3.99,1.05-5.89,.67-.1,1.18-.68,1.18-1.37,0-.39-.16-.74-.42-1,3.25-8.79,10.36-15.72,19.27-18.73,.2,.12,.44,.19,.69,.19,.55,0,1.02-.32,1.24-.78,1.86-.5,3.8-.82,5.78-.96-.03,.11-.05,.22-.05,.34,0,.77,.62,1.4,1.4,1.4s1.4-.62,1.4-1.4c0-.15-.03-.28-.07-.42,1.94,.03,3.83,.23,5.67,.6,.09,.68,.67,1.22,1.38,1.22,.47,0,.89-.24,1.14-.59,9.43,2.73,17.03,9.81,20.48,18.92-.2-.12-.44-.19-.69-.19-.77,0-1.4,.62-1.4,1.4s.62,1.4,1.4,1.4c.58,0,1.08-.36,1.29-.87,.91,2.92,1.4,6.02,1.4,9.23,0,6.28-1.91,12.42-5.43,17.56-.04-1.15-.15-3.02-.45-5.42,.24-.25,.4-.59,.4-.97,0-.52-.28-.96-.7-1.2-.05-.31-.1-.64-.16-.96-.16-.93-.99-1.61-1.92-1.57h0c-.36,.01-.87,.03-1.49,.03,.06-.15,.09-.31,.09-.48,0-.77-.62-1.4-1.4-1.4s-1.4,.62-1.4,1.4c0,.16,.03,.31,.08,.46-1.65-.04-3.62-.15-5.67-.39,0-.02,0-.04,0-.07,0-.77-.62-1.4-1.4-1.4-.66,0-1.21,.46-1.35,1.07-1.01-.17-2.03-.38-3.01-.64-2.42-.62-4.78-1.46-7.03-2.45,.15-.22,.23-.49,.23-.77,0-.77-.62-1.4-1.4-1.4-.63,0-1.16,.42-1.33,1-6.01-3.01-11.11-6.95-14.46-10.32-.36-.36-.86-.56-1.37-.55-.52,.01-1.01,.24-1.36,.63-2.56,2.84-4.32,6.27-5.53,9.76-.26-.31-.64-.51-1.07-.51-.77,0-1.4,.62-1.4,1.4s.62,1.4,1.4,1.4c.13,0,.25-.02,.37-.06-.58,2.05-.99,4.08-1.28,5.98-.29,.26-.48,.63-.48,1.05,0,.29,.09,.56,.24,.78-.12,.99-.2,1.93-.26,2.8-1.1-2.04-1.96-4.18-2.58-6.4h0Zm27.01,6.6c-.49-4.88-4.61-8.69-9.62-8.69s-9.13,3.81-9.62,8.69h-3.23c.39-5.99,1.94-15.26,7.46-21.44,4.98,4.99,13.61,11.14,23.4,14.01-2.66,1.51-4.53,4.24-4.86,7.43h-3.53Zm22.77,0c-.22-2.16-1.14-4.1-2.54-5.6,2.39,.11,4.39,.08,5.6,.04,.37,2.18,.58,4.07,.71,5.57h-3.77Zm15.04,15.35c0-5.11-3.26-9.49-7.97-11.02,4.02-5.6,6.22-12.36,6.22-19.29,0-18.24-14.84-33.08-33.08-33.08-14.6,0-27.01,9.51-31.39,22.65-.08,.15-.14,.3-.16,.48-.99,3.14-1.53,6.49-1.53,9.96,0,6.57,1.92,12.9,5.55,18.34,0,.09,0,.19,0,.28,0,8.33,3.18,16.94,8.72,23.61,5.26,6.33,11.95,10.11,17.91,10.11,4.88,0,10.26-2.55,14.94-6.95-.32,.88-.5,1.82-.5,2.8,0,2.15,.83,4.11,2.18,5.59-3.68,.58-6.51,3.76-6.51,7.6,0,4.25,3.46,7.71,7.71,7.71s7.71-3.46,7.71-7.71c0-1.88-.68-3.61-1.81-4.95,4.12-.48,7.33-3.99,7.33-8.24,0-2.8-1.4-5.28-3.53-6.78,4.76-1.44,8.24-5.87,8.24-11.1h0Z"/></g><path d="M292.77,173.79c-1.23-.56-2.17-.96-3.37-1.48-1.14-.5-2.54-.96-3.5-.19-.29,.24-.5,.56-.81,.8-.16,.12-.37,.21-.57,.23-.2-.02-.41-.1-.57-.23-.3-.23-.51-.56-.81-.8-.96-.77-2.36-.31-3.5,.19-1.2,.52-2.14,.92-3.37,1.48-.79,.39-.81,1.3-.61,1.76,.19,.47,.58,.87,.97,1.25,.97,.95,2.02,1.87,3.33,2.51,1.37,.67,2.98,.96,4.56,.88,1.58,.08,3.19-.21,4.56-.88,1.31-.64,2.37-1.56,3.33-2.51,.39-.38,.77-.78,.97-1.25,.19-.47,.18-1.37-.61-1.76h0Z"/><path d="M272.04,113.96c.77,0,1.4-.62,1.4-1.4s-.62-1.4-1.4-1.4-1.4,.62-1.4,1.4,.62,1.4,1.4,1.4h0Z"/><path d="M280.41,113.96c.77,0,1.4-.62,1.4-1.4s-.62-1.4-1.4-1.4-1.4,.62-1.4,1.4,.62,1.4,1.4,1.4h0Z"/><path d="M288.78,113.96c.77,0,1.4-.62,1.4-1.4s-.62-1.4-1.4-1.4-1.4,.62-1.4,1.4,.62,1.4,1.4,1.4h0Z"/><path d="M297.15,113.96c.77,0,1.4-.62,1.4-1.4s-.62-1.4-1.4-1.4-1.4,.62-1.4,1.4,.62,1.4,1.4,1.4h0Z"/><path d="M267.85,118.14c.77,0,1.4-.62,1.4-1.4s-.62-1.4-1.4-1.4-1.4,.62-1.4,1.4,.62,1.4,1.4,1.4h0Z"/><path d="M276.22,118.14c.77,0,1.4-.62,1.4-1.4s-.62-1.4-1.4-1.4-1.4,.62-1.4,1.4,.62,1.4,1.4,1.4h0Z"/><path d="M284.59,118.14c.77,0,1.4-.62,1.4-1.4s-.62-1.4-1.4-1.4-1.4,.62-1.4,1.4,.62,1.4,1.4,1.4h0Z"/><path d="M292.97,118.14c.77,0,1.39-.62,1.39-1.4s-.62-1.4-1.39-1.4-1.4,.62-1.4,1.4,.62,1.4,1.4,1.4h0Z"/><path d="M301.34,118.14c.77,0,1.4-.62,1.4-1.4s-.62-1.4-1.4-1.4-1.4,.62-1.4,1.4,.62,1.4,1.4,1.4h0Z"/><path d="M263.67,122.33c.77,0,1.4-.62,1.4-1.4s-.62-1.4-1.4-1.4-1.4,.62-1.4,1.4,.62,1.4,1.4,1.4h0Z"/><path d="M272.04,122.33c.77,0,1.4-.62,1.4-1.4s-.62-1.4-1.4-1.4-1.4,.62-1.4,1.4,.62,1.4,1.4,1.4h0Z"/><path d="M280.41,122.33c.77,0,1.4-.62,1.4-1.4s-.62-1.4-1.4-1.4-1.4,.62-1.4,1.4,.62,1.4,1.4,1.4h0Z"/><path d="M288.78,122.33c.77,0,1.4-.62,1.4-1.4s-.62-1.4-1.4-1.4-1.4,.62-1.4,1.4,.62,1.4,1.4,1.4h0Z"/><path d="M297.15,122.33c.77,0,1.4-.62,1.4-1.4s-.62-1.4-1.4-1.4-1.4,.62-1.4,1.4,.62,1.4,1.4,1.4h0Z"/><path d="M305.52,122.33c.77,0,1.4-.62,1.4-1.4s-.62-1.4-1.4-1.4-1.4,.62-1.4,1.4,.62,1.4,1.4,1.4h0Z"/><path d="M263.67,130.7c.77,0,1.4-.62,1.4-1.4s-.62-1.4-1.4-1.4-1.4,.62-1.4,1.4,.62,1.4,1.4,1.4h0Z"/><path d="M272.04,130.7c.77,0,1.4-.62,1.4-1.4s-.62-1.4-1.4-1.4-1.4,.62-1.4,1.4,.62,1.4,1.4,1.4h0Z"/><path d="M280.41,130.7c.77,0,1.4-.62,1.4-1.4s-.62-1.4-1.4-1.4-1.4,.62-1.4,1.4,.62,1.4,1.4,1.4h0Z"/><path d="M288.78,130.7c.77,0,1.4-.62,1.4-1.4s-.62-1.4-1.4-1.4-1.4,.62-1.4,1.4,.62,1.4,1.4,1.4h0Z"/><path d="M297.15,130.7c.77,0,1.4-.62,1.4-1.4s-.62-1.4-1.4-1.4-1.4,.62-1.4,1.4,.62,1.4,1.4,1.4h0Z"/><path d="M305.52,130.7c.77,0,1.4-.62,1.4-1.4s-.62-1.4-1.4-1.4-1.4,.62-1.4,1.4,.62,1.4,1.4,1.4h0Z"/><path d="M259.48,126.52c.77,0,1.4-.62,1.4-1.4s-.62-1.4-1.4-1.4-1.4,.62-1.4,1.4,.62,1.4,1.4,1.4h0Z"/><path d="M267.85,126.52c.77,0,1.4-.62,1.4-1.4s-.62-1.4-1.4-1.4-1.4,.62-1.4,1.4,.62,1.4,1.4,1.4h0Z"/><path d="M276.22,126.52c.77,0,1.4-.62,1.4-1.4s-.62-1.4-1.4-1.4-1.4,.62-1.4,1.4,.62,1.4,1.4,1.4h0Z"/><path d="M284.59,126.52c.77,0,1.4-.62,1.4-1.4s-.62-1.4-1.4-1.4-1.4,.62-1.4,1.4,.62,1.4,1.4,1.4h0Z"/><path d="M292.97,126.52c.77,0,1.39-.62,1.39-1.4s-.62-1.4-1.39-1.4-1.4,.62-1.4,1.4,.62,1.4,1.4,1.4h0Z"/><path d="M301.34,126.52c.77,0,1.4-.62,1.4-1.4s-.62-1.4-1.4-1.4-1.4,.62-1.4,1.4,.62,1.4,1.4,1.4h0Z"/><path d="M309.71,126.52c.77,0,1.4-.62,1.4-1.4s-.62-1.4-1.4-1.4-1.4,.62-1.4,1.4,.62,1.4,1.4,1.4h0Z"/><path d="M259.48,134.89c.77,0,1.4-.62,1.4-1.4s-.62-1.4-1.4-1.4-1.4,.62-1.4,1.4,.62,1.4,1.4,1.4h0Z"/><path d="M276.22,134.89c.77,0,1.4-.62,1.4-1.4s-.62-1.4-1.4-1.4-1.4,.62-1.4,1.4,.62,1.4,1.4,1.4h0Z"/><path d="M284.59,134.89c.77,0,1.4-.62,1.4-1.4s-.62-1.4-1.4-1.4-1.4,.62-1.4,1.4,.62,1.4,1.4,1.4h0Z"/><path d="M292.97,134.89c.77,0,1.39-.62,1.39-1.4s-.62-1.4-1.39-1.4-1.4,.62-1.4,1.4,.62,1.4,1.4,1.4h0Z"/><path d="M301.34,134.89c.77,0,1.4-.62,1.4-1.4s-.62-1.4-1.4-1.4-1.4,.62-1.4,1.4,.62,1.4,1.4,1.4h0Z"/><path d="M309.71,134.89c.77,0,1.4-.62,1.4-1.4s-.62-1.4-1.4-1.4-1.4,.62-1.4,1.4,.62,1.4,1.4,1.4h0Z"/><path d="M280.41,139.07c.77,0,1.4-.62,1.4-1.4s-.62-1.4-1.4-1.4-1.4,.62-1.4,1.4,.62,1.4,1.4,1.4h0Z"/><path d="M288.78,139.07c.77,0,1.4-.62,1.4-1.4s-.62-1.4-1.4-1.4-1.4,.62-1.4,1.4,.62,1.4,1.4,1.4h0Z"/><path d="M297.15,139.07c.77,0,1.4-.62,1.4-1.4s-.62-1.4-1.4-1.4-1.4,.62-1.4,1.4,.62,1.4,1.4,1.4h0Z"/><path d="M305.52,139.07c.77,0,1.4-.62,1.4-1.4s-.62-1.4-1.4-1.4-1.4,.62-1.4,1.4,.62,1.4,1.4,1.4h0Z"/><path d="M313.9,139.07c.77,0,1.4-.62,1.4-1.4s-.62-1.4-1.4-1.4-1.4,.62-1.4,1.4,.62,1.4,1.4,1.4h0Z"/><path d="M313.9,147.45c.77,0,1.4-.62,1.4-1.4s-.62-1.4-1.4-1.4-1.4,.62-1.4,1.4,.62,1.4,1.4,1.4h0Z"/><path d="M292.97,143.26c.77,0,1.39-.62,1.39-1.4s-.62-1.4-1.39-1.4-1.4,.62-1.4,1.4,.62,1.4,1.4,1.4h0Z"/><path d="M301.34,143.26c.77,0,1.4-.62,1.4-1.4s-.62-1.4-1.4-1.4-1.4,.62-1.4,1.4,.62,1.4,1.4,1.4h0Z"/><path d="M309.71,143.26c.77,0,1.4-.62,1.4-1.4s-.62-1.4-1.4-1.4-1.4,.62-1.4,1.4,.62,1.4,1.4,1.4h0Z"/><path d="M313.9,169.77c-.77,0-1.4,.62-1.4,1.4s.62,1.4,1.4,1.4,1.4-.62,1.4-1.4-.62-1.4-1.4-1.4h0Z"/><path d="M309.71,173.96c-.77,0-1.4,.62-1.4,1.4s.62,1.4,1.4,1.4,1.4-.62,1.4-1.4-.62-1.4-1.4-1.4h0Z"/><path d="M309.71,182.33c-.77,0-1.4,.62-1.4,1.4s.62,1.4,1.4,1.4,1.4-.62,1.4-1.4-.62-1.4-1.4-1.4h0Z"/><path d="M305.52,186.51c-.77,0-1.4,.62-1.4,1.4s.62,1.4,1.4,1.4,1.4-.62,1.4-1.4-.62-1.4-1.4-1.4h0Z"/><path d="M301.34,199.07c-.77,0-1.4,.62-1.4,1.4s.62,1.4,1.4,1.4,1.4-.62,1.4-1.4-.62-1.4-1.4-1.4h0Z"/></g></g></g></svg>