<?xml version="1.0" encoding="UTF-8"?><svg id="a" xmlns="http://www.w3.org/2000/svg" xmlns:xlink="http://www.w3.org/1999/xlink" viewBox="0 0 325.22 306.31"><defs><style>.i{clip-path:url(#h);}.j{clip-path:url(#b);}.k{clip-path:url(#c);}.l{clip-path:url(#e);}.m{clip-path:url(#d);}.n{fill:none;}.o{clip-path:url(#f);}.p{clip-path:url(#g);}</style><clipPath id="b"><rect class="n" x="72.25" y="2.24" width="69.98" height="99.65"/></clipPath><clipPath id="c"><rect class="n" x="0" y="82.76" width="67.92" height="102.18"/></clipPath><clipPath id="d"><rect class="n" x="49.39" y="190.37" width="73.33" height="104.14"/></clipPath><clipPath id="e"><rect class="n" x="121.37" y="106.51" width="80.09" height="99.77"/></clipPath><clipPath id="f"><rect class="n" x="189.5" y="206.66" width="69.98" height="99.65"/></clipPath><clipPath id="g"><rect class="n" x="257.3" y="84.09" width="67.92" height="102.18"/></clipPath><clipPath id="h"><rect class="n" x="186.01" y="0" width="73.33" height="104.14"/></clipPath></defs><g><g class="j"><path d="M103.89,83.78c-3.72,0-5.59-2.5-5.67-2.61l-.8,.58-.8,.57c.1,.14,2.5,3.43,7.27,3.43,3.81,0,7.03-3.17,7.16-3.31l-1.39-1.39s-2.78,2.73-5.77,2.73h0Z"/><path d="M135.43,34.46c-2.5,2.11-5.8,3.36-9.42,3.98-.24-.2-.55-.32-.88-.32-.48,0-.9,.24-1.15,.6-1.95,.21-3.96,.26-5.97,.18-.23-.47-.7-.79-1.25-.79-.49,0-.92,.25-1.17,.63-2.57-.23-5.09-.64-7.41-1.18-1.25-.29-2.46-.59-3.62-.9,.6-.16,1.04-.7,1.04-1.34,0-.77-.62-1.4-1.4-1.4s-1.4,.62-1.4,1.4c0,.38,.15,.73,.4,.98-2.32-.64-4.44-1.29-6.36-1.93-.25-.27-.62-.45-1.02-.45-.08,0-.16,.01-.23,.02-1.42-.49-2.72-.97-3.88-1.43,.74-.04,1.32-.64,1.32-1.39s-.62-1.4-1.4-1.4-1.4,.62-1.4,1.4c0,.37,.15,.71,.39,.96-2.27-.91-3.95-1.69-4.97-2.19-.5-.25-1.09-.23-1.58,.05-.01,0-.02,.02-.03,.02-.22-.15-.49-.24-.78-.24-.77,0-1.4,.62-1.4,1.4,0,.7,.51,1.27,1.18,1.37-.4,1.9-1.51,4.45-4.54,6.12-2,1.1-3.37,2.68-4.3,4.27v-2.17c.2,.11,.43,.18,.68,.18,.77,0,1.4-.62,1.4-1.4s-.62-1.4-1.4-1.4c-.25,0-.48,.07-.68,.18v-5.95c.2,.11,.43,.18,.68,.18,.77,0,1.4-.62,1.4-1.4s-.62-1.4-1.4-1.4c-.25,0-.48,.07-.68,.18v-5.95c.2,.11,.43,.18,.68,.18,.77,0,1.4-.62,1.4-1.4s-.62-1.4-1.4-1.4c-.25,0-.48,.07-.68,.18v-.02c0-2.45,.67-4.28,1.99-5.44,1.45-1.26,3.49-1.59,5.21-1.59,.16,0,.31,0,.47,0,.06,.71,.65,1.28,1.38,1.28s1.36-.6,1.39-1.34c.19-.1,.37-.22,.53-.37,.46-.45,.68-1.06,.61-1.7-.13-1.19-.02-2.93,1.21-4.45,.76-.94,1.86-1.68,3.28-2.24-.03,.11-.05,.22-.05,.34,0,.77,.62,1.4,1.4,1.4s1.4-.62,1.4-1.4c0-.4-.17-.76-.45-1.02,.77-.17,1.6-.29,2.5-.38,3.14-.31,11.42-.91,20.43,.16,.16,.02,.32,.04,.48,.06-.39,.25-.65,.68-.65,1.17,0,.77,.62,1.4,1.4,1.4s1.4-.62,1.4-1.4c0-.36-.14-.68-.36-.93,2.13,.32,4.13,.72,5.97,1.2,.13,.64,.69,1.12,1.37,1.12,.4,0,.76-.17,1.01-.44,3.8,1.22,6.87,2.81,9.18,4.78,3.04,2.6,4.69,5.87,4.91,9.72,.33,5.65-1.29,10.02-4.8,12.98h0Zm-12.92,57.5c-5.16,5.21-11.46,7.97-18.22,7.97-7.29,0-14.66-3.94-20.2-10.82-5.87-7.28-9.3-17.18-9.66-27.86l-.15-8.41h2.11c-.53,5.25,.05,14.6,10.6,15.66,14.09,1.42,14.97-9.98,14.97-10.77s1.15-2.4,2.46-2.4h0c1.31,0,2.46,1.61,2.46,2.4s.88,12.19,14.97,10.77c10.55-1.06,11.13-10.41,10.6-15.66h1.95c-.1,4.44-.41,13.27-1.26,17.59-1.72,8.79-5.4,16.24-10.64,21.53h0Zm-48.29-42.75c.04-.48,.64-6.31,5.25-8.85,4.4-2.43,5.45-6.5,5.69-8.5,3.17,1.52,11.06,4.95,22.58,7.63,4.2,.98,17.72,3.5,26.75-1.94l-.02,11.67h-4.47c-6.31-.22-15.6-.42-18.6,1.17-2.9,1.54-6.04,1.67-6.79,1.68h-.34c-.75,0-3.9-.14-6.79-1.68-3-1.59-12.29-1.39-18.6-1.17h-4.64Zm67.97-27.85c-.26-4.41-2.14-8.14-5.6-11.1C124.67,.08,97.91,2.38,94.9,2.67c-4.43,.44-7.6,1.79-9.41,4.02-1.66,2.04-1.81,4.34-1.64,5.9,0,.01,0,.04-.03,.08-.02,.02-.05,.04-.1,.03-2.13-.29-6.12-.42-8.8,1.92-1.77,1.55-2.67,3.87-2.67,6.92v27.66l.22,12.1c.38,11.12,3.96,21.43,10.1,29.05,5.92,7.34,13.84,11.55,21.73,11.55,7.3,0,14.08-2.96,19.61-8.55,5.51-5.57,9.38-13.37,11.17-22.54,1.19-6.06,1.34-20.04,1.34-20.64l.02-14c.08-.07,.17-.14,.25-.21,4.01-3.38,5.86-8.29,5.49-14.59h0Z"/></g><path d="M100.01,4.63c-.77,0-1.4,.62-1.4,1.4s.62,1.4,1.4,1.4,1.4-.62,1.4-1.4-.62-1.4-1.4-1.4h0Z"/><path d="M108.38,4.63c-.77,0-1.4,.62-1.4,1.4s.62,1.4,1.4,1.4,1.4-.62,1.4-1.4-.62-1.4-1.4-1.4h0Z"/><path d="M91.64,13c-.77,0-1.4,.62-1.4,1.4s.62,1.4,1.4,1.4,1.4-.62,1.4-1.4-.62-1.4-1.4-1.4h0Z"/><path d="M100.01,13c-.77,0-1.4,.62-1.4,1.4s.62,1.4,1.4,1.4,1.4-.62,1.4-1.4-.62-1.4-1.4-1.4h0Z"/><path d="M108.38,13c-.77,0-1.4,.62-1.4,1.4s.62,1.4,1.4,1.4,1.4-.62,1.4-1.4-.62-1.4-1.4-1.4h0Z"/><path d="M116.75,13c-.77,0-1.4,.62-1.4,1.4s.62,1.4,1.4,1.4,1.4-.62,1.4-1.4-.62-1.4-1.4-1.4h0Z"/><path d="M125.12,13c-.77,0-1.4,.62-1.4,1.4s.62,1.4,1.4,1.4,1.4-.62,1.4-1.4-.62-1.4-1.4-1.4h0Z"/><path d="M133.5,13c-.77,0-1.4,.62-1.4,1.4s.62,1.4,1.4,1.4,1.4-.62,1.4-1.4-.62-1.4-1.4-1.4h0Z"/><path d="M87.45,8.82c-.77,0-1.4,.62-1.4,1.4s.62,1.4,1.4,1.4,1.4-.62,1.4-1.4-.62-1.4-1.4-1.4h0Z"/><path d="M95.82,8.82c-.77,0-1.4,.62-1.4,1.4s.62,1.4,1.4,1.4,1.4-.62,1.4-1.4-.62-1.4-1.4-1.4h0Z"/><path d="M104.2,8.82c-.77,0-1.4,.62-1.4,1.4s.62,1.4,1.4,1.4,1.4-.62,1.4-1.4-.62-1.4-1.4-1.4h0Z"/><path d="M112.57,8.82c-.77,0-1.4,.62-1.4,1.4s.62,1.4,1.4,1.4,1.4-.62,1.4-1.4-.62-1.4-1.4-1.4h0Z"/><path d="M120.94,8.82c-.77,0-1.4,.62-1.4,1.4s.62,1.4,1.4,1.4,1.4-.62,1.4-1.4-.62-1.4-1.4-1.4h0Z"/><path d="M129.31,8.82c-.77,0-1.4,.62-1.4,1.4s.62,1.4,1.4,1.4,1.4-.62,1.4-1.4-.62-1.4-1.4-1.4h0Z"/><path d="M79.08,17.19c-.77,0-1.4,.62-1.4,1.4s.62,1.4,1.4,1.4,1.4-.62,1.4-1.4-.62-1.4-1.4-1.4h0Z"/><path d="M87.45,17.19c-.77,0-1.4,.62-1.4,1.4s.62,1.4,1.4,1.4,1.4-.62,1.4-1.4-.62-1.4-1.4-1.4h0Z"/><path d="M95.82,17.19c-.77,0-1.4,.62-1.4,1.4s.62,1.4,1.4,1.4,1.4-.62,1.4-1.4-.62-1.4-1.4-1.4h0Z"/><path d="M104.2,17.19c-.77,0-1.4,.62-1.4,1.4s.62,1.4,1.4,1.4,1.4-.62,1.4-1.4-.62-1.4-1.4-1.4h0Z"/><path d="M112.57,17.19c-.77,0-1.4,.62-1.4,1.4s.62,1.4,1.4,1.4,1.4-.62,1.4-1.4-.62-1.4-1.4-1.4h0Z"/><path d="M120.94,17.19c-.77,0-1.4,.62-1.4,1.4s.62,1.4,1.4,1.4,1.4-.62,1.4-1.4-.62-1.4-1.4-1.4h0Z"/><path d="M129.31,17.19c-.77,0-1.4,.62-1.4,1.4s.62,1.4,1.4,1.4,1.4-.62,1.4-1.4-.62-1.4-1.4-1.4h0Z"/><path d="M137.68,17.19c-.77,0-1.39,.62-1.39,1.4s.62,1.4,1.39,1.4,1.4-.62,1.4-1.4-.62-1.4-1.4-1.4h0Z"/><path d="M83.27,21.38c-.77,0-1.4,.62-1.4,1.4s.62,1.4,1.4,1.4,1.4-.62,1.4-1.4-.62-1.4-1.4-1.4h0Z"/><path d="M91.64,21.38c-.77,0-1.4,.62-1.4,1.4s.62,1.4,1.4,1.4,1.4-.62,1.4-1.4-.62-1.4-1.4-1.4h0Z"/><path d="M100.01,21.38c-.77,0-1.4,.62-1.4,1.4s.62,1.4,1.4,1.4,1.4-.62,1.4-1.4-.62-1.4-1.4-1.4h0Z"/><path d="M108.38,21.38c-.77,0-1.4,.62-1.4,1.4s.62,1.4,1.4,1.4,1.4-.62,1.4-1.4-.62-1.4-1.4-1.4h0Z"/><path d="M116.75,21.38c-.77,0-1.4,.62-1.4,1.4s.62,1.4,1.4,1.4,1.4-.62,1.4-1.4-.62-1.4-1.4-1.4h0Z"/><path d="M125.12,21.38c-.77,0-1.4,.62-1.4,1.4s.62,1.4,1.4,1.4,1.4-.62,1.4-1.4-.62-1.4-1.4-1.4h0Z"/><path d="M133.5,21.38c-.77,0-1.4,.62-1.4,1.4s.62,1.4,1.4,1.4,1.4-.62,1.4-1.4-.62-1.4-1.4-1.4h0Z"/><path d="M100.01,29.75c-.77,0-1.4,.62-1.4,1.4s.62,1.4,1.4,1.4,1.4-.62,1.4-1.4-.62-1.4-1.4-1.4h0Z"/><path d="M108.38,29.75c-.77,0-1.4,.62-1.4,1.4s.62,1.4,1.4,1.4,1.4-.62,1.4-1.4-.62-1.4-1.4-1.4h0Z"/><path d="M116.75,29.75c-.77,0-1.4,.62-1.4,1.4s.62,1.4,1.4,1.4,1.4-.62,1.4-1.4-.62-1.4-1.4-1.4h0Z"/><path d="M125.12,29.75c-.77,0-1.4,.62-1.4,1.4s.62,1.4,1.4,1.4,1.4-.62,1.4-1.4-.62-1.4-1.4-1.4h0Z"/><path d="M133.5,29.75c-.77,0-1.4,.62-1.4,1.4s.62,1.4,1.4,1.4,1.4-.62,1.4-1.4-.62-1.4-1.4-1.4h0Z"/><path d="M79.08,25.56c-.77,0-1.4,.62-1.4,1.4s.62,1.4,1.4,1.4,1.4-.62,1.4-1.4-.62-1.4-1.4-1.4h0Z"/><path d="M87.45,25.56c-.77,0-1.4,.62-1.4,1.4s.62,1.4,1.4,1.4,1.4-.62,1.4-1.4-.62-1.4-1.4-1.4h0Z"/><path d="M95.82,25.56c-.77,0-1.4,.62-1.4,1.4s.62,1.4,1.4,1.4,1.4-.62,1.4-1.4-.62-1.4-1.4-1.4h0Z"/><path d="M104.2,25.56c-.77,0-1.4,.62-1.4,1.4s.62,1.4,1.4,1.4,1.4-.62,1.4-1.4-.62-1.4-1.4-1.4h0Z"/><path d="M112.57,25.56c-.77,0-1.4,.62-1.4,1.4s.62,1.4,1.4,1.4,1.4-.62,1.4-1.4-.62-1.4-1.4-1.4h0Z"/><path d="M120.94,25.56c-.77,0-1.4,.62-1.4,1.4s.62,1.4,1.4,1.4,1.4-.62,1.4-1.4-.62-1.4-1.4-1.4h0Z"/><path d="M129.31,25.56c-.77,0-1.4,.62-1.4,1.4s.62,1.4,1.4,1.4,1.4-.62,1.4-1.4-.62-1.4-1.4-1.4h0Z"/><path d="M137.68,25.56c-.77,0-1.39,.62-1.39,1.4s.62,1.4,1.39,1.4,1.4-.62,1.4-1.4-.62-1.4-1.4-1.4h0Z"/><path d="M79.08,33.93c-.77,0-1.4,.62-1.4,1.4s.62,1.4,1.4,1.4,1.4-.62,1.4-1.4-.62-1.4-1.4-1.4h0Z"/><path d="M112.57,33.93c-.77,0-1.4,.62-1.4,1.4s.62,1.4,1.4,1.4,1.4-.62,1.4-1.4-.62-1.4-1.4-1.4h0Z"/><path d="M120.94,33.93c-.77,0-1.4,.62-1.4,1.4s.62,1.4,1.4,1.4,1.4-.62,1.4-1.4-.62-1.4-1.4-1.4h0Z"/><path d="M129.31,33.93c-.77,0-1.4,.62-1.4,1.4s.62,1.4,1.4,1.4,1.4-.62,1.4-1.4-.62-1.4-1.4-1.4h0Z"/></g><g><g class="k"><path d="M56.33,155.79c-.68,0-1.35-.07-2.01-.21-.25-.39-.68-.66-1.18-.66-.2,0-.38,.04-.55,.11-.06-.03-.13-.06-.19-.09,2.03-3.04,3.63-6.37,4.71-9.82,.07,.01,.14,.02,.22,.02,.77,0,1.4-.62,1.4-1.4,0-.59-.37-1.09-.88-1.29,.44-1.87,.72-3.75,.86-5.64,1.12,.28,2.16,.75,3.08,1.38-.08-.02-.17-.03-.26-.03-.77,0-1.4,.62-1.4,1.4s.62,1.4,1.4,1.4,1.4-.62,1.4-1.4c0-.2-.04-.39-.12-.57,1.05,.95,1.88,2.12,2.43,3.45-.53,.2-.91,.7-.91,1.3,0,.77,.62,1.4,1.4,1.4,.07,0,.13-.01,.2-.02,.03,.34,.06,.68,.06,1.03,0,5.31-4.32,9.63-9.63,9.63h0Zm4.88,7.54c-.62,.14-1.09,.69-1.09,1.36,0,.57,.34,1.06,.83,1.28-.41,1.27-1.21,2.37-2.25,3.15,.01-.08,.02-.16,.02-.24,0-.77-.62-1.4-1.4-1.4s-1.4,.62-1.4,1.4c0,.55,.32,1.01,.77,1.24-.57,.17-1.17,.26-1.79,.26-3.49,0-6.34-2.84-6.34-6.34,0-.75,.14-1.47,.38-2.14,.77,0,1.39-.63,1.39-1.39,0-.24-.07-.46-.17-.66,1.16-1.31,2.85-2.14,4.74-2.14,3.25,0,5.94,2.46,6.29,5.62h0Zm-6.79,17.55c-.22-.49-.71-.84-1.28-.84-.77,0-1.4,.62-1.4,1.4,0,.43,.2,.82,.51,1.07-.7,.3-1.46,.47-2.27,.47-1.47,0-2.82-.56-3.83-1.48,0-.02,.01-.03,.01-.06,0-.69-.51-1.26-1.17-1.37-.48-.84-.75-1.8-.75-2.83s.27-1.97,.73-2.8c.67-.1,1.19-.67,1.19-1.37,0-.04,0-.06-.02-.08,1.02-.92,2.36-1.49,3.84-1.49,.81,0,1.59,.17,2.29,.48-.32,.26-.53,.65-.53,1.09,0,.77,.62,1.4,1.4,1.4,.58,0,1.08-.35,1.29-.85,.81,.99,1.3,2.25,1.3,3.63s-.49,2.65-1.31,3.64h0Zm-3.15-24.28l-.04,.02,.02-.03h.02Zm-19.09,9.64c-11.1,0-24.66-14.65-24.66-31.75,0-.5,0-1.07,.03-1.7h3.32c.49,4.88,4.61,8.69,9.62,8.69s9.13-3.81,9.62-8.69h3.53c.49,4.88,4.61,8.69,9.62,8.69s9.13-3.81,9.62-8.69h3.89c.04,.81,.05,1.39,.05,1.7,0,17.1-13.55,31.75-24.65,31.75h0ZM3.11,124.2c.68-.1,1.2-.67,1.2-1.38,0-.77-.62-1.4-1.4-1.4-.15,0-.29,.03-.43,.07-.34-1.85-.52-3.75-.52-5.66,0-.12,0-.24,0-.36,.25,.23,.57,.37,.93,.37,.77,0,1.4-.62,1.4-1.4s-.62-1.4-1.4-1.4c-.31,0-.6,.11-.83,.28,.16-2.02,.52-3.99,1.05-5.89,.67-.1,1.18-.68,1.18-1.37,0-.39-.16-.74-.42-1,3.25-8.79,10.36-15.72,19.27-18.73,.2,.12,.44,.19,.69,.19,.55,0,1.02-.32,1.24-.78,1.86-.5,3.8-.82,5.78-.96-.03,.11-.05,.22-.05,.34,0,.77,.62,1.4,1.4,1.4s1.4-.62,1.4-1.4c0-.15-.03-.28-.07-.42,1.94,.03,3.83,.23,5.67,.6,.09,.68,.67,1.22,1.38,1.22,.47,0,.89-.24,1.14-.59,9.43,2.73,17.03,9.81,20.48,18.92-.2-.12-.44-.19-.69-.19-.77,0-1.4,.62-1.4,1.4s.62,1.4,1.4,1.4c.58,0,1.08-.36,1.29-.87,.91,2.92,1.4,6.02,1.4,9.23,0,6.28-1.91,12.42-5.43,17.56-.04-1.15-.15-3.02-.45-5.42,.24-.25,.4-.59,.4-.97,0-.52-.28-.96-.7-1.2-.05-.31-.1-.64-.16-.96-.16-.93-.99-1.61-1.92-1.57h0c-.36,.01-.87,.03-1.49,.03,.06-.15,.09-.31,.09-.48,0-.77-.62-1.4-1.4-1.4s-1.4,.62-1.4,1.4c0,.16,.03,.31,.08,.46-1.65-.04-3.62-.15-5.67-.39,0-.02,0-.04,0-.07,0-.77-.62-1.4-1.4-1.4-.66,0-1.21,.46-1.35,1.07-1.01-.17-2.03-.38-3.01-.64-2.42-.62-4.78-1.46-7.03-2.45,.15-.22,.23-.49,.23-.77,0-.77-.62-1.4-1.4-1.4-.63,0-1.16,.42-1.33,1-6.01-3.01-11.11-6.95-14.46-10.32-.36-.36-.86-.56-1.37-.55-.52,.01-1.01,.24-1.36,.63-2.56,2.84-4.32,6.27-5.53,9.76-.26-.31-.64-.51-1.07-.51-.77,0-1.4,.62-1.4,1.4s.62,1.4,1.4,1.4c.13,0,.25-.02,.37-.06-.58,2.05-.99,4.08-1.28,5.98-.29,.26-.48,.63-.48,1.05,0,.29,.09,.56,.24,.78-.12,.99-.2,1.93-.26,2.8-1.1-2.04-1.96-4.18-2.58-6.4h0Zm27.01,6.6c-.49-4.88-4.61-8.69-9.62-8.69s-9.13,3.81-9.62,8.69h-3.23c.39-5.99,1.94-15.26,7.46-21.44,4.98,4.99,13.61,11.14,23.4,14.01-2.66,1.51-4.53,4.24-4.86,7.43h-3.53Zm22.77,0c-.22-2.16-1.14-4.1-2.54-5.6,2.39,.11,4.39,.08,5.6,.04,.37,2.18,.58,4.07,.71,5.57h-3.77Zm15.04,15.35c0-5.11-3.26-9.49-7.97-11.02,4.02-5.6,6.22-12.36,6.22-19.29,0-18.24-14.84-33.08-33.08-33.08-14.6,0-27.01,9.51-31.39,22.65-.08,.15-.14,.3-.16,.48-.99,3.14-1.53,6.49-1.53,9.96,0,6.57,1.92,12.9,5.55,18.34,0,.09,0,.19,0,.28,0,8.33,3.18,16.94,8.72,23.61,5.26,6.33,11.95,10.11,17.91,10.11,4.88,0,10.26-2.55,14.94-6.95-.32,.88-.5,1.82-.5,2.8,0,2.15,.83,4.11,2.18,5.59-3.68,.58-6.51,3.76-6.51,7.6,0,4.25,3.46,7.71,7.71,7.71s7.71-3.46,7.71-7.71c0-1.88-.68-3.61-1.81-4.95,4.12-.48,7.33-3.99,7.33-8.24,0-2.8-1.4-5.28-3.53-6.78,4.76-1.44,8.24-5.87,8.24-11.1h0Z"/></g><path d="M40.39,150.56c-1.23-.56-2.17-.96-3.37-1.48-1.14-.5-2.54-.96-3.5-.19-.29,.24-.5,.56-.81,.8-.16,.12-.37,.21-.57,.23-.2-.02-.41-.1-.57-.23-.3-.23-.51-.56-.81-.8-.96-.77-2.36-.31-3.5,.19-1.2,.52-2.14,.92-3.37,1.48-.79,.39-.81,1.3-.61,1.76,.19,.47,.58,.87,.97,1.25,.97,.95,2.02,1.87,3.33,2.51,1.37,.67,2.98,.96,4.56,.88,1.58,.08,3.19-.21,4.56-.88,1.31-.64,2.37-1.56,3.33-2.51,.39-.38,.77-.78,.97-1.25,.19-.47,.18-1.37-.61-1.76h0Z"/><path d="M19.65,90.73c.77,0,1.4-.62,1.4-1.4s-.62-1.4-1.4-1.4-1.4,.62-1.4,1.4,.62,1.4,1.4,1.4h0Z"/><path d="M28.02,90.73c.77,0,1.4-.62,1.4-1.4s-.62-1.4-1.4-1.4-1.4,.62-1.4,1.4,.62,1.4,1.4,1.4h0Z"/><path d="M36.4,90.73c.77,0,1.4-.62,1.4-1.4s-.62-1.4-1.4-1.4-1.4,.62-1.4,1.4,.62,1.4,1.4,1.4h0Z"/><path d="M44.77,90.73c.77,0,1.4-.62,1.4-1.4s-.62-1.4-1.4-1.4-1.4,.62-1.4,1.4,.62,1.4,1.4,1.4h0Z"/><path d="M15.47,94.92c.77,0,1.4-.62,1.4-1.4s-.62-1.4-1.4-1.4-1.4,.62-1.4,1.4,.62,1.4,1.4,1.4h0Z"/><path d="M23.84,94.92c.77,0,1.4-.62,1.4-1.4s-.62-1.4-1.4-1.4-1.4,.62-1.4,1.4,.62,1.4,1.4,1.4h0Z"/><path d="M32.21,94.92c.77,0,1.4-.62,1.4-1.4s-.62-1.4-1.4-1.4-1.4,.62-1.4,1.4,.62,1.4,1.4,1.4h0Z"/><path d="M40.58,94.92c.77,0,1.39-.62,1.39-1.4s-.62-1.4-1.39-1.4-1.4,.62-1.4,1.4,.62,1.4,1.4,1.4h0Z"/><path d="M48.95,94.92c.77,0,1.4-.62,1.4-1.4s-.62-1.4-1.4-1.4-1.4,.62-1.4,1.4,.62,1.4,1.4,1.4h0Z"/><path d="M11.28,99.11c.77,0,1.4-.62,1.4-1.4s-.62-1.4-1.4-1.4-1.4,.62-1.4,1.4,.62,1.4,1.4,1.4h0Z"/><path d="M19.65,99.11c.77,0,1.4-.62,1.4-1.4s-.62-1.4-1.4-1.4-1.4,.62-1.4,1.4,.62,1.4,1.4,1.4h0Z"/><path d="M28.02,99.11c.77,0,1.4-.62,1.4-1.4s-.62-1.4-1.4-1.4-1.4,.62-1.4,1.4,.62,1.4,1.4,1.4h0Z"/><path d="M36.4,99.11c.77,0,1.4-.62,1.4-1.4s-.62-1.4-1.4-1.4-1.4,.62-1.4,1.4,.62,1.4,1.4,1.4h0Z"/><path d="M44.77,99.11c.77,0,1.4-.62,1.4-1.4s-.62-1.4-1.4-1.4-1.4,.62-1.4,1.4,.62,1.4,1.4,1.4h0Z"/><path d="M53.14,99.11c.77,0,1.4-.62,1.4-1.4s-.62-1.4-1.4-1.4-1.4,.62-1.4,1.4,.62,1.4,1.4,1.4h0Z"/><path d="M11.28,107.48c.77,0,1.4-.62,1.4-1.4s-.62-1.4-1.4-1.4-1.4,.62-1.4,1.4,.62,1.4,1.4,1.4h0Z"/><path d="M19.65,107.48c.77,0,1.4-.62,1.4-1.4s-.62-1.4-1.4-1.4-1.4,.62-1.4,1.4,.62,1.4,1.4,1.4h0Z"/><path d="M28.02,107.48c.77,0,1.4-.62,1.4-1.4s-.62-1.4-1.4-1.4-1.4,.62-1.4,1.4,.62,1.4,1.4,1.4h0Z"/><path d="M36.4,107.48c.77,0,1.4-.62,1.4-1.4s-.62-1.4-1.4-1.4-1.4,.62-1.4,1.4,.62,1.4,1.4,1.4h0Z"/><path d="M44.77,107.48c.77,0,1.4-.62,1.4-1.4s-.62-1.4-1.4-1.4-1.4,.62-1.4,1.4,.62,1.4,1.4,1.4h0Z"/><path d="M53.14,107.48c.77,0,1.4-.62,1.4-1.4s-.62-1.4-1.4-1.4-1.4,.62-1.4,1.4,.62,1.4,1.4,1.4h0Z"/><path d="M7.1,103.29c.77,0,1.4-.62,1.4-1.4s-.62-1.4-1.4-1.4-1.4,.62-1.4,1.4,.62,1.4,1.4,1.4h0Z"/><path d="M15.47,103.29c.77,0,1.4-.62,1.4-1.4s-.62-1.4-1.4-1.4-1.4,.62-1.4,1.4,.62,1.4,1.4,1.4h0Z"/><path d="M23.84,103.29c.77,0,1.4-.62,1.4-1.4s-.62-1.4-1.4-1.4-1.4,.62-1.4,1.4,.62,1.4,1.4,1.4h0Z"/><path d="M32.21,103.29c.77,0,1.4-.62,1.4-1.4s-.62-1.4-1.4-1.4-1.4,.62-1.4,1.4,.62,1.4,1.4,1.4h0Z"/><path d="M40.58,103.29c.77,0,1.39-.62,1.39-1.4s-.62-1.4-1.39-1.4-1.4,.62-1.4,1.4,.62,1.4,1.4,1.4h0Z"/><path d="M48.95,103.29c.77,0,1.4-.62,1.4-1.4s-.62-1.4-1.4-1.4-1.4,.62-1.4,1.4,.62,1.4,1.4,1.4h0Z"/><path d="M57.33,103.29c.77,0,1.4-.62,1.4-1.4s-.62-1.4-1.4-1.4-1.4,.62-1.4,1.4,.62,1.4,1.4,1.4h0Z"/><path d="M7.1,111.66c.77,0,1.4-.62,1.4-1.4s-.62-1.4-1.4-1.4-1.4,.62-1.4,1.4,.62,1.4,1.4,1.4h0Z"/><path d="M23.84,111.66c.77,0,1.4-.62,1.4-1.4s-.62-1.4-1.4-1.4-1.4,.62-1.4,1.4,.62,1.4,1.4,1.4h0Z"/><path d="M32.21,111.66c.77,0,1.4-.62,1.4-1.4s-.62-1.4-1.4-1.4-1.4,.62-1.4,1.4,.62,1.4,1.4,1.4h0Z"/><path d="M40.58,111.66c.77,0,1.39-.62,1.39-1.4s-.62-1.4-1.39-1.4-1.4,.62-1.4,1.4,.62,1.4,1.4,1.4h0Z"/><path d="M48.95,111.66c.77,0,1.4-.62,1.4-1.4s-.62-1.4-1.4-1.4-1.4,.62-1.4,1.4,.62,1.4,1.4,1.4h0Z"/><path d="M57.33,111.66c.77,0,1.4-.62,1.4-1.4s-.62-1.4-1.4-1.4-1.4,.62-1.4,1.4,.62,1.4,1.4,1.4h0Z"/><path d="M28.02,115.85c.77,0,1.4-.62,1.4-1.4s-.62-1.4-1.4-1.4-1.4,.62-1.4,1.4,.62,1.4,1.4,1.4h0Z"/><path d="M36.4,115.85c.77,0,1.4-.62,1.4-1.4s-.62-1.4-1.4-1.4-1.4,.62-1.4,1.4,.62,1.4,1.4,1.4h0Z"/><path d="M44.77,115.85c.77,0,1.4-.62,1.4-1.4s-.62-1.4-1.4-1.4-1.4,.62-1.4,1.4,.62,1.4,1.4,1.4h0Z"/><path d="M53.14,115.85c.77,0,1.4-.62,1.4-1.4s-.62-1.4-1.4-1.4-1.4,.62-1.4,1.4,.62,1.4,1.4,1.4h0Z"/><path d="M61.51,115.85c.77,0,1.4-.62,1.4-1.4s-.62-1.4-1.4-1.4-1.4,.62-1.4,1.4,.62,1.4,1.4,1.4h0Z"/><path d="M61.51,124.22c.77,0,1.4-.62,1.4-1.4s-.62-1.4-1.4-1.4-1.4,.62-1.4,1.4,.62,1.4,1.4,1.4h0Z"/><path d="M40.58,120.03c.77,0,1.39-.62,1.39-1.4s-.62-1.4-1.39-1.4-1.4,.62-1.4,1.4,.62,1.4,1.4,1.4h0Z"/><path d="M48.95,120.03c.77,0,1.4-.62,1.4-1.4s-.62-1.4-1.4-1.4-1.4,.62-1.4,1.4,.62,1.4,1.4,1.4h0Z"/><path d="M57.33,120.03c.77,0,1.4-.62,1.4-1.4s-.62-1.4-1.4-1.4-1.4,.62-1.4,1.4,.62,1.4,1.4,1.4h0Z"/><path d="M61.51,146.54c-.77,0-1.4,.62-1.4,1.4s.62,1.4,1.4,1.4,1.4-.62,1.4-1.4-.62-1.4-1.4-1.4h0Z"/><path d="M57.33,150.73c-.77,0-1.4,.62-1.4,1.4s.62,1.4,1.4,1.4,1.4-.62,1.4-1.4-.62-1.4-1.4-1.4h0Z"/><path d="M57.33,159.1c-.77,0-1.4,.62-1.4,1.4s.62,1.4,1.4,1.4,1.4-.62,1.4-1.4-.62-1.4-1.4-1.4h0Z"/><path d="M53.14,163.29c-.77,0-1.4,.62-1.4,1.4s.62,1.4,1.4,1.4,1.4-.62,1.4-1.4-.62-1.4-1.4-1.4h0Z"/><path d="M48.95,175.85c-.77,0-1.4,.62-1.4,1.4s.62,1.4,1.4,1.4,1.4-.62,1.4-1.4-.62-1.4-1.4-1.4h0Z"/></g><g><g class="m"><path d="M120.74,239.22l-.69,4.08c-.25-.22-.57-.36-.93-.36-.77,0-1.4,.62-1.4,1.4s.62,1.4,1.4,1.4c.13,0,.26-.02,.38-.06-.04,.04-.08,.08-.13,.11-.19,.14-.43,.19-.66,.15l-6.66-1.13c.05-.15,.09-.3,.09-.47,0-.77-.62-1.4-1.4-1.4s-1.4,.62-1.4,1.4h0l-18.62-3.14c.29-.26,.48-.63,.48-1.05,0-.77-.62-1.4-1.4-1.4s-1.4,.62-1.4,1.4c0,.25,.07,.48,.19,.69l-5.8-.98c-.14-.63-.69-1.1-1.36-1.1-.5,0-.94,.27-1.19,.67l-18.4-3.12c.03-.11,.05-.22,.05-.34,0-.77-.62-1.4-1.4-1.4-.73,0-1.32,.56-1.38,1.27l-7.04-1.19c-.23-.04-.43-.17-.57-.36-.14-.19-.19-.43-.15-.66l.79-4.65c.77,0,1.38-.63,1.38-1.39,0-.24-.07-.47-.18-.67,.01,0,.03,0,.04,0l5.76,.98c.14,.62,.69,1.09,1.36,1.09,.5,0,.93-.26,1.18-.66l18.4,3.12c-.03,.11-.04,.22-.04,.33,0,.77,.62,1.4,1.4,1.4,.73,0,1.32-.56,1.38-1.27l18.51,3.13c-.22,.25-.36,.57-.36,.92,0,.77,.62,1.4,1.4,1.4s1.4-.62,1.4-1.4c0-.19-.04-.36-.1-.53l5.77,.98c.19,.55,.7,.95,1.31,.95,.45,0,.84-.21,1.09-.54l8.18,1.39c.48,.08,.8,.54,.72,1.02h0Zm-49.21,18.19c-4.47,0-8.11-3.64-8.11-8.11s3.64-8.11,8.11-8.11,8.11,3.64,8.11,8.11-3.64,8.11-8.11,8.11h0Zm34.65-11.61c.52,1.08,.79,2.28,.79,3.5,0,4.47-3.64,8.11-8.11,8.11-3.93,0-7.21-2.81-7.95-6.52-.01-.37-.05-.73-.13-1.08-.01-.17-.03-.33-.03-.5,0-2.13,.82-4.15,2.32-5.67,.01-.01,.02-.03,.03-.04l13.08,2.22h0Zm-15.34-2.6c-.83,1.09-1.43,2.33-1.76,3.65-1.03-.95-2.4-1.52-3.89-1.52s-2.85,.57-3.89,1.52c-.62-2.5-2.18-4.62-4.27-6l13.8,2.34h0Zm24.05,11.91l-12.43,14.27c-1.85-2.35-7.19-7.62-17.68-7.62s-15.27,5.22-17.1,7.59l-11.99-14.23v-17.87l13.4,2.27c-4.38,1.09-7.64,5.06-7.64,9.78,0,5.56,4.52,10.08,10.08,10.08s9.67-4.12,10.05-9.34c.46-1.61,1.93-2.73,3.62-2.73s3.18,1.13,3.63,2.77c.03,.38,.08,.75,.15,1.11,0,.04,.01,.09,.02,.13,.94,4.59,5.01,8.06,9.87,8.06,5.56,0,10.08-4.52,10.08-10.08,0-1.06-.17-2.11-.49-3.11l6.45,1.09v7.84h0Zm-37.14,15.7l.8-.57,.8-.58c.07,.1,1.87,2.5,5.44,2.5,2.87,0,5.51-2.6,5.54-2.62l1.39,1.39c-.13,.13-3.24,3.2-6.93,3.2-4.61,0-6.94-3.19-7.03-3.32h0Zm-20.5-46.37c.29-.26,.48-.63,.48-1.04,0-.09,0-.19-.03-.28,.44-1.19,.94-2.35,1.5-3.46,.19,.55,.7,.95,1.31,.95,.77,0,1.4-.62,1.4-1.4s-.62-1.4-1.4-1.4c-.11,0-.22,.02-.33,.04,2.82-4.77,6.81-8.63,11.49-11.2,0,.48,.25,.9,.61,1.15,.07,.05,.15,.09,.24,.13,.17,.07,.35,.11,.54,.11,.77,0,1.4-.62,1.4-1.4h0c0-.45-.22-.84-.55-1.1,3.27-1.44,6.82-2.27,10.51-2.38,.24,.41,.69,.69,1.2,.69s.94-.27,1.19-.67c2.08,.11,4.14,.45,6.14,1.01,1.44,.41,2.83,.92,4.18,1.55-.21,.24-.34,.56-.34,.9,0,.77,.62,1.4,1.4,1.4,.65,0,1.19-.45,1.35-1.05,1.27,.74,2.49,1.58,3.66,2.52,2.92,2.35,5.35,5.17,7.22,8.34-.61,.15-1.07,.7-1.07,1.35,0,.77,.62,1.4,1.4,1.4,.36,0,.69-.14,.94-.37,1.52,3.16,2.53,6.59,2.96,10.17-.63,.13-1.11,.69-1.11,1.37,0,.75,.59,1.35,1.33,1.39,.02,.43,.03,.86,.03,1.29v.89l-15.66-2.65c.21-.25,.35-.56,.35-.91,0-.77-.62-1.4-1.4-1.4s-1.4,.62-1.4,1.4c0,.18,.04,.36,.1,.52l-5.77-.98c-.19-.54-.7-.94-1.31-.94-.44,0-.83,.21-1.09,.53l-11.41-1.93c.74-.03,1.33-.64,1.33-1.39s-.62-1.4-1.4-1.4-1.4,.62-1.4,1.4c0,.58,.35,1.08,.85,1.29l-6.46-1.09c0-.06,.02-.13,.02-.19,0-.77-.62-1.4-1.4-1.4-.68,0-1.24,.48-1.37,1.12l-10.6-1.79c.1-.36,.21-.72,.32-1.08h0Zm44.09-31.27c-.22,.25-.36,.57-.36,.93,0,.77,.62,1.4,1.4,1.4h0c.19,0,.38-.04,.54-.11,.08-.04,.16-.08,.24-.13,.04-.03,.07-.06,.11-.09,.47,.82,.73,1.76,.73,2.76,0,1.22-.4,2.35-1.06,3.27-.17-.08-.36-.12-.56-.12-.77,0-1.4,.62-1.4,1.4,0,.14,.03,.27,.06,.39-.79,.42-1.69,.66-2.64,.66-1.11,0-2.15-.33-3.02-.89,0-.06,.02-.11,.02-.17,0-.77-.62-1.4-1.4-1.4-.07,0-.14,.01-.21,.02-.62-.9-.99-1.99-.99-3.17,0-.92,.23-1.79,.63-2.56,.09,.04,.19,.08,.3,.1,.09,.02,.19,.03,.28,.03s.19,0,.28-.03c.64-.13,1.11-.69,1.11-1.37,0-.27-.08-.53-.22-.75,.91-.64,2.02-1.03,3.22-1.03,1.08,0,2.08,.31,2.94,.84h0Zm19.01,43.09l-3.49-.59v-1.22c0-10.46-4.53-20.1-12.43-26.46-1.29-1.04-2.65-1.96-4.05-2.77,3.22-.87,5.59-3.81,5.59-7.3,0-4.17-3.39-7.57-7.57-7.57s-7.57,3.39-7.57,7.57c0,1.48,.43,2.85,1.17,4.02-2.19-.5-4.44-.76-6.7-.76-14.09,0-26.43,9.83-30.32,24l-1.25-.21c-.75-.13-1.5,.05-2.12,.49-.62,.44-1.03,1.1-1.16,1.85l-1.01,5.99c-.13,.75,.05,1.5,.49,2.12,.44,.62,1.1,1.03,1.85,1.16l1.97,.33v24.32c0,18.42,17.27,33.26,31.56,33.26,7.66,0,15.56-3.55,21.66-9.75,6.39-6.48,9.9-14.83,9.9-23.51v-13.63l1.52,.26c.16,.03,.32,.04,.48,.04,.59,0,1.16-.18,1.64-.53,.62-.44,1.03-1.1,1.16-1.85l1.01-5.99c.26-1.55-.78-3.02-2.33-3.28h0Z"/></g><path d="M67.9,211.83c.06,.06,.13,.12,.21,.17,.15,.1,.32,.17,.5,.21,.09,.02,.18,.03,.28,.03s.19,0,.28-.03c.64-.13,1.11-.69,1.11-1.37s-.48-1.24-1.11-1.37c-.09-.02-.18-.03-.28-.03s-.19,0-.28,.03c-.18,.04-.35,.11-.5,.21-.07,.05-.14,.11-.21,.17-.19,.19-.32,.43-.38,.71-.02,.09-.03,.18-.03,.28s0,.19,.03,.28c.06,.27,.19,.52,.38,.71h0Z"/><path d="M77.26,212.24h0c.19,0,.38-.04,.54-.11,.08-.04,.16-.08,.24-.13,.15-.1,.28-.23,.38-.38,.05-.07,.09-.15,.13-.24,.07-.17,.11-.35,.11-.54s-.04-.38-.11-.54c-.04-.08-.08-.16-.13-.24-.1-.15-.23-.28-.38-.38-.07-.05-.15-.09-.24-.13-.17-.07-.35-.11-.54-.11h0c-.77,0-1.4,.62-1.4,1.4s.62,1.4,1.4,1.4h0Z"/><path d="M93.02,211.83c.06,.06,.13,.12,.21,.17,.15,.1,.32,.17,.5,.21,.09,.02,.19,.03,.28,.03s.19,0,.28-.03c.64-.13,1.11-.69,1.11-1.37s-.48-1.24-1.11-1.37c-.09-.02-.18-.03-.28-.03s-.19,0-.28,.03c-.18,.04-.35,.11-.5,.21-.07,.05-.14,.11-.21,.17-.19,.19-.32,.43-.38,.71-.02,.09-.03,.18-.03,.28s0,.19,.03,.28c.06,.27,.19,.52,.38,.71h0Z"/><path d="M102.38,212.24h0c.19,0,.38-.04,.54-.11,.08-.04,.16-.08,.24-.13,.15-.1,.28-.23,.38-.38,.05-.07,.09-.15,.13-.24,.07-.17,.11-.35,.11-.54s-.04-.38-.11-.54c-.04-.08-.08-.16-.13-.24-.1-.15-.23-.28-.38-.38-.07-.05-.15-.09-.24-.13-.17-.07-.35-.11-.54-.11h0c-.77,0-1.4,.62-1.4,1.4s.62,1.4,1.4,1.4h0Z"/><path d="M80.43,207.61s.02,.03,.03,.04c.06,.06,.13,.12,.21,.17,.07,.05,.15,.09,.24,.13,.17,.07,.35,.11,.54,.11s.38-.04,.54-.11c.15-.06,.29-.16,.41-.27,.01-.01,.02-.02,.04-.03,.01-.01,.02-.02,.03-.04,.11-.12,.2-.25,.27-.41,.07-.17,.11-.35,.11-.54,0-.77-.62-1.4-1.4-1.4h0c-.19,0-.38,.04-.54,.11-.08,.04-.16,.08-.24,.13-.37,.25-.62,.68-.62,1.16,0,.19,.04,.38,.11,.54,.06,.15,.16,.29,.27,.41h0Z"/><path d="M89.04,207.82c.07,.05,.15,.09,.24,.13,.17,.07,.35,.11,.54,.11,.17,0,.33-.03,.48-.09,.11-.04,.21-.09,.3-.15,.14-.09,.25-.21,.35-.34,.1-.14,.18-.3,.22-.47,.03-.11,.05-.22,.05-.34h0c0-.39-.16-.73-.41-.99-.06-.06-.13-.12-.21-.17-.15-.1-.32-.17-.5-.21-.09-.02-.18-.03-.28-.03-.39,0-.73,.16-.99,.41-.25,.25-.41,.6-.41,.99h0c0,.48,.24,.91,.62,1.16h0Z"/><path d="M64.7,213.64c-.77,0-1.4,.62-1.4,1.4s.62,1.4,1.4,1.4,1.4-.62,1.4-1.4-.62-1.4-1.4-1.4h0Z"/><path d="M73.08,216.43c.77,0,1.4-.62,1.4-1.4s-.62-1.4-1.4-1.4-1.4,.62-1.4,1.4,.62,1.4,1.4,1.4h0Z"/><path d="M81.45,213.64c-.77,0-1.4,.62-1.4,1.4s.62,1.4,1.4,1.4,1.4-.62,1.4-1.4-.62-1.4-1.4-1.4h0Z"/><path d="M89.82,216.43c.77,0,1.4-.62,1.4-1.4s-.62-1.4-1.4-1.4-1.4,.62-1.4,1.4,.62,1.4,1.4,1.4h0Z"/><path d="M98.19,216.43c.77,0,1.4-.62,1.4-1.4s-.62-1.4-1.4-1.4-1.4,.62-1.4,1.4,.62,1.4,1.4,1.4h0Z"/><path d="M106.56,216.43c.77,0,1.4-.62,1.4-1.4s-.62-1.4-1.4-1.4-1.4,.62-1.4,1.4,.62,1.4,1.4,1.4h0Z"/><path d="M68.89,220.61c.77,0,1.4-.62,1.4-1.4s-.62-1.4-1.4-1.4-1.4,.62-1.4,1.4,.62,1.4,1.4,1.4h0Z"/><path d="M77.26,220.61c.77,0,1.4-.62,1.4-1.4s-.62-1.4-1.4-1.4-1.4,.62-1.4,1.4,.62,1.4,1.4,1.4h0Z"/><path d="M85.63,220.61c.77,0,1.4-.62,1.4-1.4s-.62-1.4-1.4-1.4-1.4,.62-1.4,1.4,.62,1.4,1.4,1.4h0Z"/><path d="M94.01,220.61c.77,0,1.4-.62,1.4-1.4s-.62-1.4-1.4-1.4-1.4,.62-1.4,1.4,.62,1.4,1.4,1.4h0Z"/><path d="M102.38,220.61c.77,0,1.4-.62,1.4-1.4s-.62-1.4-1.4-1.4-1.4,.62-1.4,1.4,.62,1.4,1.4,1.4h0Z"/><path d="M84.65,211.83c.06,.06,.13,.12,.21,.17,.15,.1,.32,.17,.5,.21,.09,.02,.18,.03,.28,.03,.29,0,.56-.09,.78-.24,.15-.1,.28-.23,.38-.38,.05-.07,.09-.15,.13-.24,.07-.17,.11-.35,.11-.54s-.04-.38-.11-.54c-.04-.08-.08-.16-.13-.24-.1-.15-.23-.28-.38-.38-.22-.15-.49-.24-.78-.24-.1,0-.19,0-.28,.03-.18,.04-.35,.11-.5,.21-.07,.05-.14,.11-.21,.17-.19,.19-.32,.43-.38,.71-.02,.09-.03,.18-.03,.28s0,.19,.03,.28c.06,.27,.19,.52,.38,.71h0Z"/><path d="M85.63,228.99c.77,0,1.4-.62,1.4-1.4s-.62-1.4-1.4-1.4-1.4,.62-1.4,1.4,.62,1.4,1.4,1.4h0Z"/><path d="M94.01,228.99c.77,0,1.4-.62,1.4-1.4s-.62-1.4-1.4-1.4-1.4,.62-1.4,1.4,.62,1.4,1.4,1.4h0Z"/><path d="M102.38,228.99c.77,0,1.4-.62,1.4-1.4s-.62-1.4-1.4-1.4-1.4,.62-1.4,1.4,.62,1.4,1.4,1.4h0Z"/><path d="M110.75,228.99c.77,0,1.4-.62,1.4-1.4s-.62-1.4-1.4-1.4-1.4,.62-1.4,1.4,.62,1.4,1.4,1.4h0Z"/><path d="M64.7,222.01c-.77,0-1.4,.62-1.4,1.4s.62,1.4,1.4,1.4,1.4-.62,1.4-1.4-.62-1.4-1.4-1.4h0Z"/><path d="M73.08,224.8c.77,0,1.4-.62,1.4-1.4s-.62-1.4-1.4-1.4-1.4,.62-1.4,1.4,.62,1.4,1.4,1.4h0Z"/><path d="M81.45,222.01c-.77,0-1.4,.62-1.4,1.4s.62,1.4,1.4,1.4,1.4-.62,1.4-1.4-.62-1.4-1.4-1.4h0Z"/><path d="M89.82,224.8c.77,0,1.4-.62,1.4-1.4s-.62-1.4-1.4-1.4-1.4,.62-1.4,1.4,.62,1.4,1.4,1.4h0Z"/><path d="M98.19,224.8c.77,0,1.4-.62,1.4-1.4s-.62-1.4-1.4-1.4-1.4,.62-1.4,1.4,.62,1.4,1.4,1.4h0Z"/><path d="M106.56,224.8c.77,0,1.4-.62,1.4-1.4s-.62-1.4-1.4-1.4-1.4,.62-1.4,1.4,.62,1.4,1.4,1.4h0Z"/><path d="M98.19,199.69c.77,0,1.4-.62,1.4-1.4s-.62-1.4-1.4-1.4-1.4,.62-1.4,1.4,.62,1.4,1.4,1.4h0Z"/><path d="M56.33,230.38c-.77,0-1.4,.62-1.4,1.4s.62,1.4,1.4,1.4,1.4-.62,1.4-1.4-.62-1.4-1.4-1.4h0Z"/><path d="M64.7,230.38c-.77,0-1.4,.62-1.4,1.4s.62,1.4,1.4,1.4,1.4-.62,1.4-1.4-.62-1.4-1.4-1.4h0Z"/><path d="M73.08,230.38c-.77,0-1.4,.62-1.4,1.4s.62,1.4,1.4,1.4,1.4-.62,1.4-1.4-.62-1.4-1.4-1.4h0Z"/><path d="M106.56,233.17c.77,0,1.4-.62,1.4-1.4s-.62-1.4-1.4-1.4-1.4,.62-1.4,1.4,.62,1.4,1.4,1.4h0Z"/><path d="M68.89,234.57c-.77,0-1.4,.62-1.4,1.4s.62,1.4,1.4,1.4,1.4-.62,1.4-1.4-.62-1.4-1.4-1.4h0Z"/><path d="M77.26,234.57c-.77,0-1.4,.62-1.4,1.4s.62,1.4,1.4,1.4,1.4-.62,1.4-1.4-.62-1.4-1.4-1.4h0Z"/><path d="M85.63,234.57c-.77,0-1.4,.62-1.4,1.4s.62,1.4,1.4,1.4,1.4-.62,1.4-1.4-.62-1.4-1.4-1.4h0Z"/><path d="M94.01,234.57c-.77,0-1.4,.62-1.4,1.4s.62,1.4,1.4,1.4,1.4-.62,1.4-1.4-.62-1.4-1.4-1.4h0Z"/><path d="M98.19,238.75c-.77,0-1.4,.62-1.4,1.4s.62,1.4,1.4,1.4,1.4-.62,1.4-1.4-.62-1.4-1.4-1.4h0Z"/><path d="M106.56,238.75c-.77,0-1.4,.62-1.4,1.4s.62,1.4,1.4,1.4,1.4-.62,1.4-1.4-.62-1.4-1.4-1.4h0Z"/><path d="M114.93,238.75c-.77,0-1.4,.62-1.4,1.4s.62,1.4,1.4,1.4,1.4-.62,1.4-1.4-.62-1.4-1.4-1.4h0Z"/></g><g><g class="l"><path d="M185.88,117.65h1.66c6.46,0,11.72,5.26,11.72,11.72s-5.26,11.72-11.72,11.72h-.12c-1.51,0-2.96,.47-4.18,1.31l2.65-24.74h0Zm-4.86,24.7c-.57,5.37-3.25,10.03-7.15,13.21-.26-.2-.58-.32-.94-.32-.86,0-1.56,.7-1.56,1.56,0,.16,.03,.3,.07,.45-2.95,1.74-6.39,2.74-10.05,2.74-10.11,0-18.55-7.58-19.62-17.64l-.82-7.65c.45-.28,.75-.76,.75-1.33,0-.68-.44-1.25-1.04-1.47l-.68-6.36c.05,0,.11,.02,.16,.02,.86,0,1.56-.7,1.56-1.56s-.7-1.56-1.56-1.56c-.17,0-.33,.03-.49,.08l-1.48-13.83h46.45l-3.6,33.65h0Zm-10.26,43.78h-18.73l6.29-9.63c.36-.55,.55-1.19,.55-1.84v-12.63c.83,.09,1.67,.15,2.52,.15s1.69-.05,2.52-.15v12.63c0,.65,.19,1.28,.55,1.84l6.29,9.63h0Zm-35.36-45.05h-.12c-6.46,0-11.72-5.26-11.72-11.72s5.26-11.72,11.72-11.72h1.64l1.67,15.62s-.01,.07-.01,.11c0,.15,.03,.3,.07,.44l.92,8.56c-1.22-.83-2.67-1.29-4.16-1.29h0Zm52.01,2.2h.12c7.67,0,13.92-6.24,13.92-13.92s-6.24-13.92-13.92-13.92h-1.43l.73-6.86c.06-.53-.12-1.07-.47-1.46-.36-.4-.87-.63-1.41-.63h-47.14c-.54,0-1.05,.23-1.41,.63-.36,.4-.53,.93-.47,1.46l.73,6.86h-1.41c-7.67,0-13.92,6.24-13.92,13.92s6.24,13.92,13.92,13.92h.12c1.48,0,2.89,.63,3.87,1.73,1,1.12,1.46,2.56,1.29,4.06-.27,2.42-2.15,4.3-4.57,4.57-1.51,.17-2.95-.29-4.06-1.29-1.1-.99-1.73-2.4-1.73-3.87h-2.2c0,2.1,.9,4.11,2.46,5.51,1.36,1.22,3.13,1.88,4.95,1.88,.27,0,.55-.01,.82-.05,2.83-.31,5.13-2.17,6.09-4.72,3.04,5.34,8.23,9.23,14.35,10.57v12.99c0,.22-.07,.44-.19,.63l-6.97,10.68,.25,.16h-8.01c-1.61,0-2.91,1.3-2.91,2.91v16.17c0,.58,.47,1.06,1.06,1.06h43.01c.58,0,1.06-.47,1.06-1.06v-16.17c0-1.61-1.3-2.91-2.91-2.91h-8.01l.25-.16-6.97-10.68c-.13-.19-.19-.41-.19-.63v-12.99c6.13-1.34,11.33-5.24,14.36-10.59,.95,2.57,3.26,4.43,6.1,4.75,.27,.03,.55,.05,.82,.05,1.82,0,3.59-.67,4.95-1.88,1.57-1.4,2.46-3.41,2.46-5.51h-2.2c0,1.48-.63,2.89-1.73,3.87-1.12,1-2.56,1.46-4.06,1.29-2.42-.27-4.3-2.15-4.57-4.57-.17-1.5,.29-2.95,1.29-4.06,.99-1.1,2.4-1.73,3.87-1.73h0Z"/></g><path d="M149.51,131.82c-.86,0-1.56,.7-1.56,1.56s.7,1.56,1.56,1.56,1.56-.7,1.56-1.56-.7-1.56-1.56-1.56h0Z"/><path d="M144.83,127.14c-.86,0-1.56,.7-1.56,1.56s.7,1.56,1.56,1.56,1.56-.7,1.56-1.56-.7-1.56-1.56-1.56h0Z"/><path d="M144.83,136.5c-.86,0-1.56,.7-1.56,1.56s.7,1.56,1.56,1.56,1.56-.7,1.56-1.56-.7-1.56-1.56-1.56h0Z"/><path d="M154.2,136.5c-.86,0-1.56,.7-1.56,1.56s.7,1.56,1.56,1.56,1.56-.7,1.56-1.56-.7-1.56-1.56-1.56h0Z"/><path d="M149.51,141.19c-.86,0-1.56,.7-1.56,1.56s.7,1.56,1.56,1.56,1.56-.7,1.56-1.56-.7-1.56-1.56-1.56h0Z"/><path d="M158.88,141.19c-.86,0-1.56,.7-1.56,1.56s.7,1.56,1.56,1.56,1.56-.7,1.56-1.56-.7-1.56-1.56-1.56h0Z"/><path d="M149.51,150.56c-.86,0-1.56,.7-1.56,1.56s.7,1.56,1.56,1.56,1.56-.7,1.56-1.56-.7-1.56-1.56-1.56h0Z"/><path d="M158.88,150.56c-.86,0-1.56,.7-1.56,1.56s.7,1.56,1.56,1.56,1.56-.7,1.56-1.56-.7-1.56-1.56-1.56h0Z"/><path d="M168.25,150.56c-.86,0-1.56,.7-1.56,1.56s.7,1.56,1.56,1.56,1.56-.7,1.56-1.56-.7-1.56-1.56-1.56h0Z"/><path d="M144.83,145.87c-.86,0-1.56,.7-1.56,1.56s.7,1.56,1.56,1.56,1.56-.7,1.56-1.56-.7-1.56-1.56-1.56h0Z"/><path d="M154.2,145.87c-.86,0-1.56,.7-1.56,1.56s.7,1.56,1.56,1.56,1.56-.7,1.56-1.56-.7-1.56-1.56-1.56h0Z"/><path d="M163.57,145.87c-.86,0-1.56,.7-1.56,1.56s.7,1.56,1.56,1.56,1.56-.7,1.56-1.56-.7-1.56-1.56-1.56h0Z"/><path d="M154.2,155.24c-.86,0-1.56,.7-1.56,1.56s.7,1.56,1.56,1.56,1.56-.7,1.56-1.56-.7-1.56-1.56-1.56h0Z"/><path d="M163.57,155.24c-.86,0-1.56,.7-1.56,1.56s.7,1.56,1.56,1.56,1.56-.7,1.56-1.56-.7-1.56-1.56-1.56h0Z"/></g><g><g class="o"><path d="M227.85,288.2c3.72,0,5.59-2.5,5.67-2.61l.8,.58,.8,.57c-.1,.14-2.5,3.43-7.27,3.43-3.81,0-7.03-3.17-7.16-3.31l1.39-1.39s2.78,2.73,5.77,2.73h0Z"/><path d="M196.31,238.88c-3.51-2.96-5.13-7.32-4.8-12.98,.22-3.85,1.88-7.12,4.91-9.72,2.3-1.97,5.38-3.57,9.18-4.78,.25,.27,.61,.44,1.01,.44,.68,0,1.24-.48,1.37-1.12,1.84-.48,3.83-.88,5.97-1.2-.22,.25-.36,.57-.36,.93,0,.77,.62,1.4,1.4,1.4s1.4-.62,1.4-1.4c0-.49-.26-.93-.65-1.17,.16-.02,.32-.04,.48-.06,9.02-1.07,17.29-.47,20.43-.16,.9,.09,1.73,.22,2.5,.38-.27,.25-.45,.61-.45,1.02,0,.77,.62,1.4,1.4,1.4s1.4-.62,1.4-1.4c0-.12-.02-.23-.05-.34,1.42,.56,2.52,1.31,3.28,2.24,1.23,1.52,1.34,3.26,1.21,4.45-.07,.63,.15,1.25,.61,1.7,.16,.15,.34,.28,.53,.37,.03,.75,.64,1.34,1.39,1.34s1.32-.56,1.38-1.28c.15,0,.31,0,.47,0,1.72,0,3.76,.33,5.21,1.59,1.32,1.16,1.99,2.99,1.99,5.44v.02c-.2-.11-.43-.18-.68-.18-.77,0-1.4,.62-1.4,1.4s.62,1.4,1.4,1.4c.25,0,.48-.07,.68-.18v5.95c-.2-.11-.43-.18-.68-.18-.77,0-1.4,.62-1.4,1.4s.62,1.4,1.4,1.4c.25,0,.48-.07,.68-.18v5.95c-.2-.11-.43-.18-.68-.18-.77,0-1.4,.62-1.4,1.4s.62,1.4,1.4,1.4c.25,0,.48-.07,.68-.18v2.17c-.93-1.59-2.29-3.16-4.3-4.27-3.02-1.67-4.14-4.22-4.54-6.12,.67-.1,1.18-.68,1.18-1.37,0-.77-.62-1.4-1.4-1.4-.29,0-.56,.09-.78,.24-.01,0-.02-.02-.03-.02-.49-.28-1.08-.29-1.58-.05-1.02,.5-2.7,1.27-4.97,2.19,.24-.25,.39-.59,.39-.96,0-.77-.62-1.4-1.4-1.4s-1.4,.62-1.4,1.4c0,.75,.59,1.35,1.32,1.39-1.16,.45-2.46,.93-3.88,1.43-.08-.01-.15-.02-.23-.02-.4,0-.76,.17-1.02,.45-1.92,.64-4.04,1.29-6.36,1.93,.25-.25,.4-.6,.4-.98,0-.77-.62-1.4-1.4-1.4s-1.4,.62-1.4,1.4c0,.65,.44,1.18,1.04,1.34-1.16,.31-2.37,.61-3.62,.9-2.32,.54-4.84,.96-7.41,1.18-.25-.38-.68-.63-1.17-.63-.55,0-1.03,.32-1.25,.79-2.01,.08-4.02,.03-5.97-.18-.25-.37-.67-.6-1.15-.6-.34,0-.64,.12-.88,.32-3.62-.63-6.92-1.88-9.42-3.98h0Zm12.92,57.5c-5.24-5.3-8.92-12.74-10.64-21.53-.85-4.32-1.15-13.15-1.26-17.59h1.95c-.53,5.25,.05,14.6,10.6,15.66,14.09,1.42,14.97-9.98,14.97-10.77,0-.79,1.16-2.4,2.46-2.4h0c1.31,0,2.46,1.61,2.46,2.4s.88,12.19,14.97,10.77c10.55-1.06,11.13-10.41,10.6-15.66h2.11l-.15,8.41c-.36,10.68-3.79,20.58-9.66,27.86-5.54,6.88-12.91,10.82-20.2,10.82-6.76,0-13.06-2.76-18.22-7.97h0Zm48.29-42.75h-4.64c-6.31-.21-15.6-.41-18.6,1.18-2.9,1.54-6.04,1.67-6.79,1.68h-.34c-.75,0-3.9-.14-6.79-1.68-3-1.59-12.29-1.39-18.6-1.17h-4.47l-.02-11.67c9.03,5.43,22.55,2.92,26.75,1.94,11.52-2.68,19.41-6.11,22.58-7.63,.24,2,1.29,6.08,5.69,8.5,4.61,2.54,5.2,8.37,5.25,8.85h0Zm-67.97-27.84c-.37,6.31,1.48,11.22,5.49,14.59,.08,.07,.17,.14,.25,.21l.02,14c0,.6,.15,14.58,1.34,20.64,1.8,9.17,5.66,16.97,11.17,22.54,5.54,5.6,12.32,8.55,19.61,8.55,7.89,0,15.81-4.21,21.73-11.55,6.13-7.61,9.72-17.93,10.1-29.05l.22-12.1v-27.66c0-3.05-.9-5.37-2.67-6.92-2.68-2.34-6.66-2.21-8.8-1.92-.05,0-.08-.01-.1-.03-.03-.03-.03-.06-.03-.08,.17-1.56,.02-3.86-1.64-5.9-1.81-2.23-4.98-3.58-9.41-4.02-3.01-.3-29.77-2.6-41.69,7.6-3.46,2.96-5.34,6.69-5.6,11.1h0Z"/></g><path d="M231.73,209.05c.77,0,1.4,.62,1.4,1.4s-.62,1.4-1.4,1.4-1.4-.62-1.4-1.4,.62-1.4,1.4-1.4h0Z"/><path d="M223.35,209.05c.77,0,1.4,.62,1.4,1.4s-.62,1.4-1.4,1.4-1.4-.62-1.4-1.4,.62-1.4,1.4-1.4h0Z"/><path d="M240.1,217.42c.77,0,1.4,.62,1.4,1.4s-.62,1.4-1.4,1.4-1.4-.62-1.4-1.4,.62-1.4,1.4-1.4h0Z"/><path d="M231.73,217.42c.77,0,1.4,.62,1.4,1.4s-.62,1.4-1.4,1.4-1.4-.62-1.4-1.4,.62-1.4,1.4-1.4h0Z"/><path d="M223.35,217.42c.77,0,1.4,.62,1.4,1.4s-.62,1.4-1.4,1.4-1.4-.62-1.4-1.4,.62-1.4,1.4-1.4h0Z"/><path d="M214.98,217.42c.77,0,1.4,.62,1.4,1.4s-.62,1.4-1.4,1.4-1.4-.62-1.4-1.4,.62-1.4,1.4-1.4h0Z"/><path d="M206.61,217.42c.77,0,1.4,.62,1.4,1.4s-.62,1.4-1.4,1.4-1.4-.62-1.4-1.4,.62-1.4,1.4-1.4h0Z"/><path d="M198.24,217.42c.77,0,1.4,.62,1.4,1.4s-.62,1.4-1.4,1.4-1.4-.62-1.4-1.4,.62-1.4,1.4-1.4h0Z"/><path d="M244.28,213.24c.77,0,1.4,.62,1.4,1.4s-.62,1.4-1.4,1.4-1.4-.62-1.4-1.4,.62-1.4,1.4-1.4h0Z"/><path d="M235.91,213.24c.77,0,1.4,.62,1.4,1.4s-.62,1.4-1.4,1.4-1.4-.62-1.4-1.4,.62-1.4,1.4-1.4h0Z"/><path d="M227.54,213.24c.77,0,1.4,.62,1.4,1.4s-.62,1.4-1.4,1.4-1.4-.62-1.4-1.4,.62-1.4,1.4-1.4h0Z"/><path d="M219.17,213.24c.77,0,1.4,.62,1.4,1.4s-.62,1.4-1.4,1.4-1.4-.62-1.4-1.4,.62-1.4,1.4-1.4h0Z"/><path d="M210.8,213.24c.77,0,1.4,.62,1.4,1.4s-.62,1.4-1.4,1.4-1.4-.62-1.4-1.4,.62-1.4,1.4-1.4h0Z"/><path d="M202.43,213.24c.77,0,1.4,.62,1.4,1.4s-.62,1.4-1.4,1.4-1.4-.62-1.4-1.4,.62-1.4,1.4-1.4h0Z"/><path d="M252.66,221.61c.77,0,1.4,.62,1.4,1.4s-.62,1.4-1.4,1.4-1.4-.62-1.4-1.4,.62-1.4,1.4-1.4h0Z"/><path d="M244.28,221.61c.77,0,1.4,.62,1.4,1.4s-.62,1.4-1.4,1.4-1.4-.62-1.4-1.4,.62-1.4,1.4-1.4h0Z"/><path d="M235.91,221.61c.77,0,1.4,.62,1.4,1.4s-.62,1.4-1.4,1.4-1.4-.62-1.4-1.4,.62-1.4,1.4-1.4h0Z"/><path d="M227.54,221.61c.77,0,1.4,.62,1.4,1.4s-.62,1.4-1.4,1.4-1.4-.62-1.4-1.4,.62-1.4,1.4-1.4h0Z"/><path d="M219.17,221.61c.77,0,1.4,.62,1.4,1.4s-.62,1.4-1.4,1.4-1.4-.62-1.4-1.4,.62-1.4,1.4-1.4h0Z"/><path d="M210.8,221.61c.77,0,1.4,.62,1.4,1.4s-.62,1.4-1.4,1.4-1.4-.62-1.4-1.4,.62-1.4,1.4-1.4h0Z"/><path d="M202.43,221.61c.77,0,1.4,.62,1.4,1.4s-.62,1.4-1.4,1.4-1.4-.62-1.4-1.4,.62-1.4,1.4-1.4h0Z"/><path d="M194.05,221.61c.77,0,1.39,.62,1.39,1.4s-.62,1.4-1.39,1.4-1.4-.62-1.4-1.4,.62-1.4,1.4-1.4h0Z"/><path d="M248.47,225.79c.77,0,1.4,.62,1.4,1.4s-.62,1.4-1.4,1.4-1.4-.62-1.4-1.4,.62-1.4,1.4-1.4h0Z"/><path d="M240.1,225.79c.77,0,1.4,.62,1.4,1.4s-.62,1.4-1.4,1.4-1.4-.62-1.4-1.4,.62-1.4,1.4-1.4h0Z"/><path d="M231.73,225.79c.77,0,1.4,.62,1.4,1.4s-.62,1.4-1.4,1.4-1.4-.62-1.4-1.4,.62-1.4,1.4-1.4h0Z"/><path d="M223.35,225.79c.77,0,1.4,.62,1.4,1.4s-.62,1.4-1.4,1.4-1.4-.62-1.4-1.4,.62-1.4,1.4-1.4h0Z"/><path d="M214.98,225.79c.77,0,1.4,.62,1.4,1.4s-.62,1.4-1.4,1.4-1.4-.62-1.4-1.4,.62-1.4,1.4-1.4h0Z"/><path d="M206.61,225.79c.77,0,1.4,.62,1.4,1.4s-.62,1.4-1.4,1.4-1.4-.62-1.4-1.4,.62-1.4,1.4-1.4h0Z"/><path d="M198.24,225.79c.77,0,1.4,.62,1.4,1.4s-.62,1.4-1.4,1.4-1.4-.62-1.4-1.4,.62-1.4,1.4-1.4h0Z"/><path d="M231.73,234.17c.77,0,1.4,.62,1.4,1.4s-.62,1.4-1.4,1.4-1.4-.62-1.4-1.4,.62-1.4,1.4-1.4h0Z"/><path d="M223.35,234.17c.77,0,1.4,.62,1.4,1.4s-.62,1.4-1.4,1.4-1.4-.62-1.4-1.4,.62-1.4,1.4-1.4h0Z"/><path d="M214.98,234.17c.77,0,1.4,.62,1.4,1.4s-.62,1.4-1.4,1.4-1.4-.62-1.4-1.4,.62-1.4,1.4-1.4h0Z"/><path d="M206.61,234.17c.77,0,1.4,.62,1.4,1.4s-.62,1.4-1.4,1.4-1.4-.62-1.4-1.4,.62-1.4,1.4-1.4h0Z"/><path d="M198.24,234.17c.77,0,1.4,.62,1.4,1.4s-.62,1.4-1.4,1.4-1.4-.62-1.4-1.4,.62-1.4,1.4-1.4h0Z"/><path d="M252.66,229.98c.77,0,1.4,.62,1.4,1.4s-.62,1.4-1.4,1.4-1.4-.62-1.4-1.4,.62-1.4,1.4-1.4h0Z"/><path d="M244.28,229.98c.77,0,1.4,.62,1.4,1.4s-.62,1.4-1.4,1.4-1.4-.62-1.4-1.4,.62-1.4,1.4-1.4h0Z"/><path d="M235.91,229.98c.77,0,1.4,.62,1.4,1.4s-.62,1.4-1.4,1.4-1.4-.62-1.4-1.4,.62-1.4,1.4-1.4h0Z"/><path d="M227.54,229.98c.77,0,1.4,.62,1.4,1.4s-.62,1.4-1.4,1.4-1.4-.62-1.4-1.4,.62-1.4,1.4-1.4h0Z"/><path d="M219.17,229.98c.77,0,1.4,.62,1.4,1.4s-.62,1.4-1.4,1.4-1.4-.62-1.4-1.4,.62-1.4,1.4-1.4h0Z"/><path d="M210.8,229.98c.77,0,1.4,.62,1.4,1.4s-.62,1.4-1.4,1.4-1.4-.62-1.4-1.4,.62-1.4,1.4-1.4h0Z"/><path d="M202.43,229.98c.77,0,1.4,.62,1.4,1.4s-.62,1.4-1.4,1.4-1.4-.62-1.4-1.4,.62-1.4,1.4-1.4h0Z"/><path d="M194.05,229.98c.77,0,1.39,.62,1.39,1.4s-.62,1.4-1.39,1.4-1.4-.62-1.4-1.4,.62-1.4,1.4-1.4h0Z"/><path d="M252.66,238.35c.77,0,1.4,.62,1.4,1.4s-.62,1.4-1.4,1.4-1.4-.62-1.4-1.4,.62-1.4,1.4-1.4h0Z"/><path d="M219.17,238.35c.77,0,1.4,.62,1.4,1.4s-.62,1.4-1.4,1.4-1.4-.62-1.4-1.4,.62-1.4,1.4-1.4h0Z"/><path d="M210.8,238.35c.77,0,1.4,.62,1.4,1.4s-.62,1.4-1.4,1.4-1.4-.62-1.4-1.4,.62-1.4,1.4-1.4h0Z"/><path d="M202.43,238.35c.77,0,1.4,.62,1.4,1.4s-.62,1.4-1.4,1.4-1.4-.62-1.4-1.4,.62-1.4,1.4-1.4h0Z"/></g><g><g class="p"><path d="M268.89,157.11c-5.31,0-9.63-4.32-9.63-9.63,0-.35,.02-.69,.06-1.03,.07,0,.13,.02,.2,.02,.77,0,1.4-.62,1.4-1.4,0-.6-.38-1.11-.91-1.3,.55-1.32,1.38-2.5,2.43-3.45-.08,.17-.12,.36-.12,.57,0,.77,.62,1.4,1.4,1.4s1.4-.62,1.4-1.4-.62-1.4-1.4-1.4c-.09,0-.18,.01-.26,.03,.92-.63,1.95-1.1,3.08-1.38,.13,1.89,.42,3.77,.86,5.64-.52,.2-.88,.71-.88,1.29,0,.77,.62,1.4,1.4,1.4,.08,0,.15-.01,.22-.02,1.08,3.45,2.68,6.77,4.71,9.82-.06,.03-.13,.06-.19,.09-.17-.07-.36-.11-.55-.11-.5,0-.93,.26-1.18,.66-.66,.14-1.33,.21-2.01,.21h0Zm-4.88,7.54c.36-3.16,3.04-5.62,6.29-5.62,1.88,0,3.57,.83,4.74,2.14-.11,.2-.17,.42-.17,.66,0,.77,.62,1.39,1.39,1.39,.24,.67,.38,1.39,.38,2.14,0,3.49-2.84,6.34-6.34,6.34-.62,0-1.22-.09-1.79-.26,.46-.23,.77-.7,.77-1.24,0-.77-.62-1.4-1.4-1.4s-1.4,.62-1.4,1.4c0,.08,.01,.16,.02,.24-1.05-.78-1.85-1.88-2.25-3.15,.49-.22,.83-.71,.83-1.28,0-.67-.47-1.22-1.09-1.36h0Zm6.79,17.55c-.82-.99-1.31-2.26-1.31-3.64s.49-2.64,1.3-3.63c.21,.5,.71,.85,1.29,.85,.77,0,1.4-.62,1.4-1.4,0-.44-.21-.83-.53-1.09,.7-.31,1.48-.48,2.29-.48,1.48,0,2.82,.57,3.84,1.49,0,.02-.02,.05-.02,.08,0,.7,.52,1.27,1.19,1.37,.46,.83,.73,1.78,.73,2.8s-.27,1.99-.75,2.83c-.66,.11-1.17,.68-1.17,1.37,0,.03,0,.04,.01,.06-1.02,.92-2.36,1.48-3.83,1.48-.81,0-1.57-.17-2.27-.47,.31-.26,.51-.64,.51-1.07,0-.77-.62-1.4-1.4-1.4-.57,0-1.06,.35-1.28,.84h0Zm3.15-24.28h.02l.02,.02-.04-.02h0Zm19.09,9.63c-11.1,0-24.65-14.65-24.65-31.75,0-.31,0-.89,.05-1.7h3.89c.49,4.88,4.61,8.69,9.62,8.69s9.13-3.81,9.62-8.69h3.53c.49,4.88,4.61,8.69,9.62,8.69s9.13-3.81,9.62-8.69h3.32c.02,.63,.03,1.2,.03,1.7,0,17.1-13.56,31.75-24.66,31.75h0Zm29.07-42.02c-.62,2.22-1.48,4.36-2.58,6.4-.06-.87-.14-1.81-.26-2.8,.15-.22,.24-.49,.24-.78,0-.42-.19-.79-.48-1.05-.29-1.9-.7-3.93-1.28-5.98,.12,.03,.24,.06,.37,.06,.77,0,1.4-.62,1.4-1.4s-.62-1.4-1.4-1.4c-.43,0-.81,.2-1.07,.51-1.21-3.49-2.97-6.92-5.53-9.76-.35-.38-.84-.61-1.36-.63-.51,0-1.01,.19-1.37,.55-3.35,3.38-8.45,7.31-14.46,10.32-.17-.57-.7-1-1.33-1-.77,0-1.4,.62-1.4,1.4,0,.29,.09,.55,.23,.77-2.25,.99-4.61,1.83-7.03,2.45-.99,.25-2,.46-3.01,.64-.15-.61-.7-1.07-1.35-1.07-.77,0-1.4,.62-1.4,1.4,0,.02,0,.04,0,.07-2.06,.24-4.02,.35-5.67,.39,.05-.14,.08-.3,.08-.46,0-.77-.62-1.4-1.4-1.4s-1.4,.62-1.4,1.4c0,.17,.03,.33,.09,.48-.63,0-1.14-.02-1.49-.03h0c-.93-.03-1.77,.64-1.92,1.57-.06,.33-.11,.65-.16,.96-.42,.24-.7,.69-.7,1.2,0,.38,.15,.72,.4,.97-.3,2.4-.41,4.27-.45,5.42-3.52-5.15-5.43-11.29-5.43-17.56,0-3.21,.49-6.31,1.4-9.23,.21,.51,.71,.87,1.29,.87,.77,0,1.4-.62,1.4-1.4s-.62-1.4-1.4-1.4c-.25,0-.48,.07-.69,.19,3.44-9.11,11.04-16.19,20.48-18.92,.25,.36,.67,.59,1.14,.59,.71,0,1.29-.53,1.38-1.22,1.84-.37,3.73-.57,5.67-.6-.04,.13-.07,.27-.07,.42,0,.77,.62,1.4,1.4,1.4s1.4-.62,1.4-1.4c0-.12-.02-.23-.05-.34,1.98,.14,3.92,.46,5.78,.96,.23,.46,.7,.78,1.24,.78,.25,0,.48-.07,.69-.19,8.9,3.01,16.02,9.93,19.27,18.73-.26,.25-.42,.61-.42,1,0,.7,.51,1.27,1.18,1.37,.53,1.9,.89,3.86,1.05,5.89-.23-.18-.52-.28-.83-.28-.77,0-1.4,.62-1.4,1.4s.62,1.4,1.4,1.4c.36,0,.69-.14,.93-.37,0,.12,0,.24,0,.36,0,1.91-.18,3.81-.52,5.66-.14-.04-.28-.07-.43-.07-.77,0-1.4,.62-1.4,1.4,0,.7,.52,1.28,1.2,1.38h0Zm-27.01,6.6h-3.53c-.32-3.19-2.2-5.92-4.86-7.43,9.79-2.87,18.43-9.02,23.4-14.01,5.51,6.17,7.06,15.45,7.46,21.44h-3.23c-.49-4.88-4.61-8.69-9.62-8.69s-9.13,3.81-9.62,8.69h0Zm-22.77,0h-3.77c.13-1.5,.34-3.38,.71-5.57,1.21,.04,3.21,.07,5.6-.04-1.4,1.5-2.32,3.45-2.54,5.6h0Zm-15.04,15.35c0,5.23,3.48,9.65,8.24,11.1-2.13,1.5-3.53,3.98-3.53,6.78,0,4.25,3.21,7.76,7.33,8.24-1.13,1.34-1.81,3.07-1.81,4.95,0,4.25,3.46,7.71,7.71,7.71s7.71-3.46,7.71-7.71c0-3.84-2.83-7.03-6.51-7.6,1.35-1.48,2.18-3.43,2.18-5.59,0-.99-.18-1.93-.5-2.8,4.68,4.41,10.05,6.95,14.94,6.95,5.95,0,12.65-3.78,17.91-10.11,5.54-6.67,8.72-15.28,8.72-23.61,0-.09,0-.19,0-.28,3.63-5.44,5.55-11.77,5.55-18.34,0-3.47-.54-6.81-1.53-9.96-.02-.17-.08-.33-.16-.48-4.38-13.14-16.79-22.65-31.39-22.65-18.24,0-33.08,14.84-33.08,33.08,0,6.93,2.2,13.7,6.22,19.29-4.71,1.53-7.97,5.91-7.97,11.02h0Z"/></g><path d="M284.83,151.89c1.23-.56,2.17-.96,3.37-1.48,1.14-.5,2.54-.96,3.5-.19,.29,.24,.5,.56,.81,.8,.16,.12,.37,.21,.57,.23,.2-.02,.41-.1,.57-.23,.3-.23,.51-.56,.81-.8,.96-.77,2.36-.31,3.5,.19,1.2,.52,2.14,.92,3.37,1.48,.79,.39,.81,1.3,.61,1.76-.19,.47-.58,.87-.97,1.25-.97,.95-2.02,1.87-3.33,2.51-1.37,.67-2.98,.96-4.56,.88-1.58,.08-3.19-.21-4.56-.88-1.31-.64-2.37-1.56-3.33-2.51-.39-.38-.77-.78-.97-1.25-.19-.47-.18-1.37,.61-1.76h0Z"/><path d="M305.57,92.06c-.77,0-1.4-.62-1.4-1.4s.62-1.4,1.4-1.4,1.4,.62,1.4,1.4-.62,1.4-1.4,1.4h0Z"/><path d="M297.19,92.06c-.77,0-1.4-.62-1.4-1.4s.62-1.4,1.4-1.4,1.4,.62,1.4,1.4-.62,1.4-1.4,1.4h0Z"/><path d="M288.82,92.06c-.77,0-1.4-.62-1.4-1.4s.62-1.4,1.4-1.4,1.4,.62,1.4,1.4-.62,1.4-1.4,1.4h0Z"/><path d="M280.45,92.06c-.77,0-1.4-.62-1.4-1.4s.62-1.4,1.4-1.4,1.4,.62,1.4,1.4-.62,1.4-1.4,1.4h0Z"/><path d="M309.75,96.25c-.77,0-1.4-.62-1.4-1.4s.62-1.4,1.4-1.4,1.4,.62,1.4,1.4-.62,1.4-1.4,1.4h0Z"/><path d="M301.38,96.25c-.77,0-1.4-.62-1.4-1.4s.62-1.4,1.4-1.4,1.4,.62,1.4,1.4-.62,1.4-1.4,1.4h0Z"/><path d="M293.01,96.25c-.77,0-1.4-.62-1.4-1.4s.62-1.4,1.4-1.4,1.4,.62,1.4,1.4-.62,1.4-1.4,1.4h0Z"/><path d="M284.64,96.25c-.77,0-1.39-.62-1.39-1.4s.62-1.4,1.39-1.4,1.4,.62,1.4,1.4-.62,1.4-1.4,1.4h0Z"/><path d="M276.27,96.25c-.77,0-1.4-.62-1.4-1.4s.62-1.4,1.4-1.4,1.4,.62,1.4,1.4-.62,1.4-1.4,1.4h0Z"/><path d="M313.94,100.43c-.77,0-1.4-.62-1.4-1.4s.62-1.4,1.4-1.4,1.4,.62,1.4,1.4-.62,1.4-1.4,1.4h0Z"/><path d="M305.57,100.43c-.77,0-1.4-.62-1.4-1.4s.62-1.4,1.4-1.4,1.4,.62,1.4,1.4-.62,1.4-1.4,1.4h0Z"/><path d="M297.19,100.43c-.77,0-1.4-.62-1.4-1.4s.62-1.4,1.4-1.4,1.4,.62,1.4,1.4-.62,1.4-1.4,1.4h0Z"/><path d="M288.82,100.43c-.77,0-1.4-.62-1.4-1.4s.62-1.4,1.4-1.4,1.4,.62,1.4,1.4-.62,1.4-1.4,1.4h0Z"/><path d="M280.45,100.43c-.77,0-1.4-.62-1.4-1.4s.62-1.4,1.4-1.4,1.4,.62,1.4,1.4-.62,1.4-1.4,1.4h0Z"/><path d="M272.08,100.43c-.77,0-1.4-.62-1.4-1.4s.62-1.4,1.4-1.4,1.4,.62,1.4,1.4-.62,1.4-1.4,1.4h0Z"/><path d="M313.94,108.8c-.77,0-1.4-.62-1.4-1.4s.62-1.4,1.4-1.4,1.4,.62,1.4,1.4-.62,1.4-1.4,1.4h0Z"/><path d="M305.57,108.8c-.77,0-1.4-.62-1.4-1.4s.62-1.4,1.4-1.4,1.4,.62,1.4,1.4-.62,1.4-1.4,1.4h0Z"/><path d="M297.19,108.8c-.77,0-1.4-.62-1.4-1.4s.62-1.4,1.4-1.4,1.4,.62,1.4,1.4-.62,1.4-1.4,1.4h0Z"/><path d="M288.82,108.8c-.77,0-1.4-.62-1.4-1.4s.62-1.4,1.4-1.4,1.4,.62,1.4,1.4-.62,1.4-1.4,1.4h0Z"/><path d="M280.45,108.8c-.77,0-1.4-.62-1.4-1.4s.62-1.4,1.4-1.4,1.4,.62,1.4,1.4-.62,1.4-1.4,1.4h0Z"/><path d="M272.08,108.8c-.77,0-1.4-.62-1.4-1.4s.62-1.4,1.4-1.4,1.4,.62,1.4,1.4-.62,1.4-1.4,1.4h0Z"/><path d="M318.12,104.62c-.77,0-1.4-.62-1.4-1.4s.62-1.4,1.4-1.4,1.4,.62,1.4,1.4-.62,1.4-1.4,1.4h0Z"/><path d="M309.75,104.62c-.77,0-1.4-.62-1.4-1.4s.62-1.4,1.4-1.4,1.4,.62,1.4,1.4-.62,1.4-1.4,1.4h0Z"/><path d="M301.38,104.62c-.77,0-1.4-.62-1.4-1.4s.62-1.4,1.4-1.4,1.4,.62,1.4,1.4-.62,1.4-1.4,1.4h0Z"/><path d="M293.01,104.62c-.77,0-1.4-.62-1.4-1.4s.62-1.4,1.4-1.4,1.4,.62,1.4,1.4-.62,1.4-1.4,1.4h0Z"/><path d="M284.64,104.62c-.77,0-1.39-.62-1.39-1.4s.62-1.4,1.39-1.4,1.4,.62,1.4,1.4-.62,1.4-1.4,1.4h0Z"/><path d="M276.27,104.62c-.77,0-1.4-.62-1.4-1.4s.62-1.4,1.4-1.4,1.4,.62,1.4,1.4-.62,1.4-1.4,1.4h0Z"/><path d="M267.89,104.62c-.77,0-1.4-.62-1.4-1.4s.62-1.4,1.4-1.4,1.4,.62,1.4,1.4-.62,1.4-1.4,1.4h0Z"/><path d="M318.12,112.99c-.77,0-1.4-.62-1.4-1.4,0-.77,.62-1.4,1.4-1.4s1.4,.62,1.4,1.4-.62,1.4-1.4,1.4h0Z"/><path d="M301.38,112.99c-.77,0-1.4-.62-1.4-1.4,0-.77,.62-1.4,1.4-1.4s1.4,.62,1.4,1.4-.62,1.4-1.4,1.4h0Z"/><path d="M293.01,112.99c-.77,0-1.4-.62-1.4-1.4,0-.77,.62-1.4,1.4-1.4s1.4,.62,1.4,1.4-.62,1.4-1.4,1.4h0Z"/><path d="M284.64,112.99c-.77,0-1.39-.62-1.39-1.4,0-.77,.62-1.4,1.39-1.4s1.4,.62,1.4,1.4-.62,1.4-1.4,1.4h0Z"/><path d="M276.27,112.99c-.77,0-1.4-.62-1.4-1.4,0-.77,.62-1.4,1.4-1.4s1.4,.62,1.4,1.4-.62,1.4-1.4,1.4h0Z"/><path d="M267.89,112.99c-.77,0-1.4-.62-1.4-1.4,0-.77,.62-1.4,1.4-1.4s1.4,.62,1.4,1.4-.62,1.4-1.4,1.4h0Z"/><path d="M297.19,117.18c-.77,0-1.4-.62-1.4-1.4s.62-1.4,1.4-1.4,1.4,.62,1.4,1.4-.62,1.4-1.4,1.4h0Z"/><path d="M288.82,117.18c-.77,0-1.4-.62-1.4-1.4s.62-1.4,1.4-1.4,1.4,.62,1.4,1.4-.62,1.4-1.4,1.4h0Z"/><path d="M280.45,117.18c-.77,0-1.4-.62-1.4-1.4s.62-1.4,1.4-1.4,1.4,.62,1.4,1.4-.62,1.4-1.4,1.4h0Z"/><path d="M272.08,117.18c-.77,0-1.4-.62-1.4-1.4s.62-1.4,1.4-1.4,1.4,.62,1.4,1.4-.62,1.4-1.4,1.4h0Z"/><path d="M263.71,117.18c-.77,0-1.4-.62-1.4-1.4s.62-1.4,1.4-1.4,1.4,.62,1.4,1.4-.62,1.4-1.4,1.4h0Z"/><path d="M263.71,125.55c-.77,0-1.4-.62-1.4-1.4s.62-1.4,1.4-1.4,1.4,.62,1.4,1.4-.62,1.4-1.4,1.4h0Z"/><path d="M284.64,121.36c-.77,0-1.39-.62-1.39-1.4s.62-1.4,1.39-1.4,1.4,.62,1.4,1.4-.62,1.4-1.4,1.4h0Z"/><path d="M276.27,121.36c-.77,0-1.4-.62-1.4-1.4s.62-1.4,1.4-1.4,1.4,.62,1.4,1.4-.62,1.4-1.4,1.4h0Z"/><path d="M267.89,121.36c-.77,0-1.4-.62-1.4-1.4s.62-1.4,1.4-1.4,1.4,.62,1.4,1.4-.62,1.4-1.4,1.4h0Z"/><path d="M263.71,147.87c.77,0,1.4,.62,1.4,1.4s-.62,1.4-1.4,1.4-1.4-.62-1.4-1.4,.62-1.4,1.4-1.4h0Z"/><path d="M267.89,152.06c.77,0,1.4,.62,1.4,1.4s-.62,1.4-1.4,1.4-1.4-.62-1.4-1.4,.62-1.4,1.4-1.4h0Z"/><path d="M267.89,160.43c.77,0,1.4,.62,1.4,1.4s-.62,1.4-1.4,1.4-1.4-.62-1.4-1.4,.62-1.4,1.4-1.4h0Z"/><path d="M272.08,164.62c.77,0,1.4,.62,1.4,1.4s-.62,1.4-1.4,1.4-1.4-.62-1.4-1.4,.62-1.4,1.4-1.4h0Z"/><path d="M276.27,177.17c.77,0,1.4,.62,1.4,1.4s-.62,1.4-1.4,1.4-1.4-.62-1.4-1.4,.62-1.4,1.4-1.4h0Z"/></g><g><g class="i"><path d="M187.99,48.85c-.08-.48,.24-.94,.72-1.02l8.18-1.39c.26,.33,.65,.54,1.09,.54,.61,0,1.13-.4,1.31-.95l5.77-.98c-.07,.16-.1,.34-.1,.53,0,.77,.62,1.4,1.4,1.4s1.4-.62,1.4-1.4c0-.36-.14-.68-.36-.92l18.51-3.13c.07,.71,.66,1.27,1.38,1.27,.77,0,1.4-.62,1.4-1.4,0-.12-.02-.23-.04-.33l18.4-3.12c.25,.39,.68,.66,1.18,.66,.66,0,1.22-.47,1.36-1.09l5.76-.98s.03,0,.04,0c-.11,.2-.18,.43-.18,.67,0,.77,.62,1.39,1.38,1.39l.79,4.65c.04,.23-.01,.47-.15,.66-.14,.19-.34,.32-.57,.36l-7.04,1.19c-.06-.71-.65-1.27-1.38-1.27-.77,0-1.4,.62-1.4,1.4,0,.12,.02,.23,.05,.34l-18.4,3.12c-.25-.4-.68-.67-1.19-.67-.67,0-1.23,.47-1.36,1.1l-5.8,.98c.12-.2,.19-.44,.19-.69,0-.77-.62-1.4-1.4-1.4s-1.4,.62-1.4,1.4c0,.42,.19,.79,.48,1.05l-18.62,3.15h0c0-.78-.62-1.41-1.4-1.41s-1.4,.62-1.4,1.4c0,.17,.03,.32,.09,.47l-6.66,1.13c-.23,.04-.47-.01-.66-.15-.05-.03-.09-.07-.13-.11,.12,.03,.25,.06,.38,.06,.77,0,1.4-.62,1.4-1.4s-.62-1.4-1.4-1.4c-.36,0-.69,.14-.93,.36l-.69-4.08h0Zm49.21,18.19c-4.47,0-8.11-3.64-8.11-8.11s3.64-8.11,8.11-8.11,8.11,3.64,8.11,8.11-3.64,8.11-8.11,8.11h0Zm-34.65-11.61l13.08-2.22s.02,.03,.03,.04c1.49,1.52,2.32,3.54,2.32,5.67,0,.17-.02,.33-.03,.5-.08,.35-.12,.72-.13,1.08-.74,3.71-4.02,6.52-7.95,6.52-4.47,0-8.11-3.64-8.11-8.11,0-1.21,.27-2.41,.79-3.5h0Zm15.34-2.6l13.8-2.34c-2.09,1.37-3.65,3.5-4.27,6-1.03-.95-2.41-1.52-3.89-1.52s-2.86,.57-3.89,1.52c-.33-1.32-.92-2.56-1.76-3.65h0Zm-24.05,11.91v-7.84l6.45-1.09c-.32,1-.49,2.05-.49,3.11,0,5.56,4.52,10.08,10.08,10.08,4.87,0,8.94-3.47,9.87-8.06,.01-.04,.02-.08,.02-.13,.07-.36,.12-.73,.15-1.11,.44-1.64,1.91-2.77,3.63-2.77s3.16,1.12,3.62,2.73c.38,5.21,4.74,9.34,10.05,9.34s10.08-4.52,10.08-10.08c0-4.72-3.26-8.68-7.64-9.78l13.4-2.27v17.87l-11.99,14.23c-1.83-2.37-6.99-7.59-17.1-7.59s-15.82,5.27-17.68,7.62l-12.43-14.27h0Zm37.14,15.7c-.1,.14-2.43,3.32-7.03,3.32-3.69,0-6.8-3.07-6.93-3.2l1.39-1.39s2.67,2.62,5.54,2.62c3.57,0,5.36-2.4,5.44-2.5l.8,.58,.8,.57h0Zm20.5-46.37c.11,.36,.22,.71,.32,1.08l-10.6,1.79c-.13-.64-.69-1.12-1.37-1.12-.77,0-1.4,.62-1.4,1.4,0,.07,.01,.13,.02,.19l-6.46,1.09c.5-.21,.85-.71,.85-1.29,0-.77-.62-1.4-1.4-1.4s-1.4,.62-1.4,1.4,.59,1.35,1.33,1.39l-11.41,1.93c-.26-.32-.64-.53-1.09-.53-.61,0-1.12,.39-1.31,.94l-5.77,.98c.06-.16,.1-.33,.1-.52,0-.77-.62-1.4-1.4-1.4s-1.4,.62-1.4,1.4c0,.35,.13,.67,.35,.91l-15.66,2.65v-.89c0-.43,.01-.86,.03-1.29,.74-.04,1.33-.64,1.33-1.39,0-.67-.48-1.23-1.11-1.37,.43-3.58,1.44-7.01,2.96-10.17,.25,.23,.58,.37,.94,.37,.77,0,1.4-.62,1.4-1.4,0-.66-.45-1.2-1.07-1.35,1.88-3.16,4.3-5.99,7.22-8.34,1.17-.94,2.39-1.78,3.66-2.52,.16,.6,.7,1.05,1.35,1.05,.77,0,1.4-.62,1.4-1.4,0-.34-.13-.66-.34-.9,1.35-.62,2.74-1.14,4.18-1.55,2-.56,4.06-.9,6.14-1.01,.25,.4,.68,.67,1.19,.67s.96-.28,1.2-.69c3.69,.11,7.24,.95,10.51,2.38-.33,.26-.55,.65-.55,1.1h0c0,.77,.62,1.4,1.4,1.4,.19,0,.38-.04,.54-.11,.08-.04,.16-.08,.24-.13,.37-.25,.61-.67,.61-1.15,4.68,2.57,8.67,6.42,11.49,11.2-.11-.03-.21-.04-.33-.04-.77,0-1.4,.62-1.4,1.4s.62,1.4,1.4,1.4c.61,0,1.13-.4,1.31-.95,.56,1.11,1.07,2.27,1.5,3.46-.02,.09-.03,.18-.03,.28,0,.42,.19,.79,.48,1.04h0ZM207.39,2.81c.86-.53,1.86-.84,2.94-.84,1.2,0,2.31,.38,3.22,1.03-.14,.22-.22,.47-.22,.75,0,.67,.48,1.24,1.11,1.37,.09,.02,.18,.03,.28,.03s.19,0,.28-.03c.1-.02,.2-.06,.3-.1,.4,.77,.63,1.64,.63,2.56,0,1.18-.37,2.27-.99,3.17-.07-.01-.14-.02-.21-.02-.77,0-1.4,.62-1.4,1.4,0,.06,.01,.11,.02,.17-.87,.56-1.91,.89-3.02,.89-.96,0-1.85-.24-2.64-.66,.04-.12,.06-.25,.06-.39,0-.77-.62-1.4-1.4-1.4-.2,0-.39,.04-.56,.12-.67-.92-1.06-2.05-1.06-3.27,0-1,.27-1.95,.73-2.76,.04,.03,.07,.06,.11,.09,.07,.05,.15,.09,.24,.13,.17,.07,.35,.11,.54,.11h0c.77,0,1.4-.62,1.4-1.4,0-.36-.14-.68-.36-.93h0Zm-19.01,43.09c-1.55,.26-2.59,1.74-2.33,3.28l1.01,5.99c.13,.75,.54,1.41,1.16,1.85,.49,.35,1.06,.53,1.64,.53,.16,0,.32-.01,.48-.04l1.52-.26v13.63c0,8.68,3.52,17.03,9.9,23.51,6.1,6.19,14,9.75,21.66,9.75,14.3,0,31.56-14.84,31.56-33.26v-24.32l1.97-.33c.75-.13,1.41-.54,1.85-1.16,.44-.62,.61-1.37,.49-2.12l-1.01-5.99c-.13-.75-.54-1.41-1.16-1.85-.62-.44-1.38-.61-2.12-.49l-1.25,.21c-3.89-14.18-16.23-24-30.32-24-2.26,0-4.51,.26-6.7,.76,.73-1.17,1.17-2.54,1.17-4.02,0-4.17-3.39-7.57-7.57-7.57s-7.57,3.39-7.57,7.57c0,3.49,2.38,6.42,5.59,7.3-1.41,.81-2.76,1.73-4.05,2.77-7.9,6.35-12.43,16-12.43,26.46v1.22l-3.49,.59h0Z"/></g><path d="M240.83,21.47c-.06,.06-.13,.12-.21,.17-.15,.1-.32,.17-.5,.21-.09,.02-.18,.03-.28,.03s-.19,0-.28-.03c-.64-.13-1.11-.69-1.11-1.37s.48-1.24,1.11-1.37c.09-.02,.18-.03,.28-.03s.19,0,.28,.03c.18,.04,.35,.11,.5,.21,.07,.05,.14,.11,.21,.17,.19,.19,.32,.43,.38,.71,.02,.09,.03,.18,.03,.28s0,.19-.03,.28c-.06,.27-.19,.52-.38,.71h0Z"/><path d="M231.47,21.88h0c-.19,0-.38-.04-.54-.11-.08-.04-.16-.08-.24-.13-.15-.1-.28-.23-.38-.38-.05-.07-.09-.15-.13-.24-.07-.17-.11-.35-.11-.54s.04-.38,.11-.54c.04-.08,.08-.16,.13-.24,.1-.15,.23-.28,.38-.38,.07-.05,.15-.09,.24-.13,.17-.07,.35-.11,.54-.11h0c.77,0,1.4,.62,1.4,1.4s-.62,1.4-1.4,1.4h0Z"/><path d="M215.71,21.47c-.06,.06-.13,.12-.21,.17-.15,.1-.32,.17-.5,.21-.09,.02-.19,.03-.28,.03s-.19,0-.28-.03c-.64-.13-1.11-.69-1.11-1.37s.48-1.24,1.11-1.37c.09-.02,.18-.03,.28-.03s.19,0,.28,.03c.18,.04,.35,.11,.5,.21,.07,.05,.14,.11,.21,.17,.19,.19,.32,.43,.38,.71,.02,.09,.03,.18,.03,.28s0,.19-.03,.28c-.06,.27-.19,.52-.38,.71h0Z"/><path d="M206.36,21.88h0c-.19,0-.38-.04-.54-.11-.08-.04-.16-.08-.24-.13-.15-.1-.28-.23-.38-.38-.05-.07-.09-.15-.13-.24-.07-.17-.11-.35-.11-.54s.04-.38,.11-.54c.04-.08,.08-.16,.13-.24,.1-.15,.23-.28,.38-.38,.07-.05,.15-.09,.24-.13,.17-.07,.35-.11,.54-.11h0c.77,0,1.4,.62,1.4,1.4s-.62,1.4-1.4,1.4h0Z"/><path d="M228.3,17.25s-.02,.03-.03,.04c-.06,.06-.13,.12-.21,.17-.07,.05-.15,.09-.24,.13-.17,.07-.35,.11-.54,.11s-.38-.04-.54-.11c-.15-.06-.29-.16-.41-.27-.01-.01-.02-.02-.04-.03-.01-.01-.02-.02-.03-.04-.11-.12-.2-.25-.27-.41-.07-.17-.11-.35-.11-.54,0-.77,.62-1.4,1.4-1.4h0c.19,0,.38,.04,.54,.11,.08,.04,.16,.08,.24,.13,.37,.25,.62,.68,.62,1.16,0,.19-.04,.38-.11,.54-.06,.15-.16,.29-.27,.41h0Z"/><path d="M219.69,17.45c-.07,.05-.15,.09-.24,.13-.17,.07-.35,.11-.54,.11-.17,0-.33-.03-.48-.09-.11-.04-.21-.09-.3-.15-.14-.09-.25-.21-.35-.34-.1-.14-.18-.3-.22-.47-.03-.11-.05-.22-.05-.34h0c0-.39,.16-.73,.41-.99,.06-.06,.13-.12,.21-.17,.15-.1,.32-.17,.5-.21,.09-.02,.18-.03,.28-.03,.39,0,.73,.16,.99,.41,.25,.25,.41,.6,.41,.99h0c0,.48-.24,.91-.62,1.16h0Z"/><path d="M244.03,23.27c.77,0,1.4,.62,1.4,1.4s-.62,1.4-1.4,1.4-1.4-.62-1.4-1.4,.62-1.4,1.4-1.4h0Z"/><path d="M235.66,26.06c-.77,0-1.4-.62-1.4-1.4s.62-1.4,1.4-1.4,1.4,.62,1.4,1.4-.62,1.4-1.4,1.4h0Z"/><path d="M227.28,23.27c.77,0,1.4,.62,1.4,1.4s-.62,1.4-1.4,1.4-1.4-.62-1.4-1.4,.62-1.4,1.4-1.4h0Z"/><path d="M218.91,26.06c-.77,0-1.4-.62-1.4-1.4s.62-1.4,1.4-1.4,1.4,.62,1.4,1.4-.62,1.4-1.4,1.4h0Z"/><path d="M210.54,26.06c-.77,0-1.4-.62-1.4-1.4s.62-1.4,1.4-1.4,1.4,.62,1.4,1.4-.62,1.4-1.4,1.4h0Z"/><path d="M202.17,26.06c-.77,0-1.4-.62-1.4-1.4s.62-1.4,1.4-1.4,1.4,.62,1.4,1.4-.62,1.4-1.4,1.4h0Z"/><path d="M239.84,30.25c-.77,0-1.4-.62-1.4-1.4s.62-1.4,1.4-1.4,1.4,.62,1.4,1.4-.62,1.4-1.4,1.4h0Z"/><path d="M231.47,30.25c-.77,0-1.4-.62-1.4-1.4s.62-1.4,1.4-1.4,1.4,.62,1.4,1.4-.62,1.4-1.4,1.4h0Z"/><path d="M223.1,30.25c-.77,0-1.4-.62-1.4-1.4s.62-1.4,1.4-1.4,1.4,.62,1.4,1.4-.62,1.4-1.4,1.4h0Z"/><path d="M214.73,30.25c-.77,0-1.4-.62-1.4-1.4s.62-1.4,1.4-1.4,1.4,.62,1.4,1.4-.62,1.4-1.4,1.4h0Z"/><path d="M206.36,30.25c-.77,0-1.4-.62-1.4-1.4s.62-1.4,1.4-1.4,1.4,.62,1.4,1.4-.62,1.4-1.4,1.4h0Z"/><path d="M224.09,21.47c-.06,.06-.13,.12-.21,.17-.15,.1-.32,.17-.5,.21-.09,.02-.18,.03-.28,.03-.29,0-.56-.09-.78-.24-.15-.1-.28-.23-.38-.38-.05-.07-.09-.15-.13-.24-.07-.17-.11-.35-.11-.54s.04-.38,.11-.54c.04-.08,.08-.16,.13-.24,.1-.15,.23-.28,.38-.38,.22-.15,.49-.24,.78-.24,.1,0,.19,0,.28,.03,.18,.04,.35,.11,.5,.21,.07,.05,.14,.11,.21,.17,.19,.19,.32,.43,.38,.71,.02,.09,.03,.18,.03,.28s0,.19-.03,.28c-.06,.27-.19,.52-.38,.71h0Z"/><path d="M223.1,38.62c-.77,0-1.4-.62-1.4-1.4s.62-1.4,1.4-1.4,1.4,.62,1.4,1.4-.62,1.4-1.4,1.4h0Z"/><path d="M214.73,38.62c-.77,0-1.4-.62-1.4-1.4s.62-1.4,1.4-1.4,1.4,.62,1.4,1.4-.62,1.4-1.4,1.4h0Z"/><path d="M206.36,38.62c-.77,0-1.4-.62-1.4-1.4s.62-1.4,1.4-1.4,1.4,.62,1.4,1.4-.62,1.4-1.4,1.4h0Z"/><path d="M197.98,38.62c-.77,0-1.4-.62-1.4-1.4s.62-1.4,1.4-1.4,1.4,.62,1.4,1.4-.62,1.4-1.4,1.4h0Z"/><path d="M244.03,31.64c.77,0,1.4,.62,1.4,1.4s-.62,1.4-1.4,1.4-1.4-.62-1.4-1.4,.62-1.4,1.4-1.4h0Z"/><path d="M235.66,34.43c-.77,0-1.4-.62-1.4-1.4s.62-1.4,1.4-1.4,1.4,.62,1.4,1.4-.62,1.4-1.4,1.4h0Z"/><path d="M227.28,31.64c.77,0,1.4,.62,1.4,1.4s-.62,1.4-1.4,1.4-1.4-.62-1.4-1.4,.62-1.4,1.4-1.4h0Z"/><path d="M218.91,34.43c-.77,0-1.4-.62-1.4-1.4s.62-1.4,1.4-1.4,1.4,.62,1.4,1.4-.62,1.4-1.4,1.4h0Z"/><path d="M210.54,34.43c-.77,0-1.4-.62-1.4-1.4s.62-1.4,1.4-1.4,1.4,.62,1.4,1.4-.62,1.4-1.4,1.4h0Z"/><path d="M202.17,34.43c-.77,0-1.4-.62-1.4-1.4s.62-1.4,1.4-1.4,1.4,.62,1.4,1.4-.62,1.4-1.4,1.4h0Z"/><path d="M210.54,9.32c-.77,0-1.4-.62-1.4-1.4s.62-1.4,1.4-1.4,1.4,.62,1.4,1.4-.62,1.4-1.4,1.4h0Z"/><path d="M252.4,40.02c.77,0,1.4,.62,1.4,1.4s-.62,1.4-1.4,1.4-1.4-.62-1.4-1.4,.62-1.4,1.4-1.4h0Z"/><path d="M244.03,40.02c.77,0,1.4,.62,1.4,1.4s-.62,1.4-1.4,1.4-1.4-.62-1.4-1.4,.62-1.4,1.4-1.4h0Z"/><path d="M235.66,40.02c.77,0,1.4,.62,1.4,1.4s-.62,1.4-1.4,1.4-1.4-.62-1.4-1.4,.62-1.4,1.4-1.4h0Z"/><path d="M202.17,42.81c-.77,0-1.4-.62-1.4-1.4s.62-1.4,1.4-1.4,1.4,.62,1.4,1.4-.62,1.4-1.4,1.4h0Z"/><path d="M239.84,44.2c.77,0,1.4,.62,1.4,1.4s-.62,1.4-1.4,1.4-1.4-.62-1.4-1.4,.62-1.4,1.4-1.4h0Z"/><path d="M231.47,44.2c.77,0,1.4,.62,1.4,1.4s-.62,1.4-1.4,1.4-1.4-.62-1.4-1.4,.62-1.4,1.4-1.4h0Z"/><path d="M223.1,44.2c.77,0,1.4,.62,1.4,1.4s-.62,1.4-1.4,1.4-1.4-.62-1.4-1.4,.62-1.4,1.4-1.4h0Z"/><path d="M214.73,44.2c.77,0,1.4,.62,1.4,1.4s-.62,1.4-1.4,1.4-1.4-.62-1.4-1.4,.62-1.4,1.4-1.4h0Z"/><path d="M210.54,48.39c.77,0,1.4,.62,1.4,1.4s-.62,1.4-1.4,1.4-1.4-.62-1.4-1.4,.62-1.4,1.4-1.4h0Z"/><path d="M202.17,48.39c.77,0,1.4,.62,1.4,1.4s-.62,1.4-1.4,1.4-1.4-.62-1.4-1.4,.62-1.4,1.4-1.4h0Z"/><path d="M193.8,48.39c.77,0,1.4,.62,1.4,1.4s-.62,1.4-1.4,1.4-1.4-.62-1.4-1.4,.62-1.4,1.4-1.4h0Z"/></g></svg>