<?xml version="1.0" encoding="UTF-8"?><svg id="a" xmlns="http://www.w3.org/2000/svg" viewBox="0 0 566.89 569.43"><defs><style>.b{isolation:isolate;}.c{fill:#fbea22;}.c,.d,.e{stroke:#020203;stroke-width:3px;}.c,.d,.e,.f{stroke-miterlimit:10;}.d{fill:#fff;}.e{fill:#fcf5e1;}.f{fill:#020203;stroke:#000;}</style></defs><circle class="e" cx="279.4" cy="287.01" r="268.9"/><circle class="d" cx="279.4" cy="287.01" r="192.4"/><g class="b"><path class="f" d="M186.31,227.57c8.68,0,15.56,2.09,20.64,6.27s7.62,9.95,7.62,17.32c0,4.85-1.45,9.28-4.36,13.27-2.91,4-7.55,7.64-13.93,10.92,7.72,3.82,13.21,7.83,16.47,12.03,3.25,4.2,4.88,9.06,4.88,14.59,0,8.18-2.76,14.7-8.27,19.57-5.51,4.88-13.06,7.31-22.65,7.31-10.16,0-17.97-2.3-23.44-6.91-5.47-4.6-8.2-11.13-8.2-19.57,0-11.28,6.64-20.06,19.92-26.35-5.99-3.5-10.29-7.29-12.89-11.35-2.6-4.06-3.91-8.61-3.91-13.65,0-7.14,2.55-12.84,7.65-17.08,5.1-4.25,11.92-6.37,20.47-6.37Zm-20.57,75.06c0,5.39,1.81,9.59,5.44,12.6,3.62,3.01,8.71,4.51,15.27,4.51s11.5-1.57,15.1-4.72c3.6-3.14,5.4-7.46,5.4-12.94,0-4.36-1.69-8.23-5.08-11.62s-9.29-6.68-17.71-9.87c-6.47,2.88-11.15,6.05-14.06,9.53-2.91,3.48-4.36,7.65-4.36,12.5Zm20.44-65.97c-5.43,0-9.68,1.35-12.76,4.04-3.08,2.7-4.62,6.29-4.62,10.78,0,4.13,1.28,7.68,3.84,10.65,2.56,2.96,7.29,5.93,14.19,8.89,6.21-2.7,10.6-5.59,13.18-8.69,2.58-3.1,3.87-6.72,3.87-10.85,0-4.54-1.57-8.14-4.72-10.81-3.15-2.67-7.48-4.01-12.99-4.01Z"/><path class="f" d="M262.54,227.57c8.68,0,15.56,2.09,20.64,6.27,5.08,4.18,7.62,9.95,7.62,17.32,0,4.85-1.46,9.28-4.36,13.27-2.91,4-7.55,7.64-13.93,10.92,7.72,3.82,13.22,7.83,16.47,12.03,3.26,4.2,4.88,9.06,4.88,14.59,0,8.18-2.76,14.7-8.27,19.57-5.51,4.88-13.06,7.31-22.65,7.31-10.16,0-17.97-2.3-23.44-6.91-5.47-4.6-8.2-11.13-8.2-19.57,0-11.28,6.64-20.06,19.92-26.35-5.99-3.5-10.29-7.29-12.89-11.35-2.6-4.06-3.91-8.61-3.91-13.65,0-7.14,2.55-12.84,7.65-17.08,5.1-4.25,11.92-6.37,20.47-6.37Zm-20.57,75.06c0,5.39,1.81,9.59,5.44,12.6,3.62,3.01,8.71,4.51,15.27,4.51s11.5-1.57,15.1-4.72c3.6-3.14,5.4-7.46,5.4-12.94,0-4.36-1.69-8.23-5.08-11.62s-9.29-6.68-17.71-9.87c-6.47,2.88-11.15,6.05-14.06,9.53-2.91,3.48-4.36,7.65-4.36,12.5Zm20.44-65.97c-5.43,0-9.68,1.35-12.76,4.04-3.08,2.7-4.62,6.29-4.62,10.78,0,4.13,1.28,7.68,3.84,10.65,2.56,2.96,7.29,5.93,14.19,8.89,6.21-2.7,10.6-5.59,13.18-8.69,2.58-3.1,3.87-6.72,3.87-10.85,0-4.54-1.57-8.14-4.72-10.81-3.15-2.67-7.48-4.01-12.99-4.01Z"/><path class="f" d="M346.32,258.37c0,10.24-1.66,17.98-4.98,23.21-3.32,5.23-8.19,7.85-14.61,7.85-6.08,0-10.8-2.67-14.16-8.02-3.36-5.35-5.04-13.03-5.04-23.04s1.62-17.88,4.85-23.04c3.23-5.17,8.02-7.75,14.35-7.75s11.13,2.67,14.52,8.02c3.38,5.35,5.08,12.94,5.08,22.78Zm-29.82,0c0,7.64,.8,13.36,2.41,17.18,1.61,3.82,4.21,5.73,7.81,5.73,7.12,0,10.68-7.64,10.68-22.91s-3.56-22.78-10.68-22.78c-3.6,0-6.21,1.89-7.81,5.66s-2.41,9.48-2.41,17.12Zm70.37-29.38l-52.79,98.51h-9.57l52.79-98.51h9.57Zm16.8,68.87c0,10.2-1.66,17.91-4.98,23.15-3.32,5.23-8.19,7.85-14.61,7.85s-10.9-2.67-14.22-8.02c-3.32-5.35-4.98-13-4.98-22.98s1.62-17.88,4.85-23.04c3.23-5.17,8.02-7.75,14.35-7.75s10.97,2.64,14.42,7.92c3.45,5.28,5.18,12.9,5.18,22.88Zm-29.88,0c0,7.68,.8,13.42,2.41,17.22,1.61,3.8,4.23,5.69,7.88,5.69s6.34-1.88,8.07-5.63c1.74-3.75,2.6-9.51,2.6-17.28s-.87-13.38-2.6-17.08c-1.74-3.71-4.43-5.56-8.07-5.56s-6.27,1.85-7.88,5.56c-1.61,3.71-2.41,9.4-2.41,17.08Z"/></g><path class="c" d="M565,269.51c-.2-3.9-.6-10.1-1.6-18.2-3-27.5-9.3-48.2-12.9-58.9-8.6-25.2-29.6-58.6-29.6-58.6-10.5-16.6-36-52.7-81.5-83.5-40.8-27.6-78.6-37.9-94.9-41.7-26-5.9-48.7-7.2-65.4-7.1V114.61c13.1-.5,33.4,.2,56.7,7.5,54.4,17.1,90.2,70.3,90.2,70.3,6.6,9.9,15.5,25.3,21.6,45.6,6.7,25,6.3,46.2,5.9,57.5-.2,7-.9,13.7-1.7,20.1-4.3,24.2-12.4,41-14.9,45.8-22.4,44.7-58,65.8-73.2,74.4-5.8,3.3-11.5,6.1-17,8.6,0,0-31.7,10.6-56.1,11.9-61.3,3.2-104.4-29-112.1-35-39.5-30.6-53.2-69.7-58.8-86.3-2.6-7.8-4.5-15.3-6-22.4-1.6-10.6-1.8-18.4-1.9-21.5-.7-50,21.2-85.1,30.7-99.8,15.9-24.6,34.3-40.8,46.8-50.2-20-29.5-40.1-59-60.1-88.4-21.3,13.5-65,45.3-95.8,103.6-7.3,13.9-31.2,61.9-31.9,128.5v3.6c0,25.1,3.4,58.7,16.9,95.5,2.9,8.1,6.3,16.4,10.2,25,20.8,44.6,48,72.9,60,84.5,19.3,18.4,54.4,36.4,54.4,36.4,18.9,10.7,44.3,22.4,75.5,30,47.9,11.6,86.9,8,103.5,5.9,26.4-3.6,63.3-17.6,63.3-17.6,18.6-7,38.8-17,59.1-31,13.6-9.4,60.6-43.7,92-108.2,4.9-10,12.9-28.1,19.3-52.3,6.4-23.8,11.1-53.3,9.3-87.1Z"/></svg>