<?xml version="1.0" encoding="utf-8"?>
<!-- Generator: Adobe Illustrator 26.0.1, SVG Export Plug-In . SVG Version: 6.00 Build 0)  -->
<svg version="1.1" id="Laag_1" xmlns="http://www.w3.org/2000/svg" xmlns:xlink="http://www.w3.org/1999/xlink" x="0px" y="0px"
	 viewBox="0 0 589.7 437.5" style="enable-background:new 0 0 589.7 437.5;" xml:space="preserve">
<style type="text/css">
	.st0{fill:#12100B;}
	.st1{clip-path:url(#SVGID_00000084501352252298950560000007188687328018898053_);fill:#12100B;}
	.st2{clip-path:url(#SVGID_00000066514018960139159040000010747360021157043844_);fill:#12100B;}
	.st3{fill:#10100D;}
</style>
<g>
	<path class="st0" d="M482.3,340.6c-3.2,3.2-3.2,8.5,0,11.7c3.2,3.2,8.5,3.2,11.7,0c3.2-3.2,3.2-8.5,0-11.7
		C490.8,337.4,485.5,337.4,482.3,340.6L482.3,340.6z"/>
	<path class="st0" d="M529.2,387.5c3.2-3.2,3.2-8.5,0-11.7c-3.2-3.2-8.5-3.2-11.7,0s-3.2,8.5,0,11.7
		C520.7,390.7,525.9,390.7,529.2,387.5L529.2,387.5z"/>
	<path class="st0" d="M412,340.6c-3.2,3.2-3.2,8.5,0,11.7c3.2,3.2,8.5,3.2,11.7,0c3.2-3.2,3.2-8.5,0-11.7
		C420.5,337.4,415.2,337.4,412,340.6L412,340.6z"/>
	<path class="st0" d="M447.1,375.7c-3.2,3.2-3.2,8.5,0,11.7c3.2,3.2,8.5,3.2,11.7,0c3.2-3.2,3.2-8.5,0-11.7
		C455.6,372.5,450.4,372.5,447.1,375.7L447.1,375.7z"/>
	<path class="st0" d="M447.1,340.6c-3.2,3.2-3.2,8.5,0,11.7c3.2,3.2,8.5,3.2,11.7,0c3.2-3.2,3.2-8.5,0-11.7
		C455.6,337.4,450.4,337.4,447.1,340.6L447.1,340.6z"/>
	<path class="st0" d="M482.3,375.7c-3.2,3.2-3.2,8.5,0,11.7c3.2,3.2,8.5,3.2,11.7,0s3.2-8.5,0-11.7
		C490.8,372.5,485.5,372.5,482.3,375.7L482.3,375.7z"/>
	<path class="st0" d="M376.9,340.6c-3.2,3.2-3.2,8.5,0,11.7c3.2,3.2,8.5,3.2,11.7,0c3.2-3.2,3.2-8.5,0-11.7
		C385.3,337.4,380.1,337.4,376.9,340.6L376.9,340.6z"/>
	<path class="st0" d="M412,375.7c-3.2,3.2-3.2,8.5,0,11.7c3.2,3.2,8.5,3.2,11.7,0c3.2-3.2,3.2-8.5,0-11.7
		C420.5,372.5,415.2,372.5,412,375.7L412,375.7z"/>
	<path class="st0" d="M353.4,352.3c3.2-3.2,3.2-8.5,0-11.7c-3.2-3.2-8.5-3.2-11.7,0c-3.2,3.2-3.2,8.5,0,11.7
		C345,355.6,350.2,355.6,353.4,352.3L353.4,352.3z"/>
	<path class="st0" d="M376.9,375.7c-3.2,3.2-3.2,8.5,0,11.7c3.2,3.2,8.5,3.2,11.7,0c3.2-3.2,3.2-8.5,0-11.7
		C385.3,372.5,380.1,372.5,376.9,375.7L376.9,375.7z"/>
	<path class="st0" d="M283.1,352.3c3.2-3.2,3.2-8.5,0-11.7c-3.2-3.2-8.5-3.2-11.7,0c-3.2,3.2-3.2,8.5,0,11.7
		C274.7,355.6,279.9,355.6,283.1,352.3L283.1,352.3z"/>
	<path class="st0" d="M318.3,352.3c3.2-3.2,3.2-8.5,0-11.7c-3.2-3.2-8.5-3.2-11.7,0c-3.2,3.2-3.2,8.5,0,11.7
		C309.8,355.6,315,355.6,318.3,352.3L318.3,352.3z"/>
	<path class="st0" d="M248,352.3c3.2-3.2,3.2-8.5,0-11.7c-3.2-3.2-8.5-3.2-11.7,0c-3.2,3.2-3.2,8.5,0,11.7
		C239.5,355.6,244.8,355.6,248,352.3L248,352.3z"/>
	<path class="st0" d="M201.1,340.6c-3.2,3.2-3.2,8.5,0,11.7c3.2,3.2,8.5,3.2,11.7,0c3.2-3.2,3.2-8.5,0-11.7S204.4,337.4,201.1,340.6
		L201.1,340.6z"/>
	<path class="st0" d="M130.8,340.6c-3.2,3.2-3.2,8.5,0,11.7c3.2,3.2,8.5,3.2,11.7,0c3.2-3.2,3.2-8.5,0-11.7
		C139.3,337.4,134.1,337.4,130.8,340.6L130.8,340.6z"/>
	<path class="st0" d="M166,375.7c-3.2,3.2-3.2,8.5,0,11.7s8.5,3.2,11.7,0c3.2-3.2,3.2-8.5,0-11.7C174.5,372.5,169.2,372.5,166,375.7
		L166,375.7z"/>
	<path class="st0" d="M166,340.6c-3.2,3.2-3.2,8.5,0,11.7c3.2,3.2,8.5,3.2,11.7,0c3.2-3.2,3.2-8.5,0-11.7
		C174.5,337.4,169.2,337.4,166,340.6L166,340.6z"/>
	<path class="st0" d="M201.1,375.7c-3.2,3.2-3.2,8.5,0,11.7s8.5,3.2,11.7,0s3.2-8.5,0-11.7C209.6,372.5,204.4,372.5,201.1,375.7
		L201.1,375.7z"/>
	<path class="st0" d="M95.7,340.6c-3.2,3.2-3.2,8.5,0,11.7c3.2,3.2,8.5,3.2,11.7,0c3.2-3.2,3.2-8.5,0-11.7
		C104.2,337.4,98.9,337.4,95.7,340.6L95.7,340.6z"/>
	<path class="st0" d="M130.8,375.7c-3.2,3.2-3.2,8.5,0,11.7c3.2,3.2,8.5,3.2,11.7,0c3.2-3.2,3.2-8.5,0-11.7
		C139.3,372.5,134.1,372.5,130.8,375.7L130.8,375.7z"/>
	<path class="st0" d="M95.7,375.7c-3.2,3.2-3.2,8.5,0,11.7c3.2,3.2,8.5,3.2,11.7,0c3.2-3.2,3.2-8.5,0-11.7
		C104.2,372.5,98.9,372.5,95.7,375.7L95.7,375.7z"/>
	<g>
		<g>
			<defs>
				<rect id="SVGID_1_" y="4.6" width="589.7" height="422.4"/>
			</defs>
			<clipPath id="SVGID_00000115473761910979452840000017223081271449136773_">
				<use xlink:href="#SVGID_1_"  style="overflow:visible;"/>
			</clipPath>
			<path style="clip-path:url(#SVGID_00000115473761910979452840000017223081271449136773_);fill:#12100B;" d="M60.5,375.7
				c-3.2,3.2-3.2,8.5,0,11.7c3.2,3.2,8.5,3.2,11.7,0c3.2-3.2,3.2-8.5,0-11.7C69,372.5,63.8,372.5,60.5,375.7L60.5,375.7z"/>
		</g>
		<g>
			<defs>
				<rect id="SVGID_00000149383121424460871950000017467448079448098963_" y="4.6" width="589.7" height="422.4"/>
			</defs>
			<clipPath id="SVGID_00000156587473787369807170000016077969655231494324_">
				<use xlink:href="#SVGID_00000149383121424460871950000017467448079448098963_"  style="overflow:visible;"/>
			</clipPath>
			<path style="clip-path:url(#SVGID_00000156587473787369807170000016077969655231494324_);fill:#12100B;" d="M12.4,415.3
				l62.7-102.5H515l62.3,102.5H12.4L12.4,415.3z M76.3,22.9c0-3.7,3-6.6,6.6-6.6h423.8c3.6,0,6.6,3,6.6,6.6v278.2H76.3V22.9
				L76.3,22.9z M588.1,410.7l-63-103.8v-284c0-10.1-8.2-18.3-18.3-18.3H82.9c-10.1,0-18.3,8.2-18.3,18.3v284.7L1.6,410.6
				c-2,3.3-2.1,7.5-0.2,10.9c1.9,3.4,5.5,5.5,9.4,5.5h568.2c3.9,0,7.5-2.1,9.4-5.5C590.2,418.1,590.1,414,588.1,410.7L588.1,410.7z"
				/>
		</g>
	</g>
	<path class="st0" d="M350.1,366.5L350.1,366.5c-0.5-1-1.6-1.7-2.6-1.7h-105c-1.1,0-2.1,0.6-2.6,1.7l-14.1,26.7
		c-0.6,1.1-0.6,2.5,0.1,3.6c0.6,0.9,1.5,1.5,2.6,1.5h133.2c1,0,2-0.6,2.5-1.5c0.7-1.1,0.7-2.5,0.1-3.6L350.1,366.5L350.1,366.5z"/>
	<path class="st0" d="M354.4,188.1l13.7-25.9c0.9-1.6,2.3-2.6,4-2.9l29-4.1l-58.8-35.3L354.4,188.1L354.4,188.1z"/>
	<path class="st0" d="M416.3,158.2c-0.5,2.5-2.4,4.5-4.9,5l-0.3,0.1l-28.8,4l23.6,35l-10.6,7.2l-23.4-34.7l-13.8,26.1
		c-1.1,1.9-3.1,3-5.3,3c-0.4,0-0.7,0-1.1-0.1c-2.5-0.4-4.5-2.4-5-4.9L331.9,115c-0.4-2.4,0.6-4.9,2.6-6.3c2-1.4,4.7-1.5,6.9-0.2
		l72,43.3C415.6,153.2,416.7,155.7,416.3,158.2L416.3,158.2z M493.9,30.6h-398c-4.6,0-8.4,3.8-8.4,8.4v241.4c0,4.6,3.8,8.4,8.4,8.4
		h398c4.6,0,8.4-3.8,8.4-8.4V39C502.3,34.4,498.5,30.6,493.9,30.6L493.9,30.6z"/>
</g>
<ellipse class="st3" cx="374.5" cy="166.6" rx="59.3" ry="87.3"/>
</svg>
