<?xml version="1.0" encoding="UTF-8"?><svg xmlns="http://www.w3.org/2000/svg" xmlns:xlink="http://www.w3.org/1999/xlink" viewBox="0 0 95.8 84.22"><defs><style>.e{clip-path:url(#d);}.f{fill:none;}</style><clipPath id="d"><rect class="f" width="95.8" height="84.22"/></clipPath></defs><g id="a"/><g id="b"><g id="c"><g><path d="M22.89,63.88c1.24,.58,2.63,.55,4.16-.11,1.07-.46,1.89-1.03,2.44-1.7l-.61-1.42c-.76,.78-1.59,1.35-2.47,1.73-1.03,.44-1.96,.43-2.78-.04-.82-.47-1.51-1.36-2.07-2.66-1.18-2.74-.69-4.57,1.46-5.49,.32-.14,.71-.25,1.17-.34,.46-.09,.89-.13,1.31-.14l-.09-1.57c-.35-.02-.81,.02-1.36,.13-.56,.11-1.09,.27-1.6,.49-1.58,.68-2.58,1.68-3.02,3.01-.44,1.33-.28,2.88,.48,4.65,.74,1.72,1.73,2.88,2.97,3.46h0Z"/><path d="M33.75,60.67l-2.38-5.55c-.59-1.37-.78-2.46-.57-3.26,.21-.8,.81-1.42,1.82-1.85,.77-.33,1.42-.36,1.96-.09,.54,.27,.99,.82,1.35,1.66l2.95,6.88,1.6-.69-2.53-5.91c-.51-1.19-.65-2.17-.42-2.95,.23-.78,.84-1.38,1.84-1.81,.76-.33,1.41-.35,1.95-.09,.54,.27,.99,.82,1.35,1.66l2.95,6.88,1.6-.69-2.96-6.9c-.58-1.35-1.3-2.21-2.16-2.57-.86-.36-1.89-.28-3.08,.23-.77,.33-1.38,.78-1.84,1.36-.46,.58-.73,1.21-.81,1.9l-.08,.03c-1.02-.98-2.36-1.11-4.01-.41-.68,.29-1.24,.7-1.66,1.23-.43,.53-.68,1.11-.76,1.75l-.08,.03-.88-1.34-1.3,.56,4.53,10.58,1.6-.69h0Z"/><g class="e"><path d="M48.78,44.36c.19-.94,.75-1.62,1.69-2.02,1.09-.47,2.03-.49,2.8-.06,.77,.43,1.48,1.39,2.12,2.89l.14,.34c.57,1.33,.73,2.39,.5,3.2-.24,.81-.9,1.44-2,1.91-.96,.41-1.83,.38-2.62-.1-.79-.48-1.48-1.39-2.05-2.74-.57-1.33-.76-2.47-.58-3.41h0Zm1.79,7.65c1.17,.62,2.45,.63,3.84,.04,1.47-.63,2.35-1.64,2.63-3.03l.09-.04,.82,1.33,1.3-.56-6.44-15.02-1.6,.69,1.85,4.31,.36,.73,.39,.73-.12,.05c-1.21-.71-2.54-.76-3.97-.15-1.38,.59-2.25,1.53-2.6,2.83-.36,1.3-.16,2.82,.58,4.56,.75,1.74,1.71,2.92,2.88,3.54h0Z"/><path d="M2.09,46.52c-.11-.25-.15-.53-.11-.8l.58-7.27,15.12,35.27-.78,6.71L2.09,46.52h0Zm1.2-12.97L76.86,2.02c.08-.03,.17-.05,.25-.05,.25,0,.48,.14,.59,.39l7.35,17.15c-.53,.11-.99,.46-1.21,1-.35,.85,.06,1.82,.9,2.17,.54,.22,1.14,.13,1.59-.18l1.51,3.51c-.56,.09-1.05,.45-1.28,1-.35,.85,.06,1.82,.9,2.17,.57,.23,1.19,.12,1.64-.23l1.52,3.55c-.58,.07-1.12,.43-1.35,1.01-.35,.85,.06,1.82,.9,2.17,.59,.24,1.24,.11,1.7-.27l1.54,3.59c-.61,.04-1.18,.41-1.43,1.02-.19,.45-.15,.93,.04,1.34l-3.44,1.47c-.15-.44-.47-.82-.93-1.01-.85-.35-1.82,.06-2.17,.9-.19,.47-.15,.98,.07,1.4l-3.45,1.48c-.14-.47-.47-.87-.95-1.07-.85-.35-1.82,.06-2.17,.9-.2,.5-.14,1.03,.11,1.46l-3.46,1.48c-.12-.5-.47-.93-.98-1.14-.85-.35-1.82,.06-2.17,.9-.21,.52-.14,1.08,.14,1.52l-53.3,22.85L2.96,34.39c-.03-.07-.05-.15-.05-.23v-.14s.03-.08,.04-.11c.06-.16,.18-.28,.34-.35h0Zm92.3,5.57L79.5,1.58c-.57-1.32-2.1-1.93-3.42-1.37L2.52,31.74c-.88,.38-1.45,1.19-1.56,2.09h0c0,.06-.01,.12-.01,.17L.02,45.51c-.07,.61,.02,1.23,.26,1.8l15.43,35.34c.27,.64,.78,1.13,1.43,1.39,.31,.13,.64,.19,.97,.19,.35,0,.7-.07,1.03-.21l72.35-31.4c1.06-.45,1.83-1.39,2.05-2.5l2.15-9.21c.17-.57,.15-1.19-.1-1.78h0Z"/></g><path d="M64.08,13.96c.19-.08,.39-.12,.58-.12,.57,0,1.12,.34,1.36,.89l.58,1.36-1.36,.58c-.36,.16-.76,.16-1.13,.01-.37-.15-.65-.43-.81-.79-.32-.75,.03-1.62,.78-1.94h0Zm7.72,2.04l1.12,2.61-2.61,1.12-1.12-2.61,2.61-1.12h0Zm.44-5.07c.15-.37,.43-.65,.79-.81,.19-.08,.39-.12,.58-.12,.57,0,1.12,.34,1.36,.89,.32,.75-.03,1.62-.78,1.94l-1.36,.58-.58-1.36c-.16-.36-.16-.76-.01-1.13h0Zm-2.37,13.87c-.15,.37-.43,.65-.79,.81-.75,.32-1.62-.03-1.94-.77-.32-.75,.03-1.62,.78-1.94l1.36-.58,.58,1.36c.16,.36,.16,.76,.01,1.13h0Zm6.99-5.74c.36-.16,.76-.16,1.13-.01,.37,.15,.65,.43,.81,.79,.32,.75-.03,1.62-.78,1.94-.75,.32-1.62-.03-1.94-.78l-.58-1.36,1.36-.58h0Zm-13.47-.56c.85,.34,1.79,.33,2.63-.03l1.36-.58,1.12,2.61-1.36,.58c-1.74,.75-2.56,2.78-1.81,4.52,.56,1.3,1.83,2.09,3.17,2.09,.45,0,.91-.09,1.35-.28,.85-.36,1.5-1.03,1.84-1.89,.34-.85,.33-1.79-.03-2.63l-.58-1.36,2.61-1.12,.58,1.36c.75,1.74,2.78,2.56,4.52,1.81,1.74-.75,2.56-2.78,1.81-4.52-.36-.85-1.03-1.5-1.89-1.84-.85-.34-1.79-.33-2.63,.03l-1.36,.58-1.12-2.61,1.36-.58c1.74-.75,2.56-2.78,1.81-4.52-.75-1.74-2.77-2.56-4.52-1.81-.85,.36-1.5,1.03-1.84,1.89-.34,.85-.33,1.79,.03,2.63l.58,1.36-2.61,1.12-.58-1.36c-.75-1.74-2.78-2.56-4.52-1.81-1.74,.75-2.56,2.78-1.81,4.52,.36,.85,1.03,1.5,1.89,1.84h0Z"/><path d="M82.76,36.22c-.35,.85,.06,1.82,.9,2.17,.85,.35,1.82-.06,2.17-.9,.35-.85-.06-1.82-.9-2.17-.85-.35-1.82,.06-2.17,.9h0Z"/><path d="M80.04,29.72c-.35,.85,.06,1.82,.9,2.17,.85,.35,1.82-.06,2.17-.9,.35-.85-.06-1.82-.9-2.17-.85-.35-1.82,.06-2.17,.9h0Z"/><path d="M78.42,38.03c-.85-.35-1.82,.06-2.17,.9-.35,.85,.06,1.82,.9,2.17,.85,.35,1.82-.06,2.17-.9,.35-.85-.06-1.82-.9-2.17h0Z"/></g></g></g></svg>