<?xml version="1.0" encoding="utf-8"?>
<!-- Generator: Adobe Illustrator 26.0.1, SVG Export Plug-In . SVG Version: 6.00 Build 0)  -->
<svg version="1.1" id="Laag_1" xmlns="http://www.w3.org/2000/svg" xmlns:xlink="http://www.w3.org/1999/xlink" x="0px" y="0px"
	 viewBox="0 0 595.28 841.89" style="enable-background:new 0 0 595.28 841.89;" xml:space="preserve">
<style type="text/css">
	.st0{fill:#12100B;}
	.st1{clip-path:url(#SVGID_00000039093690503988286030000009477306593634394800_);fill:#12100B;}
</style>
<g>
	<path class="st0" d="M267.15,345.91l100.46-101.18c4.06-4.09,3.96-10.72-0.22-14.69l-100.46-95.28
		c-6.54-6.21-17.34-1.57-17.34,7.45v196.47C249.59,347.85,260.69,352.42,267.15,345.91L267.15,345.91z"/>
	<path class="st0" d="M507.68,161.4c5.26,0,9.52-4.27,9.52-9.53c0-5.26-4.26-9.53-9.52-9.53c-5.26,0-9.53,4.27-9.53,9.53
		C498.15,157.13,502.42,161.4,507.68,161.4L507.68,161.4z"/>
	<path class="st0" d="M536.25,132.82c5.26,0,9.53-4.27,9.53-9.53c0-5.26-4.26-9.53-9.53-9.53c-5.26,0-9.53,4.27-9.53,9.53
		C526.73,128.55,530.99,132.82,536.25,132.82L536.25,132.82z"/>
	<path class="st0" d="M479.1,189.97c5.26,0,9.53-4.27,9.53-9.53c0-5.26-4.27-9.53-9.53-9.53c-5.26,0-9.53,4.27-9.53,9.53
		C469.57,185.71,473.84,189.97,479.1,189.97L479.1,189.97z"/>
	<path class="st0" d="M536.25,189.97c5.26,0,9.53-4.27,9.53-9.53c0-5.26-4.26-9.53-9.53-9.53c-5.26,0-9.53,4.27-9.53,9.53
		C526.73,185.71,530.99,189.97,536.25,189.97L536.25,189.97z"/>
	<path class="st0" d="M450.52,218.55c5.26,0,9.53-4.26,9.53-9.53c0-5.26-4.27-9.53-9.53-9.53c-5.26,0-9.53,4.26-9.53,9.53
		C440.99,214.29,445.26,218.55,450.52,218.55L450.52,218.55z"/>
	<path class="st0" d="M507.68,218.55c5.26,0,9.52-4.26,9.52-9.53c0-5.26-4.26-9.53-9.52-9.53c-5.26,0-9.53,4.26-9.53,9.53
		C498.15,214.29,502.42,218.55,507.68,218.55L507.68,218.55z"/>
	<path class="st0" d="M393.36,275.71c5.26,0,9.53-4.27,9.53-9.53c0-5.26-4.27-9.53-9.53-9.53c-5.26,0-9.53,4.27-9.53,9.53
		C383.84,271.45,388.1,275.71,393.36,275.71L393.36,275.71z"/>
	<path class="st0" d="M450.52,275.71c5.26,0,9.53-4.27,9.53-9.53c0-5.26-4.27-9.53-9.53-9.53c-5.26,0-9.53,4.27-9.53,9.53
		C440.99,271.45,445.26,275.71,450.52,275.71L450.52,275.71z"/>
	<path class="st0" d="M507.68,275.71c5.26,0,9.52-4.27,9.52-9.53c0-5.26-4.26-9.53-9.52-9.53c-5.26,0-9.53,4.27-9.53,9.53
		C498.15,271.45,502.42,275.71,507.68,275.71L507.68,275.71z"/>
	<path class="st0" d="M421.94,247.13c5.26,0,9.53-4.26,9.53-9.53c0-5.26-4.27-9.53-9.53-9.53c-5.26,0-9.53,4.26-9.53,9.53
		C412.41,242.87,416.68,247.13,421.94,247.13L421.94,247.13z"/>
	<path class="st0" d="M479.1,247.13c5.26,0,9.53-4.26,9.53-9.53c0-5.26-4.27-9.53-9.53-9.53c-5.26,0-9.53,4.26-9.53,9.53
		C469.57,242.87,473.84,247.13,479.1,247.13L479.1,247.13z"/>
	<path class="st0" d="M536.25,247.13c5.26,0,9.53-4.26,9.53-9.53c0-5.26-4.26-9.53-9.53-9.53c-5.26,0-9.53,4.26-9.53,9.53
		C526.73,242.87,530.99,247.13,536.25,247.13L536.25,247.13z"/>
	<path class="st0" d="M355.26,294.76c0,5.26,4.26,9.53,9.53,9.53c5.26,0,9.53-4.27,9.53-9.53c0-5.26-4.26-9.53-9.53-9.53
		C359.52,285.24,355.26,289.5,355.26,294.76L355.26,294.76z"/>
	<path class="st0" d="M421.94,304.29c5.26,0,9.53-4.27,9.53-9.53c0-5.26-4.27-9.53-9.53-9.53c-5.26,0-9.53,4.27-9.53,9.53
		C412.41,300.02,416.68,304.29,421.94,304.29L421.94,304.29z"/>
	<path class="st0" d="M479.1,304.29c5.26,0,9.53-4.27,9.53-9.53c0-5.26-4.27-9.53-9.53-9.53c-5.26,0-9.53,4.27-9.53,9.53
		C469.57,300.02,473.84,304.29,479.1,304.29L479.1,304.29z"/>
	<path class="st0" d="M536.25,304.29c5.26,0,9.53-4.27,9.53-9.53c0-5.26-4.26-9.53-9.53-9.53c-5.26,0-9.53,4.27-9.53,9.53
		C526.73,300.02,530.99,304.29,536.25,304.29L536.25,304.29z"/>
	<path class="st0" d="M336.2,313.81c-5.26,0-9.52,4.27-9.52,9.53c0,5.26,4.26,9.53,9.52,9.53c5.26,0,9.53-4.27,9.53-9.53
		C345.73,318.08,341.47,313.81,336.2,313.81L336.2,313.81z"/>
	<path class="st0" d="M393.36,332.87c5.26,0,9.53-4.27,9.53-9.53c0-5.26-4.27-9.53-9.53-9.53c-5.26,0-9.53,4.27-9.53,9.53
		C383.84,328.6,388.1,332.87,393.36,332.87L393.36,332.87z"/>
	<path class="st0" d="M450.52,332.87c5.26,0,9.53-4.27,9.53-9.53c0-5.26-4.27-9.53-9.53-9.53c-5.26,0-9.53,4.27-9.53,9.53
		C440.99,328.6,445.26,332.87,450.52,332.87L450.52,332.87z"/>
	<path class="st0" d="M507.68,332.87c5.26,0,9.52-4.27,9.52-9.53c0-5.26-4.26-9.53-9.52-9.53c-5.26,0-9.53,4.27-9.53,9.53
		C498.15,328.6,502.42,332.87,507.68,332.87L507.68,332.87z"/>
	<path class="st0" d="M279.05,370.97c-5.26,0-9.53,4.26-9.53,9.53c0,5.26,4.27,9.53,9.53,9.53c5.26,0,9.53-4.27,9.53-9.53
		C288.57,375.24,284.31,370.97,279.05,370.97L279.05,370.97z"/>
	<path class="st0" d="M336.2,370.97c-5.26,0-9.52,4.26-9.52,9.53c0,5.26,4.26,9.53,9.52,9.53c5.26,0,9.53-4.27,9.53-9.53
		C345.73,375.24,341.47,370.97,336.2,370.97L336.2,370.97z"/>
	<path class="st0" d="M393.36,390.03c5.26,0,9.53-4.27,9.53-9.53c0-5.26-4.27-9.53-9.53-9.53c-5.26,0-9.53,4.26-9.53,9.53
		C383.84,385.76,388.1,390.03,393.36,390.03L393.36,390.03z"/>
	<path class="st0" d="M450.52,390.03c5.26,0,9.53-4.27,9.53-9.53c0-5.26-4.27-9.53-9.53-9.53c-5.26,0-9.53,4.26-9.53,9.53
		C440.99,385.76,445.26,390.03,450.52,390.03L450.52,390.03z"/>
	<path class="st0" d="M507.68,390.03c5.26,0,9.52-4.27,9.52-9.53c0-5.26-4.26-9.53-9.52-9.53c-5.26,0-9.53,4.26-9.53,9.53
		C498.15,385.76,502.42,390.03,507.68,390.03L507.68,390.03z"/>
	<path class="st0" d="M307.63,342.39c-5.26,0-9.53,4.26-9.53,9.53c0,5.26,4.27,9.53,9.53,9.53c5.26,0,9.53-4.26,9.53-9.53
		C317.15,346.66,312.89,342.39,307.63,342.39L307.63,342.39z"/>
	<path class="st0" d="M364.78,342.39c-5.26,0-9.53,4.26-9.53,9.53c0,5.26,4.26,9.53,9.53,9.53c5.26,0,9.53-4.26,9.53-9.53
		C374.31,346.66,370.04,342.39,364.78,342.39L364.78,342.39z"/>
	<path class="st0" d="M421.94,361.45c5.26,0,9.53-4.26,9.53-9.53c0-5.26-4.27-9.53-9.53-9.53c-5.26,0-9.53,4.26-9.53,9.53
		C412.41,357.18,416.68,361.45,421.94,361.45L421.94,361.45z"/>
	<path class="st0" d="M479.1,361.45c5.26,0,9.53-4.26,9.53-9.53c0-5.26-4.27-9.53-9.53-9.53c-5.26,0-9.53,4.26-9.53,9.53
		C469.57,357.18,473.84,361.45,479.1,361.45L479.1,361.45z"/>
	<path class="st0" d="M536.25,361.45c5.26,0,9.53-4.26,9.53-9.53c0-5.26-4.26-9.53-9.53-9.53c-5.26,0-9.53,4.26-9.53,9.53
		C526.73,357.18,530.99,361.45,536.25,361.45L536.25,361.45z"/>
	<path class="st0" d="M250.47,418.6c5.26,0,9.53-4.27,9.53-9.53c0-5.26-4.27-9.53-9.53-9.53c-5.26,0-9.53,4.27-9.53,9.53
		C240.94,414.34,245.21,418.6,250.47,418.6L250.47,418.6z"/>
	<path class="st0" d="M307.63,399.55c-5.26,0-9.53,4.27-9.53,9.53c0,5.26,4.27,9.53,9.53,9.53c5.26,0,9.53-4.27,9.53-9.53
		C317.15,403.82,312.89,399.55,307.63,399.55L307.63,399.55z"/>
	<path class="st0" d="M364.78,399.55c-5.26,0-9.53,4.27-9.53,9.53c0,5.26,4.26,9.53,9.53,9.53c5.26,0,9.53-4.27,9.53-9.53
		C374.31,403.82,370.04,399.55,364.78,399.55L364.78,399.55z"/>
	<path class="st0" d="M421.94,418.6c5.26,0,9.53-4.27,9.53-9.53c0-5.26-4.27-9.53-9.53-9.53c-5.26,0-9.53,4.27-9.53,9.53
		C412.41,414.34,416.68,418.6,421.94,418.6L421.94,418.6z"/>
	<path class="st0" d="M479.1,418.6c5.26,0,9.53-4.27,9.53-9.53c0-5.26-4.27-9.53-9.53-9.53c-5.26,0-9.53,4.27-9.53,9.53
		C469.57,414.34,473.84,418.6,479.1,418.6L479.1,418.6z"/>
	<g>
		<defs>
			<rect id="SVGID_1_" x="16.54" y="34.03" width="564.78" height="420.57"/>
		</defs>
		<clipPath id="SVGID_00000101063503683308810310000000129991816504010919_">
			<use xlink:href="#SVGID_1_"  style="overflow:visible;"/>
		</clipPath>
		<path style="clip-path:url(#SVGID_00000101063503683308810310000000129991816504010919_);fill:#12100B;" d="M536.25,418.6
			c5.26,0,9.53-4.27,9.53-9.53c0-5.26-4.26-9.53-9.53-9.53c-5.26,0-9.53,4.27-9.53,9.53C526.73,414.34,530.99,418.6,536.25,418.6
			L536.25,418.6z"/>
		<path style="clip-path:url(#SVGID_00000101063503683308810310000000129991816504010919_);fill:#12100B;" d="M29.96,430.19V58.43
			c0-6.06,4.93-10.98,10.98-10.98h515.96c6.06,0,10.98,4.93,10.98,10.98v27.3c-0.96-0.33-1.98-0.55-3.06-0.55
			c-5.26,0-9.53,4.27-9.53,9.53c0,5.26,4.27,9.53,9.53,9.53c1.07,0,2.09-0.22,3.06-0.55v39.2c-0.96-0.33-1.98-0.55-3.06-0.55
			c-5.26,0-9.53,4.27-9.53,9.53c0,5.26,4.27,9.53,9.53,9.53c1.07,0,2.09-0.22,3.06-0.55v39.2c-0.96-0.33-1.98-0.55-3.06-0.55
			c-5.26,0-9.53,4.26-9.53,9.53c0,5.26,4.27,9.53,9.53,9.53c1.07,0,2.09-0.22,3.06-0.55v39.2c-0.96-0.33-1.98-0.55-3.06-0.55
			c-5.26,0-9.53,4.27-9.53,9.53c0,5.26,4.27,9.53,9.53,9.53c1.07,0,2.09-0.22,3.06-0.55v39.2c-0.96-0.33-1.98-0.55-3.06-0.55
			c-5.26,0-9.53,4.27-9.53,9.53c0,5.26,4.27,9.53,9.53,9.53c1.07,0,2.09-0.22,3.06-0.55v39.2c-0.96-0.33-1.98-0.55-3.06-0.55
			c-5.26,0-9.53,4.27-9.53,9.53c0,5.26,4.27,9.53,9.53,9.53c1.07,0,2.09-0.22,3.06-0.55v39.2c-0.96-0.33-1.98-0.54-3.06-0.54
			c-5.26,0-9.53,4.26-9.53,9.53c0,1.25,0.26,2.43,0.69,3.52h-39.49c0.43-1.09,0.69-2.28,0.69-3.52c0-5.26-4.26-9.53-9.52-9.53
			c-5.26,0-9.53,4.26-9.53,9.53c0,1.25,0.26,2.43,0.69,3.52h-39.49c0.43-1.09,0.69-2.28,0.69-3.52c0-5.26-4.27-9.53-9.53-9.53
			c-5.26,0-9.53,4.26-9.53,9.53c0,1.25,0.26,2.43,0.69,3.52H402.2c0.44-1.09,0.69-2.28,0.69-3.52c0-5.26-4.27-9.53-9.53-9.53
			c-5.26,0-9.53,4.26-9.53,9.53c0,1.25,0.26,2.43,0.69,3.52h-39.49c0.43-1.09,0.69-2.28,0.69-3.52c0-5.26-4.27-9.53-9.53-9.53
			c-5.26,0-9.52,4.26-9.52,9.53c0,1.25,0.25,2.43,0.69,3.52h-39.49c0.43-1.09,0.69-2.28,0.69-3.52c0-5.26-4.27-9.53-9.53-9.53
			c-5.26,0-9.53,4.26-9.53,9.53c0,1.25,0.26,2.43,0.69,3.52h-39.49c0.44-1.09,0.69-2.28,0.69-3.52c0-5.26-4.27-9.53-9.53-9.53
			c-5.26,0-9.53,4.26-9.53,9.53c0,1.25,0.26,2.43,0.69,3.52H40.94C34.89,441.18,29.96,436.25,29.96,430.19L29.96,430.19z
			 M556.91,34.03H40.94c-13.46,0-24.41,10.95-24.41,24.41v371.76c0,13.46,10.95,24.41,24.41,24.41h515.96
			c13.46,0,24.41-10.95,24.41-24.41V58.43C581.31,44.98,570.36,34.03,556.91,34.03L556.91,34.03z"/>
	</g>
</g>
</svg>
