<?xml version="1.0" encoding="UTF-8"?><svg xmlns="http://www.w3.org/2000/svg" xmlns:xlink="http://www.w3.org/1999/xlink" viewBox="0 0 67.92 102.18"><defs><style>.e{clip-path:url(#d);}.f{fill:none;}</style><clipPath id="d"><rect class="f" width="67.92" height="102.18"/></clipPath></defs><g id="a"/><g id="b"><g id="c"><g><g class="e"><path d="M56.33,73.03c-.68,0-1.35-.07-2.01-.21-.25-.39-.68-.66-1.18-.66-.2,0-.38,.04-.55,.11-.06-.03-.13-.06-.19-.09,2.03-3.04,3.63-6.37,4.71-9.82,.07,.01,.14,.02,.22,.02,.77,0,1.4-.62,1.4-1.4,0-.59-.37-1.09-.88-1.29,.44-1.87,.72-3.75,.86-5.64,1.12,.28,2.16,.75,3.08,1.38-.08-.02-.17-.03-.26-.03-.77,0-1.4,.62-1.4,1.4s.62,1.4,1.4,1.4,1.4-.62,1.4-1.4c0-.2-.04-.39-.12-.57,1.05,.95,1.88,2.12,2.43,3.45-.53,.2-.91,.7-.91,1.3,0,.77,.62,1.4,1.4,1.4,.07,0,.13-.01,.2-.02,.03,.34,.06,.68,.06,1.03,0,5.31-4.32,9.63-9.63,9.63h0Zm4.88,7.54c-.62,.14-1.09,.69-1.09,1.36,0,.57,.34,1.06,.83,1.28-.41,1.27-1.21,2.37-2.25,3.15,.01-.08,.02-.16,.02-.24,0-.77-.62-1.4-1.4-1.4s-1.4,.62-1.4,1.4c0,.55,.32,1.01,.77,1.24-.57,.17-1.17,.26-1.79,.26-3.49,0-6.34-2.84-6.34-6.34,0-.75,.14-1.47,.38-2.14,.77,0,1.39-.63,1.39-1.39,0-.24-.07-.46-.17-.66,1.16-1.31,2.85-2.14,4.74-2.14,3.25,0,5.94,2.46,6.29,5.62h0Zm-6.79,17.55c-.22-.49-.71-.84-1.28-.84-.77,0-1.4,.62-1.4,1.4,0,.43,.2,.82,.51,1.07-.7,.3-1.46,.47-2.27,.47-1.47,0-2.82-.56-3.83-1.48,0-.02,.01-.03,.01-.06,0-.69-.51-1.26-1.17-1.37-.48-.84-.75-1.8-.75-2.83s.27-1.97,.73-2.8c.67-.1,1.19-.67,1.19-1.37,0-.04,0-.06-.02-.08,1.02-.92,2.36-1.49,3.84-1.49,.81,0,1.59,.17,2.29,.48-.32,.26-.53,.65-.53,1.09,0,.77,.62,1.4,1.4,1.4,.58,0,1.08-.35,1.29-.85,.81,.99,1.3,2.25,1.3,3.63s-.49,2.65-1.31,3.64h0Zm-3.15-24.28l-.04,.02,.02-.03h.02Zm-19.09,9.64c-11.1,0-24.66-14.65-24.66-31.75,0-.5,0-1.07,.03-1.7h3.32c.49,4.88,4.61,8.69,9.62,8.69s9.13-3.81,9.62-8.69h3.53c.49,4.88,4.61,8.69,9.62,8.69s9.13-3.81,9.62-8.69h3.89c.04,.81,.05,1.39,.05,1.7,0,17.1-13.55,31.75-24.65,31.75h0ZM3.11,41.44c.68-.1,1.2-.67,1.2-1.38,0-.77-.62-1.4-1.4-1.4-.15,0-.29,.03-.43,.07-.34-1.85-.52-3.75-.52-5.66,0-.12,0-.24,0-.36,.25,.23,.57,.37,.93,.37,.77,0,1.4-.62,1.4-1.4s-.62-1.4-1.4-1.4c-.31,0-.6,.11-.83,.28,.16-2.02,.52-3.99,1.05-5.89,.67-.1,1.18-.68,1.18-1.37,0-.39-.16-.74-.42-1C7.13,13.54,14.25,6.61,23.15,3.6c.2,.12,.44,.19,.69,.19,.55,0,1.02-.32,1.24-.78,1.86-.5,3.8-.82,5.78-.96-.03,.11-.05,.22-.05,.34,0,.77,.62,1.4,1.4,1.4s1.4-.62,1.4-1.4c0-.15-.03-.28-.07-.42,1.94,.03,3.83,.23,5.67,.6,.09,.68,.67,1.22,1.38,1.22,.47,0,.89-.24,1.14-.59,9.43,2.73,17.03,9.81,20.48,18.92-.2-.12-.44-.19-.69-.19-.77,0-1.4,.62-1.4,1.4s.62,1.4,1.4,1.4c.58,0,1.08-.36,1.29-.87,.91,2.92,1.4,6.02,1.4,9.23,0,6.28-1.91,12.42-5.43,17.56-.04-1.15-.15-3.02-.45-5.42,.24-.25,.4-.59,.4-.97,0-.52-.28-.96-.7-1.2-.05-.31-.1-.64-.16-.96-.16-.93-.99-1.61-1.92-1.57h0c-.36,.01-.87,.03-1.49,.03,.06-.15,.09-.31,.09-.48,0-.77-.62-1.4-1.4-1.4s-1.4,.62-1.4,1.4c0,.16,.03,.31,.08,.46-1.65-.04-3.62-.15-5.67-.39,0-.02,0-.04,0-.07,0-.77-.62-1.4-1.4-1.4-.66,0-1.21,.46-1.35,1.07-1.01-.17-2.03-.38-3.01-.64-2.42-.62-4.78-1.46-7.03-2.45,.15-.22,.23-.49,.23-.77,0-.77-.62-1.4-1.4-1.4-.63,0-1.16,.42-1.33,1-6.01-3.01-11.11-6.95-14.46-10.32-.36-.36-.86-.56-1.37-.55-.52,.01-1.01,.24-1.36,.63-2.56,2.84-4.32,6.27-5.53,9.76-.26-.31-.64-.51-1.07-.51-.77,0-1.4,.62-1.4,1.4s.62,1.4,1.4,1.4c.13,0,.25-.02,.37-.06-.58,2.05-.99,4.08-1.28,5.98-.29,.26-.48,.63-.48,1.05,0,.29,.09,.56,.24,.78-.12,.99-.2,1.93-.26,2.8-1.1-2.04-1.96-4.18-2.58-6.4h0Zm27.01,6.6c-.49-4.88-4.61-8.69-9.62-8.69s-9.13,3.81-9.62,8.69h-3.23c.39-5.99,1.94-15.26,7.46-21.44,4.98,4.99,13.61,11.14,23.4,14.01-2.66,1.51-4.53,4.24-4.86,7.43h-3.53Zm22.77,0c-.22-2.16-1.14-4.1-2.54-5.6,2.39,.11,4.39,.08,5.6,.04,.37,2.18,.58,4.07,.71,5.57h-3.77Zm15.04,15.35c0-5.11-3.26-9.49-7.97-11.02,4.02-5.6,6.22-12.36,6.22-19.29C66.17,14.84,51.33,0,33.08,0,18.49,0,6.08,9.51,1.7,22.65c-.08,.15-.14,.3-.16,.48C.54,26.27,0,29.61,0,33.08,0,39.65,1.92,45.99,5.55,51.43c0,.09,0,.19,0,.28,0,8.33,3.18,16.94,8.72,23.61,5.26,6.33,11.95,10.11,17.91,10.11,4.88,0,10.26-2.55,14.94-6.95-.32,.88-.5,1.82-.5,2.8,0,2.15,.83,4.11,2.18,5.59-3.68,.58-6.51,3.76-6.51,7.6,0,4.25,3.46,7.71,7.71,7.71s7.71-3.46,7.71-7.71c0-1.88-.68-3.61-1.81-4.95,4.12-.48,7.33-3.99,7.33-8.24,0-2.8-1.4-5.28-3.53-6.78,4.76-1.44,8.24-5.87,8.24-11.1h0Z"/></g><path d="M40.39,67.8c-1.23-.56-2.17-.96-3.37-1.48-1.14-.5-2.54-.96-3.5-.19-.29,.24-.5,.56-.81,.8-.16,.12-.37,.21-.57,.23-.2-.02-.41-.1-.57-.23-.3-.23-.51-.56-.81-.8-.96-.77-2.36-.31-3.5,.19-1.2,.52-2.14,.92-3.37,1.48-.79,.39-.81,1.3-.61,1.76,.19,.47,.58,.87,.97,1.25,.97,.95,2.02,1.87,3.33,2.51,1.37,.67,2.98,.96,4.56,.88,1.58,.08,3.19-.21,4.56-.88,1.31-.64,2.37-1.56,3.33-2.51,.39-.38,.77-.78,.97-1.25,.19-.47,.18-1.37-.61-1.76h0Z"/><path d="M19.65,7.98c.77,0,1.4-.62,1.4-1.4s-.62-1.4-1.4-1.4-1.4,.62-1.4,1.4,.62,1.4,1.4,1.4h0Z"/><path d="M28.02,7.98c.77,0,1.4-.62,1.4-1.4s-.62-1.4-1.4-1.4-1.4,.62-1.4,1.4,.62,1.4,1.4,1.4h0Z"/><path d="M36.4,7.98c.77,0,1.4-.62,1.4-1.4s-.62-1.4-1.4-1.4-1.4,.62-1.4,1.4,.62,1.4,1.4,1.4h0Z"/><path d="M44.77,7.98c.77,0,1.4-.62,1.4-1.4s-.62-1.4-1.4-1.4-1.4,.62-1.4,1.4,.62,1.4,1.4,1.4h0Z"/><path d="M15.47,12.16c.77,0,1.4-.62,1.4-1.4s-.62-1.4-1.4-1.4-1.4,.62-1.4,1.4,.62,1.4,1.4,1.4h0Z"/><path d="M23.84,12.16c.77,0,1.4-.62,1.4-1.4s-.62-1.4-1.4-1.4-1.4,.62-1.4,1.4,.62,1.4,1.4,1.4h0Z"/><path d="M32.21,12.16c.77,0,1.4-.62,1.4-1.4s-.62-1.4-1.4-1.4-1.4,.62-1.4,1.4,.62,1.4,1.4,1.4h0Z"/><path d="M40.58,12.16c.77,0,1.39-.62,1.39-1.4s-.62-1.4-1.39-1.4-1.4,.62-1.4,1.4,.62,1.4,1.4,1.4h0Z"/><path d="M48.95,12.16c.77,0,1.4-.62,1.4-1.4s-.62-1.4-1.4-1.4-1.4,.62-1.4,1.4,.62,1.4,1.4,1.4h0Z"/><path d="M11.28,16.35c.77,0,1.4-.62,1.4-1.4s-.62-1.4-1.4-1.4-1.4,.62-1.4,1.4,.62,1.4,1.4,1.4h0Z"/><path d="M19.65,16.35c.77,0,1.4-.62,1.4-1.4s-.62-1.4-1.4-1.4-1.4,.62-1.4,1.4,.62,1.4,1.4,1.4h0Z"/><path d="M28.02,16.35c.77,0,1.4-.62,1.4-1.4s-.62-1.4-1.4-1.4-1.4,.62-1.4,1.4,.62,1.4,1.4,1.4h0Z"/><path d="M36.4,16.35c.77,0,1.4-.62,1.4-1.4s-.62-1.4-1.4-1.4-1.4,.62-1.4,1.4,.62,1.4,1.4,1.4h0Z"/><path d="M44.77,16.35c.77,0,1.4-.62,1.4-1.4s-.62-1.4-1.4-1.4-1.4,.62-1.4,1.4,.62,1.4,1.4,1.4h0Z"/><path d="M53.14,16.35c.77,0,1.4-.62,1.4-1.4s-.62-1.4-1.4-1.4-1.4,.62-1.4,1.4,.62,1.4,1.4,1.4h0Z"/><path d="M11.28,24.72c.77,0,1.4-.62,1.4-1.4s-.62-1.4-1.4-1.4-1.4,.62-1.4,1.4,.62,1.4,1.4,1.4h0Z"/><path d="M19.65,24.72c.77,0,1.4-.62,1.4-1.4s-.62-1.4-1.4-1.4-1.4,.62-1.4,1.4,.62,1.4,1.4,1.4h0Z"/><path d="M28.02,24.72c.77,0,1.4-.62,1.4-1.4s-.62-1.4-1.4-1.4-1.4,.62-1.4,1.4,.62,1.4,1.4,1.4h0Z"/><path d="M36.4,24.72c.77,0,1.4-.62,1.4-1.4s-.62-1.4-1.4-1.4-1.4,.62-1.4,1.4,.62,1.4,1.4,1.4h0Z"/><path d="M44.77,24.72c.77,0,1.4-.62,1.4-1.4s-.62-1.4-1.4-1.4-1.4,.62-1.4,1.4,.62,1.4,1.4,1.4h0Z"/><path d="M53.14,24.72c.77,0,1.4-.62,1.4-1.4s-.62-1.4-1.4-1.4-1.4,.62-1.4,1.4,.62,1.4,1.4,1.4h0Z"/><path d="M7.1,20.53c.77,0,1.4-.62,1.4-1.4s-.62-1.4-1.4-1.4-1.4,.62-1.4,1.4,.62,1.4,1.4,1.4h0Z"/><path d="M15.47,20.53c.77,0,1.4-.62,1.4-1.4s-.62-1.4-1.4-1.4-1.4,.62-1.4,1.4,.62,1.4,1.4,1.4h0Z"/><path d="M23.84,20.53c.77,0,1.4-.62,1.4-1.4s-.62-1.4-1.4-1.4-1.4,.62-1.4,1.4,.62,1.4,1.4,1.4h0Z"/><path d="M32.21,20.53c.77,0,1.4-.62,1.4-1.4s-.62-1.4-1.4-1.4-1.4,.62-1.4,1.4,.62,1.4,1.4,1.4h0Z"/><path d="M40.58,20.53c.77,0,1.39-.62,1.39-1.4s-.62-1.4-1.39-1.4-1.4,.62-1.4,1.4,.62,1.4,1.4,1.4h0Z"/><path d="M48.95,20.53c.77,0,1.4-.62,1.4-1.4s-.62-1.4-1.4-1.4-1.4,.62-1.4,1.4,.62,1.4,1.4,1.4h0Z"/><path d="M57.33,20.53c.77,0,1.4-.62,1.4-1.4s-.62-1.4-1.4-1.4-1.4,.62-1.4,1.4,.62,1.4,1.4,1.4h0Z"/><path d="M7.1,28.9c.77,0,1.4-.62,1.4-1.4s-.62-1.4-1.4-1.4-1.4,.62-1.4,1.4,.62,1.4,1.4,1.4h0Z"/><path d="M23.84,28.9c.77,0,1.4-.62,1.4-1.4s-.62-1.4-1.4-1.4-1.4,.62-1.4,1.4,.62,1.4,1.4,1.4h0Z"/><path d="M32.21,28.9c.77,0,1.4-.62,1.4-1.4s-.62-1.4-1.4-1.4-1.4,.62-1.4,1.4,.62,1.4,1.4,1.4h0Z"/><path d="M40.58,28.9c.77,0,1.39-.62,1.39-1.4s-.62-1.4-1.39-1.4-1.4,.62-1.4,1.4,.62,1.4,1.4,1.4h0Z"/><path d="M48.95,28.9c.77,0,1.4-.62,1.4-1.4s-.62-1.4-1.4-1.4-1.4,.62-1.4,1.4,.62,1.4,1.4,1.4h0Z"/><path d="M57.33,28.9c.77,0,1.4-.62,1.4-1.4s-.62-1.4-1.4-1.4-1.4,.62-1.4,1.4,.62,1.4,1.4,1.4h0Z"/><path d="M28.02,33.09c.77,0,1.4-.62,1.4-1.4s-.62-1.4-1.4-1.4-1.4,.62-1.4,1.4,.62,1.4,1.4,1.4h0Z"/><path d="M36.4,33.09c.77,0,1.4-.62,1.4-1.4s-.62-1.4-1.4-1.4-1.4,.62-1.4,1.4,.62,1.4,1.4,1.4h0Z"/><path d="M44.77,33.09c.77,0,1.4-.62,1.4-1.4s-.62-1.4-1.4-1.4-1.4,.62-1.4,1.4,.62,1.4,1.4,1.4h0Z"/><path d="M53.14,33.09c.77,0,1.4-.62,1.4-1.4s-.62-1.4-1.4-1.4-1.4,.62-1.4,1.4,.62,1.4,1.4,1.4h0Z"/><path d="M61.51,33.09c.77,0,1.4-.62,1.4-1.4s-.62-1.4-1.4-1.4-1.4,.62-1.4,1.4,.62,1.4,1.4,1.4h0Z"/><path d="M61.51,41.46c.77,0,1.4-.62,1.4-1.4s-.62-1.4-1.4-1.4-1.4,.62-1.4,1.4,.62,1.4,1.4,1.4h0Z"/><path d="M40.58,37.28c.77,0,1.39-.62,1.39-1.4s-.62-1.4-1.39-1.4-1.4,.62-1.4,1.4,.62,1.4,1.4,1.4h0Z"/><path d="M48.95,37.28c.77,0,1.4-.62,1.4-1.4s-.62-1.4-1.4-1.4-1.4,.62-1.4,1.4,.62,1.4,1.4,1.4h0Z"/><path d="M57.33,37.28c.77,0,1.4-.62,1.4-1.4s-.62-1.4-1.4-1.4-1.4,.62-1.4,1.4,.62,1.4,1.4,1.4h0Z"/><path d="M61.51,63.79c-.77,0-1.4,.62-1.4,1.4s.62,1.4,1.4,1.4,1.4-.62,1.4-1.4-.62-1.4-1.4-1.4h0Z"/><path d="M57.33,67.97c-.77,0-1.4,.62-1.4,1.4s.62,1.4,1.4,1.4,1.4-.62,1.4-1.4-.62-1.4-1.4-1.4h0Z"/><path d="M57.33,76.34c-.77,0-1.4,.62-1.4,1.4s.62,1.4,1.4,1.4,1.4-.62,1.4-1.4-.62-1.4-1.4-1.4h0Z"/><path d="M53.14,80.53c-.77,0-1.4,.62-1.4,1.4s.62,1.4,1.4,1.4,1.4-.62,1.4-1.4-.62-1.4-1.4-1.4h0Z"/><path d="M48.95,93.09c-.77,0-1.4,.62-1.4,1.4s.62,1.4,1.4,1.4,1.4-.62,1.4-1.4-.62-1.4-1.4-1.4h0Z"/></g></g></g></svg>