<?xml version="1.0" encoding="UTF-8"?><svg xmlns="http://www.w3.org/2000/svg" xmlns:xlink="http://www.w3.org/1999/xlink" viewBox="0 0 69.98 99.65"><defs><style>.e{clip-path:url(#d);}.f{fill:none;}</style><clipPath id="d"><rect class="f" x="0" y="0" width="69.98" height="99.65"/></clipPath></defs><g id="a"/><g id="b"><g id="c"><g><g class="e"><path d="M31.64,81.54c-3.72,0-5.59-2.5-5.67-2.61l-.8,.58-.8,.57c.1,.14,2.5,3.43,7.27,3.43,3.81,0,7.03-3.17,7.16-3.31l-1.39-1.39s-2.78,2.73-5.77,2.73h0Z"/><path d="M63.18,32.22c-2.5,2.11-5.8,3.36-9.42,3.98-.24-.2-.55-.32-.88-.32-.48,0-.9,.24-1.15,.6-1.95,.21-3.96,.26-5.97,.18-.23-.47-.7-.79-1.25-.79-.49,0-.92,.25-1.17,.63-2.57-.23-5.09-.64-7.41-1.18-1.25-.29-2.46-.59-3.62-.9,.6-.16,1.04-.7,1.04-1.34,0-.77-.62-1.4-1.4-1.4s-1.4,.62-1.4,1.4c0,.38,.15,.73,.4,.98-2.32-.64-4.44-1.29-6.36-1.93-.25-.27-.62-.45-1.02-.45-.08,0-.16,.01-.23,.02-1.42-.49-2.72-.97-3.88-1.43,.74-.04,1.32-.64,1.32-1.39s-.62-1.4-1.4-1.4-1.4,.62-1.4,1.4c0,.37,.15,.71,.39,.96-2.27-.91-3.95-1.69-4.97-2.19-.5-.25-1.09-.23-1.58,.05-.01,0-.02,.02-.03,.02-.22-.15-.49-.24-.78-.24-.77,0-1.4,.62-1.4,1.4,0,.7,.51,1.27,1.18,1.37-.4,1.9-1.51,4.45-4.54,6.12-2,1.1-3.37,2.68-4.3,4.27v-2.17c.2,.11,.43,.18,.68,.18,.77,0,1.4-.62,1.4-1.4s-.62-1.4-1.4-1.4c-.25,0-.48,.07-.68,.18v-5.95c.2,.11,.43,.18,.68,.18,.77,0,1.4-.62,1.4-1.4s-.62-1.4-1.4-1.4c-.25,0-.48,.07-.68,.18v-5.95c.2,.11,.43,.18,.68,.18,.77,0,1.4-.62,1.4-1.4s-.62-1.4-1.4-1.4c-.25,0-.48,.07-.68,.18v-.02c0-2.45,.67-4.28,1.99-5.44,1.45-1.26,3.49-1.59,5.21-1.59,.16,0,.31,0,.47,0,.06,.71,.65,1.28,1.38,1.28s1.36-.6,1.39-1.34c.19-.1,.37-.22,.53-.37,.46-.45,.68-1.06,.61-1.7-.13-1.19-.02-2.93,1.21-4.45,.76-.94,1.86-1.68,3.28-2.24-.03,.11-.05,.22-.05,.34,0,.77,.62,1.4,1.4,1.4s1.4-.62,1.4-1.4c0-.4-.17-.76-.45-1.02,.77-.17,1.6-.29,2.5-.38,3.14-.31,11.42-.91,20.43,.16,.16,.02,.32,.04,.48,.06-.39,.25-.65,.68-.65,1.17,0,.77,.62,1.4,1.4,1.4s1.4-.62,1.4-1.4c0-.36-.14-.68-.36-.93,2.13,.32,4.13,.72,5.97,1.2,.13,.64,.69,1.12,1.37,1.12,.4,0,.76-.17,1.01-.44,3.8,1.22,6.87,2.81,9.18,4.78,3.04,2.6,4.69,5.87,4.91,9.72,.33,5.65-1.29,10.02-4.8,12.98h0Zm-12.92,57.5c-5.16,5.21-11.46,7.97-18.22,7.97-7.29,0-14.66-3.94-20.2-10.82-5.87-7.28-9.3-17.18-9.66-27.86l-.15-8.41h2.11c-.53,5.25,.05,14.6,10.6,15.66,14.09,1.42,14.97-9.98,14.97-10.77s1.15-2.4,2.46-2.4h0c1.31,0,2.46,1.61,2.46,2.4s.88,12.19,14.97,10.77c10.55-1.06,11.13-10.41,10.6-15.66h1.95c-.1,4.44-.41,13.27-1.26,17.59-1.72,8.79-5.4,16.24-10.64,21.53h0ZM1.97,46.96c.04-.48,.64-6.31,5.25-8.85,4.4-2.43,5.45-6.5,5.69-8.5,3.17,1.52,11.06,4.95,22.58,7.63,4.2,.98,17.72,3.5,26.75-1.94l-.02,11.67h-4.47c-6.31-.22-15.6-.42-18.6,1.17-2.9,1.54-6.04,1.67-6.79,1.68h-.34c-.75,0-3.9-.14-6.79-1.68-3-1.59-12.29-1.39-18.6-1.17H1.97ZM69.94,19.13c-.26-4.41-2.14-8.14-5.6-11.1C52.42-2.17,25.66,.13,22.65,.43c-4.43,.44-7.6,1.79-9.41,4.02-1.66,2.04-1.81,4.34-1.64,5.9,0,.01,0,.04-.03,.08-.02,.02-.05,.04-.1,.03-2.13-.29-6.12-.42-8.8,1.92-1.77,1.55-2.67,3.87-2.67,6.92v27.66l.22,12.1c.38,11.12,3.96,21.43,10.1,29.05,5.92,7.34,13.84,11.55,21.73,11.55,7.3,0,14.08-2.96,19.61-8.55,5.51-5.57,9.38-13.37,11.17-22.54,1.19-6.06,1.34-20.04,1.34-20.64l.02-14c.08-.07,.17-.14,.25-.21,4.01-3.38,5.86-8.29,5.49-14.59h0Z"/></g><path d="M27.76,2.39c-.77,0-1.4,.62-1.4,1.4s.62,1.4,1.4,1.4,1.4-.62,1.4-1.4-.62-1.4-1.4-1.4h0Z"/><path d="M36.13,2.39c-.77,0-1.4,.62-1.4,1.4s.62,1.4,1.4,1.4,1.4-.62,1.4-1.4-.62-1.4-1.4-1.4h0Z"/><path d="M19.39,10.76c-.77,0-1.4,.62-1.4,1.4s.62,1.4,1.4,1.4,1.4-.62,1.4-1.4-.62-1.4-1.4-1.4h0Z"/><path d="M27.76,10.76c-.77,0-1.4,.62-1.4,1.4s.62,1.4,1.4,1.4,1.4-.62,1.4-1.4-.62-1.4-1.4-1.4h0Z"/><path d="M36.13,10.76c-.77,0-1.4,.62-1.4,1.4s.62,1.4,1.4,1.4,1.4-.62,1.4-1.4-.62-1.4-1.4-1.4h0Z"/><path d="M44.5,10.76c-.77,0-1.4,.62-1.4,1.4s.62,1.4,1.4,1.4,1.4-.62,1.4-1.4-.62-1.4-1.4-1.4h0Z"/><path d="M52.87,10.76c-.77,0-1.4,.62-1.4,1.4s.62,1.4,1.4,1.4,1.4-.62,1.4-1.4-.62-1.4-1.4-1.4h0Z"/><path d="M61.25,10.76c-.77,0-1.4,.62-1.4,1.4s.62,1.4,1.4,1.4,1.4-.62,1.4-1.4-.62-1.4-1.4-1.4h0Z"/><path d="M15.2,6.57c-.77,0-1.4,.62-1.4,1.4s.62,1.4,1.4,1.4,1.4-.62,1.4-1.4-.62-1.4-1.4-1.4h0Z"/><path d="M23.57,6.57c-.77,0-1.4,.62-1.4,1.4s.62,1.4,1.4,1.4,1.4-.62,1.4-1.4-.62-1.4-1.4-1.4h0Z"/><path d="M31.95,6.57c-.77,0-1.4,.62-1.4,1.4s.62,1.4,1.4,1.4,1.4-.62,1.4-1.4-.62-1.4-1.4-1.4h0Z"/><path d="M40.32,6.57c-.77,0-1.4,.62-1.4,1.4s.62,1.4,1.4,1.4,1.4-.62,1.4-1.4-.62-1.4-1.4-1.4h0Z"/><path d="M48.69,6.57c-.77,0-1.4,.62-1.4,1.4s.62,1.4,1.4,1.4,1.4-.62,1.4-1.4-.62-1.4-1.4-1.4h0Z"/><path d="M57.06,6.57c-.77,0-1.4,.62-1.4,1.4s.62,1.4,1.4,1.4,1.4-.62,1.4-1.4-.62-1.4-1.4-1.4h0Z"/><path d="M6.83,14.95c-.77,0-1.4,.62-1.4,1.4s.62,1.4,1.4,1.4,1.4-.62,1.4-1.4-.62-1.4-1.4-1.4h0Z"/><path d="M15.2,14.95c-.77,0-1.4,.62-1.4,1.4s.62,1.4,1.4,1.4,1.4-.62,1.4-1.4-.62-1.4-1.4-1.4h0Z"/><path d="M23.57,14.95c-.77,0-1.4,.62-1.4,1.4s.62,1.4,1.4,1.4,1.4-.62,1.4-1.4-.62-1.4-1.4-1.4h0Z"/><path d="M31.95,14.95c-.77,0-1.4,.62-1.4,1.4s.62,1.4,1.4,1.4,1.4-.62,1.4-1.4-.62-1.4-1.4-1.4h0Z"/><path d="M40.32,14.95c-.77,0-1.4,.62-1.4,1.4s.62,1.4,1.4,1.4,1.4-.62,1.4-1.4-.62-1.4-1.4-1.4h0Z"/><path d="M48.69,14.95c-.77,0-1.4,.62-1.4,1.4s.62,1.4,1.4,1.4,1.4-.62,1.4-1.4-.62-1.4-1.4-1.4h0Z"/><path d="M57.06,14.95c-.77,0-1.4,.62-1.4,1.4s.62,1.4,1.4,1.4,1.4-.62,1.4-1.4-.62-1.4-1.4-1.4h0Z"/><path d="M65.43,14.95c-.77,0-1.39,.62-1.39,1.4s.62,1.4,1.39,1.4,1.4-.62,1.4-1.4-.62-1.4-1.4-1.4h0Z"/><path d="M11.02,19.13c-.77,0-1.4,.62-1.4,1.4s.62,1.4,1.4,1.4,1.4-.62,1.4-1.4-.62-1.4-1.4-1.4h0Z"/><path d="M19.39,19.13c-.77,0-1.4,.62-1.4,1.4s.62,1.4,1.4,1.4,1.4-.62,1.4-1.4-.62-1.4-1.4-1.4h0Z"/><path d="M27.76,19.13c-.77,0-1.4,.62-1.4,1.4s.62,1.4,1.4,1.4,1.4-.62,1.4-1.4-.62-1.4-1.4-1.4h0Z"/><path d="M36.13,19.13c-.77,0-1.4,.62-1.4,1.4s.62,1.4,1.4,1.4,1.4-.62,1.4-1.4-.62-1.4-1.4-1.4h0Z"/><path d="M44.5,19.13c-.77,0-1.4,.62-1.4,1.4s.62,1.4,1.4,1.4,1.4-.62,1.4-1.4-.62-1.4-1.4-1.4h0Z"/><path d="M52.87,19.13c-.77,0-1.4,.62-1.4,1.4s.62,1.4,1.4,1.4,1.4-.62,1.4-1.4-.62-1.4-1.4-1.4h0Z"/><path d="M61.25,19.13c-.77,0-1.4,.62-1.4,1.4s.62,1.4,1.4,1.4,1.4-.62,1.4-1.4-.62-1.4-1.4-1.4h0Z"/><path d="M27.76,27.5c-.77,0-1.4,.62-1.4,1.4s.62,1.4,1.4,1.4,1.4-.62,1.4-1.4-.62-1.4-1.4-1.4h0Z"/><path d="M36.13,27.5c-.77,0-1.4,.62-1.4,1.4s.62,1.4,1.4,1.4,1.4-.62,1.4-1.4-.62-1.4-1.4-1.4h0Z"/><path d="M44.5,27.5c-.77,0-1.4,.62-1.4,1.4s.62,1.4,1.4,1.4,1.4-.62,1.4-1.4-.62-1.4-1.4-1.4h0Z"/><path d="M52.87,27.5c-.77,0-1.4,.62-1.4,1.4s.62,1.4,1.4,1.4,1.4-.62,1.4-1.4-.62-1.4-1.4-1.4h0Z"/><path d="M61.25,27.5c-.77,0-1.4,.62-1.4,1.4s.62,1.4,1.4,1.4,1.4-.62,1.4-1.4-.62-1.4-1.4-1.4h0Z"/><path d="M6.83,23.32c-.77,0-1.4,.62-1.4,1.4s.62,1.4,1.4,1.4,1.4-.62,1.4-1.4-.62-1.4-1.4-1.4h0Z"/><path d="M15.2,23.32c-.77,0-1.4,.62-1.4,1.4s.62,1.4,1.4,1.4,1.4-.62,1.4-1.4-.62-1.4-1.4-1.4h0Z"/><path d="M23.57,23.32c-.77,0-1.4,.62-1.4,1.4s.62,1.4,1.4,1.4,1.4-.62,1.4-1.4-.62-1.4-1.4-1.4h0Z"/><path d="M31.95,23.32c-.77,0-1.4,.62-1.4,1.4s.62,1.4,1.4,1.4,1.4-.62,1.4-1.4-.62-1.4-1.4-1.4h0Z"/><path d="M40.32,23.32c-.77,0-1.4,.62-1.4,1.4s.62,1.4,1.4,1.4,1.4-.62,1.4-1.4-.62-1.4-1.4-1.4h0Z"/><path d="M48.69,23.32c-.77,0-1.4,.62-1.4,1.4s.62,1.4,1.4,1.4,1.4-.62,1.4-1.4-.62-1.4-1.4-1.4h0Z"/><path d="M57.06,23.32c-.77,0-1.4,.62-1.4,1.4s.62,1.4,1.4,1.4,1.4-.62,1.4-1.4-.62-1.4-1.4-1.4h0Z"/><path d="M65.43,23.32c-.77,0-1.39,.62-1.39,1.4s.62,1.4,1.39,1.4,1.4-.62,1.4-1.4-.62-1.4-1.4-1.4h0Z"/><path d="M6.83,31.69c-.77,0-1.4,.62-1.4,1.4s.62,1.4,1.4,1.4,1.4-.62,1.4-1.4-.62-1.4-1.4-1.4h0Z"/><path d="M40.32,31.69c-.77,0-1.4,.62-1.4,1.4s.62,1.4,1.4,1.4,1.4-.62,1.4-1.4-.62-1.4-1.4-1.4h0Z"/><path d="M48.69,31.69c-.77,0-1.4,.62-1.4,1.4s.62,1.4,1.4,1.4,1.4-.62,1.4-1.4-.62-1.4-1.4-1.4h0Z"/><path d="M57.06,31.69c-.77,0-1.4,.62-1.4,1.4s.62,1.4,1.4,1.4,1.4-.62,1.4-1.4-.62-1.4-1.4-1.4h0Z"/></g></g></g></svg>