<?xml version="1.0" encoding="utf-8"?>
<!-- Generator: Adobe Illustrator 26.0.1, SVG Export Plug-In . SVG Version: 6.00 Build 0)  -->
<svg version="1.1" id="Laag_1" xmlns="http://www.w3.org/2000/svg" xmlns:xlink="http://www.w3.org/1999/xlink" x="0px" y="0px"
	 viewBox="0 0 218.2 244.1" style="enable-background:new 0 0 218.2 244.1;" xml:space="preserve">
<style type="text/css">
	.st0{fill:none;stroke:#000000;stroke-width:3.8641;stroke-miterlimit:10;}
	.st1{fill:none;stroke:#1D1D1B;stroke-width:3.8641;stroke-miterlimit:10;}
	.st2{stroke:#1D1D1B;stroke-width:0.8813;stroke-miterlimit:10;}
</style>
<g>
	<polygon class="st0" points="3.2,240.7 3.2,101.6 213.9,101.6 213.9,240.7 213.9,205.7 87.6,205.7 87.6,240.7 	"/>
	<rect x="3.2" y="101.6" class="st0" width="210.6" height="23.4"/>
	<rect x="87.6" y="125" class="st0" width="126.3" height="80.7"/>
	<rect x="3.2" y="125" class="st0" width="84.3" height="115.7"/>
	<rect x="75.5" y="89.7" class="st0" width="64.3" height="11.9"/>
	<rect x="107.2" y="78" class="st0" width="0.8" height="11.7"/>
	
		<rect x="213.9" y="125" transform="matrix(-1 -1.224647e-16 1.224647e-16 -1 427.7007 365.6394)" class="st1" width="0" height="115.7"/>
	<rect x="3.2" y="155.2" class="st0" width="84.3" height="84.3"/>
	<rect x="33" y="138.2" class="st0" width="20.4" height="1.3"/>
	
		<rect x="60.7" y="196.1" transform="matrix(-4.705770e-07 -1 1 -4.705770e-07 -125.8531 267.6889)" class="st0" width="20.4" height="1.3"/>
	<g>
		<ellipse class="st2" cx="19.6" cy="197.5" rx="3.2" ry="3.1"/>
		<ellipse class="st2" cx="19.6" cy="210.8" rx="3.2" ry="3.1"/>
		<ellipse class="st2" cx="19.6" cy="171.1" rx="3.2" ry="3.1"/>
		<ellipse class="st2" cx="19.6" cy="184.3" rx="3.2" ry="3.1"/>
		<ellipse class="st2" cx="19.6" cy="224" rx="3.2" ry="3.1"/>
		<ellipse class="st2" cx="19.6" cy="237.2" rx="3.2" ry="3.1"/>
		<ellipse class="st2" cx="6.4" cy="197.5" rx="3.2" ry="3.1"/>
		<ellipse class="st2" cx="6.4" cy="210.8" rx="3.2" ry="3.1"/>
		<ellipse class="st2" cx="6.4" cy="171.1" rx="3.2" ry="3.1"/>
		<ellipse class="st2" cx="6.4" cy="184.3" rx="3.2" ry="3.1"/>
		<ellipse class="st2" cx="6.4" cy="224" rx="3.2" ry="3.1"/>
		<ellipse class="st2" cx="6.4" cy="237.2" rx="3.2" ry="3.1"/>
		<ellipse class="st2" cx="6.4" cy="157.8" rx="3.2" ry="3.1"/>
		<ellipse class="st2" cx="32.8" cy="197.5" rx="3.2" ry="3.1"/>
		<ellipse class="st2" cx="32.8" cy="210.8" rx="3.2" ry="3.1"/>
		<ellipse class="st2" cx="32.8" cy="184.3" rx="3.2" ry="3.1"/>
		<ellipse class="st2" cx="32.8" cy="224" rx="3.2" ry="3.1"/>
		<ellipse class="st2" cx="32.8" cy="237.2" rx="3.2" ry="3.1"/>
	</g>
	<g>
		<path class="st0" d="M158.7,76.4H56.6c-2.1,0-3.8-1.7-3.8-3.8V7c0-2.1,1.7-3.8,3.8-3.8h102.1c2.1,0,3.8,1.7,3.8,3.8v65.5
			C162.5,74.7,160.8,76.4,158.7,76.4z"/>
		<path d="M155.3,71.6H60.1c-1.9,0-3.4-1.5-3.4-3.4V11.3c0-1.9,1.5-3.4,3.4-3.4h95.2c1.9,0,3.4,1.5,3.4,3.4v56.8
			C158.7,70,157.2,71.6,155.3,71.6z"/>
	</g>
</g>
</svg>
