<?xml version="1.0" encoding="UTF-8"?><svg xmlns="http://www.w3.org/2000/svg" xmlns:xlink="http://www.w3.org/1999/xlink" viewBox="0 0 142.26 293.4"><defs><style>.d,.e{fill:#fff;}.f{stroke:#a7ce3a;stroke-width:.73px;}.f,.e{stroke-miterlimit:10;}.f,.g{fill:#a7ce3a;}.e{stroke:#d9d9da;}</style></defs><g id="a"/><g id="b"><g id="c"><rect class="e" x=".5" y=".5" width="141.26" height="292.4" rx="8.07" ry="8.07"/><g><path class="g" d="M32.08,12.19h2.26c1.06,0,1.83,.23,2.3,.69,.47,.46,.71,1.18,.71,2.17,0,.68-.13,1.25-.4,1.69-.26,.44-.65,.73-1.16,.86v.08c1.21,.3,1.82,1.22,1.82,2.76,0,1.03-.24,1.83-.72,2.41-.48,.58-1.16,.87-2.02,.87h-2.79V12.19Zm.93,4.93h1.53c.66,0,1.13-.15,1.41-.45,.29-.3,.43-.8,.43-1.5,0-.65-.16-1.11-.48-1.4s-.83-.43-1.53-.43h-1.37v3.77Zm0,1.13v4.31h1.67c.64,0,1.13-.18,1.46-.54,.33-.36,.49-.92,.49-1.69,0-.71-.17-1.24-.5-1.58s-.84-.5-1.52-.5h-1.59Z"/><path class="g" d="M41.73,23.87c-.88,0-1.58-.39-2.09-1.17s-.77-1.86-.77-3.24,.24-2.5,.71-3.32c.47-.82,1.11-1.23,1.91-1.23,.75,0,1.34,.36,1.78,1.07,.44,.71,.66,1.65,.66,2.82v.83h-4.12c.02,1.01,.2,1.78,.53,2.31s.81,.79,1.42,.79c.64,0,1.28-.19,1.91-.58v1.17c-.32,.2-.62,.34-.91,.43-.29,.09-.63,.13-1.03,.13Zm-.25-7.85c-.48,0-.86,.23-1.15,.68-.29,.45-.45,1.08-.51,1.88h3.13c0-.82-.13-1.46-.38-1.89s-.62-.66-1.09-.66Z"/><path class="g" d="M49.35,21.35c0,.8-.21,1.42-.62,1.86-.42,.44-1,.65-1.75,.65-.79,0-1.41-.18-1.86-.54v-1.21c.29,.21,.6,.38,.92,.5,.33,.12,.65,.18,.95,.18,.47,0,.84-.11,1.09-.33s.38-.55,.38-1c0-.34-.1-.62-.3-.86-.2-.24-.6-.52-1.18-.85-.56-.3-.95-.56-1.19-.78-.24-.22-.41-.48-.52-.76-.11-.28-.17-.62-.17-1.02,0-.7,.2-1.26,.59-1.67,.4-.41,.94-.61,1.63-.61,.64,0,1.27,.19,1.89,.57l-.32,1.06c-.6-.36-1.15-.54-1.63-.54-.43,0-.75,.1-.97,.29s-.33,.46-.33,.8c0,.23,.04,.43,.12,.59,.08,.16,.21,.32,.4,.46,.18,.15,.53,.36,1.05,.64,.71,.37,1.19,.75,1.44,1.13,.25,.38,.37,.85,.37,1.43Z"/><path class="g" d="M52.77,22.79c.16,0,.31-.02,.46-.05,.15-.03,.27-.07,.36-.11v1c-.1,.07-.24,.12-.43,.17-.19,.04-.36,.07-.52,.07-1.16,0-1.74-.88-1.74-2.64v-5.14h-.86v-.63l.86-.54,.38-1.84h.52v2h1.74v1.02h-1.74v5.08c0,.52,.08,.92,.26,1.2,.17,.28,.41,.42,.7,.42Z"/><path class="g" d="M55.74,21.83l.08,.18c-.09,.53-.23,1.14-.41,1.83-.18,.7-.36,1.34-.56,1.94h-.68c.1-.55,.21-1.22,.33-2.02s.2-1.45,.25-1.93h.99Z"/><path class="g" d="M65.36,15.07v.83l-1.11,.19c.1,.18,.19,.42,.27,.72,.08,.3,.12,.63,.12,1,0,.85-.2,1.52-.6,2.02-.4,.5-.95,.76-1.65,.76-.18,0-.35-.02-.5-.06-.39,.29-.58,.66-.58,1.11,0,.24,.07,.41,.2,.52,.13,.11,.37,.17,.69,.17h1.06c.65,0,1.15,.2,1.49,.59,.35,.39,.52,.97,.52,1.72,0,.96-.27,1.68-.8,2.19-.53,.5-1.31,.75-2.33,.75-.78,0-1.39-.21-1.81-.63-.42-.42-.64-1.01-.64-1.78,0-.53,.12-.98,.35-1.36s.56-.64,.98-.78c-.15-.1-.28-.25-.39-.46-.1-.21-.16-.45-.16-.73,0-.31,.06-.59,.17-.83s.3-.46,.55-.69c-.31-.18-.56-.5-.76-.94-.19-.44-.29-.95-.29-1.51,0-.95,.2-1.67,.59-2.19,.39-.51,.95-.77,1.67-.77,.31,0,.6,.05,.85,.16h2.07Zm-4.77,10.08c0,.47,.14,.82,.41,1.06,.27,.24,.67,.36,1.17,.36,.76,0,1.32-.16,1.69-.49,.37-.33,.55-.77,.55-1.34,0-.47-.1-.79-.3-.97s-.58-.27-1.13-.27h-1.09c-.41,0-.73,.14-.96,.43s-.34,.69-.34,1.22Zm.49-7.32c0,.6,.12,1.06,.36,1.37,.24,.31,.57,.46,.99,.46,.88,0,1.33-.62,1.33-1.86s-.45-1.95-1.34-1.95c-.43,0-.75,.17-.98,.5-.23,.33-.34,.82-.34,1.47Z"/><path class="g" d="M71.77,19.38c0,1.41-.25,2.51-.74,3.3-.49,.79-1.17,1.19-2.04,1.19-.54,0-1.01-.18-1.43-.54-.42-.36-.74-.88-.96-1.56-.23-.68-.34-1.47-.34-2.38,0-1.41,.24-2.5,.73-3.29,.49-.79,1.17-1.18,2.03-1.18s1.5,.4,2,1.21,.74,1.89,.74,3.26Zm-4.56,0c0,1.1,.15,1.94,.46,2.52,.31,.58,.75,.87,1.35,.87s1.04-.29,1.35-.86c.31-.57,.46-1.42,.46-2.52s-.15-1.93-.46-2.5-.76-.85-1.36-.85-1.04,.28-1.34,.84c-.3,.56-.45,1.4-.45,2.51Z"/><path class="g" d="M78.53,19.38c0,1.41-.25,2.51-.74,3.3-.49,.79-1.17,1.19-2.04,1.19-.54,0-1.01-.18-1.43-.54-.42-.36-.74-.88-.96-1.56-.23-.68-.34-1.47-.34-2.38,0-1.41,.24-2.5,.73-3.29,.49-.79,1.17-1.18,2.03-1.18s1.5,.4,2,1.21,.74,1.89,.74,3.26Zm-4.56,0c0,1.1,.15,1.94,.46,2.52,.31,.58,.75,.87,1.35,.87s1.04-.29,1.35-.86c.31-.57,.46-1.42,.46-2.52s-.15-1.93-.46-2.5-.76-.85-1.36-.85-1.04,.28-1.34,.84c-.3,.56-.45,1.4-.45,2.51Z"/><path class="g" d="M84.21,22.55h-.05c-.42,.88-1.04,1.32-1.88,1.32-.78,0-1.39-.39-1.83-1.16-.43-.77-.65-1.87-.65-3.29s.22-2.53,.66-3.32c.44-.79,1.04-1.18,1.82-1.18s1.43,.43,1.87,1.28h.07l-.04-.62-.02-.61v-3.51h.91v12.26h-.74l-.12-1.16Zm-1.81,.22c.62,0,1.07-.24,1.35-.73s.42-1.27,.42-2.35v-.28c0-1.22-.14-2.1-.42-2.62-.28-.52-.73-.78-1.35-.78-.53,0-.94,.3-1.22,.89-.28,.6-.42,1.44-.42,2.52s.14,1.94,.42,2.5,.69,.84,1.23,.84Z"/><path class="g" d="M89.57,20.72c0-.68,.13-1.29,.38-1.81,.25-.52,.71-1.06,1.36-1.59-.31-.5-.52-.88-.63-1.13s-.2-.53-.26-.8-.1-.57-.1-.87c0-.79,.18-1.4,.54-1.84,.36-.44,.85-.66,1.49-.66,.59,0,1.05,.22,1.39,.66s.51,1.05,.51,1.83c0,.56-.12,1.08-.37,1.56-.25,.48-.66,.96-1.23,1.45l2.22,3.08c.2-.33,.37-.71,.49-1.15s.22-.92,.31-1.44h.92c-.25,1.5-.62,2.64-1.12,3.42l1.63,2.29h-1.25l-1.01-1.4c-.43,.56-.87,.96-1.31,1.2-.44,.24-.94,.36-1.49,.36-.78,0-1.39-.28-1.82-.84-.43-.56-.65-1.33-.65-2.31Zm2.49,1.97c.88,0,1.61-.4,2.18-1.21l-2.39-3.34c-.4,.36-.69,.65-.86,.89-.17,.23-.29,.48-.37,.75-.08,.27-.12,.57-.12,.91,0,.61,.14,1.1,.42,1.46,.28,.36,.66,.54,1.13,.54Zm-.85-8.21c0,.36,.07,.71,.2,1.04,.13,.33,.35,.72,.67,1.19,.47-.39,.8-.76,.98-1.09,.18-.33,.28-.72,.28-1.15,0-.4-.09-.73-.28-.99s-.44-.38-.75-.38-.59,.13-.79,.38c-.2,.25-.3,.59-.3,1.02Z"/><path class="g" d="M103.79,14.93c.79,0,1.4,.39,1.83,1.16,.43,.77,.65,1.87,.65,3.29s-.22,2.52-.66,3.31-1.05,1.18-1.83,1.18c-.39,0-.75-.1-1.07-.31-.32-.21-.59-.53-.81-.96h-.07l-.19,1.11h-.65V11.45h.91v2.98c0,.67-.01,1.27-.04,1.8h.04c.42-.86,1.05-1.29,1.88-1.29Zm-.13,1.09c-.62,0-1.06,.26-1.34,.77-.27,.51-.41,1.38-.41,2.59s.14,2.08,.42,2.6,.73,.78,1.35,.78c.56,0,.97-.29,1.25-.88,.27-.59,.41-1.43,.41-2.52s-.14-1.96-.41-2.51c-.27-.55-.7-.83-1.27-.83Z"/><path class="g" d="M111.55,23.71l-.18-1.23h-.04c-.3,.54-.6,.91-.89,1.1-.3,.19-.67,.29-1.11,.29-.59,0-1.06-.22-1.4-.66-.34-.44-.5-1.07-.5-1.88,0-1.74,.97-2.66,2.9-2.74l1.02-.05v-.54c0-.68-.1-1.18-.3-1.5-.2-.32-.53-.48-.97-.48-.5,0-1.06,.22-1.69,.66l-.28-1c.29-.23,.62-.41,.97-.54s.7-.2,1.06-.2c.71,0,1.24,.23,1.59,.69s.52,1.19,.52,2.2v5.89h-.67Zm-2.05-.92c.56,0,1.01-.22,1.33-.67s.48-1.07,.48-1.88v-.78l-.91,.06c-.72,.04-1.24,.2-1.56,.48s-.48,.73-.48,1.34c0,.47,.1,.83,.3,1.08,.2,.25,.48,.37,.83,.37Z"/><path class="g" d="M118.18,22.55h-.05c-.42,.88-1.04,1.32-1.88,1.32-.78,0-1.39-.39-1.83-1.16-.43-.77-.65-1.87-.65-3.29s.22-2.53,.66-3.32c.44-.79,1.04-1.18,1.82-1.18s1.43,.43,1.87,1.28h.07l-.04-.62-.02-.61v-3.51h.91v12.26h-.74l-.12-1.16Zm-1.81,.22c.62,0,1.07-.24,1.35-.73s.42-1.27,.42-2.35v-.28c0-1.22-.14-2.1-.42-2.62-.28-.52-.73-.78-1.35-.78-.53,0-.94,.3-1.22,.89-.28,.6-.42,1.44-.42,2.52s.14,1.94,.42,2.5,.69,.84,1.23,.84Z"/><path class="g" d="M34.73,43.03c-.39,0-.75-.1-1.07-.31-.32-.21-.59-.53-.81-.96h-.07c.04,.5,.07,.98,.07,1.43v3.55h-.91v-12.51h.74l.13,1.18h.04c.23-.47,.5-.81,.81-1.02s.66-.32,1.06-.32c.79,0,1.41,.39,1.84,1.17,.43,.78,.65,1.88,.65,3.29s-.22,2.52-.66,3.31-1.05,1.18-1.83,1.18Zm-.13-7.84c-.61,0-1.05,.24-1.33,.73-.27,.49-.41,1.27-.42,2.33v.29c0,1.21,.14,2.08,.42,2.6s.73,.78,1.35,.78c.52,0,.92-.3,1.21-.91s.44-1.44,.44-2.5-.15-1.9-.44-2.48-.71-.86-1.24-.86Z"/><path class="g" d="M41.54,34.08c.27,0,.5,.03,.72,.09l-.13,1.21c-.25-.08-.47-.12-.66-.12-.48,0-.9,.28-1.24,.85s-.52,1.27-.52,2.12v4.63h-.91v-8.63h.75l.1,1.6h.04c.22-.56,.49-1,.8-1.3,.31-.3,.66-.46,1.03-.46Z"/><path class="g" d="M47.06,42.87l-.18-1.23h-.04c-.3,.54-.6,.91-.89,1.1-.3,.19-.67,.29-1.11,.29-.59,0-1.06-.22-1.4-.66-.34-.44-.5-1.07-.5-1.88,0-1.74,.97-2.66,2.9-2.74l1.02-.05v-.54c0-.68-.1-1.18-.3-1.5-.2-.32-.53-.48-.97-.48-.5,0-1.06,.22-1.69,.66l-.28-1c.29-.23,.62-.41,.97-.54s.7-.2,1.06-.2c.71,0,1.24,.23,1.59,.69s.52,1.19,.52,2.2v5.89h-.67Zm-2.05-.92c.56,0,1.01-.22,1.33-.67s.48-1.07,.48-1.88v-.78l-.91,.06c-.72,.04-1.24,.2-1.56,.48s-.48,.73-.48,1.34c0,.47,.1,.83,.3,1.08,.2,.25,.48,.37,.83,.37Z"/><path class="g" d="M52.01,43.03c-.87,0-1.54-.38-2.01-1.15-.48-.77-.71-1.86-.71-3.27s.24-2.56,.72-3.35c.48-.79,1.17-1.18,2.06-1.18,.29,0,.58,.04,.86,.13,.29,.09,.51,.19,.68,.31l-.28,1.11c-.2-.12-.42-.21-.66-.29s-.45-.11-.63-.11c-1.22,0-1.82,1.12-1.82,3.36,0,1.06,.15,1.88,.45,2.44,.3,.57,.74,.85,1.32,.85,.5,0,1.01-.15,1.54-.46v1.16c-.4,.3-.91,.45-1.51,.45Z"/><path class="g" d="M56.88,41.95c.16,0,.31-.02,.46-.05,.15-.03,.27-.07,.36-.11v1c-.1,.07-.24,.12-.43,.17-.19,.04-.36,.07-.52,.07-1.16,0-1.74-.88-1.74-2.64v-5.14h-.86v-.63l.86-.54,.38-1.84h.52v2h1.74v1.02h-1.74v5.08c0,.52,.08,.92,.26,1.2,.17,.28,.41,.42,.7,.42Z"/><path class="g" d="M58.83,31.89c0-.3,.05-.52,.15-.66,.1-.14,.23-.21,.38-.21s.27,.07,.38,.21,.16,.36,.16,.65-.05,.51-.16,.66c-.11,.14-.23,.22-.38,.22-.15,0-.28-.07-.38-.22-.1-.14-.15-.36-.15-.66Zm.98,10.97h-.91v-8.63h.91v8.63Z"/><path class="g" d="M64.14,43.03c-.87,0-1.54-.38-2.01-1.15-.48-.77-.71-1.86-.71-3.27s.24-2.56,.72-3.35c.48-.79,1.17-1.18,2.06-1.18,.29,0,.58,.04,.86,.13,.29,.09,.51,.19,.68,.31l-.28,1.11c-.2-.12-.42-.21-.66-.29s-.45-.11-.63-.11c-1.22,0-1.82,1.12-1.82,3.36,0,1.06,.15,1.88,.45,2.44,.3,.57,.74,.85,1.32,.85,.5,0,1.01-.15,1.54-.46v1.16c-.4,.3-.91,.45-1.51,.45Z"/><path class="g" d="M69.62,43.03c-.88,0-1.58-.39-2.09-1.17s-.77-1.86-.77-3.24,.24-2.5,.71-3.32c.47-.82,1.11-1.23,1.91-1.23,.75,0,1.34,.36,1.78,1.07,.44,.71,.66,1.65,.66,2.82v.83h-4.12c.02,1.01,.2,1.78,.53,2.31s.81,.79,1.42,.79c.64,0,1.28-.19,1.91-.58v1.17c-.32,.2-.62,.34-.91,.43-.29,.09-.63,.13-1.03,.13Zm-.25-7.85c-.48,0-.86,.23-1.15,.68-.29,.45-.45,1.08-.51,1.88h3.13c0-.82-.13-1.46-.38-1.89s-.62-.66-1.09-.66Z"/><path class="g" d="M77.23,40.51c0,.8-.21,1.42-.62,1.86-.42,.44-1,.65-1.75,.65-.79,0-1.41-.18-1.86-.54v-1.21c.29,.21,.6,.38,.92,.5,.33,.12,.65,.18,.95,.18,.47,0,.84-.11,1.09-.33s.38-.55,.38-1c0-.34-.1-.62-.3-.86-.2-.24-.6-.52-1.18-.85-.56-.3-.95-.56-1.19-.78-.24-.22-.41-.48-.52-.76-.11-.28-.17-.62-.17-1.02,0-.7,.2-1.26,.59-1.67,.4-.41,.94-.61,1.63-.61,.64,0,1.27,.19,1.89,.57l-.32,1.06c-.6-.36-1.15-.54-1.63-.54-.43,0-.75,.1-.97,.29s-.33,.46-.33,.8c0,.23,.04,.43,.12,.59,.08,.16,.21,.32,.4,.46,.18,.15,.53,.36,1.05,.64,.71,.37,1.19,.75,1.44,1.13,.25,.38,.37,.85,.37,1.43Z"/></g><g><path class="g" d="M13.38,223.66h-.51l-.9-4.3c-.04-.19-.09-.43-.14-.72s-.08-.46-.08-.52c-.04,.39-.12,.81-.21,1.27l-.87,4.28h-.51l-1.19-6.42h.55l.7,3.97c.1,.56,.17,1.06,.21,1.51,.05-.54,.14-1.06,.24-1.57l.8-3.91h.55l.84,3.94c.1,.45,.18,.97,.25,1.54,.04-.42,.11-.92,.22-1.52l.7-3.96h.55l-1.19,6.42Z"/><path class="g" d="M17.49,223.66v-3.12c0-.39-.06-.69-.19-.88-.12-.19-.32-.29-.58-.29-.35,0-.61,.14-.77,.41s-.24,.73-.24,1.35v2.52h-.51v-6.84h.51v2.07c0,.25,0,.46-.02,.62h.03c.1-.23,.24-.41,.42-.55,.18-.13,.39-.2,.63-.2,.41,0,.71,.14,.92,.42s.31,.72,.31,1.33v3.14h-.51Z"/><path class="g" d="M18.51,218.84h.54l.73,2.75c.16,.63,.26,1.08,.3,1.36h.02c.03-.15,.08-.4,.17-.77s.36-1.47,.83-3.34h.54l-1.43,5.48c-.14,.54-.31,.93-.5,1.15-.19,.23-.42,.34-.7,.34-.15,0-.31-.02-.46-.07v-.58c.11,.04,.24,.05,.38,.05,.35,0,.59-.28,.74-.84l.19-.69-1.35-4.84Z"/><path class="g" d="M22.53,221.89v-.24c0-.34,.04-.62,.11-.85,.07-.22,.21-.45,.41-.7,.28-.34,.45-.59,.52-.76s.11-.38,.11-.62c0-.3-.07-.53-.2-.69-.13-.16-.32-.24-.57-.24-.16,0-.32,.03-.47,.08s-.33,.15-.52,.3l-.18-.59c.38-.29,.79-.44,1.2-.44,.39,0,.69,.14,.91,.41s.32,.66,.32,1.16c0,.21-.02,.4-.06,.56-.04,.16-.1,.32-.18,.46-.08,.14-.24,.38-.5,.7-.21,.25-.34,.46-.41,.63-.07,.17-.1,.39-.1,.67v.15h-.39Zm-.15,1.31c0-.4,.12-.6,.37-.6,.12,0,.21,.05,.27,.15,.06,.1,.1,.25,.1,.44s-.03,.33-.1,.44c-.07,.1-.16,.16-.27,.16-.11,0-.19-.05-.26-.14-.07-.09-.1-.24-.1-.46Z"/></g><g><path d="M13.56,239.77h-.29l-1.09-4.96c-.09-.41-.16-.74-.21-1-.04,.25-.09,.55-.15,.88-.07,.33-.43,2.02-1.1,5.08h-.29l-1.37-6.42h.36l.87,4.14c.03,.17,.07,.32,.1,.46,.03,.14,.06,.28,.08,.4,.02,.12,.04,.25,.06,.36,.02,.12,.04,.23,.05,.35,.05-.4,.17-1,.35-1.81l.85-3.9h.39l1,4.47c.12,.52,.2,.93,.25,1.25,.03-.21,.07-.44,.11-.67s.4-1.92,1.05-5.05h.35l-1.38,6.42Z"/><path d="M19.01,239.77v-3.1c0-.48-.08-.83-.24-1.05-.16-.22-.4-.33-.73-.33-.44,0-.77,.14-.97,.43-.21,.29-.31,.76-.31,1.4v2.64h-.34v-6.84h.34v2.18l-.02,.61h.02c.14-.29,.31-.5,.52-.62s.47-.19,.79-.19c.84,0,1.26,.58,1.26,1.74v3.12h-.33Z"/><path d="M20.62,234.99h.35l.78,2.68c.24,.82,.39,1.38,.45,1.67h.02c.09-.38,.25-.94,.47-1.69l.78-2.65h.35l-1.66,5.55c-.13,.45-.25,.76-.34,.91s-.2,.28-.32,.36c-.12,.08-.27,.12-.44,.12-.13,0-.27-.03-.43-.09v-.38c.13,.05,.27,.07,.43,.07,.12,0,.22-.04,.31-.11,.09-.07,.17-.18,.24-.33,.07-.15,.16-.38,.25-.7,.09-.32,.16-.53,.18-.63l-1.42-4.78Z"/><path d="M27.61,233.66c0-.28,.07-.42,.21-.42,.07,0,.13,.04,.17,.11,.04,.07,.06,.18,.06,.31s-.02,.24-.06,.31c-.04,.08-.09,.11-.17,.11-.14,0-.21-.14-.21-.43Zm.39,6.1h-.34v-4.78h.34v4.78Z"/><path d="M32.52,239.77v-3.1c0-.48-.08-.83-.24-1.05-.16-.22-.4-.33-.73-.33-.44,0-.77,.14-.97,.43-.21,.29-.31,.76-.31,1.4v2.64h-.34v-4.78h.29l.07,.65h.02c.24-.5,.67-.75,1.28-.75,.84,0,1.26,.58,1.26,1.74v3.12h-.33Z"/><path d="M35.56,239.77l-1.43-4.78h.35l.96,3.25c.13,.42,.22,.78,.29,1.09h.02c.09-.4,.19-.76,.29-1.1l.96-3.24h.35l-1.43,4.78h-.34Z"/><path d="M40.15,239.85c-.54,0-.96-.21-1.26-.64-.3-.43-.45-1.03-.45-1.8s.15-1.37,.44-1.83c.29-.46,.68-.69,1.18-.69,.44,0,.78,.2,1.03,.59,.25,.39,.38,.93,.38,1.6v.35h-2.67c0,.66,.12,1.16,.36,1.5,.23,.35,.57,.52,1,.52,.21,0,.4-.02,.56-.06s.36-.12,.61-.25v.4c-.21,.12-.4,.2-.58,.24-.18,.04-.37,.06-.59,.06Zm-.1-4.57c-.36,0-.64,.15-.86,.46-.22,.3-.34,.74-.38,1.31h2.29c0-.55-.09-.99-.28-1.3-.19-.31-.44-.47-.77-.47Z"/><path d="M45.76,239.77v-3.1c0-.48-.08-.83-.24-1.05-.16-.22-.4-.33-.73-.33-.44,0-.77,.14-.97,.43-.21,.29-.31,.76-.31,1.4v2.64h-.34v-4.78h.29l.07,.65h.02c.24-.5,.67-.75,1.28-.75,.84,0,1.26,.58,1.26,1.74v3.12h-.33Z"/><path d="M48.97,239.47c.21,0,.4-.02,.56-.07v.35c-.16,.07-.35,.11-.57,.11-.33,0-.57-.11-.72-.34-.16-.23-.23-.58-.23-1.06v-3.08h-.55v-.25l.55-.2,.17-1.08h.17v1.16h1.09v.38h-1.09v3.02c0,.37,.05,.64,.15,.81,.1,.18,.26,.26,.47,.26Z"/><path d="M54.52,239.47c.21,0,.4-.02,.56-.07v.35c-.16,.07-.35,.11-.57,.11-.33,0-.57-.11-.72-.34-.16-.23-.23-.58-.23-1.06v-3.08h-.55v-.25l.55-.2,.17-1.08h.17v1.16h1.09v.38h-1.09v3.02c0,.37,.05,.64,.15,.81,.1,.18,.26,.26,.47,.26Z"/><path d="M59.16,239.77v-3.1c0-.48-.08-.83-.24-1.05-.16-.22-.4-.33-.73-.33-.44,0-.77,.14-.97,.43-.21,.29-.31,.76-.31,1.4v2.64h-.34v-6.84h.34v2.18l-.02,.61h.02c.14-.29,.31-.5,.52-.62s.47-.19,.79-.19c.84,0,1.26,.58,1.26,1.74v3.12h-.33Z"/><path d="M62.89,239.85c-.54,0-.96-.21-1.26-.64-.3-.43-.45-1.03-.45-1.8s.15-1.37,.44-1.83c.29-.46,.68-.69,1.18-.69,.44,0,.78,.2,1.03,.59,.25,.39,.38,.93,.38,1.6v.35h-2.67c0,.66,.12,1.16,.36,1.5,.23,.35,.57,.52,1,.52,.21,0,.4-.02,.56-.06s.36-.12,.61-.25v.4c-.21,.12-.4,.2-.58,.24-.18,.04-.37,.06-.59,.06Zm-.1-4.57c-.36,0-.64,.15-.86,.46-.22,.3-.34,.74-.38,1.31h2.29c0-.55-.09-.99-.28-1.3-.19-.31-.44-.47-.77-.47Z"/><path d="M71.39,239.77l-.81-3.19c-.05-.22-.12-.53-.2-.95h-.02l-.07,.33-.15,.64-.82,3.19h-.33l-1.06-4.78h.36l.59,2.77c.14,.69,.23,1.19,.27,1.51h.02c.13-.69,.23-1.14,.29-1.37l.76-2.91h.31l.73,2.9c.16,.69,.26,1.14,.3,1.37h.02c.02-.19,.11-.7,.27-1.53l.57-2.74h.34l-1,4.78h-.35Z"/><path d="M76.76,239.77v-3.1c0-.48-.08-.83-.24-1.05-.16-.22-.4-.33-.73-.33-.44,0-.77,.14-.97,.43-.21,.29-.31,.76-.31,1.4v2.64h-.34v-6.84h.34v2.18l-.02,.61h.02c.14-.29,.31-.5,.52-.62s.47-.19,.79-.19c.84,0,1.26,.58,1.26,1.74v3.12h-.33Z"/><path d="M80.49,239.85c-.54,0-.96-.21-1.26-.64-.3-.43-.45-1.03-.45-1.8s.15-1.37,.44-1.83c.29-.46,.68-.69,1.18-.69,.44,0,.78,.2,1.03,.59,.25,.39,.38,.93,.38,1.6v.35h-2.67c0,.66,.12,1.16,.36,1.5,.23,.35,.57,.52,1,.52,.21,0,.4-.02,.56-.06s.36-.12,.61-.25v.4c-.21,.12-.4,.2-.58,.24-.18,.04-.37,.06-.59,.06Zm-.1-4.57c-.36,0-.64,.15-.86,.46-.22,.3-.34,.74-.38,1.31h2.29c0-.55-.09-.99-.28-1.3-.19-.31-.44-.47-.77-.47Z"/><path d="M85.02,239.85c-.54,0-.96-.21-1.26-.64-.3-.43-.45-1.03-.45-1.8s.15-1.37,.44-1.83c.29-.46,.68-.69,1.18-.69,.44,0,.78,.2,1.03,.59,.25,.39,.38,.93,.38,1.6v.35h-2.67c0,.66,.12,1.16,.36,1.5,.23,.35,.57,.52,1,.52,.21,0,.4-.02,.56-.06s.36-.12,.61-.25v.4c-.21,.12-.4,.2-.58,.24-.18,.04-.37,.06-.59,.06Zm-.1-4.57c-.36,0-.64,.15-.86,.46-.22,.3-.34,.74-.38,1.31h2.29c0-.55-.09-.99-.28-1.3-.19-.31-.44-.47-.77-.47Z"/><path d="M88.39,239.77h-.34v-6.84h.34v6.84Z"/><path d="M95.09,239.77l-.09-.76h-.03c-.19,.31-.38,.53-.57,.65-.2,.13-.43,.19-.7,.19-.36,0-.65-.12-.85-.36s-.3-.57-.3-1c0-.47,.15-.83,.45-1.09,.3-.26,.74-.39,1.31-.41l.71-.03v-.32c0-.45-.07-.8-.21-1.03-.14-.23-.37-.35-.69-.35-.34,0-.7,.12-1.07,.37l-.13-.38c.41-.25,.81-.37,1.21-.37s.71,.14,.91,.41c.2,.27,.3,.7,.3,1.27v3.18h-.25Zm-1.36-.31c.39,0,.71-.15,.94-.44,.23-.29,.34-.7,.34-1.21v-.47l-.65,.04c-.52,.03-.89,.14-1.11,.31-.22,.18-.33,.45-.33,.83,0,.3,.07,.53,.21,.7,.14,.17,.34,.25,.6,.25Z"/><path d="M100.13,234.99v.3l-.77,.06c.21,.33,.31,.69,.31,1.08,0,.46-.12,.83-.36,1.12-.24,.29-.56,.43-.96,.43-.17,0-.29,0-.35-.03-.13,.09-.24,.2-.31,.32s-.11,.25-.11,.39c0,.15,.04,.26,.13,.33,.09,.07,.24,.11,.45,.11h.65c.4,0,.71,.1,.92,.31,.21,.21,.32,.52,.32,.93,0,.5-.16,.89-.48,1.17s-.77,.41-1.35,.41c-.47,0-.83-.12-1.08-.35-.26-.23-.38-.55-.38-.97,0-.33,.08-.6,.24-.82,.16-.22,.37-.36,.64-.44-.11-.06-.2-.15-.27-.26-.07-.11-.1-.24-.1-.39,0-.32,.16-.6,.47-.84-.22-.11-.38-.29-.5-.54s-.18-.53-.18-.84c0-.48,.12-.86,.35-1.15,.24-.29,.55-.43,.95-.43,.24,0,.43,.03,.57,.09h1.19Zm-3,5.59c0,.66,.38,.98,1.14,.98,.97,0,1.46-.4,1.46-1.2,0-.29-.08-.5-.23-.62-.15-.13-.4-.19-.74-.19h-.61c-.68,0-1.02,.34-1.02,1.03Zm.28-4.1c0,.37,.09,.66,.26,.86s.41,.31,.7,.31c.31,0,.55-.1,.71-.3,.17-.2,.25-.5,.25-.88,0-.41-.08-.71-.25-.92-.17-.2-.41-.31-.71-.31s-.53,.11-.7,.33c-.17,.22-.25,.52-.25,.91Z"/><path d="M103.83,239.77l-.09-.76h-.03c-.19,.31-.38,.53-.57,.65-.2,.13-.43,.19-.7,.19-.36,0-.65-.12-.85-.36s-.3-.57-.3-1c0-.47,.15-.83,.45-1.09,.3-.26,.74-.39,1.31-.41l.71-.03v-.32c0-.45-.07-.8-.21-1.03-.14-.23-.37-.35-.69-.35-.34,0-.7,.12-1.07,.37l-.13-.38c.41-.25,.81-.37,1.21-.37s.71,.14,.91,.41c.2,.27,.3,.7,.3,1.27v3.18h-.25Zm-1.36-.31c.39,0,.71-.15,.94-.44,.23-.29,.34-.7,.34-1.21v-.47l-.65,.04c-.52,.03-.89,.14-1.11,.31-.22,.18-.33,.45-.33,.83,0,.3,.07,.53,.21,.7,.14,.17,.34,.25,.6,.25Z"/><path d="M105.93,233.66c0-.28,.07-.42,.21-.42,.07,0,.13,.04,.17,.11,.04,.07,.06,.18,.06,.31s-.02,.24-.06,.31c-.04,.08-.09,.11-.17,.11-.14,0-.21-.14-.21-.43Zm.39,6.1h-.34v-4.78h.34v4.78Z"/><path d="M110.84,239.77v-3.1c0-.48-.08-.83-.24-1.05-.16-.22-.4-.33-.73-.33-.44,0-.77,.14-.97,.43-.21,.29-.31,.76-.31,1.4v2.64h-.34v-4.78h.29l.07,.65h.02c.24-.5,.67-.75,1.28-.75,.84,0,1.26,.58,1.26,1.74v3.12h-.33Z"/><path d="M113.45,238.11v-.16c0-.36,.04-.65,.13-.88,.09-.23,.24-.47,.47-.73l.31-.35c.16-.18,.28-.36,.35-.53s.11-.38,.11-.61c0-.37-.09-.67-.28-.89-.19-.22-.44-.33-.75-.33-.18,0-.35,.03-.5,.08-.16,.05-.33,.13-.51,.25l-.13-.35c.25-.14,.46-.23,.63-.28,.17-.05,.34-.07,.52-.07,.42,0,.74,.14,.98,.43,.24,.29,.36,.68,.36,1.19,0,.2-.02,.37-.06,.52s-.1,.29-.17,.42c-.07,.13-.16,.25-.27,.37-.1,.12-.22,.25-.35,.38-.15,.16-.26,.3-.34,.43-.08,.13-.13,.27-.17,.41s-.05,.36-.05,.64v.06h-.28Zm-.11,1.31c0-.29,.09-.43,.27-.43s.28,.14,.28,.43-.09,.43-.28,.43-.27-.14-.27-.43Z"/><path d="M9.59,247.77v-6.42h.35v6.42h-.35Z"/><path d="M14.54,247.77v-3.1c0-.48-.08-.83-.24-1.05-.16-.22-.4-.33-.73-.33-.44,0-.77,.14-.97,.43-.21,.29-.31,.76-.31,1.4v2.64h-.34v-4.78h.29l.07,.65h.02c.24-.5,.67-.75,1.28-.75,.84,0,1.26,.58,1.26,1.74v3.12h-.33Z"/><path d="M18.25,247.85c-.53,0-.94-.22-1.24-.65s-.45-1.03-.45-1.8,.16-1.41,.47-1.85c.31-.44,.74-.66,1.28-.66,.32,0,.63,.07,.92,.22l-.09,.39c-.32-.14-.6-.21-.83-.21-.45,0-.8,.18-1.03,.54-.23,.36-.35,.88-.35,1.56,0,.64,.12,1.15,.35,1.51,.23,.36,.56,.55,.98,.55,.34,0,.65-.08,.94-.23v.4c-.24,.15-.55,.22-.93,.22Z"/><path d="M23.85,245.37c0,.78-.15,1.39-.44,1.83-.29,.44-.7,.66-1.21,.66-.33,0-.61-.1-.86-.3-.25-.2-.44-.49-.57-.87s-.2-.81-.2-1.31c0-.78,.15-1.39,.44-1.82,.29-.43,.69-.65,1.21-.65s.91,.22,1.2,.66c.29,.44,.43,1.05,.43,1.81Zm-2.92,0c0,.66,.11,1.17,.34,1.54,.22,.37,.54,.55,.95,.55s.73-.18,.95-.55c.22-.37,.34-.88,.34-1.54s-.11-1.17-.34-1.53c-.23-.36-.54-.54-.95-.54s-.72,.18-.95,.54c-.22,.36-.33,.87-.33,1.54Z"/><path d="M27.04,242.9c.16,0,.33,.02,.5,.06l-.06,.42c-.15-.05-.31-.07-.48-.07-.32,0-.58,.17-.78,.52s-.3,.78-.3,1.31v2.64h-.34v-4.78h.29l.03,.86h.02c.15-.35,.31-.6,.49-.74,.17-.14,.38-.21,.63-.21Z"/><path d="M30.58,247.85c-.57,0-.99-.28-1.25-.83h-.02v.37c.02,.22,.02,.45,.02,.71v1.82h-.34v-6.94h.29l.07,.68h.02c.25-.52,.66-.77,1.22-.77,.5,0,.88,.21,1.14,.63,.26,.42,.39,1.04,.39,1.85s-.14,1.39-.41,1.83c-.28,.43-.65,.65-1.13,.65Zm0-.39c.38,0,.67-.18,.88-.54s.31-.87,.31-1.52c0-1.4-.39-2.1-1.18-2.1-.43,0-.75,.15-.95,.46-.2,.31-.3,.81-.3,1.5v.14c0,.75,.1,1.28,.29,1.6s.51,.48,.95,.48Z"/><path d="M36.09,247.77l-.09-.76h-.03c-.19,.31-.38,.53-.57,.65-.2,.13-.43,.19-.7,.19-.36,0-.65-.12-.85-.36s-.3-.57-.3-1c0-.47,.15-.83,.45-1.09,.3-.26,.74-.39,1.31-.41l.71-.03v-.32c0-.45-.07-.8-.21-1.03-.14-.23-.37-.35-.69-.35-.34,0-.7,.12-1.07,.37l-.13-.38c.41-.25,.81-.37,1.21-.37s.71,.14,.91,.41c.2,.27,.3,.7,.3,1.27v3.18h-.25Zm-1.36-.31c.39,0,.71-.15,.94-.44,.23-.29,.34-.7,.34-1.21v-.47l-.65,.04c-.52,.03-.89,.14-1.11,.31-.22,.18-.33,.45-.33,.83,0,.3,.07,.53,.21,.7,.14,.17,.34,.25,.6,.25Z"/><path d="M39.7,242.9c.16,0,.33,.02,.5,.06l-.06,.42c-.15-.05-.31-.07-.48-.07-.32,0-.58,.17-.78,.52s-.3,.78-.3,1.31v2.64h-.34v-4.78h.29l.03,.86h.02c.15-.35,.31-.6,.49-.74,.17-.14,.38-.21,.63-.21Z"/><path d="M43.9,247.77l-.09-.76h-.03c-.19,.31-.38,.53-.57,.65-.2,.13-.43,.19-.7,.19-.36,0-.65-.12-.85-.36s-.3-.57-.3-1c0-.47,.15-.83,.45-1.09,.3-.26,.74-.39,1.31-.41l.71-.03v-.32c0-.45-.07-.8-.21-1.03-.14-.23-.37-.35-.69-.35-.34,0-.7,.12-1.07,.37l-.13-.38c.41-.25,.81-.37,1.21-.37s.71,.14,.91,.41c.2,.27,.3,.7,.3,1.27v3.18h-.25Zm-1.36-.31c.39,0,.71-.15,.94-.44,.23-.29,.34-.7,.34-1.21v-.47l-.65,.04c-.52,.03-.89,.14-1.11,.31-.22,.18-.33,.45-.33,.83,0,.3,.07,.53,.21,.7,.14,.17,.34,.25,.6,.25Z"/><path d="M47.03,247.47c.21,0,.4-.02,.56-.07v.35c-.16,.07-.35,.11-.57,.11-.33,0-.57-.11-.72-.34-.16-.23-.23-.58-.23-1.06v-3.08h-.55v-.25l.55-.2,.17-1.08h.17v1.16h1.09v.38h-1.09v3.02c0,.37,.05,.64,.15,.81,.1,.18,.26,.26,.47,.26Z"/><path d="M49.04,241.66c0-.28,.07-.42,.21-.42,.07,0,.13,.04,.17,.11,.04,.07,.06,.18,.06,.31s-.02,.24-.06,.31c-.04,.08-.09,.11-.17,.11-.14,0-.21-.14-.21-.43Zm.39,6.1h-.34v-4.78h.34v4.78Z"/><path d="M53.95,247.77v-3.1c0-.48-.08-.83-.24-1.05-.16-.22-.4-.33-.73-.33-.44,0-.77,.14-.97,.43-.21,.29-.31,.76-.31,1.4v2.64h-.34v-4.78h.29l.07,.65h.02c.24-.5,.67-.75,1.28-.75,.84,0,1.26,.58,1.26,1.74v3.12h-.33Z"/><path d="M59.07,242.99v.3l-.77,.06c.21,.33,.31,.69,.31,1.08,0,.46-.12,.83-.36,1.12-.24,.29-.56,.43-.96,.43-.17,0-.29,0-.35-.03-.13,.09-.24,.2-.31,.32s-.11,.25-.11,.39c0,.15,.04,.26,.13,.33,.09,.07,.24,.11,.45,.11h.65c.4,0,.71,.1,.92,.31,.21,.21,.32,.52,.32,.93,0,.5-.16,.89-.48,1.17s-.77,.41-1.35,.41c-.47,0-.83-.12-1.08-.35-.26-.23-.38-.55-.38-.97,0-.33,.08-.6,.24-.82,.16-.22,.37-.36,.64-.44-.11-.06-.2-.15-.27-.26-.07-.11-.1-.24-.1-.39,0-.32,.16-.6,.47-.84-.22-.11-.38-.29-.5-.54s-.18-.53-.18-.84c0-.48,.12-.86,.35-1.15,.24-.29,.55-.43,.95-.43,.24,0,.43,.03,.57,.09h1.19Zm-3,5.59c0,.66,.38,.98,1.14,.98,.97,0,1.46-.4,1.46-1.2,0-.29-.08-.5-.23-.62-.15-.13-.4-.19-.74-.19h-.61c-.68,0-1.02,.34-1.02,1.03Zm.28-4.1c0,.37,.09,.66,.26,.86s.41,.31,.7,.31c.31,0,.55-.1,.71-.3,.17-.2,.25-.5,.25-.88,0-.41-.08-.71-.25-.92-.17-.2-.41-.31-.71-.31s-.53,.11-.7,.33c-.17,.22-.25,.52-.25,.91Z"/><path d="M66,247.77l-.81-3.19c-.05-.22-.12-.53-.2-.95h-.02l-.07,.33-.15,.64-.82,3.19h-.33l-1.06-4.78h.36l.59,2.77c.14,.69,.23,1.19,.27,1.51h.02c.13-.69,.23-1.14,.29-1.37l.76-2.91h.31l.73,2.9c.16,.69,.26,1.14,.3,1.37h.02c.02-.19,.11-.7,.27-1.53l.57-2.74h.34l-1,4.78h-.35Z"/><path d="M71.37,247.77v-3.1c0-.48-.08-.83-.24-1.05-.16-.22-.4-.33-.73-.33-.44,0-.77,.14-.97,.43-.21,.29-.31,.76-.31,1.4v2.64h-.34v-6.84h.34v2.18l-.02,.61h.02c.14-.29,.31-.5,.52-.62s.47-.19,.79-.19c.84,0,1.26,.58,1.26,1.74v3.12h-.33Z"/><path d="M75.85,247.77l-.09-.76h-.03c-.19,.31-.38,.53-.57,.65-.2,.13-.43,.19-.7,.19-.36,0-.65-.12-.85-.36s-.3-.57-.3-1c0-.47,.15-.83,.45-1.09,.3-.26,.74-.39,1.31-.41l.71-.03v-.32c0-.45-.07-.8-.21-1.03-.14-.23-.37-.35-.69-.35-.34,0-.7,.12-1.07,.37l-.13-.38c.41-.25,.81-.37,1.21-.37s.71,.14,.91,.41c.2,.27,.3,.7,.3,1.27v3.18h-.25Zm-1.36-.31c.39,0,.71-.15,.94-.44,.23-.29,.34-.7,.34-1.21v-.47l-.65,.04c-.52,.03-.89,.14-1.11,.31-.22,.18-.33,.45-.33,.83,0,.3,.07,.53,.21,.7,.14,.17,.34,.25,.6,.25Z"/><path d="M78.97,247.47c.21,0,.4-.02,.56-.07v.35c-.16,.07-.35,.11-.57,.11-.33,0-.57-.11-.72-.34-.16-.23-.23-.58-.23-1.06v-3.08h-.55v-.25l.55-.2,.17-1.08h.17v1.16h1.09v.38h-1.09v3.02c0,.37,.05,.64,.15,.81,.1,.18,.26,.26,.47,.26Z"/><path d="M86.61,245.37c0,.78-.15,1.39-.44,1.83-.29,.44-.7,.66-1.21,.66-.33,0-.61-.1-.86-.3-.25-.2-.44-.49-.57-.87s-.2-.81-.2-1.31c0-.78,.15-1.39,.44-1.82,.29-.43,.69-.65,1.21-.65s.91,.22,1.2,.66c.29,.44,.43,1.05,.43,1.81Zm-2.92,0c0,.66,.11,1.17,.34,1.54,.22,.37,.54,.55,.95,.55s.73-.18,.95-.55c.22-.37,.34-.88,.34-1.54s-.11-1.17-.34-1.53c-.23-.36-.54-.54-.95-.54s-.72,.18-.95,.54c-.22,.36-.33,.87-.33,1.54Z"/><path d="M89.31,247.47c.21,0,.4-.02,.56-.07v.35c-.16,.07-.35,.11-.57,.11-.33,0-.57-.11-.72-.34-.16-.23-.23-.58-.23-1.06v-3.08h-.55v-.25l.55-.2,.17-1.08h.17v1.16h1.09v.38h-1.09v3.02c0,.37,.05,.64,.15,.81,.1,.18,.26,.26,.47,.26Z"/><path d="M93.95,247.77v-3.1c0-.48-.08-.83-.24-1.05-.16-.22-.4-.33-.73-.33-.44,0-.77,.14-.97,.43-.21,.29-.31,.76-.31,1.4v2.64h-.34v-6.84h.34v2.18l-.02,.61h.02c.14-.29,.31-.5,.52-.62s.47-.19,.79-.19c.84,0,1.26,.58,1.26,1.74v3.12h-.33Z"/><path d="M97.68,247.85c-.54,0-.96-.21-1.26-.64-.3-.43-.45-1.03-.45-1.8s.15-1.37,.44-1.83c.29-.46,.68-.69,1.18-.69,.44,0,.78,.2,1.03,.59,.25,.39,.38,.93,.38,1.6v.35h-2.67c0,.66,.12,1.16,.36,1.5,.23,.35,.57,.52,1,.52,.21,0,.4-.02,.56-.06s.36-.12,.61-.25v.4c-.21,.12-.4,.2-.58,.24-.18,.04-.37,.06-.59,.06Zm-.1-4.57c-.36,0-.64,.15-.86,.46-.22,.3-.34,.74-.38,1.31h2.29c0-.55-.09-.99-.28-1.3-.19-.31-.44-.47-.77-.47Z"/><path d="M102.17,242.9c.16,0,.33,.02,.5,.06l-.06,.42c-.15-.05-.31-.07-.48-.07-.32,0-.58,.17-.78,.52s-.3,.78-.3,1.31v2.64h-.34v-4.78h.29l.03,.86h.02c.15-.35,.31-.6,.49-.74,.17-.14,.38-.21,.63-.21Z"/><path d="M106.42,246.52c0,.43-.13,.76-.38,.99s-.61,.34-1.07,.34c-.5,0-.89-.1-1.18-.29v-.47c.37,.24,.77,.36,1.18,.36,.37,0,.64-.08,.83-.24,.19-.16,.28-.37,.28-.63,0-.24-.08-.44-.23-.61-.15-.16-.4-.33-.74-.48-.37-.17-.63-.32-.78-.45-.15-.12-.26-.26-.34-.42-.08-.16-.11-.35-.11-.57,0-.36,.12-.64,.35-.85,.23-.21,.56-.31,.98-.31s.78,.1,1.14,.29l-.13,.4c-.36-.19-.7-.29-1.01-.29s-.54,.06-.72,.19c-.18,.13-.27,.31-.27,.54,0,.25,.07,.45,.21,.6,.14,.15,.41,.32,.81,.5,.33,.16,.58,.3,.73,.42s.27,.27,.34,.42,.11,.34,.11,.56Z"/><path d="M113.17,247.77v-3.1c0-.48-.08-.83-.24-1.05-.16-.22-.4-.33-.73-.33-.44,0-.77,.14-.97,.43-.21,.29-.31,.76-.31,1.4v2.64h-.34v-6.84h.34v2.18l-.02,.61h.02c.14-.29,.31-.5,.52-.62s.47-.19,.79-.19c.84,0,1.26,.58,1.26,1.74v3.12h-.33Z"/><path d="M117.65,247.77l-.09-.76h-.03c-.19,.31-.38,.53-.57,.65-.2,.13-.43,.19-.7,.19-.36,0-.65-.12-.85-.36s-.3-.57-.3-1c0-.47,.15-.83,.45-1.09,.3-.26,.74-.39,1.31-.41l.71-.03v-.32c0-.45-.07-.8-.21-1.03-.14-.23-.37-.35-.69-.35-.34,0-.7,.12-1.07,.37l-.13-.38c.41-.25,.81-.37,1.21-.37s.71,.14,.91,.41c.2,.27,.3,.7,.3,1.27v3.18h-.25Zm-1.36-.31c.39,0,.71-.15,.94-.44,.23-.29,.34-.7,.34-1.21v-.47l-.65,.04c-.52,.03-.89,.14-1.11,.31-.22,.18-.33,.45-.33,.83,0,.3,.07,.53,.21,.7,.14,.17,.34,.25,.6,.25Z"/><path d="M120.61,247.77l-1.43-4.78h.35l.96,3.25c.13,.42,.22,.78,.29,1.09h.02c.09-.4,.19-.76,.29-1.1l.96-3.24h.35l-1.43,4.78h-.34Z"/><path d="M125.19,247.85c-.54,0-.96-.21-1.26-.64-.3-.43-.45-1.03-.45-1.8s.15-1.37,.44-1.83c.29-.46,.68-.69,1.18-.69,.44,0,.78,.2,1.03,.59,.25,.39,.38,.93,.38,1.6v.35h-2.67c0,.66,.12,1.16,.36,1.5,.23,.35,.57,.52,1,.52,.21,0,.4-.02,.56-.06s.36-.12,.61-.25v.4c-.21,.12-.4,.2-.58,.24-.18,.04-.37,.06-.59,.06Zm-.1-4.57c-.36,0-.64,.15-.86,.46-.22,.3-.34,.74-.38,1.31h2.29c0-.55-.09-.99-.28-1.3-.19-.31-.44-.47-.77-.47Z"/><path d="M9.84,255.77h-.34v-6.84h.34v6.84Z"/><path d="M13.28,255.85c-.54,0-.96-.21-1.26-.64-.3-.43-.45-1.03-.45-1.8s.15-1.37,.44-1.83c.29-.46,.68-.69,1.18-.69,.44,0,.78,.2,1.03,.59,.25,.39,.38,.93,.38,1.6v.35h-2.67c0,.66,.12,1.16,.36,1.5,.23,.35,.57,.52,1,.52,.21,0,.4-.02,.56-.06s.36-.12,.61-.25v.4c-.21,.12-.4,.2-.58,.24-.18,.04-.37,.06-.59,.06Zm-.1-4.57c-.36,0-.64,.15-.86,.46-.22,.3-.34,.74-.38,1.31h2.29c0-.55-.09-.99-.28-1.3-.19-.31-.44-.47-.77-.47Z"/><path d="M18.56,255.77l-.09-.76h-.03c-.19,.31-.38,.53-.57,.65-.2,.13-.43,.19-.7,.19-.36,0-.65-.12-.85-.36s-.3-.57-.3-1c0-.47,.15-.83,.45-1.09,.3-.26,.74-.39,1.31-.41l.71-.03v-.32c0-.45-.07-.8-.21-1.03-.14-.23-.37-.35-.69-.35-.34,0-.7,.12-1.07,.37l-.13-.38c.41-.25,.81-.37,1.21-.37s.71,.14,.91,.41c.2,.27,.3,.7,.3,1.27v3.18h-.25Zm-1.36-.31c.39,0,.71-.15,.94-.44,.23-.29,.34-.7,.34-1.21v-.47l-.65,.04c-.52,.03-.89,.14-1.11,.31-.22,.18-.33,.45-.33,.83,0,.3,.07,.53,.21,.7,.14,.17,.34,.25,.6,.25Z"/><path d="M22.16,250.9c.16,0,.33,.02,.5,.06l-.06,.42c-.15-.05-.31-.07-.48-.07-.32,0-.58,.17-.78,.52s-.3,.78-.3,1.31v2.64h-.34v-4.78h.29l.03,.86h.02c.15-.35,.31-.6,.49-.74,.17-.14,.38-.21,.63-.21Z"/><path d="M26.7,255.77v-3.1c0-.48-.08-.83-.24-1.05-.16-.22-.4-.33-.73-.33-.44,0-.77,.14-.97,.43-.21,.29-.31,.76-.31,1.4v2.64h-.34v-4.78h.29l.07,.65h.02c.24-.5,.67-.75,1.28-.75,.84,0,1.26,.58,1.26,1.74v3.12h-.33Z"/><path d="M30.43,255.85c-.54,0-.96-.21-1.26-.64-.3-.43-.45-1.03-.45-1.8s.15-1.37,.44-1.83c.29-.46,.68-.69,1.18-.69,.44,0,.78,.2,1.03,.59,.25,.39,.38,.93,.38,1.6v.35h-2.67c0,.66,.12,1.16,.36,1.5,.23,.35,.57,.52,1,.52,.21,0,.4-.02,.56-.06s.36-.12,.61-.25v.4c-.21,.12-.4,.2-.58,.24-.18,.04-.37,.06-.59,.06Zm-.1-4.57c-.36,0-.64,.15-.86,.46-.22,.3-.34,.74-.38,1.31h2.29c0-.55-.09-.99-.28-1.3-.19-.31-.44-.47-.77-.47Z"/><path d="M34.82,250.9c.27,0,.5,.06,.7,.19s.37,.34,.53,.65h.02c-.01-.37-.02-.73-.02-1.09v-1.72h.33v6.84h-.22l-.09-.73h-.03c-.28,.54-.69,.82-1.21,.82s-.9-.21-1.17-.62c-.27-.41-.41-1.01-.41-1.79,0-.83,.13-1.46,.4-1.89,.27-.44,.66-.65,1.17-.65Zm0,.4c-.4,0-.71,.18-.91,.55-.2,.37-.31,.9-.31,1.6,0,1.35,.41,2.03,1.22,2.03,.42,0,.72-.16,.92-.47s.29-.83,.29-1.55v-.07c0-.74-.1-1.27-.29-1.59-.19-.32-.5-.49-.93-.49Z"/><path d="M40.78,249.66c0-.28,.07-.42,.21-.42,.07,0,.13,.04,.17,.11,.04,.07,.06,.18,.06,.31s-.02,.24-.06,.31c-.04,.08-.09,.11-.17,.11-.14,0-.21-.14-.21-.43Zm.39,6.1h-.34v-4.78h.34v4.78Z"/><path d="M45.4,254.52c0,.43-.13,.76-.38,.99s-.61,.34-1.07,.34c-.5,0-.89-.1-1.18-.29v-.47c.37,.24,.77,.36,1.18,.36,.37,0,.64-.08,.83-.24,.19-.16,.28-.37,.28-.63,0-.24-.08-.44-.23-.61-.15-.16-.4-.33-.74-.48-.37-.17-.63-.32-.78-.45-.15-.12-.26-.26-.34-.42-.08-.16-.11-.35-.11-.57,0-.36,.12-.64,.35-.85,.23-.21,.56-.31,.98-.31s.78,.1,1.14,.29l-.13,.4c-.36-.19-.7-.29-1.01-.29s-.54,.06-.72,.19c-.18,.13-.27,.31-.27,.54,0,.25,.07,.45,.21,.6,.14,.15,.41,.32,.81,.5,.33,.16,.58,.3,.73,.42s.27,.27,.34,.42,.11,.34,.11,.56Z"/><path d="M51.81,255.77l-.09-.76h-.03c-.19,.31-.38,.53-.57,.65-.2,.13-.43,.19-.7,.19-.36,0-.65-.12-.85-.36s-.3-.57-.3-1c0-.47,.15-.83,.45-1.09,.3-.26,.74-.39,1.31-.41l.71-.03v-.32c0-.45-.07-.8-.21-1.03-.14-.23-.37-.35-.69-.35-.34,0-.7,.12-1.07,.37l-.13-.38c.41-.25,.81-.37,1.21-.37s.71,.14,.91,.41c.2,.27,.3,.7,.3,1.27v3.18h-.25Zm-1.36-.31c.39,0,.71-.15,.94-.44,.23-.29,.34-.7,.34-1.21v-.47l-.65,.04c-.52,.03-.89,.14-1.11,.31-.22,.18-.33,.45-.33,.83,0,.3,.07,.53,.21,.7,.14,.17,.34,.25,.6,.25Z"/><path d="M56.54,255.77v-3.1c0-.48-.08-.83-.24-1.05-.16-.22-.4-.33-.73-.33-.44,0-.77,.14-.97,.43-.21,.29-.31,.76-.31,1.4v2.64h-.34v-4.78h.29l.07,.65h.02c.24-.5,.67-.75,1.28-.75,.84,0,1.26,.58,1.26,1.74v3.12h-.33Z"/><path d="M61.24,249.66c0-.28,.07-.42,.21-.42,.07,0,.13,.04,.17,.11,.04,.07,.06,.18,.06,.31s-.02,.24-.06,.31c-.04,.08-.09,.11-.17,.11-.14,0-.21-.14-.21-.43Zm.39,6.1h-.34v-4.78h.34v4.78Z"/><path d="M68.19,255.77v-3.13c0-.47-.07-.81-.21-1.02s-.36-.32-.65-.32c-.38,0-.66,.13-.84,.4s-.27,.69-.27,1.27v2.8h-.34v-3.27c0-.81-.29-1.21-.86-1.21-.39,0-.67,.15-.85,.44-.18,.29-.27,.76-.27,1.4v2.64h-.34v-4.78h.28l.07,.65h.02c.1-.24,.25-.42,.44-.55,.19-.13,.4-.2,.62-.2,.58,0,.96,.28,1.12,.85h.01c.12-.27,.28-.48,.49-.63s.43-.22,.69-.22c.4,0,.71,.14,.91,.42s.3,.72,.3,1.33v3.12h-.33Z"/><path d="M72.01,255.85c-.57,0-.99-.28-1.25-.83h-.02v.37c.02,.22,.02,.45,.02,.71v1.82h-.34v-6.94h.29l.07,.68h.02c.25-.52,.66-.77,1.22-.77,.5,0,.88,.21,1.14,.63,.26,.42,.39,1.04,.39,1.85s-.14,1.39-.41,1.83c-.28,.43-.65,.65-1.13,.65Zm0-.39c.38,0,.67-.18,.88-.54s.31-.87,.31-1.52c0-1.4-.39-2.1-1.18-2.1-.43,0-.75,.15-.95,.46-.2,.31-.3,.81-.3,1.5v.14c0,.75,.1,1.28,.29,1.6s.51,.48,.95,.48Z"/><path d="M78.34,253.37c0,.78-.15,1.39-.44,1.83-.29,.44-.7,.66-1.21,.66-.33,0-.61-.1-.86-.3-.25-.2-.44-.49-.57-.87s-.2-.81-.2-1.31c0-.78,.15-1.39,.44-1.82,.29-.43,.69-.65,1.21-.65s.91,.22,1.2,.66c.29,.44,.43,1.05,.43,1.81Zm-2.92,0c0,.66,.11,1.17,.34,1.54,.22,.37,.54,.55,.95,.55s.73-.18,.95-.55c.22-.37,.34-.88,.34-1.54s-.11-1.17-.34-1.53c-.23-.36-.54-.54-.95-.54s-.72,.18-.95,.54c-.22,.36-.33,.87-.33,1.54Z"/><path d="M81.52,250.9c.16,0,.33,.02,.5,.06l-.06,.42c-.15-.05-.31-.07-.48-.07-.32,0-.58,.17-.78,.52s-.3,.78-.3,1.31v2.64h-.34v-4.78h.29l.03,.86h.02c.15-.35,.31-.6,.49-.74,.17-.14,.38-.21,.63-.21Z"/><path d="M84.45,255.47c.21,0,.4-.02,.56-.07v.35c-.16,.07-.35,.11-.57,.11-.33,0-.57-.11-.72-.34-.16-.23-.23-.58-.23-1.06v-3.08h-.55v-.25l.55-.2,.17-1.08h.17v1.16h1.09v.38h-1.09v3.02c0,.37,.05,.64,.15,.81,.1,.18,.26,.26,.47,.26Z"/><path d="M88.76,255.77l-.09-.76h-.03c-.19,.31-.38,.53-.57,.65-.2,.13-.43,.19-.7,.19-.36,0-.65-.12-.85-.36s-.3-.57-.3-1c0-.47,.15-.83,.45-1.09,.3-.26,.74-.39,1.31-.41l.71-.03v-.32c0-.45-.07-.8-.21-1.03-.14-.23-.37-.35-.69-.35-.34,0-.7,.12-1.07,.37l-.13-.38c.41-.25,.81-.37,1.21-.37s.71,.14,.91,.41c.2,.27,.3,.7,.3,1.27v3.18h-.25Zm-1.36-.31c.39,0,.71-.15,.94-.44,.23-.29,.34-.7,.34-1.21v-.47l-.65,.04c-.52,.03-.89,.14-1.11,.31-.22,.18-.33,.45-.33,.83,0,.3,.07,.53,.21,.7,.14,.17,.34,.25,.6,.25Z"/><path d="M93.49,255.77v-3.1c0-.48-.08-.83-.24-1.05-.16-.22-.4-.33-.73-.33-.44,0-.77,.14-.97,.43-.21,.29-.31,.76-.31,1.4v2.64h-.34v-4.78h.29l.07,.65h.02c.24-.5,.67-.75,1.28-.75,.84,0,1.26,.58,1.26,1.74v3.12h-.33Z"/><path d="M96.7,255.47c.21,0,.4-.02,.56-.07v.35c-.16,.07-.35,.11-.57,.11-.33,0-.57-.11-.72-.34-.16-.23-.23-.58-.23-1.06v-3.08h-.55v-.25l.55-.2,.17-1.08h.17v1.16h1.09v.38h-1.09v3.02c0,.37,.05,.64,.15,.81,.1,.18,.26,.26,.47,.26Z"/><path d="M102.86,255.85c-.57,0-.99-.28-1.25-.83h-.02v.37c.02,.22,.02,.45,.02,.71v1.82h-.34v-6.94h.29l.07,.68h.02c.25-.52,.66-.77,1.22-.77,.5,0,.88,.21,1.14,.63,.26,.42,.39,1.04,.39,1.85s-.14,1.39-.41,1.83c-.28,.43-.65,.65-1.13,.65Zm0-.39c.38,0,.67-.18,.88-.54s.31-.87,.31-1.52c0-1.4-.39-2.1-1.18-2.1-.43,0-.75,.15-.95,.46-.2,.31-.3,.81-.3,1.5v.14c0,.75,.1,1.28,.29,1.6s.51,.48,.95,.48Z"/><path d="M107.58,250.9c.16,0,.33,.02,.5,.06l-.06,.42c-.15-.05-.31-.07-.48-.07-.32,0-.58,.17-.78,.52s-.3,.78-.3,1.31v2.64h-.34v-4.78h.29l.03,.86h.02c.15-.35,.31-.6,.49-.74,.17-.14,.38-.21,.63-.21Z"/><path d="M111.79,255.77l-.09-.76h-.03c-.19,.31-.38,.53-.57,.65-.2,.13-.43,.19-.7,.19-.36,0-.65-.12-.85-.36s-.3-.57-.3-1c0-.47,.15-.83,.45-1.09,.3-.26,.74-.39,1.31-.41l.71-.03v-.32c0-.45-.07-.8-.21-1.03-.14-.23-.37-.35-.69-.35-.34,0-.7,.12-1.07,.37l-.13-.38c.41-.25,.81-.37,1.21-.37s.71,.14,.91,.41c.2,.27,.3,.7,.3,1.27v3.18h-.25Zm-1.36-.31c.39,0,.71-.15,.94-.44,.23-.29,.34-.7,.34-1.21v-.47l-.65,.04c-.52,.03-.89,.14-1.11,.31-.22,.18-.33,.45-.33,.83,0,.3,.07,.53,.21,.7,.14,.17,.34,.25,.6,.25Z"/><path d="M115.41,255.85c-.53,0-.94-.22-1.24-.65s-.45-1.03-.45-1.8,.16-1.41,.47-1.85c.31-.44,.74-.66,1.28-.66,.32,0,.63,.07,.92,.22l-.09,.39c-.32-.14-.6-.21-.83-.21-.45,0-.8,.18-1.03,.54-.23,.36-.35,.88-.35,1.56,0,.64,.12,1.15,.35,1.51,.23,.36,.56,.55,.98,.55,.34,0,.65-.08,.94-.23v.4c-.24,.15-.55,.22-.93,.22Z"/><path d="M118.93,255.47c.21,0,.4-.02,.56-.07v.35c-.16,.07-.35,.11-.57,.11-.33,0-.57-.11-.72-.34-.16-.23-.23-.58-.23-1.06v-3.08h-.55v-.25l.55-.2,.17-1.08h.17v1.16h1.09v.38h-1.09v3.02c0,.37,.05,.64,.15,.81,.1,.18,.26,.26,.47,.26Z"/><path d="M120.94,249.66c0-.28,.07-.42,.21-.42,.07,0,.13,.04,.17,.11,.04,.07,.06,.18,.06,.31s-.02,.24-.06,.31c-.04,.08-.09,.11-.17,.11-.14,0-.21-.14-.21-.43Zm.39,6.1h-.34v-4.78h.34v4.78Z"/><path d="M124.74,255.85c-.53,0-.94-.22-1.24-.65s-.45-1.03-.45-1.8,.16-1.41,.47-1.85c.31-.44,.74-.66,1.28-.66,.32,0,.63,.07,.92,.22l-.09,.39c-.32-.14-.6-.21-.83-.21-.45,0-.8,.18-1.03,.54-.23,.36-.35,.88-.35,1.56,0,.64,.12,1.15,.35,1.51,.23,.36,.56,.55,.98,.55,.34,0,.65-.08,.94-.23v.4c-.24,.15-.55,.22-.93,.22Z"/><path d="M128.77,255.85c-.54,0-.96-.21-1.26-.64-.3-.43-.45-1.03-.45-1.8s.15-1.37,.44-1.83c.29-.46,.68-.69,1.18-.69,.44,0,.78,.2,1.03,.59,.25,.39,.38,.93,.38,1.6v.35h-2.67c0,.66,.12,1.16,.36,1.5,.23,.35,.57,.52,1,.52,.21,0,.4-.02,.56-.06s.36-.12,.61-.25v.4c-.21,.12-.4,.2-.58,.24-.18,.04-.37,.06-.59,.06Zm-.1-4.57c-.36,0-.64,.15-.86,.46-.22,.3-.34,.74-.38,1.31h2.29c0-.55-.09-.99-.28-1.3-.19-.31-.44-.47-.77-.47Z"/><path d="M131.73,255.42c0-.29,.09-.43,.27-.43s.28,.14,.28,.43-.09,.43-.28,.43-.27-.14-.27-.43Z"/></g><image transform="translate(7.65 12.05) scale(.09)" xlink:href="../../../../../../Downloads/logo-library.png"/><image transform="translate(1.89 72.82) scale(.21)" xlink:href="../../../../../../Downloads/lib-best-good-and-bad-practices (1).png"/><rect class="f" x="9.21" y="267.2" width="123.51" height="12.68" rx="6.34" ry="6.34"/><g><path class="d" d="M59.3,275.59l-1.52-4.43h-.02c.03,.35,.04,.77,.04,1.25v3.18h-.48v-5h.78l1.42,4.12h.02l1.43-4.12h.78v5h-.52v-3.22c0-.37,.01-.77,.04-1.2h-.02l-1.53,4.42h-.42Z"/><path class="d" d="M65.8,273.72c0,.61-.14,1.09-.41,1.43-.27,.34-.65,.51-1.14,.51-.3,0-.57-.08-.8-.24s-.41-.38-.54-.68c-.13-.29-.19-.64-.19-1.03,0-.61,.14-1.09,.41-1.43,.27-.34,.65-.51,1.14-.51s.84,.17,1.12,.52c.28,.35,.41,.82,.41,1.42Zm-2.55,0c0,.48,.08,.84,.26,1.09,.17,.25,.42,.38,.75,.38s.58-.12,.76-.37c.17-.25,.26-.61,.26-1.1s-.09-.84-.26-1.09c-.17-.25-.43-.37-.76-.37s-.58,.12-.75,.37-.25,.61-.25,1.09Z"/><path class="d" d="M68.22,271.78c.15,0,.28,.01,.4,.04l-.07,.53c-.14-.03-.26-.05-.37-.05-.27,0-.5,.12-.7,.37s-.29,.55-.29,.92v2.01h-.51v-3.75h.42l.06,.69h.03c.12-.24,.27-.43,.45-.56,.18-.13,.37-.2,.58-.2Z"/><path class="d" d="M70.67,275.66c-.5,0-.89-.17-1.17-.51s-.43-.81-.43-1.4,.13-1.08,.4-1.44,.62-.53,1.07-.53c.42,0,.75,.15,1,.46,.24,.31,.37,.72,.37,1.22v.36h-2.31c0,.44,.11,.77,.3,1s.45,.34,.8,.34c.36,0,.72-.08,1.07-.25v.51c-.18,.09-.35,.15-.51,.19-.16,.04-.35,.06-.58,.06Zm-.14-3.41c-.27,0-.48,.1-.64,.29-.16,.2-.25,.47-.28,.81h1.75c0-.36-.07-.63-.21-.82-.14-.19-.35-.29-.61-.29Z"/><path class="d" d="M74.36,270.83c0-.13,.03-.23,.08-.29,.06-.06,.13-.09,.21-.09s.15,.03,.21,.09c.06,.06,.09,.16,.09,.28s-.03,.22-.09,.29c-.06,.06-.13,.09-.21,.09s-.16-.03-.21-.09c-.06-.06-.08-.16-.08-.29Zm.55,4.76h-.51v-3.75h.51v3.75Z"/><path class="d" d="M78.28,275.59v-2.42c0-.31-.06-.53-.19-.68-.12-.15-.32-.23-.58-.23-.35,0-.61,.11-.77,.32s-.24,.56-.24,1.05v1.97h-.51v-3.75h.41l.08,.51h.02c.1-.18,.25-.33,.44-.43,.19-.1,.4-.15,.63-.15,.4,0,.71,.11,.91,.33,.2,.22,.31,.57,.31,1.04v2.44h-.51Z"/><path class="d" d="M81.34,272.29h-.85v3.31h-.51v-3.31h-.6v-.26l.6-.21v-.21c0-.92,.36-1.38,1.08-1.38,.18,0,.38,.04,.62,.12l-.13,.45c-.2-.07-.36-.11-.5-.11-.19,0-.33,.07-.42,.21-.09,.14-.14,.37-.14,.69v.24h.85v.44Z"/><path class="d" d="M84.85,273.72c0,.61-.14,1.09-.41,1.43-.27,.34-.65,.51-1.14,.51-.3,0-.57-.08-.8-.24s-.41-.38-.54-.68c-.13-.29-.19-.64-.19-1.03,0-.61,.14-1.09,.41-1.43,.27-.34,.65-.51,1.14-.51s.84,.17,1.12,.52c.28,.35,.41,.82,.41,1.42Zm-2.55,0c0,.48,.08,.84,.26,1.09,.17,.25,.42,.38,.75,.38s.58-.12,.76-.37c.17-.25,.26-.61,.26-1.1s-.09-.84-.26-1.09c-.17-.25-.43-.37-.76-.37s-.58,.12-.75,.37-.25,.61-.25,1.09Z"/></g></g></g></svg>