<?xml version="1.0" encoding="UTF-8"?><svg xmlns="http://www.w3.org/2000/svg" xmlns:xlink="http://www.w3.org/1999/xlink" viewBox="0 0 213.88 141.24"><defs><style>.cd{fill:#050706;}.ce{stroke-miterlimit:10;}.ce,.cf,.cg,.ch{fill:#faecce;stroke:#1a1818;}.ci,.cj,.ck,.cl{isolation:isolate;}.cj{font-size:12.79px;letter-spacing:0em;}.cj,.ck,.cl{fill:#1a1818;font-family:OpenSans, Open Sans;}.cf{stroke-miterlimit:10;}.cm{clip-path:url(#v);}.cn{fill:none;}.ck{font-size:12.79px;letter-spacing:0em;}.cl{font-size:12.79px;letter-spacing:0em;}.cg{stroke-miterlimit:10;}.co{clip-path:url(#bc);}.ch{stroke-miterlimit:10;}</style><clipPath id="v"><rect class="cn" x="126.98" y="95.04" width="25.29" height="25.14"/></clipPath><clipPath id="bc"><rect class="cn" x="131.43" y="26.7" width="33.68" height="36.71" transform="translate(-3.5 76.38) rotate(-28.57)"/></clipPath></defs><g id="a"/><g id="b"><g id="c"><g><rect id="d" class="ce" x="48.4" y="-.16" width="20.29" height="107.4" transform="translate(-11.69 90.42) rotate(-70.14)"/><rect id="e" class="ch" x="83.96" y="17.83" width="74.22" height="20.29" transform="translate(2.17 64.08) rotate(-29.9)"/><rect id="f" class="cg" x="60.08" y="77.75" width="117.59" height="20.29" transform="translate(-24.71 52.7) rotate(-22.71)"/><rect id="g" class="cf" x=".5" y="120.45" width="212.88" height="20.29"/><g id="h" transform="translate(220.698 6.432)"><g id="i"><g id="j" class="ci" transform="translate(90.266 74.522) rotate(-29.903)"><text class="cj" transform="translate(92.75 47.96) rotate(-29.9)"><tspan x="0" y="0">Creativiteit</tspan></text></g></g></g><g id="k" transform="translate(164.446 149.924)"><g id="l" transform="translate(0 0)"><g id="m" class="ci" transform="translate(142.659 87.997) rotate(-22.707)"><text class="cl" transform="translate(69.3 113.6) rotate(-22.71)"><tspan x="0" y="0">Reflective practice</tspan></text></g></g></g><g id="n" transform="translate(7.197 312.614)"><g id="o" transform="translate(0 0)"><g id="p" class="ci" transform="translate(260 35)"><text class="ck" transform="translate(3.03 135.17)"><tspan x="0" y="0">Betrokkenheid &amp; ethische aanpak</tspan></text></g></g></g><g id="q" transform="translate(19.302 68.204)"><g id="r" transform="translate(0)"><g id="s" class="ci" transform="translate(124.022 76.401) rotate(19.858)"><text class="ck" transform="translate(9.03 39.56) rotate(19.86)"><tspan x="0" y="0">Centered Design</tspan></text></g></g></g><g id="t" transform="translate(326.776 244.09)"><g id="u" transform="translate(0 0)"><g class="cm"><g id="w"><path id="x" class="cd" d="M151.71,116.76c-.19,.57-.52,1.09-.95,1.51-.46,.47-1.02,.83-1.65,1.05-.25,.08-.52,.01-.7-.17l-1.65-1.65c.7-.24,1.34-.64,1.87-1.17,.54-.55,.98-1.19,1.29-1.9l1.61,1.61c.19,.19,.25,.46,.17,.71h0Zm-18.85,.65c-.72-.28-1.38-.71-1.93-1.26-.53-.53-.92-1.19-1.12-1.92l6.46-6.46,3.11,3.11-6.53,6.53Zm-2.08,2.08c-.14,.14-.34,.2-.54,.14-.62-.18-1.18-.52-1.62-.98-.5-.48-.87-1.08-1.08-1.73-.06-.2,0-.41,.14-.55l1.71-1.71c.24,.7,.64,1.34,1.17,1.87,.55,.54,1.19,.98,1.9,1.29l-1.67,1.67h0Zm-1.76-21.48c.27-.15,.52-.34,.73-.56,.26-.25,.47-.53,.62-.85l2.63,.99c-.05,.8-.39,1.56-.94,2.14-.55,.57-1.3,.91-2.09,.95l-.95-2.66h0Zm16.77,.25c.13,.77,.5,1.48,1.06,2.02,.57,.56,1.3,.93,2.09,1.05l-5.69,5.69-3.11-3.11,5.65-5.65h0Zm3.76-.5c.21,.22,.46,.41,.73,.56l-.95,2.53c-.79-.06-1.53-.39-2.11-.94-.56-.54-.9-1.28-.95-2.06l2.65-.94c.15,.32,.36,.61,.62,.85h0Zm-3.33,18.76c-.12,0-.23,.06-.3,.15l-.61-.61c.17-.13,.2-.36,.07-.53s-.36-.2-.53-.07c-.03,.02-.05,.04-.07,.07l-.61-.61c.09-.07,.15-.18,.15-.3,0-.21-.17-.38-.38-.38-.12,0-.23,.06-.3,.15l-.61-.61c.17-.13,.2-.36,.07-.53-.13-.17-.36-.2-.53-.07-.03,.02-.05,.04-.07,.07l-.61-.61c.17-.13,.2-.36,.07-.53s-.36-.2-.53-.07c-.03,.02-.05,.04-.07,.07l-.61-.61c.17-.13,.2-.36,.07-.53s-.36-.2-.53-.07c-.03,.02-.05,.04-.07,.07l-.61-.61c.17-.12,.2-.36,.08-.53-.12-.17-.36-.2-.53-.08-.03,.02-.05,.05-.08,.07l-.61-.61c.09-.07,.15-.18,.15-.3,0-.21-.17-.38-.37-.38-.12,0-.23,.06-.3,.15l-.61-.61c.09-.07,.15-.18,.15-.3,0-.21-.17-.38-.37-.38-.12,0-.23,.06-.3,.15l-.61-.61c.17-.13,.2-.36,.07-.53s-.36-.2-.53-.07c-.03,.02-.05,.04-.07,.07l-.61-.61c.17-.12,.2-.36,.08-.53-.12-.17-.36-.2-.53-.08-.03,.02-.05,.05-.08,.07l-.61-.61c.17-.13,.2-.36,.07-.53s-.36-.2-.53-.07c-.03,.02-.05,.04-.07,.07l-.61-.61c.17-.13,.2-.36,.07-.53s-.36-.2-.53-.07c-.03,.02-.05,.04-.07,.07l-.61-.6c.17-.12,.2-.36,.07-.53s-.36-.2-.53-.07c-.03,.02-.05,.05-.07,.08l-.78-.78c.77-.13,1.48-.5,2.02-1.06,.56-.57,.93-1.3,1.05-2.09l16.03,16.03c-.29,.72-.71,1.38-1.26,1.93-.47,.47-1.05,.83-1.69,1.05,.01-.04,.02-.08,.02-.12,0-.21-.17-.38-.38-.38h0Zm5.7-.83l-8.29-8.29,5.95-5.95c.1-.1,.18-.22,.23-.35l.99-2.63h0l1.03-2.72c.05-.13-.02-.28-.15-.33-.06-.02-.12-.02-.17,0l-2.72,.97h0l-2.71,.98c-.14,.05-.26,.13-.37,.23l-5.95,5.95-6.29-6.29h0c-.05-.05-.12-.09-.19-.12l-2.78-1.04h0l-2.67-1.01c-.13-.05-.28,.02-.33,.15-.02,.06-.02,.12,0,.17l.99,2.76h0l.98,2.76c.03,.07,.07,.14,.12,.19l6.28,6.28-8.6,8.6c-.29,.28-.39,.7-.27,1.09,.24,.74,.66,1.41,1.21,1.95,.51,.53,1.15,.91,1.85,1.12,.38,.1,.78,0,1.06-.28l8.61-8.61,8.27,8.27c.23,.23,.54,.36,.87,.36,.13,0,.26-.02,.38-.06,.7-.25,1.33-.65,1.85-1.18,.49-.48,.86-1.07,1.08-1.72,.14-.44,.03-.92-.3-1.25h0Z"/></g></g></g><path id="y" class="cd" d="M132.62,100.64c-.21,0-.38,.17-.38,.38s.17,.38,.38,.38c.21,0,.38-.17,.38-.38h0c0-.21-.17-.38-.38-.38Z"/><path id="a`" class="cd" d="M134.89,102.91c-.21,0-.38,.17-.38,.38s.17,.38,.38,.38c.21,0,.38-.17,.38-.38h0c0-.21-.17-.38-.38-.38h0Z"/><path id="aa" class="cd" d="M133.75,101.78c-.21,0-.38,.17-.38,.38s.17,.38,.38,.38,.38-.17,.38-.38h0c0-.21-.17-.38-.38-.38h0Z"/><path id="ab" class="cd" d="M136.02,104.04c-.21,0-.38,.17-.38,.38,0,.21,.17,.38,.38,.38,.21,0,.38-.17,.38-.38h0c0-.21-.17-.38-.38-.38Z"/><path id="ac" class="cd" d="M137.15,105.17c-.21,0-.38,.17-.38,.38,0,.21,.17,.38,.38,.38,.21,0,.38-.17,.38-.38h0c0-.21-.17-.38-.38-.38Z"/><path id="ad" class="cd" d="M139.42,107.44c-.21,0-.38,.17-.38,.38s.17,.38,.38,.38c.21,0,.38-.17,.38-.38,0-.21-.17-.38-.38-.38h0Z"/><path id="ae" class="cd" d="M138.29,106.31c-.21,0-.38,.17-.38,.38s.17,.38,.38,.38,.38-.17,.38-.38h0c0-.21-.17-.38-.38-.38h0Z"/><path id="af" class="cd" d="M140.55,108.57c-.21,0-.38,.17-.38,.38s.17,.38,.38,.38c.21,0,.38-.17,.38-.38h0c0-.21-.17-.38-.38-.38Z"/><path id="ag" class="cd" d="M141.68,109.71c-.21,0-.38,.17-.38,.38,0,.21,.17,.38,.38,.38,.21,0,.38-.17,.38-.38h0c0-.21-.17-.38-.38-.38Z"/><path id="ah" class="cd" d="M143.95,111.97c-.21,0-.38,.17-.38,.38,0,.21,.17,.38,.38,.38s.38-.17,.38-.38h0c0-.21-.17-.38-.38-.38h0Z"/><path id="ai" class="cd" d="M142.82,110.84c-.21,0-.38,.17-.38,.38,0,.21,.17,.38,.38,.38,.21,0,.38-.17,.38-.38h0c0-.21-.17-.38-.38-.38Z"/><path id="aj" class="cd" d="M145.08,113.1c-.21,0-.38,.17-.38,.38,0,.21,.17,.38,.38,.38s.38-.17,.38-.38h0c0-.21-.17-.38-.38-.38h0Z"/><path id="ak" class="cd" d="M146.22,114.24c-.21,0-.38,.17-.38,.38s.17,.38,.38,.38,.38-.17,.38-.38h0c0-.21-.17-.38-.38-.38Z"/><path id="al" class="cd" d="M147.35,116.13c.21,0,.38-.17,.38-.38,0-.21-.17-.38-.38-.38-.21,0-.38,.17-.38,.38h0c0,.21,.17,.38,.38,.38Z"/></g><g id="am" transform="translate(122.357 162.645)"><path id="an" class="cd" d="M78.67,84.94s0,.02,0,.02h0l-2.56,1.1-2.57-5.97,2.56-1.1s.02,0,.02,0l2.55,5.93h0Zm-2.18,4.12c.03,.08,0,.18-.08,.21h0l-20.55,8.85c-.08,.03-.17,0-.21-.08l-5.04-11.71c-2.48-5.76,.18-12.43,5.94-14.91s12.43,.18,14.91,5.94l5.04,11.71h0Zm-25.33,7.75s-.05,0-.06-.02h0l-2.53-5.89s0-.05,.02-.06l2.59-1.11,2.57,5.97-2.59,1.11Zm1.48-30.09c-.38-.88,.03-1.9,.91-2.28,.88-.38,1.9,.03,2.28,.91,.38,.88-.03,1.9-.91,2.27-.88,.38-1.9-.03-2.28-.91Zm23.13,11.53l-2.56,1.1-1-2.32c-2.6-6.02-9.5-8.9-15.61-6.52l-1-2.33c1.19-.76,1.54-2.34,.78-3.53s-2.34-1.54-3.53-.78c-1.19,.76-1.54,2.34-.78,3.53,.59,.93,1.71,1.37,2.77,1.1l1,2.33c-5.93,2.8-8.58,9.79-5.99,15.82l1,2.32-2.59,1.11c-.44,.19-.64,.7-.45,1.14l2.53,5.89c.19,.44,.7,.64,1.14,.45l2.59-1.11,.82,1.91c.22,.5,.79,.73,1.29,.51l2.58-1.11,1.27,2.95c.13,.31,.49,.45,.79,.32l14.29-6.15c.31-.13,.45-.49,.32-.79l-1.27-2.95,2.58-1.11c.5-.22,.73-.79,.51-1.29l-.82-1.91,2.56-1.1c.43-.18,.62-.68,.44-1.1l-2.55-5.93c-.18-.43-.68-.62-1.1-.44h0Z"/><path id="ao" class="cd" d="M56.4,82.54c.88-.38,1.9,.03,2.28,.91l.76-.33c-.56-1.3-2.06-1.89-3.36-1.34-1.3,.56-1.89,2.06-1.34,3.36l.76-.33c-.38-.88,.03-1.9,.91-2.28h0Z"/><path id="ap" class="cd" d="M64.7,78.97c.88-.38,1.9,.03,2.28,.91l.76-.32c-.54-1.3-2.04-1.92-3.34-1.38-1.3,.54-1.92,2.04-1.38,3.34l.02,.05,.76-.32c-.38-.88,.03-1.9,.91-2.28h0Z"/><path id="aq" class="cd" d="M72.53,84.58c.54,1.27-.04,2.73-1.3,3.28l-12.83,5.52c-1.26,.56-2.73-.01-3.29-1.27-.56-1.26,.01-2.73,1.27-3.29l.04-.02,12.83-5.52c1.26-.54,2.73,.04,3.28,1.3Zm-16.43,3.46c-1.69,.71-2.48,2.65-1.77,4.34,.71,1.69,2.65,2.48,4.34,1.77l.05-.02,12.83-5.52c1.68-.72,2.46-2.68,1.73-4.36-.72-1.68-2.68-2.46-4.36-1.73l-12.83,5.52h0Z"/><path id="ar" class="cd" d="M56.86,89.86c-.3,.13-.43,.47-.31,.77,.13,.3,.47,.43,.77,.31,.3-.13,.43-.47,.31-.77-.13-.3-.47-.43-.77-.31Z"/><path id="as" class="cd" d="M60.08,88.48c-.3,.13-.43,.47-.3,.77,.13,.3,.47,.43,.77,.3,.3-.13,.43-.47,.3-.77-.13-.3-.47-.43-.76-.31h0Z"/><path id="at" class="cd" d="M63.29,87.09c-.3,.13-.43,.47-.31,.77,.13,.3,.47,.43,.77,.31,.3-.13,.43-.47,.31-.77h0c-.13-.3-.47-.43-.77-.31Z"/><path id="au" class="cd" d="M66.51,85.71c-.3,.13-.43,.47-.3,.77,.13,.3,.47,.43,.77,.3,.3-.13,.43-.47,.3-.77-.13-.3-.47-.43-.76-.31h0Z"/><path id="av" class="cd" d="M69.43,85.09c.13,.3,.47,.43,.77,.31,.3-.13,.43-.47,.31-.77-.13-.3-.47-.43-.77-.31-.3,.13-.43,.47-.31,.77h0Z"/><path id="aw" class="cd" d="M59.16,90.78c-.3,.13-.43,.47-.3,.77,.13,.3,.47,.43,.77,.3,.3-.13,.43-.47,.3-.77-.13-.3-.47-.43-.77-.31Z"/><path id="ax" class="cd" d="M62.38,89.39c-.3,.13-.43,.47-.31,.77,.13,.3,.47,.43,.77,.31,.3-.13,.43-.47,.31-.77-.13-.3-.47-.43-.77-.31h0Z"/><path id="ay" class="cd" d="M65.6,88.01c-.3,.13-.43,.47-.31,.77,.13,.3,.47,.43,.77,.31s.43-.47,.31-.77h0c-.13-.3-.47-.43-.77-.31Z"/><path id="b`" class="cd" d="M68.81,86.62c-.3,.13-.43,.47-.31,.77,.13,.3,.47,.43,.77,.31,.3-.13,.43-.47,.31-.77-.13-.3-.47-.43-.77-.31h0Z"/></g><g id="ba" transform="translate(320.883 52.803)"><g id="bb" transform="translate(0 0)"><g class="co"><g id="bd"><path id="be" class="cd" d="M164.01,49.64l-7.88,3.96c-.05,0-.11,.02-.16,.04l-4.56,2.33-8.98,4.52-3.26-6.48,8.68-4.36h0l2.8-1.41,10.1-5.07,5.27,1.44-2.01,5.04h0Zm-11.91,6.91l.86-.43,2.67,4.9-.84,.46-2.68-4.93Zm-5.05-9.28l.86-.43,.8,1.46-.86,.43-.8-1.46Zm-14.36,2.22l2.01-5.05,8.11-4.08h0l3.83-1.93h.01l9.62-4.84,3.26,6.48-9.4,4.72h0l-3.83,1.93h0l-8.35,4.2-5.27-1.44h0Zm9.19-11.72l3.04-1.66h0l-2.2,1.2,.93,1.7-.86,.43-.92-1.68h0Zm-14.16,2.62l1.84-5.11,21.22-11.55,3.47,6.37-9.36,5.09-3.77,2.05-8.09,4.41-5.31-1.27h0Zm38.96,3.54l-5.86-1.6c-.1-.03-.2-.02-.29,.03l-7.99,4.02-.8-1.46,8.53-4.29h.01c.19-.11,.27-.35,.17-.55l-3.63-7.22c-.1-.2-.35-.28-.55-.18l-8.79,4.42-1-1.83-.84,.46h0l9.36-5.1c.2-.11,.27-.36,.16-.56l-3.86-7.09c-.11-.2-.36-.27-.56-.16h0l-21.71,11.82c-.09,.05-.16,.13-.19,.22l-2.05,5.69c-.08,.21,.03,.45,.24,.52,.02,0,.03,.01,.05,.01l5.91,1.41c.1,.02,.2,0,.29-.04l7.87-4.29,.9,1.66-7.87,3.96c-.09,.04-.16,.12-.2,.21l-2.23,5.62c-.08,.21,.02,.45,.23,.53,.01,0,.03,.01,.05,.02l5.86,1.6c.1,.03,.2,.02,.29-.03l8.14-4.09,.8,1.46-8.67,4.36c-.2,.1-.28,.35-.18,.55l3.63,7.22c.1,.2,.35,.28,.55,.18l8.93-4.49,2.89,5.31c.11,.2,.36,.27,.55,.16h0l4.56-2.48c.2-.11,.27-.36,.16-.56l-2.8-5.14,7.78-3.91h.01c.08-.05,.15-.13,.18-.22l2.24-5.62c.08-.21-.02-.45-.23-.53-.01,0-.03-.01-.05-.02h0Z"/></g></g></g><path id="bf" class="cd" d="M142.74,29.94c.09-.31-.08-.63-.39-.72h0c-.31-.09-.63,.09-.72,.4s.09,.63,.4,.72c.31,.09,.63-.09,.72-.39h0Z"/><path id="bg" class="cd" d="M140.57,31.11c.09-.31-.09-.63-.4-.72-.31-.09-.63,.09-.72,.4-.09,.31,.09,.63,.39,.72,.31,.09,.63-.08,.72-.39h0Z"/><path id="bh" class="cd" d="M142.93,35.46c.09-.31-.09-.63-.4-.72-.31-.09-.63,.09-.72,.4-.09,.31,.09,.63,.39,.72,.31,.09,.63-.08,.72-.39h0Z"/><path id="bi" class="cd" d="M147.43,27.4c.09-.31-.08-.63-.39-.72h0c-.31-.09-.63,.09-.72,.4-.09,.31,.09,.63,.4,.72,.31,.09,.63-.09,.72-.39Z"/><path id="bj" class="cd" d="M145.26,28.57c.09-.31-.09-.63-.39-.72s-.63,.09-.72,.39c-.09,.31,.08,.63,.39,.72,.31,.09,.63-.09,.72-.39Z"/><path id="bk" class="cd" d="M148.61,29.56c.09-.31-.09-.63-.4-.72-.31-.09-.63,.09-.72,.4-.09,.31,.09,.63,.39,.72,.31,.09,.63-.08,.72-.39h0Z"/><path id="bl" class="cd" d="M141.83,47.18h0c0,.31,.25,.55,.55,.55s.55-.25,.55-.55c0-.3-.25-.55-.55-.55-.3,0-.55,.25-.55,.55Z"/><path id="bm" class="cd" d="M140.72,44.98c-.1,.31,.07,.63,.37,.73,.31,.1,.63-.07,.73-.37,.1-.3-.06-.63-.37-.73-.3-.1-.63,.06-.74,.37h0Z"/><path id="bn" class="cd" d="M141.82,41.66c-.1,.3,.06,.63,.37,.73,.3,.1,.63-.06,.73-.37,.1-.3-.06-.63-.37-.73-.3-.1-.63,.06-.74,.37h0Z"/><path id="bo" class="cd" d="M148.07,44.97c.1-.31-.06-.64-.37-.74-.31-.1-.64,.06-.74,.37h0c-.1,.31,.07,.64,.37,.74,.31,.1,.64-.07,.74-.37h0Z"/><path id="bp" class="cd" d="M139.61,42.77c-.1,.31,.07,.63,.37,.73,.31,.1,.63-.07,.73-.37,.1-.3-.06-.63-.37-.73-.31-.1-.64,.06-.74,.37Z"/><path id="bq" class="cd" d="M152.84,42.58c.1-.31-.07-.63-.37-.73-.31-.1-.63,.07-.73,.37-.1,.3,.06,.63,.37,.73,.3,.1,.63-.06,.74-.37h0Z"/><path id="br" class="cd" d="M149.17,41.66c.12-.3-.03-.64-.33-.75-.3-.12-.64,.03-.75,.33,0,.02-.01,.03-.02,.05h0c-.09,.31,.08,.63,.39,.72,.29,.09,.6-.07,.71-.36h0Z"/><path id="bs" class="cd" d="M145.85,40.56c.1-.3-.06-.64-.37-.74s-.64,.06-.74,.37h0c-.1,.31,.06,.64,.37,.74s.64-.06,.74-.37h0Z"/><path id="bt" class="cd" d="M151.73,40.37c.1-.31-.06-.64-.37-.74-.31-.1-.64,.06-.74,.37h0c-.1,.31,.06,.64,.37,.74,.31,.1,.64-.06,.74-.37h0Z"/><path id="bu" class="cd" d="M153.94,39.26c.1-.31-.07-.63-.37-.73-.31-.1-.63,.07-.73,.37-.1,.3,.06,.63,.37,.73,.31,.1,.64-.06,.74-.37Z"/><path id="bv" class="cd" d="M150.62,38.17c.1-.3-.06-.64-.37-.74-.3-.1-.64,.06-.74,.37h0c-.1,.31,.06,.64,.37,.74,.31,.1,.64-.06,.74-.37h0Z"/><path id="bw" class="cd" d="M150.76,51.75c-.1,.31,.07,.63,.37,.73,.31,.1,.63-.07,.73-.37,.1-.3-.06-.63-.37-.73-.3-.1-.63,.06-.74,.37h0Z"/><path id="bx" class="cd" d="M151.88,53.96h0c0,.3,.24,.54,.54,.54s.54-.24,.54-.54c0-.3-.24-.54-.54-.54-.3,0-.54,.24-.54,.54Z"/><path id="by" class="cd" d="M144.52,52.12c-.1,.31,.07,.63,.37,.73,.31,.1,.63-.07,.73-.37,.1-.3-.06-.63-.37-.73-.3-.1-.63,.06-.74,.37h0Z"/><path id="c`" class="cd" d="M156.64,51.57c-.1,.31,.07,.63,.37,.73,.31,.1,.63-.07,.73-.37,.1-.3-.06-.63-.37-.73-.3-.1-.63,.06-.74,.37h0Z"/><path id="ca" class="cd" d="M149.65,49.54h0c0,.31,.25,.55,.55,.55s.55-.25,.55-.55c0-.3-.25-.55-.55-.55-.3,0-.55,.25-.55,.55Z"/><path id="cb" class="cd" d="M155.53,49.36h0c0,.31,.25,.55,.55,.55,.3,0,.55-.25,.55-.55,0-.3-.25-.55-.55-.55-.3,0-.55,.25-.55,.55Z"/><path id="cc" class="cd" d="M154.42,47.15h0c0,.38,.3,.68,.68,.68s.67-.3,.67-.68c0-.37-.3-.67-.68-.67-.37,0-.67,.3-.67,.67Z"/></g></g></g></g></svg>