<?xml version="1.0" encoding="utf-8"?>
<!-- Generator: Adobe Illustrator 26.0.1, SVG Export Plug-In . SVG Version: 6.00 Build 0)  -->
<svg version="1.1" id="Laag_1" xmlns="http://www.w3.org/2000/svg" xmlns:xlink="http://www.w3.org/1999/xlink" x="0px" y="0px"
	 viewBox="0 0 193.11 267.9" style="enable-background:new 0 0 193.11 267.9;" xml:space="preserve">
<style type="text/css">
	.st0{clip-path:url(#SVGID_00000156549253679254554810000006320646597709525167_);fill:#12100B;}
	.st1{fill:#12100B;}
</style>
<g>
	<g>
		<defs>
			<rect id="SVGID_1_" x="4.84" y="4.75" width="183.43" height="258.41"/>
		</defs>
		<clipPath id="SVGID_00000054982630566163475190000017657576618847809950_">
			<use xlink:href="#SVGID_1_"  style="overflow:visible;"/>
		</clipPath>
		<path style="clip-path:url(#SVGID_00000054982630566163475190000017657576618847809950_);fill:#12100B;" d="M183.32,125.97
			l-1.73,10.13c-0.62-0.56-1.43-0.9-2.33-0.9c-1.93,0-3.49,1.55-3.49,3.46c0,1.91,1.56,3.46,3.49,3.46c0.33,0,0.64-0.06,0.95-0.15
			c-0.1,0.1-0.2,0.19-0.32,0.27c-0.48,0.34-1.06,0.47-1.64,0.37l-16.65-2.8c0.13-0.37,0.22-0.76,0.22-1.17
			c0-1.91-1.56-3.46-3.49-3.46c-1.93,0-3.49,1.55-3.49,3.46c0,0.01,0,0.02,0,0.03l-46.57-7.82c0.73-0.63,1.2-1.56,1.2-2.59
			c0-1.91-1.56-3.46-3.49-3.46c-1.93,0-3.49,1.55-3.49,3.46c0,0.62,0.18,1.2,0.47,1.7l-14.51-2.44c-0.34-1.56-1.73-2.73-3.41-2.73
			c-1.26,0-2.35,0.67-2.96,1.65l-46.01-7.73c0.07-0.27,0.12-0.55,0.12-0.85c0-1.91-1.56-3.46-3.49-3.46c-1.82,0-3.3,1.39-3.46,3.16
			l-17.62-2.96c-0.58-0.1-1.09-0.41-1.43-0.89c-0.34-0.48-0.47-1.06-0.38-1.63l1.97-11.53c1.91-0.01,3.46-1.56,3.46-3.46
			c0-0.61-0.17-1.17-0.45-1.67c0.03,0,0.06,0,0.09,0.01l14.4,2.42c0.35,1.55,1.74,2.7,3.4,2.7c1.25,0,2.34-0.66,2.95-1.63
			l46.02,7.73c-0.07,0.27-0.11,0.54-0.11,0.83c0,1.91,1.56,3.46,3.49,3.46c1.82,0,3.29-1.38,3.46-3.14l46.29,7.78
			c-0.55,0.61-0.89,1.41-0.89,2.29c0,1.91,1.56,3.46,3.49,3.46c1.93,0,3.49-1.55,3.49-3.46c0-0.46-0.1-0.91-0.26-1.31l14.42,2.42
			c0.47,1.36,1.76,2.35,3.29,2.35c1.12,0,2.1-0.53,2.74-1.34l20.46,3.44C182.71,123.65,183.52,124.78,183.32,125.97L183.32,125.97z
			 M60.23,171.1c-11.18,0-20.28-9.03-20.28-20.12c0-11.1,9.1-20.12,20.28-20.12c11.18,0,20.28,9.03,20.28,20.12
			C80.52,162.08,71.42,171.1,60.23,171.1L60.23,171.1z M146.9,142.31c1.3,2.69,1.98,5.67,1.98,8.68c0,11.09-9.1,20.12-20.28,20.12
			c-9.83,0-18.04-6.97-19.89-16.19c-0.03-0.91-0.13-1.81-0.33-2.69c-0.03-0.41-0.06-0.82-0.06-1.24c0-5.3,2.06-10.3,5.79-14.08
			c0.03-0.03,0.05-0.06,0.08-0.09L146.9,142.31L146.9,142.31z M108.53,135.86c-2.08,2.71-3.57,5.78-4.39,9.06
			c-2.57-2.36-6-3.76-9.73-3.76c-3.7,0-7.14,1.41-9.72,3.78c-1.56-6.19-5.44-11.47-10.68-14.88L108.53,135.86L108.53,135.86z
			 M168.69,165.42l-31.09,35.41c-4.64-5.82-17.99-18.91-44.22-18.91c-25.27,0-38.2,12.95-42.77,18.83l-29.99-35.31v-44.35
			l33.52,5.63c-10.96,2.71-19.11,12.56-19.11,24.26c0,13.79,11.31,25,25.2,25c13.27,0,24.18-10.23,25.13-23.17
			c1.15-3.99,4.84-6.77,9.05-6.77c4.29,0,7.96,2.81,9.07,6.88c0.07,0.93,0.19,1.85,0.37,2.75c0.01,0.11,0.03,0.21,0.06,0.32
			c2.34,11.39,12.53,19.99,24.69,19.99c13.9,0,25.2-11.21,25.2-25c0-2.63-0.42-5.24-1.23-7.72l16.12,2.71V165.42L168.69,165.42z
			 M75.79,204.38l2-1.42l1.99-1.43c0.19,0.25,4.68,6.21,13.6,6.21c7.17,0,13.79-6.44,13.86-6.51l3.48,3.45
			c-0.33,0.32-8.1,7.93-17.33,7.93C81.85,212.62,76.03,204.72,75.79,204.38L75.79,204.38z M24.5,89.32c0.73-0.63,1.2-1.55,1.2-2.59
			c0-0.23-0.02-0.46-0.07-0.68c1.09-2.96,2.35-5.83,3.76-8.59c0.47,1.36,1.76,2.35,3.29,2.35c1.93,0,3.49-1.55,3.49-3.46
			c0-1.91-1.56-3.46-3.49-3.46c-0.28,0-0.56,0.04-0.82,0.11C38.92,61.14,48.89,51.57,60.6,45.2c0.01,1.19,0.61,2.23,1.54,2.85
			c0.19,0.12,0.38,0.23,0.59,0.32c0.42,0.18,0.88,0.27,1.36,0.27c1.93,0,3.49-1.55,3.49-3.46c0,0,0,0,0,0
			c0-1.11-0.54-2.09-1.36-2.73c8.18-3.57,17.06-5.64,26.28-5.92c0.61,1.02,1.72,1.72,3,1.72c1.26,0,2.35-0.67,2.97-1.66
			c5.2,0.28,10.35,1.11,15.35,2.51c3.59,1.01,7.08,2.29,10.45,3.84c-0.52,0.6-0.84,1.38-0.84,2.23c0,1.91,1.56,3.46,3.49,3.46
			c1.62,0,2.98-1.11,3.37-2.6c3.18,1.83,6.23,3.92,9.15,6.25c7.3,5.82,13.37,12.84,18.06,20.69c-1.53,0.37-2.66,1.73-2.66,3.35
			c0,1.91,1.56,3.46,3.49,3.46c0.91,0,1.74-0.36,2.36-0.92c3.8,7.83,6.32,16.34,7.4,25.23c-1.59,0.33-2.78,1.72-2.78,3.39
			c0,1.86,1.47,3.36,3.32,3.45c0.04,1.06,0.07,2.13,0.07,3.2v2.2l-39.16-6.58c0.54-0.61,0.87-1.4,0.87-2.27
			c0-1.91-1.56-3.46-3.49-3.46c-1.93,0-3.49,1.55-3.49,3.46c0,0.45,0.09,0.89,0.25,1.28l-14.42-2.42c-0.48-1.35-1.76-2.32-3.28-2.32
			c-1.11,0-2.08,0.52-2.72,1.32l-28.53-4.79c1.85-0.09,3.33-1.59,3.33-3.45c0-1.91-1.56-3.46-3.49-3.46c-1.93,0-3.49,1.55-3.49,3.46
			c0,1.44,0.88,2.67,2.14,3.19l-16.15-2.71c0.02-0.16,0.05-0.32,0.05-0.48c0-1.91-1.56-3.46-3.49-3.46c-1.69,0-3.11,1.2-3.42,2.79
			l-26.5-4.45C23.95,91.09,24.22,90.2,24.5,89.32L24.5,89.32z M134.79,11.72c-0.56,0.61-0.9,1.42-0.9,2.3
			c0,1.91,1.56,3.46,3.49,3.46l0,0l0,0c0.48,0,0.94-0.1,1.36-0.27c0.21-0.09,0.41-0.19,0.59-0.32c0.1-0.07,0.18-0.15,0.28-0.23
			c1.16,2.02,1.84,4.36,1.84,6.85c0,3.03-0.99,5.83-2.66,8.11c-0.43-0.19-0.91-0.3-1.41-0.3c-1.93,0-3.49,1.55-3.49,3.46
			c0,0.34,0.06,0.66,0.16,0.97c-1.97,1.05-4.22,1.65-6.61,1.65c-2.78,0-5.37-0.82-7.55-2.21c0.02-0.14,0.04-0.27,0.04-0.41
			c0-1.91-1.56-3.46-3.49-3.46c-0.18,0-0.36,0.03-0.54,0.05c-1.56-2.24-2.47-4.95-2.47-7.87c0-2.29,0.57-4.45,1.56-6.35
			c0.24,0.11,0.48,0.2,0.74,0.25c0.23,0.05,0.46,0.07,0.7,0.07c0.24,0,0.48-0.02,0.7-0.07c1.59-0.32,2.79-1.72,2.79-3.39
			c0-0.68-0.21-1.31-0.55-1.85c2.28-1.6,5.06-2.55,8.06-2.55C130.13,9.63,132.65,10.4,134.79,11.72L134.79,11.72z M182.34,118.64
			l-8.73-1.47v-3.03c0-25.96-11.33-49.88-31.1-65.65c-3.23-2.58-6.62-4.86-10.14-6.87c8.05-2.16,13.99-9.45,13.99-18.1
			c0-10.35-8.49-18.77-18.93-18.77c-10.44,0-18.92,8.42-18.92,18.77c0,3.66,1.08,7.08,2.92,9.97c-5.49-1.24-11.11-1.88-16.77-1.88
			c-35.25,0-66.11,24.38-75.84,59.56l-3.13-0.53c-1.87-0.32-3.76,0.11-5.31,1.21c-1.55,1.09-2.58,2.72-2.9,4.58l-2.54,14.86
			c-0.32,1.86,0.11,3.73,1.22,5.27c1.1,1.54,2.74,2.56,4.62,2.87l4.93,0.83v60.36c0,45.72,43.19,82.53,78.95,82.53
			c19.16,0,38.91-8.82,54.18-24.19c15.98-16.08,24.78-36.81,24.78-58.35v-33.83l3.81,0.64c0.4,0.07,0.8,0.1,1.2,0.1
			c1.47,0,2.89-0.45,4.11-1.31c1.55-1.09,2.58-2.72,2.9-4.58l2.54-14.86C188.83,122.95,186.21,119.29,182.34,118.64L182.34,118.64z"
			/>
	</g>
	<path class="st1" d="M51.15,58.02c0.16,0.16,0.33,0.3,0.52,0.42c0.37,0.25,0.79,0.43,1.25,0.52c0.23,0.05,0.46,0.07,0.7,0.07
		c0.24,0,0.48-0.02,0.7-0.07c1.59-0.32,2.79-1.72,2.79-3.39c0-1.67-1.2-3.07-2.79-3.39c-0.23-0.05-0.46-0.07-0.7-0.07
		c-0.24,0-0.48,0.02-0.7,0.07c-0.45,0.09-0.88,0.27-1.25,0.52c-0.19,0.12-0.36,0.27-0.52,0.42c-0.47,0.47-0.81,1.07-0.95,1.75
		c-0.05,0.23-0.07,0.46-0.07,0.7c0,0.24,0.02,0.47,0.07,0.7C50.34,56.94,50.68,57.55,51.15,58.02L51.15,58.02z"/>
	<path class="st1" d="M74.56,59.03L74.56,59.03L74.56,59.03c0.48,0,0.94-0.1,1.36-0.27c0.21-0.09,0.41-0.19,0.59-0.32
		c0.37-0.25,0.69-0.57,0.94-0.94c0.13-0.18,0.23-0.38,0.32-0.59c0.18-0.41,0.27-0.87,0.27-1.35c0-0.48-0.1-0.93-0.27-1.35
		c-0.09-0.21-0.2-0.4-0.32-0.59c-0.25-0.37-0.57-0.69-0.94-0.94c-0.19-0.12-0.38-0.23-0.59-0.32c-0.42-0.18-0.88-0.27-1.36-0.27l0,0
		l0,0c-1.93,0-3.49,1.55-3.49,3.46C71.07,57.48,72.63,59.03,74.56,59.03L74.56,59.03z"/>
	<path class="st1" d="M113.97,58.02c0.16,0.16,0.33,0.3,0.52,0.42c0.37,0.25,0.79,0.43,1.25,0.52c0.23,0.05,0.46,0.07,0.7,0.07
		c0.24,0,0.48-0.02,0.7-0.07c1.59-0.32,2.79-1.72,2.79-3.39c0-1.67-1.2-3.07-2.79-3.39c-0.23-0.05-0.46-0.07-0.7-0.07
		c-0.24,0-0.48,0.02-0.7,0.07c-0.45,0.09-0.88,0.27-1.25,0.52c-0.19,0.12-0.36,0.27-0.52,0.42c-0.47,0.47-0.81,1.07-0.95,1.75
		c-0.05,0.23-0.07,0.46-0.07,0.7c0,0.24,0.02,0.47,0.07,0.7C113.16,56.94,113.5,57.55,113.97,58.02L113.97,58.02z"/>
	<path class="st1" d="M137.38,59.03L137.38,59.03L137.38,59.03c0.48,0,0.94-0.1,1.36-0.27c0.21-0.09,0.41-0.19,0.59-0.32
		c0.37-0.25,0.69-0.57,0.94-0.94c0.13-0.18,0.23-0.38,0.32-0.59c0.18-0.41,0.27-0.87,0.27-1.35c0-0.48-0.1-0.93-0.27-1.35
		c-0.09-0.21-0.2-0.4-0.32-0.59c-0.25-0.37-0.57-0.69-0.94-0.94c-0.19-0.12-0.38-0.23-0.59-0.32c-0.42-0.18-0.88-0.27-1.36-0.27l0,0
		l0,0c-1.93,0-3.49,1.55-3.49,3.46C133.89,57.48,135.45,59.03,137.38,59.03L137.38,59.03z"/>
	<path class="st1" d="M82.49,47.54c0.03,0.03,0.05,0.06,0.07,0.09c0.16,0.16,0.33,0.3,0.52,0.42c0.19,0.12,0.38,0.23,0.59,0.32
		c0.42,0.18,0.88,0.27,1.36,0.27c0.48,0,0.94-0.1,1.36-0.27c0.38-0.16,0.72-0.39,1.02-0.67c0.03-0.03,0.06-0.05,0.09-0.07
		c0.03-0.03,0.05-0.06,0.07-0.09c0.28-0.3,0.51-0.63,0.67-1.01c0.18-0.41,0.27-0.87,0.27-1.35c0-1.91-1.56-3.46-3.49-3.46l0,0l0,0
		c-0.48,0-0.94,0.1-1.36,0.27c-0.21,0.09-0.41,0.19-0.59,0.32c-0.93,0.62-1.54,1.68-1.54,2.87c0,0.48,0.1,0.93,0.27,1.35
		C81.97,46.91,82.21,47.25,82.49,47.54L82.49,47.54z"/>
	<path class="st1" d="M104.02,48.05c0.19,0.12,0.38,0.23,0.59,0.32c0.42,0.18,0.88,0.27,1.36,0.27c0.42,0,0.83-0.09,1.2-0.22
		c0.26-0.1,0.52-0.21,0.75-0.37c0.34-0.23,0.63-0.52,0.87-0.85c0.26-0.35,0.44-0.74,0.55-1.17c0.07-0.27,0.12-0.56,0.12-0.85l0,0
		l0,0c0-0.96-0.39-1.82-1.02-2.45c-0.16-0.16-0.33-0.3-0.52-0.42c-0.37-0.25-0.79-0.43-1.25-0.52c-0.23-0.05-0.46-0.07-0.7-0.07
		c-0.96,0-1.84,0.39-2.47,1.01c-0.63,0.63-1.02,1.49-1.02,2.45l0,0l0,0C102.48,46.38,103.09,47.43,104.02,48.05L104.02,48.05z"/>
	<path class="st1" d="M43.15,62.49c-1.93,0-3.49,1.55-3.49,3.46c0,1.91,1.56,3.46,3.49,3.46c1.93,0,3.49-1.55,3.49-3.46
		C46.64,64.04,45.07,62.49,43.15,62.49L43.15,62.49z"/>
	<path class="st1" d="M64.09,69.42c1.93,0,3.49-1.55,3.49-3.46c0-1.91-1.56-3.46-3.49-3.46c-1.93,0-3.49,1.55-3.49,3.46
		C60.6,67.87,62.16,69.42,64.09,69.42L64.09,69.42z"/>
	<path class="st1" d="M85.03,62.49c-1.93,0-3.49,1.55-3.49,3.46c0,1.91,1.56,3.46,3.49,3.46c1.93,0,3.49-1.55,3.49-3.46
		C88.52,64.04,86.96,62.49,85.03,62.49L85.03,62.49z"/>
	<path class="st1" d="M105.97,69.42c1.93,0,3.49-1.55,3.49-3.46c0-1.91-1.56-3.46-3.49-3.46c-1.93,0-3.49,1.55-3.49,3.46
		C102.48,67.87,104.04,69.42,105.97,69.42L105.97,69.42z"/>
	<path class="st1" d="M126.91,69.42c1.93,0,3.49-1.55,3.49-3.46c0-1.91-1.56-3.46-3.49-3.46c-1.93,0-3.49,1.55-3.49,3.46
		C123.42,67.87,124.98,69.42,126.91,69.42L126.91,69.42z"/>
	<path class="st1" d="M147.85,69.42c1.93,0,3.49-1.55,3.49-3.46c0-1.91-1.56-3.46-3.49-3.46c-1.93,0-3.49,1.55-3.49,3.46
		C144.36,67.87,145.92,69.42,147.85,69.42L147.85,69.42z"/>
	<path class="st1" d="M53.62,79.8c1.93,0,3.49-1.55,3.49-3.46c0-1.91-1.56-3.46-3.49-3.46c-1.93,0-3.49,1.55-3.49,3.46
		C50.13,78.25,51.69,79.8,53.62,79.8L53.62,79.8z"/>
	<path class="st1" d="M74.56,79.8c1.93,0,3.49-1.55,3.49-3.46c0-1.91-1.56-3.46-3.49-3.46c-1.93,0-3.49,1.55-3.49,3.46
		C71.07,78.25,72.63,79.8,74.56,79.8L74.56,79.8z"/>
	<path class="st1" d="M95.5,79.8c1.93,0,3.49-1.55,3.49-3.46c0-1.91-1.56-3.46-3.49-3.46c-1.93,0-3.49,1.55-3.49,3.46
		C92.01,78.25,93.57,79.8,95.5,79.8L95.5,79.8z"/>
	<path class="st1" d="M116.44,79.8c1.93,0,3.49-1.55,3.49-3.46c0-1.91-1.56-3.46-3.49-3.46c-1.93,0-3.49,1.55-3.49,3.46
		C112.95,78.25,114.51,79.8,116.44,79.8L116.44,79.8z"/>
	<path class="st1" d="M137.38,79.8c1.93,0,3.49-1.55,3.49-3.46c0-1.91-1.56-3.46-3.49-3.46c-1.93,0-3.49,1.55-3.49,3.46
		C133.89,78.25,135.45,79.8,137.38,79.8L137.38,79.8z"/>
	<path class="st1" d="M93.03,58.02c0.16,0.16,0.33,0.3,0.52,0.42c0.37,0.25,0.79,0.43,1.25,0.52c0.23,0.05,0.46,0.07,0.7,0.07
		c0.72,0,1.39-0.22,1.95-0.59c0.37-0.25,0.69-0.57,0.94-0.94c0.13-0.18,0.23-0.38,0.32-0.59c0.18-0.41,0.27-0.87,0.27-1.35
		c0-0.48-0.1-0.93-0.27-1.35c-0.09-0.21-0.2-0.4-0.32-0.59c-0.25-0.37-0.57-0.69-0.94-0.94c-0.56-0.37-1.23-0.59-1.95-0.59
		c-0.24,0-0.48,0.02-0.7,0.07c-0.45,0.09-0.88,0.27-1.25,0.52c-0.19,0.12-0.36,0.27-0.52,0.42c-0.47,0.47-0.81,1.07-0.95,1.75
		c-0.05,0.23-0.07,0.46-0.07,0.7c0,0.24,0.02,0.47,0.07,0.7C92.22,56.94,92.56,57.55,93.03,58.02L93.03,58.02z"/>
	<path class="st1" d="M95.5,100.58c1.93,0,3.49-1.55,3.49-3.46c0-1.91-1.56-3.46-3.49-3.46c-1.93,0-3.49,1.55-3.49,3.46
		C92.01,99.03,93.57,100.58,95.5,100.58L95.5,100.58z"/>
	<path class="st1" d="M116.44,100.58c1.93,0,3.49-1.55,3.49-3.46c0-1.91-1.56-3.46-3.49-3.46c-1.93,0-3.49,1.55-3.49,3.46
		C112.95,99.03,114.51,100.58,116.44,100.58L116.44,100.58z"/>
	<path class="st1" d="M137.38,100.58c1.93,0,3.49-1.55,3.49-3.46c0-1.91-1.56-3.46-3.49-3.46c-1.93,0-3.49,1.55-3.49,3.46
		C133.89,99.03,135.45,100.58,137.38,100.58L137.38,100.58z"/>
	<path class="st1" d="M158.32,100.58c1.93,0,3.49-1.55,3.49-3.46c0-1.91-1.56-3.46-3.49-3.46c-1.93,0-3.49,1.55-3.49,3.46
		C154.83,99.03,156.39,100.58,158.32,100.58L158.32,100.58z"/>
	<path class="st1" d="M43.15,83.27c-1.93,0-3.49,1.55-3.49,3.46c0,1.91,1.56,3.46,3.49,3.46c1.93,0,3.49-1.55,3.49-3.46
		C46.64,84.82,45.07,83.27,43.15,83.27L43.15,83.27z"/>
	<path class="st1" d="M64.09,90.19c1.93,0,3.49-1.55,3.49-3.46c0-1.91-1.56-3.46-3.49-3.46c-1.93,0-3.49,1.55-3.49,3.46
		C60.6,88.64,62.16,90.19,64.09,90.19L64.09,90.19z"/>
	<path class="st1" d="M85.03,83.27c-1.93,0-3.49,1.55-3.49,3.46c0,1.91,1.56,3.46,3.49,3.46c1.93,0,3.49-1.55,3.49-3.46
		C88.52,84.82,86.96,83.27,85.03,83.27L85.03,83.27z"/>
	<path class="st1" d="M105.97,90.19c1.93,0,3.49-1.55,3.49-3.46c0-1.91-1.56-3.46-3.49-3.46c-1.93,0-3.49,1.55-3.49,3.46
		C102.48,88.64,104.04,90.19,105.97,90.19L105.97,90.19z"/>
	<path class="st1" d="M126.91,90.19c1.93,0,3.49-1.55,3.49-3.46c0-1.91-1.56-3.46-3.49-3.46c-1.93,0-3.49,1.55-3.49,3.46
		C123.42,88.64,124.98,90.19,126.91,90.19L126.91,90.19z"/>
	<path class="st1" d="M147.85,90.19c1.93,0,3.49-1.55,3.49-3.46c0-1.91-1.56-3.46-3.49-3.46c-1.93,0-3.49,1.55-3.49,3.46
		C144.36,88.64,145.92,90.19,147.85,90.19L147.85,90.19z"/>
	<path class="st1" d="M126.91,27.87c1.93,0,3.49-1.55,3.49-3.46c0-1.91-1.56-3.46-3.49-3.46c-1.93,0-3.49,1.55-3.49,3.46
		C123.42,26.32,124.98,27.87,126.91,27.87L126.91,27.87z"/>
	<path class="st1" d="M22.21,104.04c-1.93,0-3.49,1.55-3.49,3.46c0,1.91,1.56,3.46,3.49,3.46c1.93,0,3.49-1.55,3.49-3.46
		C25.7,105.59,24.13,104.04,22.21,104.04L22.21,104.04z"/>
	<path class="st1" d="M43.15,104.04c-1.93,0-3.49,1.55-3.49,3.46c0,1.91,1.56,3.46,3.49,3.46c1.93,0,3.49-1.55,3.49-3.46
		C46.64,105.59,45.07,104.04,43.15,104.04L43.15,104.04z"/>
	<path class="st1" d="M64.09,104.04c-1.93,0-3.49,1.55-3.49,3.46c0,1.91,1.56,3.46,3.49,3.46c1.93,0,3.49-1.55,3.49-3.46
		C67.58,105.59,66.01,104.04,64.09,104.04L64.09,104.04z"/>
	<path class="st1" d="M147.85,110.96c1.93,0,3.49-1.55,3.49-3.46c0-1.91-1.56-3.46-3.49-3.46c-1.93,0-3.49,1.55-3.49,3.46
		C144.36,109.41,145.92,110.96,147.85,110.96L147.85,110.96z"/>
	<path class="st1" d="M53.62,114.43c-1.93,0-3.49,1.55-3.49,3.46c0,1.91,1.56,3.46,3.49,3.46c1.93,0,3.49-1.55,3.49-3.46
		C57.11,115.98,55.54,114.43,53.62,114.43L53.62,114.43z"/>
	<path class="st1" d="M74.56,114.43c-1.93,0-3.49,1.55-3.49,3.46c0,1.91,1.56,3.46,3.49,3.46c1.93,0,3.49-1.55,3.49-3.46
		C78.05,115.98,76.48,114.43,74.56,114.43L74.56,114.43z"/>
	<path class="st1" d="M95.5,114.43c-1.93,0-3.49,1.55-3.49,3.46c0,1.91,1.56,3.46,3.49,3.46c1.93,0,3.49-1.55,3.49-3.46
		C98.99,115.98,97.43,114.43,95.5,114.43L95.5,114.43z"/>
	<path class="st1" d="M116.44,114.43c-1.93,0-3.49,1.55-3.49,3.46c0,1.91,1.56,3.46,3.49,3.46c1.93,0,3.49-1.55,3.49-3.46
		C119.93,115.98,118.37,114.43,116.44,114.43L116.44,114.43z"/>
	<path class="st1" d="M126.91,124.81c-1.93,0-3.49,1.55-3.49,3.46c0,1.91,1.56,3.46,3.49,3.46c1.93,0,3.49-1.55,3.49-3.46
		C130.4,126.36,128.84,124.81,126.91,124.81L126.91,124.81z"/>
	<path class="st1" d="M147.85,124.81c-1.93,0-3.49,1.55-3.49,3.46c0,1.91,1.56,3.46,3.49,3.46c1.93,0,3.49-1.55,3.49-3.46
		C151.34,126.36,149.78,124.81,147.85,124.81L147.85,124.81z"/>
	<path class="st1" d="M168.79,124.81c-1.93,0-3.49,1.55-3.49,3.46c0,1.91,1.56,3.46,3.49,3.46c1.93,0,3.49-1.55,3.49-3.46
		C172.28,126.36,170.72,124.81,168.79,124.81L168.79,124.81z"/>
</g>
</svg>
