<svg id="Group_423" data-name="Group 423" xmlns="http://www.w3.org/2000/svg" xmlns:xlink="http://www.w3.org/1999/xlink" width="65.241" height="64.846" viewBox="0 0 65.241 64.846">
  <defs>
    <clipPath id="clip-path">
      <rect id="Rectangle_78" data-name="Rectangle 78" width="65.241" height="64.847" fill="none"/>
    </clipPath>
  </defs>
  <g id="Group_101" data-name="Group 101" transform="translate(0 0)">
    <g id="Group_100" data-name="Group 100" clip-path="url(#clip-path)">
      <path id="Path_374" data-name="Path 374" d="M1078.489,166.9a9.824,9.824,0,0,1-2.445,3.9,11.046,11.046,0,0,1-4.249,2.714,1.762,1.762,0,0,1-1.8-.439l-4.25-4.25a12.606,12.606,0,0,0,4.821-3.013,16.107,16.107,0,0,0,3.335-4.889l4.156,4.156a1.785,1.785,0,0,1,.432,1.825Zm-48.623,1.673a14.684,14.684,0,0,1-4.973-3.252,11.156,11.156,0,0,1-2.879-4.955l16.668-16.668,8.03,8.029-16.846,16.846Zm-5.362,5.361a1.418,1.418,0,0,1-1.383.368,9.7,9.7,0,0,1-4.189-2.531,10.952,10.952,0,0,1-2.785-4.473,1.416,1.416,0,0,1,.355-1.422l4.407-4.407a12.551,12.551,0,0,0,3.011,4.823,16.1,16.1,0,0,0,4.892,3.333l-4.308,4.308Zm-4.534-55.422a7.789,7.789,0,0,0,1.878-1.447,7.668,7.668,0,0,0,1.6-2.2l6.785,2.549a8.757,8.757,0,0,1-2.432,5.509,8.091,8.091,0,0,1-5.389,2.447l-2.439-6.857Zm43.26.637a9.606,9.606,0,0,0,2.734,5.219,9.9,9.9,0,0,0,5.386,2.719l-14.67,14.67-8.03-8.029,14.579-14.579Zm9.7-1.295a7.854,7.854,0,0,0,1.889,1.452l-2.452,6.519a8.75,8.75,0,0,1-5.43-2.427,8.119,8.119,0,0,1-2.445-5.311l6.842-2.434a7.665,7.665,0,0,0,1.6,2.2Zm-8.6,48.387a.966.966,0,0,0-.772.386l-1.561-1.561a.971.971,0,1,0-1.361-1.361l-1.564-1.564a.964.964,0,0,0,.386-.769.975.975,0,0,0-.975-.975.964.964,0,0,0-.769.386l-1.564-1.564a.97.97,0,1,0-1.361-1.358l-1.561-1.564a.971.971,0,1,0-1.361-1.361l-1.561-1.561a.971.971,0,1,0-1.361-1.361l-1.564-1.561a.971.971,0,1,0-1.358-1.361l-1.564-1.564a.964.964,0,0,0,.386-.769.971.971,0,0,0-1.747-.589l-1.561-1.564a.964.964,0,0,0,.386-.769.971.971,0,0,0-1.747-.589l-1.561-1.564a.971.971,0,1,0-1.361-1.361l-1.563-1.561a.971.971,0,1,0-1.358-1.361l-1.563-1.561a.971.971,0,1,0-1.361-1.361l-1.561-1.561a.971.971,0,1,0-1.361-1.361L1026.921,130a.971.971,0,1,0-1.361-1.358l-2.013-2.013a9.6,9.6,0,0,0,5.222-2.734,9.9,9.9,0,0,0,2.719-5.387l41.361,41.361a14.749,14.749,0,0,1-3.252,4.973,11.23,11.23,0,0,1-4.356,2.7,1.013,1.013,0,0,0,.056-.32.973.973,0,0,0-.972-.975Zm14.7-2.138-21.375-21.377,15.353-15.353a2.527,2.527,0,0,0,.584-.909l2.551-6.786.012,0,2.65-7.027a.657.657,0,0,0-.835-.85l-7.006,2.5v.03l-6.991,2.488a2.555,2.555,0,0,0-.949.6l-15.341,15.34-16.216-16.216h0a1.346,1.346,0,0,0-.482-.31l-7.169-2.693v-.028l-6.885-2.584a.657.657,0,0,0-.85.835l2.543,7.131.025,0,2.533,7.121a1.378,1.378,0,0,0,.317.5l16.211,16.211-22.177,22.179a2.782,2.782,0,0,0-.7,2.8,12.341,12.341,0,0,0,3.127,5.036,11.07,11.07,0,0,0,4.785,2.884,2.8,2.8,0,0,0,2.727-.718l22.207-22.207,21.344,21.342a3.169,3.169,0,0,0,2.239.929,2.978,2.978,0,0,0,.972-.16,12.437,12.437,0,0,0,4.78-3.044,11.16,11.16,0,0,0,2.777-4.442,3.152,3.152,0,0,0-.767-3.219Z" transform="translate(-1014.711 -110.88)" fill="#030504"/>
    </g>
  </g>
  <path id="Path_375" data-name="Path 375" d="M1021.03,116.571a.975.975,0,1,0,.975.975.975.975,0,0,0-.975-.975Z" transform="translate(-1006.487 -102.123)" fill="#030504"/>
  <path id="Path_376" data-name="Path 376" d="M1023.333,118.874a.974.974,0,1,0,.972.975.975.975,0,0,0-.972-.975Z" transform="translate(-1002.943 -98.58)" fill="#030504"/>
  <path id="Path_377" data-name="Path 377" d="M1022.179,117.723a.974.974,0,1,0,.975.972.971.971,0,0,0-.975-.972Z" transform="translate(-1004.714 -100.351)" fill="#030504"/>
  <path id="Path_378" data-name="Path 378" d="M1024.484,120.025a.975.975,0,1,0,.972.975.975.975,0,0,0-.972-.975Z" transform="translate(-1001.173 -96.809)" fill="#030504"/>
  <path id="Path_379" data-name="Path 379" d="M1025.635,121.176a.975.975,0,1,0,.975.975.975.975,0,0,0-.975-.975Z" transform="translate(-999.402 -95.038)" fill="#030504"/>
  <path id="Path_380" data-name="Path 380" d="M1027.935,123.479a.974.974,0,1,0,.975.975.973.973,0,0,0-.975-.975Z" transform="translate(-995.858 -91.495)" fill="#030504"/>
  <path id="Path_381" data-name="Path 381" d="M1026.786,122.328a.974.974,0,1,0,.975.972.973.973,0,0,0-.975-.972Z" transform="translate(-997.631 -93.266)" fill="#030504"/>
  <path id="Path_382" data-name="Path 382" d="M1029.089,124.63a.974.974,0,1,0,.972.975.975.975,0,0,0-.972-.975Z" transform="translate(-994.088 -89.724)" fill="#030504"/>
  <path id="Path_383" data-name="Path 383" d="M1030.24,125.781a.975.975,0,1,0,.975.975.975.975,0,0,0-.975-.975Z" transform="translate(-992.317 -87.953)" fill="#030504"/>
  <path id="Path_384" data-name="Path 384" d="M1032.542,128.084a.974.974,0,1,0,.975.972.973.973,0,0,0-.975-.972Z" transform="translate(-988.775 -84.41)" fill="#030504"/>
  <path id="Path_385" data-name="Path 385" d="M1031.391,126.932a.975.975,0,1,0,.975.975.975.975,0,0,0-.975-.975Z" transform="translate(-990.546 -86.182)" fill="#030504"/>
  <path id="Path_386" data-name="Path 386" d="M1033.691,129.235a.974.974,0,1,0,.975.972.973.973,0,0,0-.975-.972Z" transform="translate(-987.002 -82.639)" fill="#030504"/>
  <path id="Path_387" data-name="Path 387" d="M1034.845,130.386a.974.974,0,1,0,.972.975.975.975,0,0,0-.972-.975Z" transform="translate(-985.232 -80.868)" fill="#030504"/>
  <path id="Path_388" data-name="Path 388" d="M1036,133.487a.975.975,0,1,0-.975-.975.975.975,0,0,0,.975.975Z" transform="translate(-983.461 -79.097)" fill="#030504"/>
</svg>
