<?xml version="1.0" encoding="utf-8"?>
<!-- Generator: Adobe Illustrator 26.0.1, SVG Export Plug-In . SVG Version: 6.00 Build 0)  -->
<svg version="1.1" id="Laag_1" xmlns="http://www.w3.org/2000/svg" xmlns:xlink="http://www.w3.org/1999/xlink" x="0px" y="0px"
	 viewBox="0 0 1590.3 1565.3" style="enable-background:new 0 0 1590.3 1565.3;" xml:space="preserve">
<style type="text/css">
	.st0{clip-path:url(#SVGID_00000018197105699214643650000015715476817033210002_);}
	.st1{fill:#040506;}
	.st2{fill:#020203;stroke:#010202;stroke-width:2;stroke-miterlimit:10;}
	.st3{font-family:'OpenSans';}
	.st4{font-size:152px;}
</style>
<g id="Group_1057" transform="translate(0 0)">
	<g id="Group_1054" transform="translate(0 0)">
		<g>
			<defs>
				<rect id="SVGID_1_" x="11.3" y="18.9" width="1410.8" height="1538"/>
			</defs>
			<clipPath id="SVGID_00000089542113442423207100000005663643170983357338_">
				<use xlink:href="#SVGID_1_"  style="overflow:visible;"/>
			</clipPath>
			<g id="Group_1053" style="clip-path:url(#SVGID_00000089542113442423207100000005663643170983357338_);">
				<path id="Path_1607" class="st1" d="M1204.2,1272L835,1259.8c-2.1-0.9-4.3-1.4-6.6-1.5l-214.5-5.7l-421.1-13.8l10-303.8
					l406.7,13.4l0.4,0l131.2,4.3l473.1,15.5l164.9,158.4L1204.2,1272z M627.6,1287.4l40.3,1.3v233.8h-40.3V1287.4z M627.6,844.8
					l40.3,1.3v69.8l-40.3-1.3V844.8z M54.6,638.5l175-145.4l380.2,12.5h0l179.6,5.9h0.6l451,14.9l-9.9,303.8l-440.4-14.5h-0.1
					L611,809.8h-0.2l-391.1-12.8L54.6,638.5z M627.6,391.7h145.3v0.3H667.9v81.2l-40.3-1.3L627.6,391.7z M54.3,204.3l170-151h1012
					v304h-1012L54.3,204.3z M1416.8,1115.1l-183.6-176.3c-3.1-2.9-7.1-4.7-11.3-4.8l-374.5-12.3V852l399.7,13.1h0.6
					c9.3,0,16.9-7.4,17.2-16.6l11.1-338.1c0.3-9.5-7.1-17.4-16.6-17.8c0,0,0,0,0,0l-411.9-13.5v-87.2h-40.2v-0.3h446.3
					c9.5,0,17.2-7.7,17.2-17.2c0,0,0,0,0,0V36.1c0-9.5-7.7-17.2-17.2-17.2c0,0,0,0,0,0H217.8c-4.2,0-8.3,1.5-11.4,4.3L17.1,191.4
					c-7.1,6.3-7.8,17.1-1.5,24.2c0.4,0.5,0.9,1,1.4,1.4l189.3,170.2c3.2,2.8,7.2,4.4,11.5,4.4h375.4v79.1l-369-12.1
					c-4.2-0.2-8.3,1.3-11.5,4L17.9,624.4c-7.3,6-8.3,16.9-2.3,24.2c0.4,0.5,0.9,1,1.4,1.5l183.6,176.3c3.1,2.9,7.1,4.6,11.4,4.8
					l381.3,12.6v69.8l-406.5-13.4c-9.5-0.3-17.4,7.1-17.8,16.6l-11.1,338.2c-0.3,9.5,7.1,17.4,16.6,17.8l418.7,13.7v253.4
					c0,9.5,7.7,17.2,17.2,17.2h0h217.6c9.5,0,17.2-7.7,17.2-17.2l0,0v-245.2l364.5,11.9h0.6c4,0,7.9-1.4,11-3.9l194.8-161.8
					c7.3-6,8.3-16.9,2.3-24.2C1417.8,1116.1,1417.3,1115.6,1416.8,1115.1"/>
			</g>
		</g>
	</g>
	<g id="Group_1056" transform="translate(0 0)">
		<g>
			<defs>
				<rect id="SVGID_00000061467857149206913020000002160299063924704684_" x="11.3" y="18.9" width="1410.8" height="1538"/>
			</defs>
			<clipPath id="SVGID_00000039833641351803089580000010875488901210594441_">
				<use xlink:href="#SVGID_00000061467857149206913020000002160299063924704684_"  style="overflow:visible;"/>
			</clipPath>
		</g>
	</g>
</g>
<text transform="matrix(0.9661 0 0 1 383.6959 266.037)" class="st2 st3 st4">Diversiteit</text>
<text transform="matrix(0.9658 2.564754e-02 -2.654750e-02 0.9996 283.0513 691.8585)" class="st2 st3 st4">Digitaliseren</text>
<text transform="matrix(0.9658 2.564754e-02 -2.654750e-02 0.9996 211.2249 1142.469)" class="st2 st3 st4">Duurzaamheid</text>
</svg>
