<svg id="Group_425" data-name="Group 425" xmlns="http://www.w3.org/2000/svg" width="81.907" height="96.989" viewBox="0 0 81.907 96.989">
  <path id="Path_389" data-name="Path 389" d="M1013.965,134.179a.045.045,0,0,1-.025.061l-6.6,2.841-6.623-15.389,6.6-2.841a.047.047,0,0,1,.061.023l6.587,15.3Zm-5.613,10.616a.414.414,0,0,1-.219.543l-53.01,22.817a.417.417,0,0,1-.543-.216l-13-30.206a29.269,29.269,0,0,1,53.769-23.144l13,30.206ZM943,164.774a.108.108,0,0,1-.145-.056l-6.537-15.188a.111.111,0,0,1,.058-.145l6.674-2.874,6.623,15.391L943,164.774Zm3.815-77.621a4.467,4.467,0,1,1,5.869,2.338,4.473,4.473,0,0,1-5.869-2.338Zm59.666,29.749-6.6,2.841-2.577-5.991a31.427,31.427,0,0,0-40.261-16.82l-2.579-6a6.59,6.59,0,1,0-1.952.84l2.582,6a31.426,31.426,0,0,0-15.46,40.8l2.579,5.988-6.677,2.874a2.237,2.237,0,0,0-1.168,2.935l6.537,15.186a2.234,2.234,0,0,0,2.935,1.168l6.674-2.871,2.12,4.925a2.54,2.54,0,0,0,3.333,1.328l6.651-2.863,3.272,7.6a1.557,1.557,0,0,0,2.044.815l36.85-15.861a1.558,1.558,0,0,0,.815-2.046l-3.272-7.6,6.651-2.863a2.54,2.54,0,0,0,1.328-3.331l-2.12-4.927,6.6-2.841a2.169,2.169,0,0,0,1.135-2.848l-6.588-15.3a2.17,2.17,0,0,0-2.848-1.135Z" transform="translate(-934.184 -78.796)" fill="#030504"/>
  <path id="Path_390" data-name="Path 390" d="M945.909,99.68a4.475,4.475,0,0,1,5.869,2.338l1.949-.84a6.59,6.59,0,1,0-12.106,5.212l1.95-.84a4.47,4.47,0,0,1,2.338-5.869Z" transform="translate(-923.568 -50.491)" fill="#030504"/>
  <path id="Path_391" data-name="Path 391" d="M954.34,96.051a4.475,4.475,0,0,1,5.869,2.338l1.949-.838a6.59,6.59,0,1,0-12.106,5.209l1.95-.838a4.473,4.473,0,0,1,2.338-5.872Z" transform="translate(-910.596 -56.075)" fill="#030504"/>
  <path id="Path_392" data-name="Path 392" d="M988.206,103.893a6.441,6.441,0,0,1-3.364,8.453l-33.1,14.246a6.433,6.433,0,1,1-5.087-11.817l33.1-14.246a6.438,6.438,0,0,1,8.451,3.364Zm-42.391,8.933a8.555,8.555,0,1,0,6.763,15.716l33.1-14.246a8.555,8.555,0,1,0-6.765-15.716l-33.1,14.246Z" transform="translate(-924.251 -49.432)" fill="#030504"/>
  <path id="Path_393" data-name="Path 393" d="M944,105.692a1.506,1.506,0,1,0,1.98.79,1.51,1.51,0,0,0-1.98-.79Z" transform="translate(-920.481 -37.604)" fill="#030504"/>
  <path id="Path_394" data-name="Path 394" d="M947.272,104.286a1.506,1.506,0,1,0,1.98.787,1.5,1.5,0,0,0-1.98-.787Z" transform="translate(-915.449 -39.77)" fill="#030504"/>
  <path id="Path_395" data-name="Path 395" d="M950.544,102.877a1.506,1.506,0,1,0,1.978.789,1.51,1.51,0,0,0-1.978-.789Z" transform="translate(-910.418 -41.935)" fill="#030504"/>
  <path id="Path_396" data-name="Path 396" d="M953.813,101.471a1.506,1.506,0,1,0,1.98.787,1.5,1.5,0,0,0-1.98-.787Z" transform="translate(-905.386 -44.101)" fill="#030504"/>
  <path id="Path_397" data-name="Path 397" d="M956.3,102.042a1.507,1.507,0,1,0,.789-1.98,1.506,1.506,0,0,0-.789,1.98Z" transform="translate(-900.354 -46.266)" fill="#030504"/>
  <path id="Path_398" data-name="Path 398" d="M946.342,106.625a1.506,1.506,0,1,0,1.98.787,1.508,1.508,0,0,0-1.98-.787Z" transform="translate(-916.882 -36.171)" fill="#030504"/>
  <path id="Path_399" data-name="Path 399" d="M949.611,105.216a1.506,1.506,0,1,0,1.98.79,1.506,1.506,0,0,0-1.98-.79Z" transform="translate(-911.851 -38.337)" fill="#030504"/>
  <path id="Path_400" data-name="Path 400" d="M952.883,103.81a1.506,1.506,0,1,0,1.978.787,1.506,1.506,0,0,0-1.978-.787Z" transform="translate(-906.819 -40.502)" fill="#030504"/>
  <path id="Path_401" data-name="Path 401" d="M956.152,102.4a1.506,1.506,0,1,0,1.98.789,1.506,1.506,0,0,0-1.98-.789Z" transform="translate(-901.787 -42.668)" fill="#030504"/>
</svg>
