<?xml version="1.0" encoding="utf-8"?>
<!-- Generator: Adobe Illustrator 26.0.1, SVG Export Plug-In . SVG Version: 6.00 Build 0)  -->
<svg version="1.1" id="Laag_1" xmlns="http://www.w3.org/2000/svg" xmlns:xlink="http://www.w3.org/1999/xlink" x="0px" y="0px"
	 viewBox="0 0 193.11 267.9" style="enable-background:new 0 0 193.11 267.9;" xml:space="preserve">
<style type="text/css">
	.st0{fill:#12100B;}
	.st1{clip-path:url(#SVGID_00000052821293343189525660000008713903001973221044_);fill:#12100B;}
</style>
<g>
	<path class="st0" d="M58.23,229.01c-1.39,1.39-1.39,3.63,0,5.02c1.39,1.38,3.63,1.38,5.02,0c1.39-1.39,1.39-3.63,0-5.02
		C61.86,227.62,59.61,227.62,58.23,229.01L58.23,229.01z"/>
	<path class="st0" d="M73.28,229.01c-1.39,1.39-1.39,3.63,0,5.02c1.39,1.38,3.63,1.38,5.02,0c1.39-1.39,1.39-3.63,0-5.02
		C76.91,227.62,74.67,227.62,73.28,229.01L73.28,229.01z"/>
	<path class="st0" d="M58.23,213.95c-1.39,1.39-1.39,3.63,0,5.02c1.39,1.39,3.63,1.39,5.02,0c1.39-1.39,1.39-3.63,0-5.02
		C61.86,212.57,59.61,212.57,58.23,213.95L58.23,213.95z"/>
	<path class="st0" d="M73.28,198.9c-1.39,1.39-1.39,3.63,0,5.02c1.39,1.39,3.63,1.39,5.02,0c1.39-1.39,1.39-3.63,0-5.02
		C76.91,197.52,74.67,197.51,73.28,198.9L73.28,198.9z"/>
	<path class="st0" d="M58.23,183.85c-1.39,1.39-1.39,3.63,0,5.02c1.39,1.38,3.63,1.38,5.02,0c1.39-1.39,1.39-3.63,0-5.02
		C61.86,182.46,59.61,182.46,58.23,183.85L58.23,183.85z"/>
	<path class="st0" d="M73.28,213.95c-1.39,1.39-1.39,3.63,0,5.02c1.39,1.39,3.63,1.39,5.02,0c1.39-1.39,1.39-3.63,0-5.02
		C76.91,212.57,74.67,212.57,73.28,213.95L73.28,213.95z"/>
	<path class="st0" d="M58.23,198.9c-1.39,1.39-1.39,3.63,0,5.02c1.39,1.39,3.63,1.39,5.02,0c1.39-1.39,1.39-3.63,0-5.02
		C61.86,197.51,59.61,197.52,58.23,198.9L58.23,198.9z"/>
	<path class="st0" d="M73.28,183.85c-1.39,1.39-1.39,3.63,0,5.02c1.39,1.39,3.63,1.39,5.02,0c1.39-1.39,1.39-3.63,0-5.02
		C76.91,182.46,74.67,182.46,73.28,183.85L73.28,183.85z"/>
	<g>
		<defs>
			<rect id="SVGID_1_" x="39.63" y="24.61" width="135.19" height="228"/>
		</defs>
		<clipPath id="SVGID_00000038401342127407968760000012942735107344846492_">
			<use xlink:href="#SVGID_1_"  style="overflow:visible;"/>
		</clipPath>
		<path style="clip-path:url(#SVGID_00000038401342127407968760000012942735107344846492_);fill:#12100B;" d="M58.23,168.79
			c-1.39,1.39-1.39,3.63,0,5.02c1.39,1.39,3.63,1.39,5.02,0c1.39-1.39,1.39-3.63,0-5.02C61.86,167.41,59.61,167.41,58.23,168.79
			L58.23,168.79z"/>
		<path style="clip-path:url(#SVGID_00000038401342127407968760000012942735107344846492_);fill:#12100B;" d="M169.83,247.62h-35.48
			v-13.34h-6.53v-60.23c0-3.2-2.6-5.8-5.8-5.8H92.45c-3.2,0-5.8,2.6-5.8,5.8v60.23h-6.53v13.34h-0.95c0.38-1.22,0.1-2.59-0.86-3.56
			c-1.39-1.39-3.63-1.39-5.02,0c-0.96,0.96-1.24,2.34-0.86,3.56h-8.31c0.38-1.22,0.1-2.59-0.86-3.56c-1.39-1.39-3.63-1.39-5.02,0
			c-0.96,0.96-1.24,2.34-0.86,3.56h-8.31c0.38-1.22,0.1-2.59-0.86-3.56c-0.96-0.96-2.34-1.24-3.56-0.87v-8.31
			c1.22,0.38,2.59,0.1,3.56-0.86c1.39-1.39,1.39-3.63,0-5.02c-0.96-0.96-2.34-1.24-3.56-0.86v-8.31c1.22,0.38,2.59,0.1,3.56-0.86
			c1.39-1.39,1.39-3.63,0-5.02c-0.96-0.96-2.34-1.24-3.56-0.86v-8.31c1.22,0.38,2.59,0.1,3.56-0.86c1.39-1.39,1.39-3.63,0-5.02
			c-0.96-0.96-2.34-1.24-3.56-0.86v-8.31c1.22,0.38,2.59,0.1,3.56-0.86c1.39-1.39,1.39-3.63,0-5.02c-0.96-0.96-2.34-1.24-3.56-0.86
			v-8.31c1.22,0.38,2.59,0.1,3.56-0.86c1.39-1.39,1.39-3.63,0-5.02c-0.96-0.96-2.34-1.24-3.56-0.86v-8.31
			c1.22,0.38,2.59,0.1,3.56-0.86c1.39-1.39,1.39-3.63,0-5.02c-0.96-0.96-2.34-1.24-3.56-0.86v-44.63V86.99h14.91
			c1.38,0,2.5-1.12,2.5-2.5V69.27h14.33c1.38,0,2.5-1.12,2.5-2.5V47.8h8.72c1.38,0,2.5-1.12,2.5-2.5v-5.66
			c0-5.53,5.1-10.03,11.38-10.03H113c6.27,0,11.38,4.5,11.38,10.03v5.66c0,1.38,1.12,2.5,2.5,2.5h8.72v18.97
			c0,1.38,1.12,2.5,2.5,2.5h14.32v15.22c0,1.38,1.12,2.5,2.5,2.5h14.91v21.26V247.62L169.83,247.62z M122.81,234.28H91.65v-60.23
			c0-0.44,0.36-0.8,0.8-0.8h29.56c0.44,0,0.8,0.36,0.8,0.8V234.28L122.81,234.28z M174.69,83.7c-0.33-0.99-1.26-1.72-2.36-1.72
			h-14.91V66.77c0-1.38-1.12-2.5-2.5-2.5H140.6V45.3c0-1.38-1.12-2.5-2.5-2.5h-8.72v-3.16c0-8.29-7.35-15.03-16.38-15.03h-11.53
			c-9.03,0-16.38,6.74-16.38,15.03v3.16h-8.72c-1.38,0-2.5,1.12-2.5,2.5v18.97H59.54c-1.38,0-2.5,1.12-2.5,2.5v15.22H42.13
			c-1.11,0-2.03,0.72-2.36,1.72h-0.14v0.78v23.76v144.38h135.19V108.24V84.49V83.7H174.69L174.69,83.7z"/>
	</g>
	<path class="st0" d="M79.81,140.07c0,0.62-0.5,1.12-1.12,1.12H63.48c-0.62,0-1.12-0.5-1.12-1.12v-34.81c0-0.62,0.5-1.12,1.12-1.12
		h15.21c0.62,0,1.12,0.5,1.12,1.12V140.07L79.81,140.07z M78.69,99.14H63.48c-3.38,0-6.12,2.75-6.12,6.12v34.81
		c0,3.38,2.75,6.12,6.12,6.12h15.21c3.38,0,6.12-2.75,6.12-6.12v-34.81C84.81,101.89,82.07,99.14,78.69,99.14L78.69,99.14z"/>
	<path class="st0" d="M115.96,140.07c0,0.62-0.5,1.12-1.12,1.12H99.62c-0.62,0-1.12-0.5-1.12-1.12v-34.81c0-0.62,0.5-1.12,1.12-1.12
		h15.21c0.62,0,1.12,0.5,1.12,1.12V140.07L115.96,140.07z M114.84,99.14H99.62c-3.38,0-6.12,2.75-6.12,6.12v34.81
		c0,3.38,2.75,6.12,6.12,6.12h15.21c3.38,0,6.12-2.75,6.12-6.12v-34.81C120.96,101.89,118.21,99.14,114.84,99.14L114.84,99.14z"/>
	<path class="st0" d="M152.1,140.07c0,0.62-0.5,1.12-1.12,1.12h-15.21c-0.62,0-1.12-0.5-1.12-1.12v-34.81c0-0.62,0.5-1.12,1.12-1.12
		h15.21c0.62,0,1.12,0.5,1.12,1.12V140.07L152.1,140.07z M150.98,99.14h-15.21c-3.38,0-6.12,2.75-6.12,6.12v34.81
		c0,3.38,2.75,6.12,6.12,6.12h15.21c3.38,0,6.12-2.75,6.12-6.12v-34.81C157.1,101.89,154.36,99.14,150.98,99.14L150.98,99.14z"/>
	<path class="st0" d="M107.23,82.14c6.45,0,11.71-5.25,11.71-11.71c0-6.45-5.25-11.71-11.71-11.71c-6.45,0-11.71,5.25-11.71,11.71
		C95.53,76.89,100.78,82.14,107.23,82.14L107.23,82.14z"/>
</g>
</svg>
