<svg xmlns="http://www.w3.org/2000/svg" xmlns:xlink="http://www.w3.org/1999/xlink" width="122" height="113" viewBox="0 0 122 113">
  <defs>
    <clipPath id="clip-Artboard_1">
      <rect width="122" height="113"/>
    </clipPath>
  </defs>
  <g id="Artboard_1" data-name="Artboard – 1" clip-path="url(#clip-Artboard_1)">
    <rect width="122" height="113" fill="#fff"/>
    <g id="Group_247" data-name="Group 247" transform="translate(-4266 -1646)">
      <path id="Path_739" data-name="Path 739" d="M110.807,177.157l-91.931,1.069c-3.709-6.3-8.23-13.549-10.279-22.489C1.456,124.611,7.47,99.809,6.343,84.717H95.777c1.378,27.369-3.632,36.762,1.69,66.51,1.993,11.144,8.7,19.322,13.34,25.93" transform="translate(4275.797 1562.951)" fill="#ffe905"/>
      <path id="Path_740" data-name="Path 740" d="M107.826,180.391,15.9,181.459c-3.709-6.3-8.23-13.549-10.276-22.489-7.141-31.125-1.127-55.928-2.255-71.02H92.8c1.378,27.369-3.632,36.762,1.69,66.51,1.993,11.144,8.7,19.322,13.34,25.93" transform="translate(4270.009 1569.236)" fill="#ffe905"/>
      <path id="Path_741" data-name="Path 741" d="M22.345,110.378a2.1,2.1,0,1,0,2.1,2.1,2.1,2.1,0,0,0-2.1-2.1" transform="translate(4305.35 1612.825)" fill="#040504"/>
      <path id="Path_742" data-name="Path 742" d="M24.487,112.518a2.1,2.1,0,1,0,2.1,2.1,2.1,2.1,0,0,0-2.1-2.1" transform="translate(4309.507 1616.984)" fill="#040504"/>
      <path id="Path_743" data-name="Path 743" d="M20.207,108.237a2.1,2.1,0,1,0,2.1,2.1,2.1,2.1,0,0,0-2.1-2.1" transform="translate(4301.188 1608.664)" fill="#040504"/>
      <path id="Path_744" data-name="Path 744" d="M20.207,112.518a2.1,2.1,0,1,0,2.1,2.1,2.1,2.1,0,0,0-2.1-2.1" transform="translate(4301.188 1616.984)" fill="#040504"/>
      <path id="Path_745" data-name="Path 745" d="M18.066,106.1a2.1,2.1,0,1,0,2.1,2.1,2.1,2.1,0,0,0-2.1-2.1" transform="translate(4297.027 1604.505)" fill="#040504"/>
      <path id="Path_746" data-name="Path 746" d="M18.066,110.378a2.1,2.1,0,1,0,2.1,2.1,2.1,2.1,0,0,0-2.1-2.1" transform="translate(4297.027 1612.825)" fill="#040504"/>
      <path id="Path_747" data-name="Path 747" d="M13.783,101.816a2.1,2.1,0,1,0,2.1,2.1,2.1,2.1,0,0,0-2.1-2.1" transform="translate(4288.708 1596.184)" fill="#040504"/>
      <path id="Path_748" data-name="Path 748" d="M13.783,106.1a2.1,2.1,0,1,0,2.1,2.1,2.1,2.1,0,0,0-2.1-2.1" transform="translate(4288.708 1604.505)" fill="#040504"/>
      <path id="Path_749" data-name="Path 749" d="M13.783,110.378a2.1,2.1,0,1,0,2.1,2.1,2.1,2.1,0,0,0-2.1-2.1" transform="translate(4288.708 1612.825)" fill="#040504"/>
      <path id="Path_750" data-name="Path 750" d="M15.924,103.957a2.1,2.1,0,1,0,2.1,2.1,2.1,2.1,0,0,0-2.1-2.1" transform="translate(4292.87 1600.345)" fill="#040504"/>
      <path id="Path_751" data-name="Path 751" d="M15.924,108.237a2.1,2.1,0,1,0,2.1,2.1,2.1,2.1,0,0,0-2.1-2.1" transform="translate(4292.87 1608.664)" fill="#040504"/>
      <path id="Path_752" data-name="Path 752" d="M15.924,112.518a2.1,2.1,0,1,0,2.1,2.1,2.1,2.1,0,0,0-2.1-2.1" transform="translate(4292.87 1616.984)" fill="#040504"/>
      <path id="Path_753" data-name="Path 753" d="M11.645,99.676a2.1,2.1,0,1,0,2.1,2.1,2.1,2.1,0,0,0-2.1-2.1" transform="translate(4284.547 1592.025)" fill="#040504"/>
      <path id="Path_754" data-name="Path 754" d="M11.645,103.957a2.1,2.1,0,1,0,2.1,2.1,2.1,2.1,0,0,0-2.1-2.1" transform="translate(4284.547 1600.345)" fill="#040504"/>
      <path id="Path_755" data-name="Path 755" d="M11.645,108.237a2.1,2.1,0,1,0,2.1,2.1,2.1,2.1,0,0,0-2.1-2.1" transform="translate(4284.547 1608.664)" fill="#040504"/>
      <path id="Path_756" data-name="Path 756" d="M11.645,112.518a2.1,2.1,0,1,0,2.1,2.1,2.1,2.1,0,0,0-2.1-2.1" transform="translate(4284.547 1616.984)" fill="#040504"/>
      <path id="Path_757" data-name="Path 757" d="M9.5,97.535a2.1,2.1,0,1,0,2.1,2.1,2.1,2.1,0,0,0-2.1-2.1" transform="translate(4280.386 1587.864)" fill="#040504"/>
      <path id="Path_758" data-name="Path 758" d="M9.5,101.816a2.1,2.1,0,1,0,2.1,2.1,2.1,2.1,0,0,0-2.1-2.1" transform="translate(4280.386 1596.184)" fill="#040504"/>
      <path id="Path_759" data-name="Path 759" d="M9.5,106.1a2.1,2.1,0,1,0,2.1,2.1,2.1,2.1,0,0,0-2.1-2.1" transform="translate(4280.386 1604.505)" fill="#040504"/>
      <path id="Path_760" data-name="Path 760" d="M75.979,177.255a2.1,2.1,0,1,0-3.37,0H63.378a2.1,2.1,0,1,0-3.373,0H50.777a2.064,2.064,0,0,0,.415-1.239,2.1,2.1,0,1,0-4.2,0,2.064,2.064,0,0,0,.415,1.239H38.178a2.1,2.1,0,1,0-3.373,0H30.857l-.836-1.157a70.252,70.252,0,0,1-6.29-10.6c.053,0,.1.015.162.015a2.1,2.1,0,1,0-1.672-3.359,68.61,68.61,0,0,1-4.395-15.383.177.177,0,0,1,.15-.206,2.094,2.094,0,0,0-.386-4.153,2.4,2.4,0,0,0-.327.032c-.23-2.308-.359-4.636-.359-6.982v-1.575a2.051,2.051,0,0,0,.686.124,2.1,2.1,0,0,0,0-4.2,2.051,2.051,0,0,0-.686.124v-8.648a2.127,2.127,0,0,0,.686.124,2.1,2.1,0,0,0,0-4.2,2.052,2.052,0,0,0-.686.124V87.317a.188.188,0,0,1,.188-.188h87.489a.19.19,0,0,1,.188.188v48.145a72.035,72.035,0,0,0,13.064,41.5.181.181,0,0,1-.15.288Zm34.028,8.51H22.922a.177.177,0,0,1-.15-.079l-.751-1.036A69.7,69.7,0,0,1,8.872,143.907V95.824a.19.19,0,0,1,.188-.188h4.7a.187.187,0,0,1,.185.188V135.4a72.681,72.681,0,0,0,13.714,42.482l1.016,1.407a2.244,2.244,0,0,0,1.816.93h75.876a.185.185,0,0,1,.159.091c1.1,1.9,2.267,3.729,3.482,5.457m11.253-9.1-.38-.524A69.71,69.71,0,0,1,107.732,135.4V86.666a2.5,2.5,0,0,0-2.5-2.5H16.44a2.5,2.5,0,0,0-2.5,2.5v5.822a.187.187,0,0,1-.185.188H8.407a2.5,2.5,0,0,0-2.5,2.5v5.6a.186.186,0,0,1-.188.188H2.5a2.5,2.5,0,0,0-2.5,2.5V152.19a72.648,72.648,0,0,0,13.717,42.479l1.007,1.4a2.248,2.248,0,0,0,1.816.93H105.5a2.236,2.236,0,0,0,1.816-3.544l-.412-.571c-.954-1.325-1.875-2.723-2.764-4.165h7.274a2.238,2.238,0,0,0,1.816-3.547l-.412-.571c-1-1.392-1.975-2.864-2.9-4.389h9.531a2.238,2.238,0,0,0,1.816-3.547" transform="translate(4266 1561.888)" fill="#040504"/>
      <rect id="Rectangle_242" data-name="Rectangle 242" width="121.687" height="112.833" transform="translate(4266 1646.058)" fill="none"/>
      <text id="_3" data-name="3" transform="translate(4306.314 1717.798)" fill="#1a1818" font-size="79" font-family="OpenSans-Semibold, Open Sans" font-weight="600"><tspan x="0" y="0">3</tspan></text>
    </g>
  </g>
</svg>
