<?xml version="1.0" encoding="UTF-8"?><svg xmlns="http://www.w3.org/2000/svg" xmlns:xlink="http://www.w3.org/1999/xlink" viewBox="0 0 41.34 38.33"><defs><style>.e{fill:#fdee29;}.f{clip-path:url(#d);}.g{fill:none;}.h{fill:#231f20;}</style><clipPath id="d"><rect class="g" width="41.34" height="38.33"/></clipPath></defs><g id="a"/><g id="b"><g id="c"><g><path class="e" d="M40.97,31.95c-10.41,.12-20.82,.24-31.23,.36-1.26-2.14-2.8-4.6-3.49-7.64C3.82,14.1,5.87,5.67,5.48,.55h30.38c.47,9.3-1.23,12.49,.57,22.6,.68,3.79,2.96,6.56,4.53,8.81Z"/><path class="e" d="M37.99,35.19c-10.41,.12-20.82,.24-31.23,.36-1.26-2.14-2.8-4.6-3.49-7.64C.84,17.33,2.89,8.91,2.5,3.78h30.38c.47,9.3-1.23,12.49,.57,22.6,.68,3.79,2.96,6.56,4.53,8.81Z"/><g><path d="M20.96,26.21c-.39,0-.71,.32-.71,.71s.32,.71,.71,.71,.71-.32,.71-.71-.32-.71-.71-.71h0Z"/><path d="M23.1,28.35c-.39,0-.71,.32-.71,.71s.32,.71,.71,.71,.71-.32,.71-.71-.32-.71-.71-.71h0Z"/><path d="M18.82,24.07c-.39,0-.71,.32-.71,.71s.32,.71,.71,.71,.71-.32,.71-.71-.32-.71-.71-.71h0Z"/><path d="M18.82,28.35c-.39,0-.71,.32-.71,.71s.32,.71,.71,.71,.71-.32,.71-.71-.32-.71-.71-.71h0Z"/><path d="M16.68,21.93c-.39,0-.71,.32-.71,.71s.32,.71,.71,.71,.71-.32,.71-.71-.32-.71-.71-.71h0Z"/><path d="M16.68,26.21c-.39,0-.71,.32-.71,.71s.32,.71,.71,.71,.71-.32,.71-.71-.32-.71-.71-.71h0Z"/><path d="M12.4,17.65c-.39,0-.71,.32-.71,.71s.32,.71,.71,.71,.71-.32,.71-.71-.32-.71-.71-.71h0Z"/><path d="M12.4,21.93c-.39,0-.71,.32-.71,.71s.32,.71,.71,.71,.71-.32,.71-.71-.32-.71-.71-.71h0Z"/><path d="M12.4,26.21c-.39,0-.71,.32-.71,.71s.32,.71,.71,.71,.71-.32,.71-.71-.32-.71-.71-.71h0Z"/><path d="M14.54,19.79c-.39,0-.71,.32-.71,.71s.32,.71,.71,.71,.71-.32,.71-.71-.32-.71-.71-.71h0Z"/><path d="M14.54,24.07c-.39,0-.71,.32-.71,.71s.32,.71,.71,.71,.71-.32,.71-.71-.32-.71-.71-.71h0Z"/><path d="M14.54,28.35c-.39,0-.71,.32-.71,.71s.32,.71,.71,.71,.71-.32,.71-.71-.32-.71-.71-.71h0Z"/><path d="M10.26,15.51c-.39,0-.71,.32-.71,.71s.32,.71,.71,.71,.71-.32,.71-.71-.32-.71-.71-.71h0Z"/><path d="M10.26,19.79c-.39,0-.71,.32-.71,.71s.32,.71,.71,.71,.71-.32,.71-.71-.32-.71-.71-.71h0Z"/><path d="M10.26,24.07c-.39,0-.71,.32-.71,.71s.32,.71,.71,.71,.71-.32,.71-.71-.32-.71-.71-.71h0Z"/><path d="M10.26,28.35c-.39,0-.71,.32-.71,.71s.32,.71,.71,.71,.71-.32,.71-.71-.32-.71-.71-.71h0Z"/><path d="M8.12,13.37c-.39,0-.71,.32-.71,.71s.32,.71,.71,.71,.71-.32,.71-.71-.32-.71-.71-.71h0Z"/><path d="M8.12,17.65c-.39,0-.71,.32-.71,.71s.32,.71,.71,.71,.71-.32,.71-.71-.32-.71-.71-.71h0Z"/><g class="f"><path d="M8.12,21.93c-.39,0-.71,.32-.71,.71s.32,.71,.71,.71,.71-.32,.71-.71-.32-.71-.71-.71h0Z"/><path d="M25.81,31.62c.09-.12,.14-.26,.14-.42,0-.39-.32-.71-.71-.71s-.71,.32-.71,.71c0,.16,.05,.3,.14,.42h-3.14c.09-.12,.14-.26,.14-.42,0-.39-.32-.71-.71-.71s-.71,.32-.71,.71c0,.16,.05,.3,.14,.42h-3.13c.09-.12,.14-.26,.14-.42,0-.39-.32-.71-.71-.71s-.71,.32-.71,.71c0,.16,.05,.3,.14,.42h-3.13c.09-.12,.14-.26,.14-.42,0-.39-.32-.71-.71-.71s-.71,.32-.71,.71c0,.16,.05,.3,.14,.42h-1.34l-.28-.39c-.83-1.15-1.54-2.35-2.14-3.6,.02,0,.04,0,.05,0,.39,0,.71-.32,.71-.71s-.32-.71-.71-.71c-.23,0-.44,.11-.57,.29-.7-1.68-1.2-3.43-1.49-5.23,0-.03,.02-.06,.05-.07,.33-.06,.58-.35,.58-.7,0-.39-.32-.71-.71-.71-.04,0-.07,0-.11,.01-.08-.78-.12-1.58-.12-2.37v-.53c.07,.03,.15,.04,.23,.04,.39,0,.71-.32,.71-.71s-.32-.71-.71-.71c-.08,0-.16,.02-.23,.04v-2.94c.07,.03,.15,.04,.23,.04,.39,0,.71-.32,.71-.71s-.32-.71-.71-.71c-.08,0-.16,.02-.23,.04V1.07s.03-.06,.06-.06h29.72s.06,.03,.06,.06V17.42c0,5.08,1.53,9.95,4.44,14.1,.03,.04,0,.1-.05,.1h-14.17Zm11.56,2.89H7.79s-.04,0-.05-.03l-.25-.35c-2.9-4.03-4.47-8.87-4.47-13.84V3.96s.03-.06,.06-.06h1.6s.06,.03,.06,.06v13.44c0,5.18,1.63,10.23,4.66,14.43l.34,.48c.14,.2,.37,.32,.62,.32h25.78s.04,.01,.05,.03c.37,.64,.77,1.27,1.18,1.85h0Zm3.82-3.09l-.13-.18c-2.9-4.03-4.47-8.87-4.47-13.84V.85C36.6,.38,36.22,0,35.75,0H5.59C5.12,0,4.74,.38,4.74,.85v1.98s-.03,.06-.06,.06h-1.82c-.47,0-.85,.38-.85,.85v1.9s-.03,.06-.06,.06H.85C.38,5.7,0,6.08,0,6.55V23.11C0,28.29,1.63,33.34,4.66,37.54l.34,.48c.14,.2,.37,.32,.62,.32h30.22c.29,0,.55-.16,.68-.41,.13-.26,.11-.56-.06-.79l-.14-.19c-.32-.45-.64-.92-.94-1.41h2.47c.29,0,.55-.16,.68-.41,.13-.26,.11-.56-.06-.79l-.14-.19c-.34-.47-.67-.97-.99-1.49h3.24c.29,0,.55-.16,.68-.41,.13-.26,.11-.56-.06-.79h0Z"/></g></g></g><path class="h" d="M14.96,16.46c0-7.69,3.13-11.54,9.4-11.54,.99,0,1.82,.08,2.5,.23v2.63c-.68-.2-1.47-.3-2.37-.3-2.11,0-3.69,.56-4.75,1.69-1.06,1.13-1.63,2.94-1.72,5.43h.16c.42-.73,1.01-1.29,1.77-1.69s1.66-.6,2.69-.6c1.78,0,3.17,.55,4.17,1.64,1,1.09,1.49,2.58,1.49,4.45,0,2.06-.58,3.69-1.73,4.89-1.15,1.2-2.72,1.79-4.71,1.79-1.41,0-2.63-.34-3.67-1.02s-1.84-1.66-2.4-2.96c-.56-1.29-.84-2.85-.84-4.67Zm6.86,6.04c1.08,0,1.92-.35,2.51-1.05,.59-.7,.88-1.7,.88-3,0-1.13-.28-2.02-.83-2.66-.55-.65-1.38-.97-2.48-.97-.68,0-1.31,.15-1.88,.44-.57,.29-1.03,.69-1.36,1.2s-.5,1.02-.5,1.55c0,1.26,.34,2.33,1.03,3.19,.69,.86,1.56,1.3,2.63,1.3Z"/></g></g></svg>