<?xml version="1.0" encoding="utf-8"?>
<!-- Generator: Adobe Illustrator 26.0.1, SVG Export Plug-In . SVG Version: 6.00 Build 0)  -->
<svg version="1.1" id="Laag_1" xmlns="http://www.w3.org/2000/svg" xmlns:xlink="http://www.w3.org/1999/xlink" x="0px" y="0px"
	 viewBox="0 0 595.28 574.89" style="enable-background:new 0 0 595.28 574.89;" xml:space="preserve">
<style type="text/css">
	.st0{fill:#FCF5E1;stroke:#000000;stroke-width:3;stroke-miterlimit:10;}
	.st1{fill:#FFFFFF;stroke:#000000;stroke-width:3;stroke-miterlimit:10;}
	.st2{fill:#FBEA12;stroke:#000000;stroke-width:3;stroke-miterlimit:10;}
	.st3{font-family:'OpenSans';}
	.st4{font-size:112.3376px;}
</style>
<circle class="st0" cx="288.86" cy="294.66" r="268.91"/>
<circle class="st1" cx="288.86" cy="293.61" r="192.44"/>
<path class="st2" d="M288.86,8.43v113.06c13.11-0.49,33.44,0.23,56.68,7.54c58.64,18.44,87.69,63.72,92.84,72.05
	c26.29,42.46,25.47,83.92,24.88,101.44c-0.98,29.31-8.47,52.58-14.38,67.1c32.35,15.01,64.7,30.02,97.05,45.02
	c11.28-22.48,32.45-72.27,29.01-138.07c-0.86-16.53-5.4-74.55-43.81-135.13c-10.31-16.27-35.89-52.95-81.94-84.06
	c-40.79-27.56-78.61-37.89-94.86-41.67C328.23,9.64,305.53,8.32,288.86,8.43z"/>
<text transform="matrix(0.9661 0 0 1 193.7103 317.2287)" class="st3 st4">32%</text>
</svg>
