<?xml version="1.0" encoding="UTF-8"?><svg xmlns="http://www.w3.org/2000/svg" xmlns:xlink="http://www.w3.org/1999/xlink" viewBox="0 0 157.5 109.31"><defs><style>.i{clip-path:url(#h);}.j{isolation:isolate;}.k{fill:#faf0d8;stroke:#231f20;stroke-miterlimit:10;}.l{fill:none;}.m{fill:#231f20;}.n{clip-path:url(#g);}</style><clipPath id="g"><rect class="l" x="106.3" y="37.28" width="39.53" height="51.14"/></clipPath><clipPath id="h"><rect class="l" x="30.58" y="50.25" width="23.74" height="38.24"/></clipPath></defs><g id="a"/><g id="b"><g id="c"><rect class="k" x="32.91" y="88.19" width="117.07" height="20.62"/><g id="d" transform="translate(45.688 282.291)"><g class="j"><path class="m" d="M45.41,102.57l-1.19-3.02h-3.81l-1.16,3.03h-1.12l3.73-9.54h.93l3.76,9.52h-1.14Zm-1.54-4.01l-1.11-2.94c-.14-.37-.29-.83-.45-1.37-.09,.42-.23,.87-.41,1.37l-1.11,2.94h3.07Z"/><path class="m" d="M50.93,96.28h-1.81l.02,6.29h-1.08l-.02-6.28h-1.27v-.48l1.27-.39v-.4c0-1.75,.76-2.63,2.28-2.63,.38,0,.82,.07,1.33,.22l-.28,.87c-.42-.13-.77-.2-1.07-.2-.41,0-.71,.14-.9,.41-.19,.27-.29,.71-.29,1.3v.46h1.81v.83Z"/><path class="m" d="M56.87,100.6c0,.66-.24,1.17-.74,1.53-.49,.36-1.19,.54-2.08,.54-.94,0-1.68-.15-2.21-.44v-1c.34,.17,.71,.31,1.1,.41,.39,.1,.77,.15,1.13,.15,.56,0,1-.09,1.3-.27,.3-.18,.45-.46,.45-.82,0-.28-.12-.51-.36-.71-.24-.2-.71-.43-1.41-.69-.66-.25-1.13-.46-1.41-.64-.28-.18-.49-.39-.62-.63-.14-.23-.21-.51-.21-.84,0-.58,.23-1.04,.7-1.38s1.12-.51,1.94-.51c.77,0,1.52,.15,2.25,.46l-.38,.88c-.71-.29-1.36-.44-1.94-.44-.51,0-.9,.08-1.16,.24-.26,.16-.39,.38-.39,.66,0,.19,.05,.35,.15,.49,.1,.13,.25,.26,.47,.38s.63,.29,1.25,.52c.85,.31,1.42,.61,1.71,.92s.45,.7,.45,1.17Z"/><path class="m" d="M60.96,101.77c.19,0,.38-.01,.55-.04,.18-.03,.32-.06,.42-.09v.83c-.12,.06-.29,.1-.51,.14-.23,.04-.43,.06-.61,.06-1.38,0-2.07-.72-2.07-2.17v-4.23h-1.03v-.52l1.02-.45,.45-1.52h.62v1.65h2.07v.83h-2.06v4.19c.01,.43,.11,.76,.32,.99,.2,.23,.48,.34,.84,.34Z"/><path class="m" d="M64.4,95.41v4.62c.01,.58,.15,1.01,.41,1.3,.27,.28,.68,.43,1.24,.43,.75,0,1.29-.21,1.63-.62,.34-.41,.51-1.07,.51-2v-3.74h1.07l.02,7.11h-.89l-.16-.95h-.06c-.22,.35-.52,.62-.92,.81s-.84,.28-1.34,.28c-.87,0-1.51-.2-1.95-.61s-.65-1.07-.65-1.97v-4.66h1.08Z"/><path class="m" d="M76.45,101.54h-.06c-.5,.73-1.24,1.09-2.23,1.09-.93,0-1.66-.31-2.17-.95-.52-.63-.78-1.54-.78-2.71,0-1.17,.25-2.08,.77-2.74,.52-.65,1.24-.98,2.17-.98,.96,0,1.71,.35,2.22,1.05h.08l-.05-.51-.03-.5v-2.9h1.07l.03,10.1h-.88l-.14-.95Zm-2.16,.19c.74,0,1.27-.2,1.6-.6s.49-1.05,.49-1.94v-.23c0-1.01-.17-1.73-.51-2.16s-.87-.64-1.61-.64c-.63,0-1.12,.25-1.45,.74s-.5,1.19-.5,2.08c0,.91,.17,1.6,.51,2.06,.33,.46,.82,.69,1.47,.69Z"/><path class="m" d="M82.8,102.61c-1.05,0-1.88-.32-2.49-.96-.61-.64-.92-1.53-.92-2.67,0-1.15,.28-2.06,.84-2.74,.56-.68,1.32-1.02,2.27-1.02,.89,0,1.6,.29,2.12,.87,.52,.58,.78,1.36,.79,2.32v.68h-4.9c.02,.85,.24,1.48,.64,1.91,.4,.43,.97,.65,1.69,.65,.77,0,1.52-.16,2.27-.49v.96c-.38,.17-.74,.28-1.08,.36-.34,.07-.75,.11-1.23,.11Zm-.31-6.47c-.57,0-1.03,.19-1.37,.56s-.54,.89-.6,1.55h3.72c0-.69-.15-1.21-.46-1.57-.3-.36-.74-.54-1.3-.54Z"/><path class="m" d="M90.31,102.59c-1.05,0-1.88-.32-2.49-.95-.61-.64-.92-1.53-.92-2.67,0-1.15,.28-2.06,.84-2.74s1.32-1.02,2.27-1.02c.89,0,1.6,.29,2.12,.88,.52,.58,.78,1.36,.79,2.32v.68h-4.9c.02,.85,.24,1.48,.64,1.91,.4,.43,.97,.65,1.69,.65,.77,0,1.52-.16,2.27-.49v.96c-.38,.17-.74,.28-1.08,.36-.34,.07-.75,.11-1.23,.11Zm-.31-6.47c-.57,0-1.03,.19-1.37,.56s-.54,.89-.6,1.55h3.72c0-.69-.15-1.21-.46-1.57-.3-.36-.74-.54-1.3-.54Z"/><path class="m" d="M98.03,95.19c.32,0,.6,.02,.85,.08l-.15,1c-.29-.06-.55-.09-.78-.09-.58,0-1.07,.24-1.48,.71-.41,.47-.61,1.05-.61,1.75v3.82h-1.07l-.02-7.11h.89l.13,1.32h.05c.26-.46,.58-.82,.95-1.08,.37-.25,.78-.38,1.23-.38Z"/><path class="m" d="M103.58,102.56c-.46,0-.89-.08-1.27-.25-.38-.17-.71-.43-.97-.79h-.08c.05,.42,.08,.81,.08,1.18v2.93h-1.07l-.03-10.31h.88l.15,.97h.05c.28-.39,.6-.67,.97-.85,.37-.17,.79-.26,1.27-.26,.94,0,1.67,.32,2.19,.96,.51,.64,.77,1.55,.78,2.71,0,1.17-.25,2.08-.78,2.73-.52,.65-1.24,.97-2.17,.98Zm-.17-6.46c-.73,0-1.25,.2-1.58,.61-.32,.4-.49,1.04-.5,1.92v.24c0,1,.17,1.71,.51,2.14,.33,.43,.87,.65,1.61,.64,.61,0,1.1-.25,1.44-.75,.35-.5,.52-1.19,.52-2.06,0-.89-.18-1.57-.53-2.04-.35-.47-.84-.71-1.47-.71Z"/><path class="m" d="M111.69,95.16c.32,0,.6,.02,.85,.08l-.15,1c-.29-.06-.55-.1-.78-.09-.58,0-1.07,.24-1.48,.71-.41,.47-.61,1.05-.61,1.75v3.82h-1.07l-.02-7.11h.89l.13,1.32h.05c.26-.46,.58-.82,.95-1.07s.78-.38,1.23-.38Z"/><path class="m" d="M120.06,98.82c0,1.16-.29,2.07-.87,2.72-.58,.65-1.39,.98-2.42,.98-.64,0-1.2-.15-1.7-.44-.5-.3-.88-.73-1.15-1.28-.27-.56-.41-1.21-.41-1.96,0-1.16,.28-2.06,.86-2.71,.58-.65,1.38-.97,2.41-.98,1,0,1.79,.33,2.38,.99,.59,.66,.88,1.56,.89,2.69Zm-5.42,.01c0,.91,.19,1.6,.55,2.08,.37,.48,.9,.71,1.61,.71,.71,0,1.24-.24,1.61-.72,.36-.47,.54-1.17,.54-2.08,0-.9-.19-1.59-.55-2.06-.37-.47-.91-.7-1.62-.7-.71,0-1.24,.23-1.6,.7-.36,.46-.54,1.16-.53,2.07Z"/><path class="m" d="M121.15,105.58c-.41,0-.74-.05-1-.16v-.88c.3,.09,.59,.13,.88,.13,.34,0,.59-.09,.74-.28,.16-.18,.24-.46,.23-.84l-.02-8.29h1.08l.02,8.21c0,1.4-.64,2.11-1.94,2.11Zm.74-12.24c0-.25,.06-.43,.18-.54,.12-.11,.27-.17,.45-.17,.17,0,.32,.06,.45,.17,.13,.12,.19,.29,.19,.54,0,.24-.06,.42-.19,.54-.13,.12-.27,.18-.45,.18-.18,0-.33-.06-.46-.18-.12-.12-.18-.3-.18-.54Z"/><path class="m" d="M128.41,102.49c-1.05,0-1.88-.32-2.49-.96-.61-.64-.92-1.53-.92-2.67,0-1.15,.28-2.06,.84-2.74,.56-.68,1.32-1.02,2.27-1.02,.89,0,1.6,.29,2.12,.87,.52,.58,.78,1.36,.79,2.32v.68h-4.9c.02,.85,.24,1.48,.64,1.91,.4,.43,.97,.65,1.69,.65,.77,0,1.52-.16,2.27-.49v.96c-.38,.17-.74,.28-1.08,.36-.34,.07-.75,.11-1.23,.11Zm-.31-6.47c-.57,0-1.03,.19-1.37,.56s-.54,.89-.6,1.55h3.72c0-.69-.15-1.21-.46-1.57-.3-.36-.74-.54-1.3-.54Z"/><path class="m" d="M135.75,102.47c-1.03,0-1.83-.31-2.4-.95-.57-.63-.85-1.53-.85-2.69,0-1.19,.28-2.11,.85-2.76,.57-.65,1.39-.98,2.45-.98,.34,0,.68,.04,1.03,.11,.34,.07,.61,.16,.81,.26l-.33,.92c-.24-.09-.5-.17-.78-.23-.28-.06-.53-.09-.75-.09-1.45,0-2.17,.93-2.16,2.77,0,.88,.18,1.55,.53,2.01,.35,.47,.88,.7,1.57,.7,.59,0,1.2-.13,1.82-.39v.96c-.47,.25-1.07,.37-1.8,.38Z"/><path class="m" d="M141.58,101.57c.19,0,.38-.01,.55-.04,.18-.03,.32-.06,.42-.09v.83c-.12,.06-.29,.1-.51,.14-.23,.04-.43,.06-.61,.06-1.38,0-2.07-.72-2.07-2.17v-4.23h-1.03v-.52l1.02-.45,.45-1.52h.62v1.65h2.07v.83h-2.06v4.19c.01,.43,.11,.76,.32,.99,.2,.23,.48,.34,.84,.34Z"/></g></g><rect class="k" x="-4.83" y="33.77" width="117.07" height="20.62" transform="translate(37.2 -23.41) rotate(36.88)"/><g id="e" transform="translate(45.688 282.291)"><g class="j"><path class="m" d="M15.54,17.34c-.5,.67-1.13,1.01-1.9,1.02s-1.56-.29-2.4-.91c-.9-.67-1.51-1.31-1.82-1.9l.64-.85c.21,.36,.48,.72,.79,1.07,.31,.35,.65,.66,1.01,.93,.59,.44,1.12,.66,1.58,.66,.46,0,.85-.2,1.14-.6,.2-.26,.3-.52,.32-.77,.02-.25-.04-.54-.18-.86-.14-.33-.4-.77-.77-1.33-.52-.78-.8-1.46-.85-2.03-.04-.57,.14-1.14,.56-1.7,.44-.59,1.01-.89,1.71-.91,.7-.02,1.41,.24,2.14,.78,.76,.56,1.35,1.22,1.78,1.97l-.85,.56c-.43-.73-.94-1.32-1.54-1.76-.47-.35-.91-.52-1.32-.52-.41,0-.75,.18-1.02,.54-.2,.26-.31,.52-.34,.76-.03,.24,.02,.52,.15,.83,.13,.31,.36,.73,.71,1.26,.58,.88,.91,1.6,.96,2.15,.06,.55-.11,1.08-.5,1.61Z"/><path class="m" d="M17.78,21.21c.15,.11,.31,.21,.47,.3,.16,.08,.29,.14,.39,.18l-.49,.66c-.13-.03-.29-.09-.5-.2s-.38-.21-.52-.32c-1.1-.82-1.22-1.82-.35-2.98l2.53-3.39-.82-.61,.31-.42,1.08,.25,1.27-.95,.5,.37-.99,1.32,1.65,1.24-.5,.67-1.66-1.24-2.51,3.36c-.26,.34-.37,.67-.35,.97,.03,.31,.18,.56,.47,.78Z"/><path class="m" d="M24.35,18.18l-2.76,3.7c-.35,.46-.5,.89-.46,1.28s.29,.75,.74,1.09c.6,.45,1.16,.61,1.67,.49,.52-.12,1.05-.55,1.61-1.29l2.24-3,.86,.64-4.26,5.7-.71-.53,.45-.86-.05-.03c-.39,.15-.79,.18-1.22,.1-.43-.09-.84-.28-1.24-.58-.69-.52-1.09-1.07-1.19-1.66-.1-.59,.12-1.24,.66-1.97l2.79-3.73,.88,.65Z"/><path class="m" d="M30.31,30.32l-.05-.04c-.83,.28-1.64,.13-2.44-.47-.75-.56-1.14-1.25-1.17-2.07-.04-.82,.3-1.7,1-2.64,.7-.94,1.46-1.51,2.26-1.72,.8-.21,1.58-.04,2.32,.52,.77,.58,1.16,1.3,1.15,2.17l.07,.05,.27-.44,.28-.42,1.73-2.32,.86,.65-6.04,8.1-.7-.53,.46-.85Zm-1.84-1.14c.59,.44,1.14,.6,1.64,.48,.51-.12,1.02-.54,1.56-1.26l.13-.18c.6-.81,.9-1.48,.89-2.03-.01-.54-.31-1.04-.9-1.48-.51-.38-1.04-.47-1.6-.28s-1.11,.65-1.65,1.37c-.54,.73-.82,1.38-.83,1.95s.24,1.05,.76,1.43Z"/><path class="m" d="M34.75,34.99c-.84-.63-1.32-1.38-1.42-2.26-.11-.88,.18-1.77,.87-2.68,.69-.92,1.46-1.48,2.31-1.69,.86-.2,1.67-.02,2.43,.55,.71,.53,1.11,1.19,1.17,1.97,.07,.78-.19,1.56-.76,2.33l-.41,.55-3.93-2.93c-.48,.68-.69,1.32-.63,1.9,.06,.59,.38,1.1,.97,1.53,.61,.46,1.32,.78,2.11,.97l-.57,.77c-.4-.1-.76-.22-1.08-.36s-.67-.36-1.05-.65Zm3.64-5.36c-.46-.34-.93-.46-1.43-.37-.5,.09-.96,.39-1.41,.88l2.98,2.23c.41-.54,.6-1.05,.57-1.52-.03-.47-.27-.88-.72-1.21Z"/><path class="m" d="M40.76,39.48c-.84-.63-1.32-1.38-1.42-2.26-.11-.88,.18-1.77,.87-2.69,.69-.92,1.46-1.48,2.31-1.68,.86-.21,1.67-.02,2.43,.55,.71,.53,1.11,1.19,1.17,1.97,.07,.78-.19,1.56-.76,2.33l-.41,.55-3.93-2.93c-.48,.68-.69,1.32-.63,1.9,.06,.59,.38,1.1,.97,1.53,.61,.46,1.32,.78,2.11,.97l-.58,.77c-.4-.1-.76-.22-1.08-.36-.31-.15-.66-.36-1.05-.65Zm3.64-5.36c-.46-.34-.93-.46-1.43-.37-.5,.09-.96,.39-1.41,.88l2.98,2.23c.41-.54,.6-1.05,.57-1.52-.03-.47-.26-.88-.72-1.21Z"/><path class="m" d="M51.38,38.19c.25,.19,.47,.38,.64,.57l-.72,.71c-.2-.23-.39-.41-.57-.54-.46-.34-1-.45-1.6-.32-.61,.13-1.12,.47-1.54,1.03l-2.28,3.06-.86-.64,4.26-5.7,.71,.53-.69,1.13,.04,.03c.49-.21,.96-.31,1.41-.29s.85,.17,1.21,.43Z"/><path class="m" d="M55.8,41.52c.75,.56,1.14,1.25,1.17,2.07,.03,.82-.3,1.7-1,2.64s-1.45,1.51-2.26,1.72c-.81,.21-1.58,.03-2.32-.52-.37-.28-.66-.6-.86-.97-.2-.37-.31-.77-.3-1.21l-.06-.05-.73,.6-.62-.46,6.04-8.1,.86,.64-1.47,1.97c-.33,.44-.64,.83-.93,1.15l.04,.03c.83-.27,1.64-.11,2.43,.48Zm-.66,.63c-.59-.44-1.14-.59-1.65-.44-.51,.14-1.07,.62-1.67,1.42-.6,.8-.89,1.47-.88,2.02,0,.54,.31,1.04,.9,1.48,.53,.4,1.07,.5,1.62,.3,.55-.19,1.09-.65,1.63-1.38,.55-.74,.84-1.39,.85-1.95,.01-.56-.25-1.04-.8-1.45Z"/><path class="m" d="M58.89,52.85l.43-.94-.04-.03c-.55,.14-1.02,.17-1.39,.09-.38-.08-.78-.28-1.2-.6-.57-.42-.9-.9-1-1.43-.1-.53,.05-1.07,.45-1.6,.86-1.15,2.23-1.07,4.12,.25l.99,.69,.26-.35c.33-.45,.48-.85,.45-1.21s-.26-.69-.69-1.01c-.47-.35-1.12-.61-1.94-.77l.23-.86c.39,.06,.79,.17,1.19,.33,.4,.16,.77,.37,1.1,.62,.68,.51,1.07,1.04,1.17,1.58,.1,.55-.09,1.15-.59,1.82l-2.91,3.89-.64-.48Zm-1.5-2.07c.54,.4,1.07,.57,1.6,.5,.53-.07,.99-.37,1.39-.9l.38-.51-.89-.61c-.71-.49-1.28-.75-1.72-.79-.45-.04-.82,.14-1.11,.54-.23,.31-.32,.62-.25,.92,.07,.3,.27,.58,.61,.84Z"/><path class="m" d="M64.85,57.3l.43-.94-.04-.03c-.55,.14-1.01,.17-1.39,.09-.38-.08-.78-.28-1.2-.6-.57-.42-.9-.9-1-1.43-.1-.53,.04-1.07,.45-1.6,.86-1.15,2.23-1.07,4.11,.25l.99,.69,.26-.35c.33-.45,.48-.85,.45-1.21-.03-.36-.26-.69-.69-1.01-.47-.35-1.12-.61-1.94-.77l.23-.86c.39,.06,.79,.17,1.19,.33,.4,.16,.77,.37,1.1,.62,.68,.51,1.07,1.04,1.17,1.58,.1,.55-.1,1.15-.59,1.82l-2.91,3.89-.64-.48Zm-1.5-2.07c.54,.4,1.07,.57,1.6,.5,.53-.07,.99-.36,1.39-.89l.38-.52-.89-.61c-.7-.49-1.28-.75-1.72-.79-.45-.04-.82,.14-1.11,.54-.23,.31-.32,.62-.25,.92,.07,.3,.27,.58,.61,.84Z"/><path class="m" d="M74.24,55.26c.25,.19,.46,.38,.63,.57l-.72,.71c-.2-.23-.39-.41-.57-.54-.46-.34-1-.45-1.6-.32-.61,.13-1.12,.47-1.54,1.03l-2.28,3.06-.86-.64,4.26-5.7,.71,.53-.69,1.13,.04,.03c.49-.21,.96-.31,1.41-.29,.45,.02,.85,.17,1.21,.43Z"/><path class="m" d="M75.59,65.31l2.75-3.69c.35-.46,.5-.89,.46-1.28s-.29-.75-.74-1.09c-.6-.45-1.16-.61-1.68-.49-.52,.12-1.06,.55-1.61,1.29l-2.23,2.98-.86-.64,6.04-8.1,.86,.64-1.83,2.45c-.22,.29-.42,.53-.59,.7l.05,.04c.38-.15,.78-.18,1.21-.11,.43,.08,.85,.27,1.25,.57,.7,.52,1.1,1.08,1.2,1.67,.1,.59-.12,1.25-.66,1.97l-2.78,3.72-.86-.65Z"/><path class="m" d="M80.6,69.21c-.84-.63-1.32-1.38-1.42-2.26-.1-.88,.18-1.77,.87-2.68,.69-.92,1.46-1.48,2.32-1.68,.86-.2,1.67-.02,2.43,.55,.71,.53,1.1,1.19,1.17,1.97,.07,.78-.19,1.56-.76,2.33l-.41,.55-3.93-2.93c-.48,.68-.69,1.32-.63,1.9,.06,.59,.38,1.1,.97,1.53,.62,.46,1.32,.78,2.11,.97l-.57,.77c-.4-.1-.76-.22-1.08-.36-.32-.15-.67-.36-1.05-.65Zm3.64-5.36c-.46-.34-.94-.46-1.43-.37-.5,.09-.96,.39-1.41,.88l2.98,2.23c.41-.54,.6-1.05,.57-1.52-.03-.47-.27-.88-.72-1.21Z"/><path class="m" d="M85.14,72.44l-.86-.64,4.26-5.7,.86,.64-4.26,5.7Zm4.47-7.95c.15-.2,.3-.31,.47-.33,.17-.02,.32,.03,.47,.13,.14,.1,.22,.24,.25,.41,.03,.17-.03,.35-.17,.54-.14,.19-.3,.3-.47,.32s-.33-.02-.47-.12c-.14-.11-.23-.25-.26-.42s.03-.35,.18-.54Z"/><path class="m" d="M91.46,75.96l-.05-.04c-.83,.28-1.64,.13-2.44-.47-.75-.56-1.14-1.25-1.17-2.07s.3-1.7,1-2.64c.7-.94,1.46-1.51,2.26-1.72,.8-.21,1.58-.04,2.32,.52,.77,.58,1.16,1.3,1.15,2.17l.07,.05,.27-.44,.28-.42,1.73-2.32,.86,.65-6.04,8.1-.7-.53,.46-.85Zm-1.84-1.14c.59,.44,1.14,.6,1.64,.48s1.02-.54,1.56-1.26l.13-.18c.6-.81,.9-1.48,.89-2.03-.01-.54-.31-1.04-.9-1.48-.51-.38-1.04-.47-1.6-.28s-1.11,.65-1.65,1.37c-.54,.73-.82,1.38-.83,1.95s.24,1.05,.76,1.43Z"/></g></g><rect class="k" x="78.01" y="18.31" width="78.09" height="20.62" transform="translate(-1.26 51.46) rotate(-24.66)"/><g id="f" transform="translate(45.688 282.291)"><g class="j"><path class="m" d="M90.2,45.4l-1,.46-3.98-8.62,4.8-2.22,.41,.89-3.8,1.76,1.46,3.15,3.57-1.65,.41,.89-3.57,1.65,1.7,3.68Z"/><path class="m" d="M96.29,42.59l-.98,.45-4.24-9.17,.98-.45,4.24,9.17Z"/><path class="m" d="M101.19,40.47c-.96,.44-1.84,.5-2.66,.17-.82-.33-1.47-1.01-1.95-2.04-.48-1.04-.61-1.99-.38-2.84,.23-.85,.78-1.48,1.64-1.87,.81-.37,1.57-.4,2.29-.09,.72,.31,1.28,.91,1.68,1.78l.29,.62-4.45,2.06c.37,.75,.83,1.24,1.37,1.46,.54,.22,1.15,.19,1.81-.12,.7-.32,1.32-.78,1.86-1.39l.4,.87c-.28,.31-.56,.57-.83,.77-.28,.21-.64,.41-1.07,.61Zm-2.98-5.75c-.52,.24-.85,.6-1.01,1.08s-.12,1.03,.1,1.66l3.38-1.56c-.29-.62-.64-1.03-1.07-1.23-.43-.2-.89-.18-1.41,.05Z"/><path class="m" d="M105.24,34.44l-3.7-2.11,1.11-.51,2.85,1.69,.55-3.26,1.1-.51-.79,4.19,3.89,2.21-1.11,.51-3.02-1.78-.62,3.46-1.11,.51,.83-4.4Z"/><path class="m" d="M107.7,27.35c-.1-.22-.12-.41-.06-.57,.06-.15,.18-.27,.34-.35,.16-.07,.32-.08,.48-.03,.16,.05,.29,.19,.4,.41,.1,.22,.12,.41,.06,.57-.07,.16-.17,.28-.33,.35-.16,.08-.33,.09-.49,.03-.16-.06-.29-.2-.39-.42Zm4.86,7.72l-.98,.45-2.99-6.46,.98-.45,2.99,6.46Z"/><path class="m" d="M114.63,26.14c.85-.39,1.64-.41,2.38-.04,.74,.36,1.35,1.07,1.84,2.13s.63,2,.43,2.8c-.2,.81-.72,1.4-1.56,1.79-.42,.19-.84,.29-1.26,.3-.42,0-.82-.1-1.21-.31l-.07,.03,.18,.93-.7,.32-4.24-9.17,.98-.45,1.03,2.23c.23,.5,.42,.96,.57,1.37l.05-.02c.16-.86,.68-1.49,1.58-1.9Zm.24,.88c-.67,.31-1.06,.72-1.18,1.24-.12,.52,.03,1.23,.45,2.14,.42,.91,.87,1.49,1.35,1.74,.48,.25,1.06,.22,1.73-.09,.6-.28,.95-.7,1.04-1.28,.09-.57-.05-1.27-.43-2.09-.39-.84-.83-1.4-1.31-1.68-.49-.28-1.04-.27-1.65,.01Z"/><path class="m" d="M118.22,22.48c-.1-.22-.12-.41-.06-.57,.06-.15,.18-.27,.34-.35,.16-.07,.32-.08,.48-.03,.16,.05,.29,.19,.4,.41,.1,.22,.12,.41,.06,.57-.06,.16-.17,.28-.33,.35-.16,.08-.33,.09-.49,.03-.16-.06-.29-.2-.39-.42Zm4.86,7.72l-.98,.45-2.99-6.46,.98-.45,2.99,6.46Z"/><path class="m" d="M126.16,28.78l-.98,.45-4.24-9.17,.98-.45,4.24,9.17Z"/><path class="m" d="M124.4,19.63c-.1-.22-.12-.41-.06-.57,.06-.15,.18-.27,.34-.35,.16-.07,.32-.08,.48-.03,.16,.05,.29,.19,.4,.41,.1,.22,.12,.41,.06,.57-.06,.16-.17,.28-.33,.35-.16,.08-.33,.09-.49,.03-.16-.06-.29-.2-.39-.42Zm4.86,7.72l-.98,.45-2.99-6.46,.98-.45,2.99,6.46Z"/><path class="m" d="M133.13,24.72c.17-.08,.33-.17,.48-.27,.15-.1,.26-.19,.35-.26l.35,.75c-.08,.1-.22,.21-.41,.34-.19,.13-.37,.23-.53,.31-1.25,.58-2.18,.21-2.79-1.11l-1.78-3.84-.93,.43-.22-.47,.74-.83-.22-1.57,.57-.26,.69,1.5,1.88-.87,.35,.76-1.87,.87,1.76,3.8c.18,.39,.41,.64,.69,.77s.58,.11,.9-.04Z"/><path class="m" d="M138.45,23.24c-.96,.44-1.84,.5-2.66,.17-.82-.33-1.47-1.01-1.95-2.04-.48-1.04-.61-1.99-.38-2.84,.23-.85,.78-1.47,1.64-1.87,.81-.37,1.57-.4,2.29-.09,.72,.31,1.28,.91,1.68,1.78l.29,.62-4.45,2.06c.37,.75,.83,1.24,1.37,1.46,.54,.22,1.15,.19,1.81-.12,.7-.32,1.32-.79,1.86-1.39l.4,.87c-.28,.31-.55,.57-.83,.77-.28,.21-.64,.41-1.07,.61Zm-2.98-5.75c-.52,.24-.85,.6-1.01,1.08-.15,.48-.12,1.03,.1,1.66l3.38-1.56c-.29-.62-.64-1.03-1.07-1.23-.43-.2-.89-.18-1.41,.05Z"/><path class="m" d="M138.59,13.06c-.1-.22-.12-.41-.06-.57,.06-.16,.18-.27,.34-.35,.16-.07,.32-.08,.48-.03,.16,.05,.3,.19,.4,.41,.1,.22,.12,.41,.06,.57s-.17,.28-.33,.35c-.17,.08-.33,.09-.49,.03-.16-.06-.29-.2-.39-.42Zm4.86,7.72l-.98,.45-2.99-6.46,.98-.45,2.99,6.46Z"/><path class="m" d="M147.33,18.16c.17-.08,.33-.17,.48-.27,.15-.1,.26-.19,.35-.26l.35,.75c-.08,.1-.22,.21-.41,.34-.19,.13-.37,.23-.53,.31-1.25,.58-2.18,.21-2.79-1.11l-1.78-3.84-.93,.43-.22-.47,.74-.83-.22-1.57,.57-.26,.69,1.5,1.88-.87,.35,.76-1.88,.87,1.76,3.8c.18,.39,.41,.64,.69,.77s.58,.11,.9-.04Z"/></g></g><g><path d="M128.69,65.23c.81,.72,1.82,1.11,2.9,1.11,.17,0,.34,0,.51-.03,1.97-.22,3.57-1.81,3.82-3.77,.02-.18,.02-.46,.02-.67,0-.18-.15-.33-.34-.33l-8.03,.03c-.18,0-.33,.14-.33,.32,0,.03,0,.06,0,.09,0,1.24,.53,2.42,1.45,3.25h0Z"/><path d="M116.98,61.57c-.18,0-.33,.14-.33,.32,0,.03,0,.06,0,.09,0,1.24,.53,2.42,1.45,3.25,.81,.72,1.82,1.11,2.9,1.11,.17,0,.34,0,.51-.03,1.97-.22,3.57-1.81,3.82-3.77,.02-.18,.02-.46,.02-.67,0-.18-.15-.33-.34-.33l-8.03,.03h0Z"/><path d="M112.47,50.82c.06-.42-.23-.82-.65-.88-.42-.06-.82,.23-.88,.65-.06,.42,.23,.82,.65,.88,.42,.06,.82-.23,.88-.65h0Z"/><path d="M114.42,53.47c.06-.42-.23-.82-.65-.88-.42-.06-.82,.23-.88,.65-.06,.42,.23,.82,.65,.88,.42,.06,.82-.23,.88-.65h0Z"/><path d="M114.24,49.52c.42,.06,.82-.23,.88-.65,.06-.42-.23-.82-.65-.88-.42-.06-.82,.23-.88,.65-.06,.42,.23,.82,.65,.88h0Z"/><path d="M114.93,44.92c.42,.06,.82-.23,.88-.65,.06-.42-.23-.82-.65-.88-.42-.06-.82,.23-.88,.65-.06,.42,.23,.82,.65,.88h0Z"/><path d="M115.73,55.23c-.42-.06-.82,.23-.88,.65-.06,.42,.23,.82,.65,.88,.42,.06,.82-.23,.88-.65,.06-.42-.23-.82-.65-.88h0Z"/><path d="M116.42,50.63c-.42-.06-.82,.23-.88,.65-.06,.42,.23,.82,.65,.88,.42,.06,.82-.23,.88-.65,.06-.42-.23-.82-.65-.88h0Z"/><path d="M116.88,47.57c.42,.06,.82-.23,.88-.65,.06-.42-.23-.82-.65-.88-.42-.06-.82,.23-.88,.65-.06,.42,.23,.82,.65,.88h0Z"/><path d="M117.58,42.97c.42,.06,.82-.23,.88-.65,.06-.42-.23-.82-.65-.88-.42-.06-.82,.23-.88,.65-.06,.42,.23,.82,.65,.88h0Z"/><path d="M119.44,56.58c-.06,.42,.23,.82,.65,.88,.42,.06,.82-.23,.88-.65,.06-.42-.23-.82-.65-.88-.42-.06-.82,.23-.88,.65h0Z"/><path d="M122.18,43.66c.42,.06,.82-.23,.88-.65,.06-.42-.23-.82-.65-.88-.42-.06-.82,.23-.88,.65-.06,.42,.23,.82,.65,.88h0Z"/><path d="M116.8,58.53c-.06,.42,.23,.82,.65,.88,.42,.06,.82-.23,.88-.65,.06-.42-.23-.82-.65-.88-.42-.06-.82,.23-.88,.65h0Z"/><path d="M111.05,54.74c-.42-.06-.82,.23-.88,.65-.06,.42,.23,.82,.65,.88,.42,.06,.82-.23,.88-.65,.06-.42-.23-.82-.65-.88h0Z"/><path d="M113,57.39c-.42-.06-.82,.23-.88,.65-.06,.42,.23,.82,.65,.88,.42,.06,.82-.23,.88-.65,.06-.42-.23-.82-.65-.88h0Z"/><path d="M115.6,60.92c.06-.42-.23-.82-.65-.88-.42-.06-.82,.23-.88,.65-.06,.42,.23,.82,.65,.88,.42,.06,.82-.23,.88-.65h0Z"/><path d="M117.49,53.93c-.06,.42,.23,.82,.65,.88,.42,.06,.82-.23,.88-.65,.06-.42-.23-.82-.65-.88-.42-.06-.82,.23-.88,.65h0Z"/><path d="M118.84,50.21c.42,.06,.82-.23,.88-.65,.06-.42-.23-.82-.65-.88-.42-.06-.82,.23-.88,.65-.06,.42,.23,.82,.65,.88h0Z"/><path d="M119.53,45.61c.42,.06,.82-.23,.88-.65,.06-.42-.23-.82-.65-.88-.42-.06-.82,.23-.88,.65-.06,.42,.23,.82,.65,.88h0Z"/><g class="n"><path d="M124.82,41.71c.42,.06,.82-.23,.88-.65,.06-.42-.23-.82-.65-.88-.42-.06-.82,.23-.88,.65-.06,.42,.23,.82,.65,.88h0Z"/><path d="M140.36,86.95c-1.76,.76-3.82,.36-5.52-1.08-2.54-2.14-3.84-6.79-3.31-11.68h4.44c-.24,4.94,.46,7.59,2.18,8.33,1.52,.65,3.65-.38,6.47-3.17-.49,3.89-2,6.62-4.25,7.59h0Zm-28.59,0c-2.25-.97-3.76-3.7-4.25-7.59,2.82,2.78,4.94,3.82,6.47,3.17,1.72-.74,2.42-3.39,2.18-8.33h4.44c.53,4.89-.78,9.54-3.31,11.68-1.7,1.44-3.77,1.84-5.52,1.08h0Zm1.88-20.72s.06,.02,.1,.03c.42,.06,.82-.23,.88-.65,.06-.42-.23-.82-.65-.88-.42-.06-.82,.23-.88,.65,0,.05,0,.09,0,.14-.45-.61-.86-1.24-1.22-1.9,.39,.02,.75-.26,.81-.65,.06-.42-.23-.82-.65-.88-.3-.05-.59,.09-.76,.33-.24-.52-.44-1.05-.63-1.59,.16-.12,.27-.29,.3-.5,.06-.42-.23-.82-.65-.88-.02,0-.04,0-.06,0-.33-1.34-.51-2.73-.51-4.14,0-3.11,.82-6.02,2.25-8.52,.09,.05,.18,.09,.29,.11,.42,.06,.82-.23,.88-.65,.05-.31-.1-.6-.34-.76,1.75-2.51,4.15-4.51,6.95-5.74-.1,.11-.17,.25-.2,.41-.06,.42,.23,.82,.65,.88,.42,.06,.82-.23,.88-.65,.06-.42-.23-.82-.65-.88-.03,0-.06,0-.09,0,.67-.26,1.35-.48,2.06-.65,.11,.12,.27,.21,.44,.23,.37,.06,.72-.16,.84-.5,.82-.13,1.65-.2,2.51-.2,9.09,0,16.48,7.59,16.48,16.92,0,4.7-1.93,9.23-5.3,12.43-.11,.1-.17,.25-.17,.4v4.31c0,.38-.31,.68-.68,.68h-20.65c-.38,0-.68-.31-.68-.68v-4.25c.02-.17-.04-.33-.17-.45-.49-.47-.95-.97-1.38-1.49h0Zm31.84,11.14c-.21-.09-.46-.04-.61,.13-2.32,2.5-3.89,3.58-4.94,3.96,.26-1.09,.43-2.29,.5-3.58,0-.05-.02-.09-.07-.11-.04-.02-.09,0-.12,.03-.96,1.03-1.85,1.88-2.66,2.54-.63-1.57-.64-4.28-.54-6.22,.72-.22,1.25-.9,1.25-1.7v-4.07c3.48-3.39,5.47-8.14,5.47-13.06,0-9.93-7.88-18.01-17.57-18.01s-17.57,8.08-17.57,18.01c0,4.92,1.99,9.66,5.47,13.05v4.08c0,.68,.39,1.27,.95,1.57,.1,1.95,.11,4.74-.54,6.35-.81-.66-1.7-1.51-2.66-2.54-.03-.03-.08-.04-.12-.03-.04,.02-.07,.06-.07,.11,.07,1.29,.24,2.49,.5,3.58-1.05-.38-2.62-1.46-4.94-3.96-.16-.17-.4-.22-.61-.13-.21,.09-.34,.3-.33,.53,.38,7.01,3.32,9.31,5.04,10.05,.73,.31,1.49,.47,2.27,.47,1.02,0,2.06-.27,3.04-.8,.61,.23,1.25,.35,1.9,.35,1.41,0,2.86-.55,4.12-1.6,1.72-1.45,2.91-3.96,3.4-6.91,.49,2.95,1.69,5.46,3.4,6.91,1.25,1.06,2.7,1.6,4.12,1.6,.65,0,1.29-.12,1.89-.35,.98,.53,2.02,.8,3.04,.8,.77,0,1.54-.15,2.27-.47,1.72-.74,4.66-3.04,5.04-10.05,.01-.23-.12-.44-.33-.53h0Z"/></g></g><g><path d="M35.66,76.19c-.33,0-.6,.27-.6,.6s.27,.6,.6,.6,.6-.27,.6-.6-.27-.6-.6-.6h0Z"/><path d="M33.86,74.39c-.33,0-.6,.27-.6,.6s.27,.6,.6,.6,.6-.27,.6-.6-.27-.6-.6-.6h0Z"/><path d="M37.46,77.99c-.33,0-.6,.27-.6,.6s.27,.6,.6,.6,.6-.27,.6-.6-.27-.6-.6-.6h0Z"/><path d="M35.66,79.79c-.33,0-.6,.27-.6,.6s.27,.6,.6,.6,.6-.27,.6-.6-.27-.6-.6-.6h0Z"/><g class="i"><path d="M39.26,79.79c-.33,0-.6,.27-.6,.6s.27,.6,.6,.6,.6-.27,.6-.6-.27-.6-.6-.6h0Z"/><path d="M50.04,82.3h-8.4s.01-.08,.01-.12c0-.33-.27-.6-.6-.6s-.6,.27-.6,.6c0,.04,0,.08,.01,.12h-2.42s.01-.08,.01-.12c0-.33-.27-.6-.6-.6s-.6,.27-.6,.6c0,.04,0,.08,.01,.12h-2.02l-1-3.12h0c.33,0,.6-.27,.6-.6s-.27-.6-.6-.6c-.13,0-.26,.05-.36,.12l-1.39-4.32c.31-.03,.55-.28,.55-.59,0-.33-.27-.6-.6-.6-.11,0-.21,.03-.3,.08l-.3-.95c.11-.21,.41-.71,.72-1.22,1.03-1.72,2.96-4.93,4.51-8.38,1.65-3.68,3.16-10.09,3.33-10.83,.08-.12,.21-.2,.36-.2h1.66v15.22c-1.33,.2-2.35,1.35-2.35,2.74,0,1.53,1.25,2.78,2.78,2.78s2.78-1.25,2.78-2.78c0-1.39-1.02-2.54-2.35-2.74v-15.22h1.66c.15,0,.28,.07,.36,.2,.17,.73,1.68,7.15,3.33,10.83,1.55,3.45,3.47,6.66,4.51,8.38,.31,.52,.61,1.01,.72,1.23l-3.4,10.58h0Zm1.54,5.34h-18.27v-4.5h18.27v4.5h0Zm1.87-17.58c-1.02-1.71-2.93-4.89-4.46-8.3-1.68-3.74-3.28-10.66-3.29-10.73v-.05l-.03-.05c-.22-.43-.65-.7-1.14-.7h-4.16c-.48,0-.92,.27-1.14,.7l-.02,.05v.05c-.03,.07-1.62,6.98-3.31,10.73-1.53,3.4-3.44,6.59-4.46,8.3-.86,1.44-.91,1.52-.85,1.76l3.37,10.48h-.75c-.41,0-.75,.34-.75,.75v4.68c0,.41,.34,.75,.75,.75h18.46c.41,0,.75-.34,.75-.75v-4.68c0-.41-.34-.75-.75-.75h-.75l3.36-10.46v-.02c.07-.24,.02-.33-.84-1.76h0Z"/></g></g></g></g></svg>