<?xml version="1.0" encoding="UTF-8"?><svg xmlns="http://www.w3.org/2000/svg" xmlns:xlink="http://www.w3.org/1999/xlink" viewBox="0 0 134.4 108.13"><defs><style>.g{isolation:isolate;}.h{clip-path:url(#e);}.i{fill:#faf0d8;stroke:#231f20;stroke-miterlimit:10;}.j{fill:none;}.k{clip-path:url(#f);}.l{fill:#231f20;}</style><clipPath id="e"><rect class="j" x="18.49" y="23.89" width="27.74" height="15.35" transform="translate(-7.34 9.95) rotate(-15.72)"/></clipPath><clipPath id="f"><rect class="j" x="102.82" y="54.76" width="31.59" height="53.12"/></clipPath></defs><g id="a"/><g id="b"><g id="c"><rect class="i" x="1.92" y="77.12" width="79.12" height="20.56" transform="translate(23.89 -7.73) rotate(14.91)"/><g id="d" transform="translate(45.688 282.291)"><g class="g"><path class="l" d="M16.82,79.98c-.39,1.47-1.07,2.52-2.04,3.17-.97,.64-2.11,.79-3.43,.44-1.35-.36-2.28-1.05-2.8-2.07-.51-1.02-.57-2.29-.17-3.79,.4-1.49,1.07-2.55,2.03-3.18,.95-.63,2.11-.76,3.47-.4,1.32,.35,2.24,1.04,2.75,2.08,.52,1.03,.58,2.29,.19,3.76Zm-7.31-1.95c-.33,1.24-.32,2.26,.04,3.04,.36,.78,1.04,1.31,2.05,1.58,1.02,.27,1.87,.16,2.56-.35,.69-.5,1.2-1.38,1.53-2.62,.33-1.23,.32-2.24-.03-3.02-.35-.77-1.03-1.3-2.04-1.57-1.02-.27-1.88-.16-2.58,.35-.7,.5-1.21,1.36-1.54,2.59Z"/><path class="l" d="M22.23,86.34l1.18-4.45c.15-.56,.13-1.01-.05-1.36-.18-.34-.54-.59-1.09-.73-.72-.19-1.3-.14-1.74,.16-.44,.3-.78,.9-1.01,1.79l-.96,3.61-1.04-.28,1.83-6.88,.85,.23-.08,.99h.05c.3-.27,.67-.45,1.11-.54,.43-.08,.89-.06,1.36,.06,.83,.22,1.4,.59,1.71,1.1,.31,.51,.35,1.21,.12,2.08l-1.2,4.49-1.04-.28Z"/><path class="l" d="M27.87,87.06c.18,.05,.37,.08,.54,.1,.18,.02,.32,.03,.43,.02l-.21,.8c-.13,.02-.31,.02-.54,0-.23-.02-.43-.06-.61-.1-1.33-.35-1.81-1.23-1.44-2.63l1.09-4.09-.98-.26,.13-.5,1.1-.17,.83-1.35,.6,.16-.42,1.59,2,.53-.22,.81-2-.53-1.08,4.05c-.11,.41-.1,.76,.04,1.03,.14,.27,.38,.46,.72,.55Z"/><path class="l" d="M35.64,89.92l-.19-4.37c-.01-.27-.01-.87,0-1.8h-.05c-.36,.67-.66,1.2-.89,1.56l-2.37,3.68-1.21-.32-.04-7.38,1.09,.29c-.02,1.85-.03,3.25-.04,4.22,0,.96-.04,1.61-.09,1.93h.05c.11-.21,.26-.5,.47-.85,.2-.35,.37-.63,.51-.83l2.31-3.61,1.13,.3,.18,4.28c.04,.78,.04,1.43,0,1.94h.05c.06-.13,.16-.35,.32-.65,.16-.29,1.04-1.87,2.66-4.72l1.08,.29-3.73,6.37-1.24-.33Z"/><path class="l" d="M42.93,91.99c-1.02-.27-1.74-.79-2.16-1.57-.42-.78-.49-1.71-.2-2.81,.3-1.11,.8-1.92,1.52-2.42,.72-.51,1.54-.64,2.46-.39,.86,.23,1.47,.69,1.82,1.4,.35,.7,.4,1.52,.16,2.44l-.18,.66-4.74-1.26c-.19,.81-.15,1.48,.12,2,.28,.52,.76,.88,1.47,1.06,.74,.2,1.51,.24,2.32,.12l-.25,.93c-.41,.06-.79,.08-1.14,.06-.35-.02-.75-.09-1.22-.21Zm1.38-6.33c-.55-.15-1.04-.08-1.46,.19-.42,.27-.75,.72-.98,1.34l3.6,.96c.17-.66,.16-1.2-.04-1.63-.2-.43-.57-.71-1.12-.86Z"/><path class="l" d="M52.31,86.86c.31,.08,.57,.18,.8,.29l-.4,.93c-.27-.14-.51-.24-.73-.29-.56-.15-1.09-.05-1.61,.3-.52,.35-.86,.86-1.04,1.53l-.98,3.69-1.04-.28,1.83-6.88,.86,.23-.22,1.31h.05c.37-.37,.77-.63,1.2-.78,.42-.15,.85-.16,1.28-.05Z"/><path class="l" d="M55.76,95.41c-.45-.12-.83-.31-1.16-.57-.33-.26-.57-.6-.73-1.01l-.08-.02c-.06,.42-.13,.8-.23,1.16l-.75,2.83-1.04-.28,2.66-9.97,.85,.23-.11,.98h.05c.37-.29,.75-.48,1.15-.55,.4-.07,.83-.05,1.29,.08,.91,.24,1.53,.74,1.86,1.5,.33,.75,.34,1.7,.04,2.82-.3,1.13-.79,1.94-1.46,2.43-.67,.49-1.45,.62-2.35,.38Zm1.51-6.28c-.7-.19-1.26-.13-1.68,.18s-.74,.88-.98,1.73l-.06,.23c-.26,.97-.28,1.7-.07,2.2,.21,.5,.67,.85,1.38,1.04,.59,.16,1.12,.04,1.59-.35,.46-.39,.81-1.01,1.04-1.85,.23-.86,.23-1.56,.02-2.11-.21-.55-.63-.9-1.24-1.07Z"/><path class="l" d="M63.38,97.44c-1.02-.27-1.74-.79-2.16-1.57-.42-.78-.49-1.71-.2-2.81,.29-1.11,.8-1.92,1.52-2.42,.72-.51,1.54-.64,2.46-.39,.86,.23,1.47,.7,1.82,1.4s.4,1.52,.16,2.44l-.18,.66-4.74-1.26c-.19,.81-.15,1.48,.12,2,.28,.52,.76,.88,1.47,1.06,.74,.2,1.52,.24,2.32,.12l-.25,.93c-.41,.06-.79,.08-1.14,.06-.35-.02-.75-.09-1.22-.21Zm1.38-6.33c-.55-.15-1.04-.08-1.46,.19-.42,.27-.75,.72-.98,1.34l3.6,.96c.18-.66,.16-1.2-.04-1.63-.2-.43-.57-.71-1.12-.86Z"/><path class="l" d="M72.46,99.73l1.18-4.45c.15-.56,.13-1.01-.05-1.36s-.54-.59-1.09-.73c-.72-.19-1.3-.14-1.74,.16-.44,.3-.78,.9-1.01,1.79l-.96,3.61-1.04-.28,1.83-6.88,.85,.23-.08,.99h.05c.3-.27,.67-.45,1.11-.54,.43-.08,.89-.06,1.36,.06,.83,.22,1.4,.59,1.71,1.1,.31,.51,.35,1.21,.12,2.08l-1.19,4.49-1.04-.28Z"/></g></g><rect class="i" x="49.32" y="42.51" width="82.18" height="20.56" transform="translate(-13.99 44.96) rotate(-25.99)"/><g class="g"><path class="l" d="M60.92,60.87l1.07-.52,1.08,10.03-.98,.48-7.22-7.04,1.05-.51,4.65,4.57c.53,.52,1.01,1.05,1.44,1.59-.17-.7-.29-1.42-.37-2.15l-.72-6.44Z"/><path class="l" d="M71.17,62.46c.51,1.04,.64,1.99,.4,2.83-.24,.84-.82,1.49-1.75,1.94-.57,.28-1.15,.39-1.72,.34-.57-.05-1.11-.27-1.59-.66-.49-.38-.89-.91-1.22-1.59-.51-1.04-.64-1.98-.41-2.82,.24-.84,.82-1.48,1.75-1.93,.9-.44,1.75-.49,2.57-.15,.82,.34,1.47,1.01,1.97,2.03Zm-4.88,2.38c.4,.82,.87,1.36,1.4,1.63,.54,.27,1.12,.25,1.75-.06s1.01-.76,1.13-1.34c.12-.59-.02-1.29-.42-2.11-.4-.81-.86-1.35-1.4-1.61-.53-.26-1.12-.24-1.76,.08-.63,.31-1.01,.75-1.13,1.33-.12,.57,.02,1.27,.42,2.1Z"/><path class="l" d="M74.21,56.89c.28-.14,.55-.24,.8-.3l.3,.96c-.29,.07-.54,.16-.74,.25-.52,.25-.86,.68-1.02,1.28-.16,.6-.09,1.21,.21,1.84l1.67,3.43-.97,.47-3.12-6.4,.8-.39,.69,1.13,.05-.02c.03-.53,.16-.99,.39-1.38,.22-.39,.54-.68,.94-.88Z"/><path class="l" d="M87.54,58.45l-2.03-4.16c-.25-.51-.54-.84-.89-.99-.34-.15-.74-.11-1.2,.11-.6,.29-.96,.69-1.08,1.17-.12,.49,0,1.09,.35,1.81l1.74,3.57-.97,.47-2.03-4.16c-.25-.51-.54-.84-.89-.99-.34-.15-.74-.11-1.21,.11-.61,.3-.96,.7-1.07,1.2-.1,.5,.04,1.17,.45,2l1.64,3.36-.97,.47-3.12-6.4,.79-.38,.58,.8,.05-.02c.03-.4,.17-.77,.42-1.11,.25-.34,.58-.61,.99-.81,1-.49,1.83-.44,2.49,.13l.05-.02c.03-.43,.17-.83,.44-1.2,.27-.37,.63-.67,1.1-.9,.72-.35,1.36-.43,1.9-.23,.54,.2,1.01,.7,1.41,1.52l2.04,4.17-.97,.47Z"/><path class="l" d="M92.66,48.04l.3,.61-1.12,.72c.18,.08,.36,.21,.55,.39,.19,.18,.36,.41,.49,.68,.31,.63,.34,1.23,.09,1.81-.25,.58-.74,1.06-1.49,1.42-.19,.09-.38,.16-.56,.21-.31,.42-.38,.79-.22,1.12,.09,.17,.22,.27,.41,.28,.19,.01,.45-.06,.8-.24l1.13-.55c.69-.34,1.3-.45,1.81-.34s.91,.44,1.18,1c.35,.71,.32,1.39-.06,2.04-.39,.65-1.12,1.24-2.21,1.77-.84,.41-1.56,.57-2.16,.48-.6-.09-1.05-.42-1.32-.99-.19-.39-.23-.79-.12-1.19,.11-.4,.37-.77,.77-1.09-.2,0-.39-.04-.58-.14-.19-.1-.33-.26-.43-.46-.11-.23-.15-.47-.11-.7,.04-.24,.15-.5,.34-.8-.4,.03-.78-.07-1.15-.3-.37-.22-.65-.55-.86-.97-.34-.7-.39-1.34-.16-1.93,.24-.58,.74-1.06,1.51-1.44,.33-.16,.66-.27,.96-.32l2.21-1.08Zm-3.58,4.28c.22,.45,.51,.72,.87,.83,.37,.1,.77,.05,1.22-.17,.95-.46,1.19-1.15,.75-2.07-.47-.96-1.18-1.21-2.14-.74-.46,.22-.75,.52-.87,.88-.12,.36-.07,.79,.17,1.27Zm2.12,5.68c.17,.35,.44,.54,.82,.57,.38,.04,.84-.08,1.39-.34,.81-.4,1.36-.81,1.63-1.24,.27-.43,.31-.86,.1-1.28-.17-.35-.39-.53-.67-.56-.28-.03-.71,.1-1.31,.39l-1.16,.57c-.44,.21-.73,.49-.87,.82-.14,.33-.12,.69,.07,1.08Z"/><path class="l" d="M99.89,52.58c-.95,.46-1.83,.54-2.66,.23-.83-.31-1.49-.98-1.99-2-.5-1.03-.65-1.97-.44-2.83,.21-.85,.75-1.49,1.6-1.91,.8-.39,1.56-.44,2.29-.14,.72,.3,1.3,.88,1.72,1.75l.3,.61-4.41,2.15c.39,.74,.85,1.22,1.4,1.43,.55,.21,1.15,.16,1.8-.16,.69-.34,1.3-.81,1.83-1.43l.42,.86c-.27,.31-.54,.58-.82,.79-.28,.21-.63,.42-1.06,.64Zm-3.1-5.69c-.51,.25-.84,.62-.98,1.1-.14,.48-.1,1.03,.14,1.65l3.34-1.63c-.3-.61-.66-1.01-1.09-1.21-.43-.19-.9-.17-1.41,.08Z"/><path class="l" d="M105.27,49.81l-5.55-5.21,1.04-.51,3.23,3.12c.74,.74,1.21,1.22,1.39,1.46l.05-.02c-.06-.23-.13-.72-.22-1.48-.09-.76-.27-2.42-.54-4.99l1.04-.51,.69,7.58-1.13,.55Z"/><path class="l" d="M105.85,39.46c-.11-.22-.13-.41-.07-.57,.06-.16,.17-.27,.33-.35,.16-.08,.32-.09,.48-.04,.16,.05,.3,.18,.41,.4,.11,.22,.13,.41,.07,.57-.06,.16-.17,.28-.32,.36-.16,.08-.33,.09-.49,.04-.16-.05-.29-.19-.4-.41Zm5.02,7.62l-.97,.47-3.12-6.4,.97-.47,3.12,6.4Z"/><path class="l" d="M117.33,43.93l-2.02-4.14c-.25-.52-.56-.85-.93-.99-.36-.14-.8-.09-1.3,.16-.67,.33-1.07,.75-1.21,1.26-.13,.51,0,1.19,.41,2.02l1.64,3.36-.97,.47-3.12-6.4,.79-.38,.58,.8,.05-.02c.04-.41,.2-.79,.48-1.14,.27-.35,.63-.63,1.07-.84,.77-.38,1.44-.47,2.01-.29,.57,.18,1.05,.68,1.45,1.5l2.04,4.17-.97,.47Z"/><path class="l" d="M122.45,33.52l.3,.61-1.12,.72c.18,.08,.36,.21,.55,.39,.19,.18,.36,.4,.49,.68,.31,.63,.33,1.23,.09,1.81-.25,.58-.74,1.06-1.49,1.42-.19,.09-.38,.16-.56,.21-.31,.42-.38,.79-.22,1.12,.08,.17,.22,.27,.4,.28,.19,.01,.45-.06,.8-.24l1.13-.55c.69-.34,1.3-.45,1.81-.34,.51,.11,.91,.44,1.18,1,.35,.71,.32,1.39-.06,2.04s-1.12,1.24-2.21,1.77c-.84,.41-1.56,.57-2.16,.48-.61-.09-1.05-.42-1.32-.99-.19-.39-.23-.79-.12-1.19,.11-.4,.37-.77,.77-1.09-.2,0-.39-.04-.58-.14-.19-.1-.33-.26-.43-.46-.11-.23-.15-.47-.11-.7s.15-.5,.34-.8c-.4,.03-.78-.07-1.15-.3-.37-.23-.65-.55-.86-.97-.34-.7-.39-1.34-.16-1.93s.74-1.06,1.51-1.44c.33-.16,.65-.27,.96-.32l2.21-1.08Zm-3.58,4.28c.22,.45,.51,.72,.87,.83,.37,.1,.77,.05,1.22-.17,.95-.46,1.19-1.15,.75-2.07-.47-.96-1.18-1.21-2.14-.74-.46,.22-.75,.52-.87,.88-.12,.36-.07,.79,.17,1.27Zm2.12,5.68c.17,.35,.44,.54,.82,.57,.38,.04,.84-.08,1.39-.34,.81-.4,1.36-.81,1.63-1.25s.31-.86,.1-1.28c-.17-.35-.39-.53-.67-.56-.28-.03-.71,.1-1.31,.39l-1.16,.57c-.44,.21-.73,.49-.87,.82-.14,.33-.12,.69,.07,1.08Z"/></g><rect class="i" x="6" y="38.58" width="64.28" height="20.56" transform="translate(-12.21 12.71) rotate(-16.34)"/><g class="g"><path class="l" d="M16.53,59.22l-1.06,.31-2.4-8.17-2.89,.85-.28-.94,6.83-2,.28,.94-2.88,.85,2.4,8.17Z"/><path class="l" d="M23.59,57.28c-1.01,.3-1.9,.22-2.66-.22-.76-.44-1.31-1.21-1.63-2.3-.32-1.1-.31-2.05,.04-2.86,.35-.81,.99-1.35,1.9-1.61,.86-.25,1.62-.17,2.28,.25,.66,.42,1.13,1.09,1.4,2.01l.19,.65-4.71,1.38c.26,.8,.64,1.34,1.14,1.65,.51,.3,1.11,.35,1.81,.15,.74-.22,1.42-.58,2.05-1.1l.27,.92c-.32,.26-.63,.48-.94,.64-.31,.16-.69,.31-1.15,.45Zm-2.1-6.13c-.55,.16-.93,.47-1.15,.92-.22,.45-.27,1-.14,1.65l3.57-1.05c-.19-.65-.48-1.11-.88-1.37s-.86-.31-1.4-.15Z"/><path class="l" d="M30.63,55.22c-.99,.29-1.84,.21-2.56-.24-.72-.45-1.24-1.23-1.57-2.35-.33-1.14-.32-2.11,.05-2.89,.37-.78,1.06-1.33,2.08-1.62,.33-.1,.67-.16,1.02-.18,.35-.03,.63-.02,.85,.02l-.06,.97c-.26-.02-.53-.03-.81,0-.29,.02-.54,.06-.74,.12-1.39,.41-1.82,1.5-1.3,3.26,.25,.84,.6,1.43,1.08,1.78,.47,.35,1.04,.43,1.7,.23,.57-.17,1.12-.46,1.64-.88l.27,.92c-.39,.37-.93,.66-1.62,.86Z"/><path class="l" d="M38.66,52.73l-1.29-4.42c-.16-.56-.41-.93-.75-1.13-.33-.2-.77-.22-1.31-.06-.72,.21-1.19,.56-1.4,1.05-.22,.49-.19,1.18,.07,2.07l1.05,3.57-1.04,.3-2.84-9.7,1.03-.3,.86,2.93c.1,.35,.17,.65,.21,.89l.06-.02c.11-.39,.32-.73,.64-1.03,.32-.3,.72-.52,1.2-.66,.83-.24,1.52-.23,2.05,.04s.93,.84,1.18,1.71l1.31,4.46-1.03,.3Z"/><path class="l" d="M46.53,50.42l-1.3-4.42c-.16-.56-.41-.93-.75-1.13-.33-.2-.77-.22-1.31-.06-.71,.21-1.18,.56-1.4,1.04-.22,.48-.2,1.17,.06,2.06l1.05,3.58-1.03,.3-2-6.83,.84-.25,.44,.89h.05c.11-.41,.33-.76,.66-1.06,.33-.3,.73-.51,1.2-.65,.82-.24,1.5-.22,2.03,.05,.53,.27,.93,.85,1.18,1.72l1.31,4.46-1.03,.3Z"/><path class="l" d="M47.09,40.83c-.07-.24-.06-.43,.02-.57,.08-.14,.21-.24,.39-.29,.17-.05,.33-.03,.48,.04,.15,.08,.26,.23,.33,.46,.07,.23,.06,.42-.03,.57-.09,.15-.21,.25-.38,.3-.17,.05-.34,.04-.49-.04-.15-.08-.26-.24-.33-.47Zm3.67,8.35l-1.04,.3-2-6.83,1.04-.3,2,6.83Z"/><path class="l" d="M55.91,47.81c-1.01,.3-1.9,.22-2.66-.22-.76-.44-1.31-1.21-1.63-2.3-.32-1.1-.31-2.05,.04-2.86,.35-.81,.99-1.35,1.9-1.61,.86-.25,1.62-.17,2.28,.25,.66,.42,1.13,1.09,1.4,2.01l.19,.65-4.71,1.38c.26,.8,.64,1.34,1.14,1.65,.51,.3,1.11,.35,1.81,.15,.74-.22,1.42-.58,2.05-1.1l.27,.92c-.32,.26-.63,.48-.94,.64-.31,.16-.69,.31-1.15,.45Zm-2.1-6.13c-.55,.16-.93,.47-1.15,.92s-.27,1-.14,1.65l3.57-1.05c-.19-.65-.48-1.11-.88-1.37-.39-.26-.86-.31-1.4-.16Z"/><path class="l" d="M60.19,42.62c.1-.31,.28-.72,.52-1.24l1.52-2.98,1.23-.36-1.91,3.72,4.11,3.05-1.25,.37-3.36-2.52-.58,.9,.75,2.55-1.02,.3-2.84-9.7,1.02-.3,1.51,5.14c.07,.23,.15,.59,.26,1.07h.05Z"/></g><rect class="i" x="34.69" y="8.95" width="66.4" height="20.56" transform="translate(7.41 -17.12) rotate(15.19)"/><g class="g"><path class="l" d="M40.2,15.71l2.49-9.16,1.06,.29-2.49,9.16-1.06-.29Z"/><path class="l" d="M48.36,17.92l1.21-4.44c.15-.56,.14-1.01-.04-1.36-.18-.35-.54-.59-1.08-.74-.72-.19-1.3-.14-1.74,.15-.44,.3-.78,.89-1.02,1.79l-.98,3.6-1.04-.28,1.87-6.87,.85,.23-.08,.99h.05c.3-.27,.67-.45,1.11-.53,.44-.08,.89-.06,1.36,.07,.83,.22,1.39,.59,1.71,1.11,.31,.51,.35,1.21,.11,2.08l-1.22,4.48-1.04-.28Z"/><path class="l" d="M53.99,18.66c.18,.05,.37,.08,.54,.1,.18,.02,.32,.03,.43,.03l-.22,.8c-.13,.02-.31,.02-.54,0-.23-.02-.43-.06-.61-.11-1.33-.36-1.8-1.24-1.42-2.64l1.11-4.09-.98-.27,.14-.5,1.1-.17,.84-1.35,.6,.16-.43,1.59,1.99,.54-.22,.81-1.99-.54-1.1,4.04c-.11,.41-.1,.76,.04,1.03,.14,.27,.38,.46,.72,.55Z"/><path class="l" d="M59.01,20.95c-1.01-.28-1.73-.8-2.15-1.58-.42-.78-.48-1.72-.18-2.82,.3-1.11,.81-1.91,1.53-2.42,.72-.5,1.54-.63,2.46-.38,.86,.23,1.46,.7,1.81,1.4s.4,1.52,.14,2.44l-.18,.66-4.73-1.28c-.2,.81-.16,1.48,.11,2s.76,.88,1.46,1.07c.74,.2,1.51,.25,2.32,.13l-.25,.93c-.41,.06-.79,.08-1.14,.06-.35-.02-.75-.09-1.22-.22Zm1.42-6.32c-.55-.15-1.04-.09-1.47,.18-.42,.27-.75,.71-.98,1.33l3.59,.98c.18-.66,.17-1.2-.03-1.63-.2-.43-.57-.72-1.11-.86Z"/><path class="l" d="M68.42,15.86c.31,.08,.57,.18,.8,.3l-.41,.93c-.27-.14-.51-.24-.73-.3-.56-.15-1.09-.05-1.61,.29-.52,.34-.87,.85-1.05,1.52l-1,3.68-1.04-.28,1.87-6.87,.86,.23-.23,1.3h.05c.38-.36,.78-.63,1.2-.77,.42-.15,.85-.16,1.28-.04Z"/><path class="l" d="M72.88,24.58l.06-1.03h-.05c-.46,.32-.88,.52-1.26,.58-.38,.06-.83,.02-1.34-.12-.68-.18-1.17-.51-1.46-.96-.29-.46-.35-1.01-.17-1.66,.38-1.39,1.68-1.81,3.92-1.28l1.18,.28,.12-.43c.15-.54,.14-.97-.02-1.29s-.5-.55-1.01-.69c-.57-.16-1.27-.16-2.09,0l-.1-.88c.39-.09,.8-.13,1.23-.13,.43,0,.85,.06,1.25,.17,.82,.22,1.38,.57,1.67,1.04,.3,.47,.33,1.11,.12,1.91l-1.27,4.69-.77-.21Zm-2.15-1.37c.65,.18,1.2,.14,1.67-.12,.47-.25,.79-.7,.96-1.34l.17-.62-1.05-.24c-.83-.2-1.47-.23-1.89-.1-.43,.13-.71,.43-.84,.91-.1,.38-.07,.69,.11,.95,.17,.26,.47,.44,.88,.55Z"/><path class="l" d="M78.55,26.25c-.99-.27-1.68-.79-2.06-1.54-.38-.76-.42-1.7-.11-2.82,.31-1.15,.83-1.96,1.55-2.44,.72-.48,1.6-.58,2.62-.3,.33,.09,.65,.22,.96,.38,.31,.16,.55,.31,.71,.46l-.56,.8c-.2-.15-.43-.3-.69-.43s-.49-.23-.7-.29c-1.4-.38-2.34,.32-2.82,2.1-.23,.84-.23,1.54-.02,2.08,.22,.54,.66,.91,1.33,1.09,.57,.16,1.19,.19,1.86,.11l-.25,.92c-.53,.11-1.14,.08-1.83-.11Z"/><path class="l" d="M84.4,26.92c.18,.05,.37,.08,.54,.1,.18,.02,.32,.03,.43,.03l-.22,.8c-.13,.02-.31,.02-.54,0s-.43-.06-.61-.11c-1.33-.36-1.8-1.24-1.42-2.64l1.11-4.09-.98-.27,.14-.5,1.1-.17,.84-1.35,.6,.16-.43,1.59,1.99,.54-.22,.81-1.99-.54-1.1,4.04c-.11,.41-.1,.76,.04,1.03,.14,.28,.38,.46,.72,.55Z"/><path class="l" d="M87.6,28.58l-1.04-.28,1.87-6.87,1.04,.28-1.87,6.87Zm1.24-9.04c.06-.24,.17-.4,.32-.48,.15-.08,.31-.09,.48-.05,.17,.05,.3,.14,.39,.29,.09,.15,.1,.34,.04,.57s-.17,.39-.32,.47c-.15,.08-.31,.1-.48,.05-.17-.05-.31-.14-.39-.29-.09-.15-.1-.34-.03-.57Z"/><path class="l" d="M92.71,30.1c-1.01-.28-1.73-.8-2.15-1.58-.42-.78-.48-1.72-.18-2.82,.3-1.11,.81-1.91,1.53-2.42,.72-.5,1.54-.63,2.46-.38,.86,.23,1.46,.7,1.81,1.4,.35,.7,.4,1.52,.14,2.44l-.18,.66-4.73-1.28c-.2,.81-.16,1.48,.11,2,.27,.52,.76,.88,1.46,1.07,.74,.2,1.51,.25,2.32,.13l-.25,.93c-.41,.06-.79,.08-1.14,.06-.35-.02-.75-.09-1.22-.22Zm1.42-6.33c-.55-.15-1.04-.09-1.47,.18-.43,.27-.75,.71-.99,1.33l3.59,.98c.18-.66,.17-1.2-.03-1.63-.2-.43-.57-.72-1.11-.86Z"/></g><g><path d="M21.8,34.2c-.2,.06-.32,.27-.27,.48s.27,.32,.48,.27,.32-.27,.27-.48-.27-.32-.48-.27h0Z"/><path d="M21,35.62c-.2,.06-.32,.27-.27,.48s.27,.32,.48,.27,.32-.27,.27-.48-.27-.32-.48-.27h0Z"/><path d="M23.23,35c-.2,.06-.32,.27-.27,.48s.27,.32,.48,.27,.32-.27,.27-.48-.27-.32-.48-.27h0Z"/><path d="M22.43,36.42c-.2,.06-.32,.27-.27,.48s.27,.32,.48,.27,.32-.27,.27-.48-.27-.32-.48-.27h0Z"/><path d="M23.06,38.65c-.2,.06-.32,.27-.27,.48s.27,.32,.48,.27,.32-.27,.27-.48-.27-.32-.48-.27h0Z"/><path d="M25.02,38.5c.06,.2,.27,.32,.48,.27s.32-.27,.27-.48-.27-.32-.48-.27-.32,.27-.27,.48h0Z"/><path d="M27.72,38.14c.2-.06,.32-.27,.27-.48s-.27-.32-.48-.27-.32,.27-.27,.48,.27,.32,.48,.27h0Z"/><path d="M21.63,37.85c-.2,.06-.32,.27-.27,.48s.27,.32,.48,.27,.32-.27,.27-.48-.27-.32-.48-.27h0Z"/><path d="M23.86,37.22c-.2,.06-.32,.27-.27,.48s.27,.32,.48,.27,.32-.27,.27-.48-.27-.32-.48-.27h0Z"/><path d="M26.29,37.34c.2-.06,.32-.27,.27-.48s-.27-.32-.48-.27-.32,.27-.27,.48,.27,.32,.48,.27h0Z"/><path d="M24.48,39.45c-.2,.06-.32,.27-.27,.48s.27,.32,.48,.27,.32-.27,.27-.48-.27-.32-.48-.27h0Z"/><path d="M26.92,39.56c.2-.06,.32-.27,.27-.48s-.27-.32-.48-.27-.32,.27-.27,.48,.27,.32,.48,.27h0Z"/><path d="M38.34,29.54c-.2,.06-.32,.27-.27,.48s.27,.32,.48,.27,.32-.27,.27-.48-.27-.32-.48-.27h0Z"/><path d="M37.54,30.97c-.2,.06-.32,.27-.27,.48s.27,.32,.48,.27,.32-.27,.27-.48-.27-.32-.48-.27h0Z"/><path d="M38.97,31.77c-.2,.06-.32,.27-.27,.48s.27,.32,.48,.27,.32-.27,.27-.48-.27-.32-.48-.27h0Z"/><path d="M39.6,33.99c-.2,.06-.32,.27-.27,.48s.27,.32,.48,.27,.32-.27,.27-.48-.27-.32-.48-.27h0Z"/><path d="M42.03,34.11c.2-.06,.32-.27,.27-.48s-.27-.32-.48-.27-.32,.27-.27,.48,.27,.32,.48,.27h0Z"/><path d="M44.25,33.48c.2-.06,.32-.27,.27-.48s-.27-.32-.48-.27-.32,.27-.27,.48,.27,.32,.48,.27h0Z"/><path d="M38.17,33.19c-.2,.06-.32,.27-.27,.48s.27,.32,.48,.27,.32-.27,.27-.48-.27-.32-.48-.27h0Z"/><path d="M40.6,33.31c.2-.06,.32-.27,.27-.48s-.27-.32-.48-.27-.32,.27-.27,.48,.27,.32,.48,.27h0Z"/><path d="M42.83,32.68c.2-.06,.32-.27,.27-.48s-.27-.32-.48-.27-.32,.27-.27,.48,.27,.32,.48,.27h0Z"/><path d="M41.02,34.79c-.2,.06-.32,.27-.27,.48s.27,.32,.48,.27,.32-.27,.27-.48-.27-.32-.48-.27h0Z"/><g class="h"><path d="M43.46,34.91c.2-.06,.32-.27,.27-.48s-.27-.32-.48-.27-.32,.27-.27,.48,.27,.32,.48,.27h0Z"/><path d="M39.98,31.08c.18-.05,.29-.22,.28-.39l.77,1,.43-.33-2.9-3.77c.42-.29,.89-.51,1.4-.65,2.53-.71,5.17,.77,5.88,3.3,.32,1.14,.2,2.3-.27,3.29-.03,0-.06,0-.09,.01-.2,.06-.32,.27-.27,.48,0,.03,.02,.06,.04,.09-.54,.83-1.33,1.5-2.31,1.87,0-.04,0-.08-.01-.12-.06-.2-.27-.32-.48-.27s-.32,.27-.27,.48c.01,.04,.03,.08,.06,.12-1.03,.22-2.06,.09-2.96-.32,.01-.06,.01-.12,0-.18-.06-.2-.27-.32-.48-.27-.06,.02-.12,.05-.16,.09-.84-.55-1.52-1.37-1.88-2.37,.06,.02,.13,.02,.2,0,.2-.06,.32-.27,.27-.48s-.27-.32-.48-.27c-.07,.02-.12,.05-.17,.1-.22-1.05-.07-2.1,.36-3.01,.06,.01,.12,.01,.19,0,.2-.06,.32-.27,.27-.48-.02-.06-.05-.12-.09-.16,.23-.34,.51-.65,.82-.93l1.87,2.42c-.07-.02-.15-.03-.22,0-.2,.06-.32,.27-.27,.48s.27,.32,.48,.27h0Zm-10.9,7.1s-.09,0-.14,.01c-.2,.06-.32,.27-.27,.48,.01,.05,.04,.09,.06,.13-.55,.83-1.35,1.48-2.33,1.84,0-.04,0-.08-.01-.13-.06-.2-.27-.32-.48-.27s-.32,.27-.27,.48c.01,.04,.03,.08,.06,.12-1.03,.21-2.06,.06-2.95-.36,0-.05,0-.09-.01-.14-.06-.2-.27-.32-.48-.27-.05,.01-.09,.04-.13,.06-.83-.55-1.49-1.35-1.85-2.33,.04,0,.09,0,.13-.01,.2-.06,.32-.27,.27-.48s-.27-.32-.48-.27c-.04,.01-.08,.03-.12,.06-.21-1.03-.06-2.06,.35-2.95,.05,0,.1,0,.14-.01,.2-.06,.32-.27,.27-.48-.01-.05-.04-.09-.07-.13,.61-.92,1.54-1.64,2.68-1.96,.84-.24,1.69-.23,2.48-.03l-1.42,4.45c-.03,.11,0,.23,.07,.31,.08,.08,.2,.12,.31,.09l4.51-1.22c.22,1.04,.08,2.09-.35,3h0Zm.21-3.52l-4.11,1.11,1.29-4.06c1.29,.5,2.36,1.55,2.82,2.95h0Zm-1.76-6.27l3.46,5.81-1.17,.32c-.52-1.58-1.72-2.77-3.18-3.32l.89-2.8h0Zm8.5-2.74l-1.98,4.43-.75-2.14c-.03-.1-.12-.16-.23-.15-.1,0-.19,.07-.21,.17l-1.5,5.8-3.47-5.82,8.13-2.29h0Zm9.94,8.3c.6-1.15,.77-2.53,.39-3.87-.79-2.82-3.73-4.47-6.55-3.67-.58,.16-1.11,.42-1.58,.75l-2.95-3.82,2-.56c.5-.14,1.02,.16,1.16,.66s-.15,1.03-.66,1.17l.15,.52c.79-.22,1.26-1.05,1.03-1.84s-1.04-1.26-1.83-1.04l-3.52,.99,.15,.52,.96-.27,1.25,1.62-8.36,2.35-.68-1.13,1.78-.5-.15-.52-3.45,.97,.15,.52,1.2-.34-.07,.04,.76,1.27-1.04,3.26c-.89-.23-1.84-.24-2.79,.02-2.82,.79-4.47,3.73-3.67,6.55s3.73,4.47,6.55,3.67,4.34-3.51,3.75-6.23l1.55-.42h0c.06-.02,.1-.06,.13-.12l2.04-4.26,.72,2.06c.03,.1,.12,.16,.23,.15,.07,0,.14-.04,.18-.09,.02-.02,.03-.05,.04-.08l1.69-6.44,1.27,1.65c-1.52,1.3-2.24,3.42-1.66,5.47,.79,2.82,3.73,4.47,6.55,3.67,1.37-.39,2.47-1.28,3.14-2.43,.08-.06,.13-.15,.14-.25h0Z"/></g></g><g class="k"><path d="M133.13,75.22l-15.59-1.09c.4-.45,.64-1.05,.64-1.7,0-.32-.06-.63-.17-.92l15.28,2.22-.16,1.49h0Zm-17.93,31.64c.02-.07,.04-.14,.04-.22,0-.4-.32-.72-.72-.72-.34,0-.62,.23-.7,.54l.12-3.72c.13,.18,.34,.3,.58,.3,.4,0,.72-.32,.72-.72s-.32-.72-.72-.72c-.22,0-.42,.1-.55,.26l.1-3.31c.12,.1,.28,.16,.45,.16,.4,0,.72-.32,.72-.72s-.32-.72-.72-.72c-.15,0-.29,.05-.41,.13l.1-3.09c.1,.05,.2,.08,.31,.08,.4,0,.72-.32,.72-.72s-.32-.72-.72-.72c-.1,0-.19,.02-.27,.05l.49-15.69,1.66-2,.62,19.89c-.1-.06-.22-.09-.34-.09-.4,0-.72,.32-.72,.72s.32,.72,.72,.72c.14,0,.27-.04,.38-.11l.1,3.18c-.13-.12-.3-.19-.48-.19-.4,0-.72,.32-.72,.72s.32,.72,.72,.72c.2,0,.38-.08,.51-.22l.11,3.46c-.12-.22-.36-.36-.62-.36-.4,0-.72,.32-.72,.72s.32,.72,.72,.72c.28,0,.53-.16,.64-.4l.06,2.06h-2.19Zm-1.39-.07s.02,.05,.02,.07h-.03v-.07h0Zm-8.41-19.82l-1.18-.91,8.99-12.64c.35,.86,1.16,1.49,2.12,1.59l-9.92,11.96h0Zm4.29-30.89l6.31,13.81c-.13-.02-.27-.04-.41-.04-.82,0-1.56,.39-2.03,.99l-5.26-14.2,1.38-.57h0Zm24.72,16.8l-17.05-2.48-7.15-15.64-3.19,1.32,5.95,16.09-.08-.06-10.07,14.15,2.74,2.1,8.12-9.78-.92,29.3h5.68l-1.03-32.74,16.63,1.17,.37-3.43h0Z"/></g></g></g></svg>