<?xml version="1.0" encoding="UTF-8"?><svg xmlns="http://www.w3.org/2000/svg" xmlns:xlink="http://www.w3.org/1999/xlink" viewBox="0 0 159.79 102.62"><defs><style>.j{isolation:isolate;}.k{clip-path:url(#d);}.l{fill:#faf0d8;stroke:#231f20;stroke-miterlimit:10;}.m{fill:none;}.n{fill:#231f20;}.o{clip-path:url(#i);}</style><clipPath id="d"><rect class="m" x="37.89" y="33.02" width="22.24" height="49.07"/></clipPath><clipPath id="i"><rect class="m" x="121.35" y="50.08" width="34.48" height="32.71" transform="translate(-13.23 42.55) rotate(-16.67)"/></clipPath></defs><g id="a"/><g id="b"><g id="c"><g><g class="k"><path d="M59.09,81.05h-5.09c-.09-.31-.37-.54-.71-.54s-.62,.23-.71,.54h-3.02c-.09-.31-.37-.54-.71-.54s-.62,.23-.71,.54h-3.02c-.09-.31-.37-.54-.71-.54s-.62,.23-.71,.54h-1.73v-1.32c.07,.02,.14,.04,.22,.04,.41,0,.74-.33,.74-.74s-.33-.74-.74-.74c-.08,0-.15,.02-.22,.04v-3.03c.07,.02,.14,.04,.22,.04,.41,0,.74-.33,.74-.74s-.33-.74-.74-.74c-.08,0-.15,.02-.22,.04v-7.48c.07,.02,.14,.04,.22,.04,.41,0,.74-.33,.74-.74s-.33-.74-.74-.74c-.08,0-.15,.02-.22,.04v-3.03c.07,.02,.14,.04,.22,.04,.41,0,.74-.33,.74-.74s-.33-.74-.74-.74c-.08,0-.15,.02-.22,.04v-3.03c.07,.02,.14,.04,.22,.04,.41,0,.74-.33,.74-.74s-.33-.74-.74-.74c-.08,0-.15,.02-.22,.04v-10.89h1.47c.24,1.16,1.12,4.26,3.82,6.54,1.21,1.02,2.46,1.65,3.57,2.2,2.19,1.1,3.78,1.9,3.97,4.97,.13,2.16-.96,3.89-2.01,5.57-.95,1.51-1.84,2.93-1.9,4.62-.09,2.25,1.51,4.49,2.2,5.36l-3.41-.82-.24,1.01,4.69,1.13c.06,.02,.11,.02,.17,.02,.12,0,.24-.03,.34-.1,.15-.1,.25-.25,.28-.43l.89-4.57-1.02-.2-.69,3.53c-.41-.49-2.24-2.76-2.16-4.9,.05-1.41,.88-2.72,1.74-4.11,1.09-1.73,2.32-3.7,2.17-6.19-.23-3.68-2.32-4.73-4.54-5.84-1.11-.56-2.25-1.13-3.36-2.07-2.28-1.92-3.14-4.57-3.42-5.74h3.79c-.12,.13-.19,.3-.19,.49,0,.41,.33,.74,.74,.74s.74-.33,.74-.74c0-.19-.07-.36-.19-.49h3.34c-.12,.13-.19,.3-.19,.49,0,.41,.33,.74,.74,.74s.74-.33,.74-.74c0-.19-.07-.36-.19-.49h3.34c-.12,.13-.19,.3-.19,.49,0,.41,.33,.74,.74,.74s.74-.33,.74-.74c0-.19-.07-.36-.19-.49h.8v35.83h0Zm-20.16-5.83V39.39l13.51,.72-11.17,4.09h-.01l-.03,.02s-.03,.01-.04,.02h-.02l-.02,.02s-.03,.02-.04,.03l-.02,.02h-.01s-.03,.04-.04,.06v.02h-.02v.03s-.03,.03-.04,.05h0v.04s-.02,.03-.03,.05v.04s-.01,.03-.02,.05v.03h0v30.64l-1.99-.11h0Zm20.68-31.05h-4.08v-4.46s0-.04,0-.06c0-.01,0-.02,0-.03v-.03s-.03-.06-.04-.09h0s-.04-.08-.06-.1l-.02-.02s-.04-.04-.07-.06h-.01v-.02s-.07-.04-.11-.05h-.02s-.06-.02-.09-.03h-.06l-3.32-.19v-5.48c0-.17-.09-.34-.23-.43-.15-.1-.33-.11-.49-.05l-12.79,5.29s-.02,.01-.03,.02c-.02,0-.03,.02-.05,.03-.02,.01-.03,.02-.05,.04,0,0-.02,.01-.03,.02h0s-.03,.04-.04,.06c0,0-.02,.02-.02,.03-.01,.02-.02,.04-.03,.06,0,.01-.01,.02-.02,.03-.01,.03-.02,.05-.03,.08h0s-.01,.08-.01,.12h0v36.87c0,.28,.22,.51,.49,.52l2.54,.14v5.2c0,.29,.23,.52,.52,.52h18.16c.29,0,.52-.23,.52-.52V44.69c0-.29-.23-.52-.52-.52h0Z"/></g><path d="M57.73,49.41c-.41,0-.74,.33-.74,.74s.33,.74,.74,.74,.74-.33,.74-.74-.33-.74-.74-.74h0Z"/><path d="M51.07,47.19c-.41,0-.74,.33-.74,.74s.33,.74,.74,.74,.74-.33,.74-.74-.33-.74-.74-.74h0Z"/><path d="M55.51,47.19c-.41,0-.74,.33-.74,.74s.33,.74,.74,.74,.74-.33,.74-.74-.33-.74-.74-.74h0Z"/><path d="M55.51,51.63c-.41,0-.74,.33-.74,.74s.33,.74,.74,.74,.74-.33,.74-.74-.33-.74-.74-.74h0Z"/><path d="M44.41,53.85c-.41,0-.74,.33-.74,.74s.33,.74,.74,.74,.74-.33,.74-.74-.33-.74-.74-.74h0Z"/><path d="M44.41,58.29c-.41,0-.74,.33-.74,.74s.33,.74,.74,.74,.74-.33,.74-.74-.33-.74-.74-.74h0Z"/><path d="M48.85,58.29c-.41,0-.74,.33-.74,.74s.33,.74,.74,.74,.74-.33,.74-.74-.33-.74-.74-.74h0Z"/><path d="M53.29,59.77c.41,0,.74-.33,.74-.74s-.33-.74-.74-.74-.74,.33-.74,.74,.33,.74,.74,.74h0Z"/><path d="M46.63,60.51c-.41,0-.74,.33-.74,.74s.33,.74,.74,.74,.74-.33,.74-.74-.33-.74-.74-.74h0Z"/><path d="M51.07,62c.41,0,.74-.33,.74-.74s-.33-.74-.74-.74-.74,.33-.74,.74,.33,.74,.74,.74h0Z"/><path d="M44.41,62.74c-.41,0-.74,.33-.74,.74s.33,.74,.74,.74,.74-.33,.74-.74-.33-.74-.74-.74h0Z"/><path d="M46.63,64.96c-.41,0-.74,.33-.74,.74s.33,.74,.74,.74,.74-.33,.74-.74-.33-.74-.74-.74h0Z"/><path d="M44.41,76.06c-.41,0-.74,.33-.74,.74s.33,.74,.74,.74,.74-.33,.74-.74-.33-.74-.74-.74h0Z"/><path d="M46.63,78.28c-.41,0-.74,.33-.74,.74s.33,.74,.74,.74,.74-.33,.74-.74-.33-.74-.74-.74h0Z"/><path d="M51.07,78.28c-.41,0-.74,.33-.74,.74s.33,.74,.74,.74,.74-.33,.74-.74-.33-.74-.74-.74h0Z"/></g><rect class="l" x="115.7" y=".5" width="38.94" height="20.62"/><g id="e" transform="translate(45.688 282.291)"><g class="j"><path class="n" d="M124.19,14.8h-1.1l-.02-8.51h-3.01v-.97l7.12-.02v.98h-3l.02,8.52Z"/><path class="n" d="M131.51,14.91c-1.05,0-1.88-.32-2.49-.95-.61-.64-.92-1.53-.92-2.67,0-1.15,.28-2.06,.84-2.74,.56-.68,1.32-1.02,2.27-1.02,.89,0,1.6,.29,2.12,.87,.52,.59,.78,1.36,.79,2.32v.68h-4.9c.02,.85,.24,1.48,.64,1.91,.4,.43,.97,.65,1.69,.65,.77,0,1.52-.16,2.27-.49v.96c-.38,.17-.74,.28-1.08,.36-.34,.07-.75,.11-1.23,.11Zm-.31-6.47c-.57,0-1.03,.19-1.37,.56-.34,.37-.54,.89-.6,1.55h3.72c0-.69-.16-1.21-.46-1.57-.3-.36-.74-.54-1.3-.54Z"/><path class="n" d="M138.85,14.89c-1.03,0-1.83-.31-2.4-.95s-.85-1.53-.85-2.69c0-1.19,.28-2.11,.85-2.76,.57-.65,1.39-.98,2.45-.98,.34,0,.68,.04,1.03,.11,.34,.07,.61,.16,.81,.26l-.33,.92c-.24-.09-.5-.17-.78-.24-.28-.06-.53-.09-.75-.09-1.45,0-2.17,.93-2.16,2.77,0,.88,.18,1.54,.53,2.01s.88,.7,1.57,.7c.59,0,1.2-.13,1.82-.39v.96c-.47,.25-1.07,.37-1.8,.38Z"/><path class="n" d="M147.25,14.74v-4.61c-.01-.58-.15-1.01-.41-1.3s-.68-.43-1.24-.43c-.75,0-1.29,.21-1.64,.62-.34,.41-.51,1.08-.51,2v3.72h-1.07l-.03-10.1h1.08v3.06c0,.37,0,.67-.04,.92h.07c.21-.34,.51-.61,.9-.81,.39-.2,.84-.3,1.34-.3,.87,0,1.52,.2,1.96,.62,.44,.41,.66,1.07,.66,1.97v4.64h-1.07Z"/></g></g><rect class="l" x="44.46" y="27.22" width="46.6" height="20.62" transform="translate(19.87 -23.35) rotate(22.83)"/><g id="f" transform="translate(45.688 282.291)"><g class="j"><path class="n" d="M58.57,27.7l1.1,.46-6.82,7.44-1.01-.42,.52-10.07,1.08,.45-.36,6.51c-.04,.75-.12,1.46-.24,2.13,.41-.59,.87-1.15,1.37-1.7l4.36-4.8Z"/><path class="n" d="M58.09,37.79l-1-.42,2.75-6.57,1,.42-2.75,6.57Zm2.41-8.8c.1-.23,.22-.37,.38-.43,.16-.06,.32-.05,.49,.02,.16,.07,.27,.18,.35,.33s.06,.35-.03,.57c-.09,.22-.22,.37-.38,.43-.16,.06-.32,.06-.48,0-.17-.07-.29-.18-.35-.34-.07-.16-.05-.35,.04-.57Z"/><path class="n" d="M65.22,38.67c-.26,.61-.68,.99-1.27,1.13-.59,.14-1.3,.04-2.13-.3-.87-.36-1.49-.79-1.86-1.27l.39-.92c.25,.29,.53,.56,.86,.8,.32,.24,.65,.43,.99,.57,.52,.22,.95,.3,1.3,.25s.59-.24,.74-.58c.11-.25,.09-.52-.06-.79-.15-.28-.49-.67-1.03-1.19-.52-.48-.87-.86-1.05-1.14-.19-.28-.3-.55-.33-.82-.04-.27,0-.55,.13-.85,.22-.54,.62-.87,1.18-1,.56-.13,1.23-.03,1.99,.29,.71,.3,1.34,.73,1.89,1.3l-.69,.66c-.54-.55-1.09-.93-1.62-1.16-.47-.2-.86-.27-1.16-.22-.3,.05-.51,.2-.61,.46-.07,.18-.09,.34-.05,.51,.04,.16,.13,.34,.29,.53,.15,.2,.47,.52,.95,.97,.66,.61,1.07,1.12,1.22,1.52s.14,.82-.04,1.26Z"/><path class="n" d="M69.81,34.97l-1.78,4.26c-.22,.54-.27,.99-.14,1.35,.13,.37,.46,.66,.98,.87,.69,.29,1.27,.31,1.74,.07,.48-.24,.89-.79,1.25-1.64l1.44-3.45,1,.42-2.75,6.57-.82-.34,.22-.94-.05-.02c-.34,.24-.72,.37-1.16,.39-.43,.02-.88-.07-1.35-.26-.8-.33-1.32-.77-1.56-1.32-.24-.54-.18-1.24,.17-2.07l1.8-4.3,1.01,.42Z"/><path class="n" d="M77.74,46.01l.19-1.02-.05-.02c-.5,.28-.94,.42-1.33,.43s-.82-.09-1.31-.29c-.65-.27-1.09-.65-1.32-1.14-.23-.49-.21-1.04,.04-1.66,.55-1.33,1.91-1.58,4.05-.76l1.13,.43,.17-.41c.22-.52,.26-.94,.15-1.28-.12-.34-.42-.61-.91-.81-.55-.23-1.24-.32-2.07-.27v-.89c.41-.04,.82-.03,1.25,.03,.43,.06,.83,.17,1.22,.33,.78,.33,1.29,.74,1.52,1.25,.23,.51,.19,1.14-.13,1.91l-1.87,4.48-.74-.31Zm-1.95-1.64c.62,.26,1.18,.29,1.67,.1s.87-.59,1.13-1.2l.25-.59-1.01-.37c-.8-.3-1.42-.42-1.87-.35-.44,.07-.76,.34-.95,.8-.15,.36-.16,.68-.02,.96,.14,.28,.41,.5,.8,.66Z"/><path class="n" d="M81.56,47.6l-1-.42,3.9-9.33,1,.42-3.9,9.33Z"/></g></g><rect class="l" x="73.35" y="41.16" width="75.2" height="20.62" transform="translate(-9.8 70.94) rotate(-34.05)"/><g id="g" transform="translate(45.688 282.291)"><g class="j"><path class="n" d="M86.69,72.75l-5.34-7.86,.91-.62,5.34,7.85-.91,.62Z"/><path class="n" d="M93.69,68l-2.59-3.81c-.33-.48-.68-.76-1.06-.85-.38-.09-.8,.03-1.27,.34-.62,.42-.95,.89-1.01,1.42-.06,.53,.17,1.18,.69,1.94l2.1,3.09-.89,.61-4-5.89,.73-.49,.69,.71,.04-.03c-.01-.41,.09-.81,.31-1.2,.22-.38,.54-.71,.94-.99,.71-.48,1.36-.67,1.95-.58,.59,.1,1.14,.52,1.65,1.28l2.61,3.84-.89,.61Z"/><path class="n" d="M97.92,64.2c.16-.11,.3-.22,.43-.35,.13-.12,.23-.23,.3-.31l.46,.68c-.06,.11-.18,.25-.35,.41-.17,.16-.33,.29-.48,.39-1.14,.77-2.12,.56-2.93-.64l-2.38-3.5-.84,.57-.29-.43,.59-.94-.48-1.51,.52-.35,.93,1.36,1.71-1.16,.47,.69-1.71,1.16,2.35,3.47c.24,.35,.51,.57,.81,.65s.59,.01,.89-.19Z"/><path class="n" d="M102.93,61.88c-.87,.59-1.74,.79-2.6,.61-.86-.19-1.62-.75-2.26-1.7-.64-.95-.92-1.86-.83-2.74,.09-.88,.53-1.58,1.31-2.12,.74-.5,1.49-.66,2.25-.46s1.41,.69,1.95,1.48l.38,.56-4.06,2.76c.49,.68,1.02,1.08,1.59,1.22,.58,.13,1.16,0,1.76-.41,.63-.43,1.17-.99,1.61-1.68l.54,.8c-.22,.35-.46,.65-.7,.9-.24,.25-.56,.51-.96,.78Zm-3.88-5.19c-.47,.32-.75,.73-.82,1.23s.05,1.04,.37,1.62l3.08-2.09c-.38-.56-.8-.91-1.25-1.04-.45-.13-.91-.03-1.38,.28Z"/><path class="n" d="M105.18,51.42c.26-.18,.51-.32,.75-.41l.44,.91c-.28,.11-.51,.23-.7,.36-.48,.32-.75,.79-.83,1.41-.08,.62,.08,1.21,.47,1.79l2.15,3.16-.89,.61-4-5.89,.74-.5,.84,1.02,.04-.03c-.04-.53,.02-1.01,.19-1.42,.17-.42,.44-.75,.8-1Z"/><path class="n" d="M114.72,53.71l-.75-.72-.04,.03c-.04,.57-.17,1.02-.37,1.35s-.52,.64-.96,.94c-.58,.4-1.14,.56-1.68,.48-.54-.08-.99-.39-1.37-.95-.81-1.19-.28-2.46,1.58-3.81l.98-.71-.25-.37c-.31-.46-.65-.74-.99-.82-.35-.09-.74,.02-1.18,.32-.49,.33-.94,.86-1.36,1.58l-.74-.5c.18-.36,.42-.7,.7-1.02s.6-.6,.95-.84c.7-.48,1.33-.67,1.88-.59,.55,.08,1.06,.47,1.53,1.15l2.73,4.02-.66,.45Zm-2.44,.74c.55-.38,.89-.83,1-1.35,.11-.52-.02-1.05-.39-1.6l-.36-.53-.87,.64c-.69,.51-1.13,.97-1.31,1.37-.18,.41-.13,.82,.15,1.23,.22,.32,.48,.5,.79,.54,.31,.04,.64-.07,.99-.3Z"/><path class="n" d="M119.68,50.5c-.85,.58-1.69,.76-2.51,.56-.82-.21-1.56-.79-2.21-1.75-.67-.99-.95-1.91-.84-2.77,.11-.86,.6-1.59,1.48-2.18,.28-.19,.59-.35,.91-.49,.33-.13,.59-.21,.81-.24l.24,.94c-.25,.06-.51,.14-.78,.24-.27,.11-.49,.22-.67,.34-1.2,.81-1.28,1.98-.24,3.51,.49,.72,1.02,1.18,1.57,1.37,.55,.19,1.12,.09,1.69-.3,.49-.33,.92-.78,1.29-1.34l.54,.79c-.25,.47-.68,.91-1.28,1.32Z"/><path class="n" d="M124,46.49c.16-.11,.3-.22,.43-.35,.13-.12,.23-.23,.3-.31l.46,.68c-.06,.11-.18,.25-.35,.4-.17,.16-.33,.29-.48,.39-1.14,.77-2.12,.56-2.93-.64l-2.38-3.5-.84,.57-.29-.43,.59-.94-.48-1.51,.52-.35,.93,1.37,1.71-1.16,.47,.69-1.71,1.16,2.35,3.47c.24,.35,.51,.57,.81,.64,.3,.08,.59,.01,.89-.19Z"/><path class="n" d="M121.28,38.31c-.14-.21-.19-.39-.16-.55,.04-.16,.13-.3,.28-.4,.14-.1,.3-.13,.47-.11,.17,.03,.32,.14,.46,.34,.13,.2,.19,.38,.15,.55-.04,.17-.13,.3-.27,.4-.15,.1-.31,.14-.48,.11-.17-.03-.32-.15-.46-.35Zm6.05,6.83l-.89,.61-4-5.89,.89-.61,4,5.89Z"/><path class="n" d="M132.33,37.43c.65,.96,.92,1.88,.8,2.74-.12,.87-.6,1.59-1.46,2.17-.53,.36-1.08,.55-1.65,.58-.58,.03-1.13-.11-1.67-.42-.54-.31-1.01-.78-1.44-1.4-.65-.96-.92-1.87-.8-2.73,.12-.86,.6-1.58,1.45-2.16,.82-.56,1.66-.73,2.52-.51,.86,.22,1.6,.79,2.24,1.73Zm-4.49,3.05c.51,.75,1.05,1.22,1.62,1.41s1.14,.08,1.73-.31,.89-.89,.93-1.49c.04-.6-.2-1.27-.71-2.03-.51-.75-1.05-1.21-1.61-1.4-.57-.18-1.15-.07-1.74,.33-.58,.4-.89,.89-.93,1.47s.2,1.26,.72,2.02Z"/><path class="n" d="M139.96,36.56l-2.59-3.81c-.33-.48-.68-.76-1.06-.85-.38-.09-.8,.03-1.27,.34-.62,.42-.96,.89-1.02,1.42-.06,.53,.17,1.18,.69,1.94l2.1,3.09-.89,.61-4-5.89,.72-.49,.69,.71,.04-.03c-.01-.41,.09-.81,.31-1.2s.53-.71,.94-.99c.71-.48,1.36-.67,1.95-.58,.59,.1,1.14,.52,1.65,1.28l2.61,3.84-.89,.61Z"/></g></g><rect class="l" x=".5" y="81.5" width="147.2" height="20.62"/><g id="h" transform="translate(45.688 282.291)"><g class="j"><path class="n" d="M13.64,91.08c0,1.57-.42,2.77-1.27,3.6-.85,.83-2.07,1.25-3.67,1.25h-2.63l-.02-9.49h2.91c1.48-.01,2.62,.39,3.45,1.21s1.23,1.96,1.24,3.43Zm-1.17,.04c0-1.24-.32-2.17-.94-2.8-.62-.63-1.55-.94-2.77-.94h-1.6l.02,7.59h1.34c1.32,0,2.31-.33,2.97-.98,.66-.65,.99-1.61,.99-2.88Z"/><path class="n" d="M18.65,96.04c-1.05,0-1.88-.32-2.49-.95-.61-.64-.92-1.53-.92-2.67,0-1.15,.28-2.06,.84-2.74,.56-.68,1.32-1.02,2.27-1.02,.89,0,1.6,.29,2.12,.87,.52,.59,.78,1.36,.79,2.32v.68h-4.9c.02,.85,.24,1.48,.64,1.91,.4,.43,.97,.65,1.69,.65,.77,0,1.52-.16,2.27-.49v.96c-.38,.17-.74,.28-1.08,.36-.34,.07-.75,.11-1.23,.11Zm-.31-6.47c-.57,0-1.03,.19-1.37,.56-.34,.37-.54,.89-.6,1.55h3.72c0-.69-.16-1.21-.46-1.57-.3-.36-.74-.54-1.3-.54Z"/><path class="n" d="M27.74,93.94c0,.66-.24,1.17-.74,1.54-.49,.36-1.19,.54-2.08,.54-.94,0-1.68-.15-2.21-.44v-1c.34,.17,.71,.31,1.1,.41,.39,.1,.77,.15,1.13,.15,.56,0,1-.09,1.3-.27,.3-.18,.45-.46,.45-.82,0-.28-.12-.51-.36-.71s-.71-.43-1.41-.69c-.66-.25-1.13-.46-1.41-.64-.28-.18-.49-.39-.62-.62-.14-.23-.21-.51-.21-.84,0-.58,.23-1.04,.7-1.38,.47-.34,1.12-.51,1.94-.51,.77,0,1.52,.15,2.25,.46l-.38,.88c-.71-.29-1.36-.44-1.94-.44-.51,0-.9,.08-1.16,.24-.26,.16-.39,.38-.39,.66,0,.19,.05,.35,.15,.49,.1,.13,.26,.26,.47,.38,.22,.12,.63,.3,1.25,.52,.85,.31,1.42,.61,1.71,.92,.3,.31,.45,.7,.45,1.17Z"/><path class="n" d="M29.42,86.83c0-.25,.06-.43,.18-.54,.12-.11,.27-.17,.45-.17,.17,0,.32,.06,.45,.17,.13,.12,.19,.3,.19,.54,0,.24-.06,.42-.19,.54-.13,.12-.28,.18-.45,.18-.18,0-.33-.06-.46-.18-.12-.12-.18-.3-.18-.54Zm1.19,9.04h-1.08l-.02-7.12h1.08l.02,7.12Z"/><path class="n" d="M38.75,88.74v.68l-1.32,.16c.12,.15,.23,.35,.33,.59,.1,.24,.14,.52,.14,.83,0,.7-.24,1.25-.71,1.67-.48,.42-1.13,.63-1.96,.63-.21,0-.41-.02-.6-.05-.46,.24-.69,.55-.69,.92,0,.2,.08,.34,.24,.43s.44,.14,.83,.14h1.26c.77,0,1.36,.16,1.78,.48,.41,.32,.62,.79,.62,1.42,0,.79-.31,1.39-.94,1.8-.63,.42-1.55,.62-2.77,.63-.93,0-1.65-.17-2.15-.51-.51-.34-.76-.83-.76-1.47,0-.43,.14-.81,.41-1.12,.28-.32,.67-.53,1.17-.65-.18-.08-.33-.21-.46-.38-.12-.17-.19-.37-.19-.6,0-.26,.07-.49,.21-.68,.14-.2,.36-.38,.65-.57-.37-.15-.67-.41-.9-.77s-.35-.78-.35-1.25c0-.78,.23-1.38,.7-1.8,.47-.42,1.13-.64,1.99-.64,.37,0,.71,.04,1.01,.13h2.46Zm-5.66,8.32c0,.38,.16,.68,.49,.88s.79,.3,1.4,.29c.91,0,1.57-.14,2.01-.41s.65-.64,.65-1.1c0-.39-.12-.65-.36-.8-.24-.15-.69-.22-1.35-.22h-1.29c-.49,0-.87,.12-1.14,.36s-.41,.57-.41,1.01Zm.57-6.04c0,.5,.14,.87,.42,1.13,.28,.25,.67,.38,1.18,.38,1.05,0,1.58-.52,1.57-1.54,0-1.07-.54-1.6-1.6-1.6-.51,0-.9,.14-1.17,.41-.27,.27-.41,.68-.41,1.22Z"/><path class="n" d="M45.14,95.84v-4.61c-.01-.58-.15-1.01-.41-1.3s-.68-.43-1.24-.43c-.74,0-1.29,.2-1.63,.61-.35,.4-.52,1.07-.51,2v3.74h-1.07l-.02-7.12h.88l.18,.97h.05c.22-.35,.53-.62,.93-.82,.4-.19,.84-.29,1.33-.29,.86,0,1.5,.2,1.94,.62,.43,.41,.65,1.07,.65,1.98v4.64h-1.07Z"/><path class="n" d="M56.35,95.81l-.22-1.01h-.05c-.35,.45-.71,.75-1.06,.91s-.79,.24-1.32,.24c-.71,0-1.26-.18-1.66-.54-.4-.36-.6-.88-.6-1.55,0-1.44,1.14-2.19,3.44-2.27l1.21-.04v-.44c0-.56-.12-.97-.37-1.24-.24-.27-.62-.4-1.15-.4-.59,0-1.26,.18-2.01,.55l-.33-.82c.35-.19,.73-.34,1.15-.45,.42-.11,.84-.17,1.26-.17,.85,0,1.48,.18,1.89,.56,.41,.38,.62,.98,.62,1.81v4.86h-.79Zm-2.44-.75c.67,0,1.2-.19,1.58-.56,.38-.37,.57-.88,.57-1.55v-.64l-1.08,.05c-.86,.03-1.47,.17-1.85,.41-.38,.24-.57,.6-.57,1.1,0,.39,.12,.69,.36,.89s.57,.3,.99,.3Z"/><path class="n" d="M62.25,95.93c-1.03,0-1.83-.31-2.4-.95s-.85-1.53-.85-2.69c0-1.19,.28-2.11,.85-2.76,.57-.65,1.39-.98,2.45-.98,.34,0,.68,.04,1.03,.11,.34,.07,.61,.16,.81,.26l-.33,.92c-.24-.09-.5-.17-.78-.24-.28-.06-.53-.09-.75-.09-1.45,0-2.17,.93-2.16,2.77,0,.88,.18,1.54,.53,2.01s.88,.7,1.57,.7c.59,0,1.2-.13,1.82-.39v.96c-.47,.25-1.07,.37-1.8,.38Z"/><path class="n" d="M69.01,88.53c.32,0,.6,.03,.85,.08l-.15,1c-.29-.06-.55-.1-.78-.1-.58,0-1.07,.24-1.48,.71-.41,.47-.61,1.05-.61,1.75v3.82h-1.07l-.02-7.12h.89l.13,1.32h.05c.26-.46,.58-.82,.95-1.07,.37-.25,.78-.38,1.23-.38Z"/><path class="n" d="M77.39,92.19c0,1.16-.29,2.07-.87,2.72-.58,.65-1.39,.98-2.42,.98-.64,0-1.2-.15-1.7-.44-.49-.3-.88-.73-1.15-1.28-.27-.56-.41-1.21-.41-1.96,0-1.16,.28-2.07,.86-2.71,.58-.65,1.38-.97,2.41-.98,1,0,1.79,.33,2.38,.99,.59,.66,.88,1.56,.89,2.69Zm-5.42,.01c0,.91,.19,1.6,.55,2.08,.36,.48,.9,.71,1.61,.71,.71,0,1.24-.24,1.61-.71,.36-.47,.55-1.17,.54-2.08,0-.9-.19-1.59-.55-2.06-.37-.47-.91-.7-1.62-.7-.71,0-1.24,.23-1.6,.7-.36,.46-.54,1.16-.53,2.07Z"/><path class="n" d="M83.91,93.8c0,.66-.24,1.17-.74,1.54-.49,.36-1.19,.54-2.08,.54-.94,0-1.68-.15-2.21-.44v-1c.34,.17,.71,.31,1.1,.41,.39,.1,.77,.15,1.13,.15,.56,0,1-.09,1.3-.27,.3-.18,.45-.46,.45-.82,0-.28-.12-.51-.36-.71-.24-.2-.71-.43-1.41-.69-.66-.25-1.13-.46-1.41-.64-.28-.18-.49-.39-.62-.63-.14-.23-.21-.51-.21-.84,0-.58,.23-1.04,.7-1.38,.47-.34,1.12-.51,1.94-.51,.77,0,1.52,.15,2.25,.46l-.38,.88c-.71-.29-1.36-.44-1.94-.44-.51,0-.9,.08-1.16,.24s-.39,.38-.39,.66c0,.19,.05,.35,.15,.49,.1,.13,.26,.26,.47,.38,.22,.12,.63,.3,1.25,.52,.85,.31,1.42,.61,1.71,.92,.3,.31,.45,.7,.45,1.17Z"/><path class="n" d="M90.3,93.78c0,.66-.24,1.17-.74,1.54-.49,.36-1.18,.54-2.08,.54-.94,0-1.68-.14-2.21-.44v-1c.34,.17,.71,.31,1.1,.41,.39,.1,.77,.15,1.13,.15,.56,0,1-.09,1.3-.27s.45-.46,.45-.82c0-.28-.12-.51-.36-.71-.24-.2-.71-.43-1.41-.7-.66-.25-1.13-.46-1.42-.64-.28-.18-.49-.39-.62-.62-.14-.23-.21-.51-.21-.84,0-.58,.23-1.04,.71-1.38,.47-.34,1.12-.51,1.94-.51,.77,0,1.52,.15,2.25,.46l-.38,.88c-.72-.29-1.36-.44-1.94-.44-.51,0-.9,.08-1.16,.24-.26,.16-.39,.38-.39,.66,0,.19,.05,.35,.15,.49s.25,.26,.47,.38,.63,.29,1.25,.52c.84,.3,1.42,.61,1.71,.92,.3,.31,.45,.7,.45,1.17Z"/><path class="n" d="M98.89,88.47c.93,0,1.66,.32,2.18,.95s.78,1.54,.78,2.71c0,1.17-.26,2.08-.78,2.73-.52,.65-1.24,.97-2.17,.98-.46,0-.89-.08-1.27-.25s-.71-.43-.97-.79h-.08l-.22,.92h-.77l-.03-10.11h1.08v2.45c0,.55,0,1.04-.04,1.48h.05c.5-.71,1.24-1.07,2.23-1.07Zm-.15,.9c-.74,0-1.27,.21-1.59,.64-.32,.42-.48,1.13-.48,2.13,0,1,.17,1.72,.5,2.15,.33,.43,.87,.64,1.61,.64,.66,0,1.16-.24,1.48-.73,.32-.48,.48-1.18,.48-2.08,0-.93-.17-1.62-.49-2.07-.33-.45-.83-.68-1.51-.68Z"/><path class="n" d="M109.92,92.11c0,1.16-.29,2.07-.87,2.72-.58,.65-1.39,.98-2.42,.98-.64,0-1.2-.15-1.7-.44-.5-.3-.88-.73-1.15-1.28-.27-.56-.41-1.21-.41-1.96,0-1.16,.29-2.07,.86-2.71,.58-.65,1.38-.97,2.41-.98,1,0,1.79,.33,2.38,.99,.59,.66,.88,1.56,.89,2.69Zm-5.42,.01c0,.91,.19,1.6,.55,2.08s.9,.71,1.61,.71,1.24-.24,1.61-.71c.36-.47,.54-1.17,.54-2.08,0-.9-.19-1.59-.55-2.06-.37-.47-.91-.7-1.62-.7-.71,0-1.24,.23-1.6,.7-.36,.46-.54,1.16-.53,2.07Z"/><path class="n" d="M115.09,88.41c.32,0,.6,.03,.85,.08l-.15,1c-.29-.06-.55-.1-.78-.1-.58,0-1.07,.24-1.48,.71-.41,.47-.61,1.05-.61,1.75v3.82h-1.07l-.02-7.12h.89l.13,1.32h.05c.26-.46,.58-.82,.95-1.07,.37-.25,.78-.38,1.23-.38Z"/><path class="n" d="M122.17,94.69h-.06c-.5,.72-1.24,1.09-2.23,1.09-.93,0-1.66-.31-2.17-.95-.52-.63-.78-1.54-.78-2.71s.25-2.08,.77-2.74c.52-.65,1.24-.98,2.17-.98,.97,0,1.71,.35,2.22,1.05h.08l-.05-.51-.03-.5v-2.9h1.07l.03,10.1h-.88l-.15-.95Zm-2.16,.19c.74,0,1.27-.2,1.6-.6s.49-1.05,.49-1.94v-.23c0-1.01-.17-1.73-.51-2.16-.34-.43-.87-.64-1.61-.64-.63,0-1.12,.25-1.45,.74-.33,.49-.5,1.19-.5,2.08,0,.91,.17,1.6,.5,2.06,.33,.46,.82,.69,1.47,.69Z"/><path class="n" d="M128.53,95.76c-1.05,0-1.88-.32-2.49-.95-.61-.64-.92-1.53-.92-2.67,0-1.15,.28-2.06,.84-2.74,.56-.68,1.32-1.02,2.27-1.02,.89,0,1.6,.29,2.12,.87,.52,.59,.78,1.36,.79,2.32v.68h-4.9c.02,.85,.24,1.48,.64,1.91,.4,.43,.97,.65,1.69,.65,.77,0,1.52-.16,2.27-.49v.96c-.38,.17-.74,.28-1.08,.36-.34,.07-.75,.11-1.23,.11Zm-.31-6.47c-.57,0-1.03,.19-1.37,.56-.34,.37-.54,.89-.6,1.55h3.72c0-.69-.16-1.21-.46-1.57-.3-.36-.74-.54-1.3-.54Z"/><path class="n" d="M136.25,88.36c.32,0,.6,.02,.85,.08l-.15,1c-.29-.06-.55-.1-.78-.1-.58,0-1.07,.24-1.48,.71-.41,.47-.61,1.05-.61,1.75v3.82h-1.07l-.02-7.12h.89l.13,1.32h.05c.26-.46,.58-.82,.95-1.07,.37-.25,.78-.38,1.23-.38Z"/><path class="n" d="M143.08,93.65c0,.66-.24,1.17-.74,1.54-.49,.36-1.19,.54-2.08,.54-.94,0-1.68-.14-2.21-.44v-1c.34,.17,.71,.31,1.1,.41,.39,.1,.77,.15,1.13,.15,.56,0,1-.09,1.3-.27,.3-.18,.45-.46,.45-.82,0-.28-.12-.51-.36-.71-.24-.2-.71-.43-1.41-.7-.66-.25-1.13-.46-1.41-.64-.28-.18-.49-.39-.62-.62-.14-.23-.21-.51-.21-.84,0-.58,.23-1.04,.7-1.38,.47-.34,1.12-.51,1.94-.51,.77,0,1.52,.15,2.25,.46l-.38,.88c-.71-.29-1.36-.44-1.94-.44-.51,0-.9,.08-1.16,.24-.26,.16-.39,.38-.39,.66,0,.19,.05,.35,.15,.49,.1,.13,.26,.26,.47,.38,.22,.12,.63,.29,1.25,.52,.85,.31,1.42,.61,1.71,.92,.3,.31,.45,.7,.45,1.17Z"/></g></g><g><path d="M137.66,59.37c.15,.03,.3,.02,.44-.02,.1-.03,.19-.07,.27-.13,.21-.15,.35-.37,.4-.62,.05-.25,0-.51-.16-.72-.15-.21-.37-.35-.62-.4-.25-.05-.51,0-.72,.16-.21,.15-.35,.37-.4,.62-.05,.25,0,.51,.16,.72,.15,.21,.37,.35,.62,.4h0Z"/><path d="M131.52,61.6c.15,.03,.3,.02,.44-.02,.1-.03,.19-.07,.27-.13,.21-.15,.35-.37,.4-.62,.05-.25,0-.51-.16-.72-.3-.43-.9-.54-1.33-.24-.21,.15-.35,.37-.4,.62-.05,.25,0,.51,.16,.72,.15,.21,.37,.35,.62,.4h0Z"/><path d="M145.3,76.4c-.29-.11-.62,.03-.73,.33-.11,.29,.03,.62,.33,.73,.29,.11,.62-.03,.73-.33,.11-.29-.03-.62-.33-.73h0Z"/><path d="M147.49,75.43c-.29-.11-.62,.03-.73,.33-.11,.29,.03,.62,.33,.73,.29,.11,.62-.03,.73-.33,.11-.29-.03-.62-.33-.73h0Z"/><path d="M144.65,74.95c.11-.29-.03-.62-.33-.73-.29-.11-.62,.03-.73,.33-.11,.29,.03,.62,.33,.73,.29,.11,.62-.03,.73-.33h0Z"/><path d="M149.68,74.45c-.29-.11-.62,.03-.73,.33s.03,.62,.33,.73c.29,.11,.62-.03,.73-.33,.11-.29-.03-.62-.33-.73h0Z"/><path d="M146.84,73.97c.11-.29-.03-.62-.33-.73-.29-.11-.62,.03-.73,.33-.11,.29,.03,.62,.33,.73,.29,.11,.62-.03,.73-.33h0Z"/><g class="o"><path d="M143.67,72.76c.11-.29-.03-.62-.33-.73-.29-.11-.62,.03-.73,.33-.11,.29,.03,.62,.33,.73,.29,.11,.62-.03,.73-.33h0Z"/><path d="M150.51,63.42l-7.16,6.14-5.83-4.46,10.92-8.15,5.38,3.62-3.32,2.85h0Zm3.61,7.88l-7.67,7.4s-.11-.08-.17-.11c-.29-.11-.62,.03-.73,.33-.08,.2-.03,.41,.09,.56l-1.39,1.34-.1-.23c.12-.06,.21-.16,.27-.3,.11-.29-.03-.62-.33-.73-.13-.05-.27-.05-.39,0l-.51-1.17c.11-.06,.21-.16,.26-.29,.11-.29-.03-.62-.33-.73-.13-.05-.26-.05-.38,0l-.52-1.17c.11-.06,.2-.16,.25-.29,.11-.29-.03-.62-.33-.73-.13-.05-.26-.05-.38,0l-.52-1.17c.11-.06,.19-.16,.24-.28,.11-.29-.03-.62-.33-.73-.12-.05-.25-.05-.37-.01l-.52-1.17c.1-.06,.19-.16,.23-.28,.11-.29-.03-.62-.33-.73-.12-.05-.24-.05-.36-.01l-2-4.53,2.68,2.05,2.63,2.01h0s.04,.03,.07,.04h.02s.04,.02,.06,.03h.02s.05,0,.08,0h.02s.04,0,.06-.01h.02s.03-.02,.04-.02h.02s.04-.03,.06-.05h0l7.53-6.46,2.99,7.44h0Zm-23.11,9.46l-3.11-6.52,8.84-.35s.06,0,.09-.02c.15-.04,.26-.18,.26-.34l.21-6.63,6.25,14.17-12.54-.32h0Zm-3.18-16.59c.32,.61,.68,1.14,1.09,1.55l-3.72,.46,2.62-2.01h0Zm-1.07-5.91v-.04c-.26-.95-.5-2.19-.1-3.32,.13-.36,.5-.58,.89-.51,1.29,.22,2.72,1.06,3.4,2.01l.28,.39,.31-.36c.97-1.15,2.33-1.7,4.17-1.7h.5l-.14-.47c-.24-.82,.28-2.46,1.15-3.58,.2-.25,.54-.33,.81-.17,.84,.49,1.53,1.39,2.03,2.66l.03,.06s.89,1.37,1.64,2.95c.94,1.99,1.27,3.48,.92,4.19h0l-5.86,4.38-6.79,.84s-.06-.03-.09-.05c-.85-.49-1.66-1.89-2.34-4.05-.53-1.68-.78-3.21-.79-3.23h0Zm16.35-.65l3.97-.55-3.57,2.66c.01-.63-.15-1.37-.4-2.12h0Zm11.54,2.63l-6-4.04h-.01l-.02-.02h-.03l-.02-.02h-.06l-.03-.02h-.02s-.02,0-.04,0h-.02l-5.46,.75s-.06,.01-.08,.02c-.74-1.86-1.87-3.65-2.13-4.05-.57-1.41-1.35-2.41-2.33-2.99-.59-.34-1.35-.19-1.77,.36-.78,1.02-1.43,2.61-1.35,3.78-1.66,.08-3,.62-4,1.62-.85-.96-2.27-1.74-3.6-1.96-.74-.12-1.46,.29-1.71,.99-.47,1.31-.21,2.68,.07,3.74,.05,.29,.51,2.92,1.47,5.1-.01,0-.02,.01-.04,.02l-3.79,2.9s-.07,.07-.09,.11h0v.02h0s-.02,.05-.03,.07h0s0,.04-.01,.06h0l-.63,7.34c0,.11,.03,.21,.1,.29,.07,.08,.18,.12,.28,.11l3.82-.15,3.34,7.01c.06,.13,.19,.21,.32,.21l13.35,.34s.01,0,.02,0h.02s.05,0,.08-.01,.05-.02,.07-.03h.02s.03-.04,.05-.05h0l10.43-10.07c.11-.1,.14-.26,.09-.4l-3.17-7.9,2.95-2.53c.09-.08,.13-.19,.13-.3,0-.12-.07-.22-.16-.29h0Z"/></g><path d="M135.18,63.2c-.12,.04-.26,.04-.36,0-.05-.02-.14-.06-.17-.16l-.7,.24c.09,.27,.31,.5,.6,.61,.25,.1,.54,.1,.81,.02,.02,0,.04-.01,.05-.02,.29-.1,.53-.29,.68-.54,.25,.1,.54,.11,.82,.03l.05-.02c.29-.1,.53-.29,.68-.54,.16-.26,.2-.57,.1-.85l-.7,.24c.03,.09,0,.18-.04,.23-.06,.1-.16,.18-.29,.22-.24,.08-.47,0-.53-.15h-.01l-.3-.86,.5-.95c.07-.13,.05-.3-.05-.41-.1-.12-.26-.16-.4-.11l-1.68,.6c-.14,.05-.24,.19-.25,.34,0,.15,.08,.29,.23,.35l.93,.39,.33,.96c0,.06-.03,.12-.05,.15-.06,.1-.16,.18-.29,.22h0Z"/></g></g></g></svg>