<?xml version="1.0" encoding="utf-8"?>
<!-- Generator: Adobe Illustrator 26.0.1, SVG Export Plug-In . SVG Version: 6.00 Build 0)  -->
<svg version="1.1" id="Laag_1" xmlns="http://www.w3.org/2000/svg" xmlns:xlink="http://www.w3.org/1999/xlink" x="0px" y="0px"
	 viewBox="0 0 440.5 611.2" style="enable-background:new 0 0 440.5 611.2;" xml:space="preserve">
<style type="text/css">
	.st0{fill:#FBEA24;}
	.st1{clip-path:url(#SVGID_00000031196832138672282850000010501511328717421187_);fill:#12100E;}
	.st2{fill:#12100E;}
</style>
<g>
	<path class="st0" d="M38.2,76.4v229.5c0,0,30.2-40.9,112.1-37.4c81.8,5.3,103.2,37.4,103.2,37.4l-65.8,65.8
		c0,0,46.3,78.3,138.8,53.4c94.3-26.7,24.9,21.3,97.8-39.1l-3.6-256.2c-12.7,9.2-30.5,19.9-53.4,27.4c-49.3,16.1-92.5,7.9-112.7,2.5
		c-0.4-32.5-0.8-65-1.1-97.5c0,0-21.3-44.5-124.5-37.4C128.9,26.6,66.7,30.1,38.2,76.4z"/>
	<g>
		<g>
			<g>
				<defs>
					<rect id="SVGID_1_" x="32.9" y="23" width="394.9" height="567.5"/>
				</defs>
				<clipPath id="SVGID_00000167371844474754867820000018139799176462676614_">
					<use xlink:href="#SVGID_1_"  style="overflow:visible;"/>
				</clipPath>
				<path style="clip-path:url(#SVGID_00000167371844474754867820000018139799176462676614_);fill:#12100E;" d="M303.3,421.5
					c-46.3,0-74.7-12.5-90.7-24.9c-12.5-8.9-17.8-16-21.3-21.3c17.8-7.1,64-28.5,64-48c0-1.8,0-3.6,0-5.3s0-5.3,0-8.9l0,0l3.6-145.9
					c14.2,1.8,30.2,3.6,46.3,3.6c21.3,0,39.1-1.8,55.1-5.3c1.8,1.8,3.6,3.6,5.3,3.6c3.6,0,7.1-3.6,7.1-7.1
					c17.8-5.3,32-14.2,39.1-19.6v10.7c-3.6,0-7.1,3.6-7.1,7.1c0,3.6,3.6,7.1,7.1,7.1l3.6,215.2C411.8,391.2,383.3,421.5,303.3,421.5
					L303.3,421.5z M43.6,289.8V76.4c1.8-3.6,7.1-12.5,19.6-21.3c14.2-10.7,39.1-23.1,81.8-23.1c72.9,0,97.8,28.5,103.2,33.8
					l-3.6,222.4c-14.2-10.7-44.5-26.7-97.8-26.7C93.4,263.2,59.6,281,43.6,289.8L43.6,289.8z M424.2,131.5c0-3.6-1.8-5.3-3.6-5.3
					c-1.8-1.8-5.3,0-7.1,1.8c-7.1,7.1-37.4,33.8-108.5,33.8c-16,0-32-1.8-46.3-3.6l1.8-92.5v-1.8C258.8,62.1,235.7,23,146.7,23
					S34.7,71,32.9,74.6v1.8v227.7v12.5l0,0v275.7h10.7V305.9c3.6-1.8,10.7-8.9,23.1-14.2c16-7.1,42.7-16,80.1-16
					c12.5,0,21.3,0,32,1.8V377v1.8c1.8,1.8,26.7,55.1,122.7,55.1s122.7-42.7,124.5-44.5v-1.8L424.2,131.5L424.2,131.5z"/>
			</g>
		</g>
		<path class="st2" d="M296.2,176c-3.6,0-7.1,3.6-7.1,7.1c0,3.6,3.6,7.1,7.1,7.1c3.6,0,7.1-3.6,7.1-7.1
			C303.3,179.6,299.7,176,296.2,176L296.2,176z"/>
		<path class="st2" d="M342.4,176c-3.6,0-7.1,3.6-7.1,7.1c0,3.6,3.6,7.1,7.1,7.1c3.6,0,7.1-3.6,7.1-7.1
			C351.3,179.6,347.7,176,342.4,176L342.4,176z"/>
		<path class="st2" d="M390.4,176c-3.6,0-7.1,3.6-7.1,7.1c0,3.6,3.6,7.1,7.1,7.1c3.6,0,7.1-3.6,7.1-7.1
			C399.3,179.6,395.8,176,390.4,176L390.4,176z"/>
		<path class="st2" d="M271.3,200.9c-3.6,0-7.1,3.6-7.1,7.1s3.6,7.1,7.1,7.1c3.6,0,7.1-3.6,7.1-7.1
			C280.1,204.5,276.6,200.9,271.3,200.9L271.3,200.9z"/>
		<path class="st2" d="M319.3,200.9c-3.6,0-7.1,3.6-7.1,7.1s3.6,7.1,7.1,7.1c3.6,0,7.1-3.6,7.1-7.1
			C328.2,204.5,324.6,200.9,319.3,200.9L319.3,200.9z"/>
		<path class="st2" d="M367.3,200.9c-3.6,0-7.1,3.6-7.1,7.1s3.6,7.1,7.1,7.1s7.1-3.6,7.1-7.1S370.9,200.9,367.3,200.9L367.3,200.9z"
			/>
		<path class="st2" d="M296.2,224c-3.6,0-7.1,3.6-7.1,7.1c0,3.6,3.6,7.1,7.1,7.1c3.6,0,7.1-3.6,7.1-7.1
			C303.3,227.6,299.7,224,296.2,224L296.2,224z"/>
		<path class="st2" d="M342.4,224c-3.6,0-7.1,3.6-7.1,7.1c0,3.6,3.6,7.1,7.1,7.1c3.6,0,7.1-3.6,7.1-7.1
			C351.3,227.6,347.7,224,342.4,224L342.4,224z"/>
		<path class="st2" d="M296.2,272.1c-3.6,0-7.1,3.6-7.1,7.1c0,3.6,3.6,7.1,7.1,7.1c3.6,0,7.1-3.6,7.1-7.1
			C303.3,275.6,299.7,272.1,296.2,272.1L296.2,272.1z"/>
		<path class="st2" d="M271.3,247.2c-3.6,0-7.1,3.6-7.1,7.1c0,3.6,3.6,7.1,7.1,7.1c3.6,0,7.1-3.6,7.1-7.1
			C280.1,250.7,276.6,247.2,271.3,247.2L271.3,247.2z"/>
		<path class="st2" d="M319.3,247.2c-3.6,0-7.1,3.6-7.1,7.1c0,3.6,3.6,7.1,7.1,7.1c3.6,0,7.1-3.6,7.1-7.1
			C328.2,250.7,324.6,247.2,319.3,247.2L319.3,247.2z"/>
		<path class="st2" d="M271.3,295.2c-3.6,0-7.1,3.6-7.1,7.1s3.6,7.1,7.1,7.1c3.6,0,7.1-3.6,7.1-7.1S276.6,295.2,271.3,295.2
			L271.3,295.2z"/>
	</g>
</g>
</svg>
