<svg xmlns="http://www.w3.org/2000/svg" xmlns:xlink="http://www.w3.org/1999/xlink" width="121.582" height="124.716" viewBox="0 0 121.582 124.716">
  <defs>
    <clipPath id="clip-path">
      <rect id="Rectangle_79" data-name="Rectangle 79" width="86.871" height="94.705" transform="translate(0 41.54) rotate(-28.567)" fill="none"/>
    </clipPath>
  </defs>
  <g id="Group_424" data-name="Group 424" transform="translate(0 0)">
    <g id="Group_105" data-name="Group 105" transform="translate(0 0)">
      <g id="Group_104" data-name="Group 104" clip-path="url(#clip-path)">
        <path id="Path_402" data-name="Path 402" d="M1110.566,106.777,1090.24,117a1.045,1.045,0,0,0-.4.112l-11.769,6-23.177,11.652-8.408-16.721,22.387-11.253.02-.008,7.222-3.633,26.043-13.091,13.589,3.709-5.181,13.013Zm-30.729,17.816,2.219-1.114,6.882,12.642-2.178,1.188-6.923-12.716ZM1066.8,100.652l2.219-1.114,2.053,3.772-2.216,1.117-2.056-3.775Zm-37.055,5.719,5.179-13.015,20.93-10.52h0l9.887-4.968.031-.018h0L1090.6,65.374l8.405,16.721L1074.765,94.28h0l-9.89,4.97-.007.005-21.532,10.822-13.586-3.706Zm23.715-30.224,7.854-4.275.008.015-5.676,3.089,2.394,4.394-2.219,1.114-2.361-4.338Zm-36.517,6.75,4.744-13.173,54.731-29.8,8.948,16.437-24.137,13.142-9.713,5.288-20.877,11.368-13.7-3.265Zm100.5,9.139-15.12-4.13a1.062,1.062,0,0,0-.754.076l-20.613,10.36-2.053-3.772,22-11.058.03-.015a1.057,1.057,0,0,0,.439-1.406l-9.357-18.613a1.059,1.059,0,0,0-1.419-.47l-22.674,11.4-2.567-4.714-2.176,1.186-.008-.015,24.136-13.142a1.058,1.058,0,0,0,.424-1.434l-9.961-18.3a1.059,1.059,0,0,0-1.437-.424l-56.013,30.5a1.071,1.071,0,0,0-.49.571l-5.283,14.665a1.055,1.055,0,0,0,.751,1.389l15.244,3.633a1.066,1.066,0,0,0,.754-.1l20.3-11.055,2.328,4.275-20.314,10.21a1.049,1.049,0,0,0-.508.553l-5.765,14.49a1.056,1.056,0,0,0,.706,1.411l15.12,4.128a1.063,1.063,0,0,0,.754-.076l20.986-10.548,2.056,3.775-22.375,11.246a1.06,1.06,0,0,0-.472,1.422l9.359,18.613a1.057,1.057,0,0,0,1.419.47l23.047-11.583,7.463,13.706a1.055,1.055,0,0,0,1.434.421l11.766-6.4a1.058,1.058,0,0,0,.424-1.434l-7.22-13.259,20.065-10.086.031-.018a1.053,1.053,0,0,0,.477-.538l5.768-14.485a1.056,1.056,0,0,0-.706-1.411Z" transform="translate(-1009.159 -32.596)" fill="#030504"/>
      </g>
    </g>
    <path id="Path_403" data-name="Path 403" d="M1032.508,45.894a1.5,1.5,0,0,0-1.008-1.871l-.013,0a1.5,1.5,0,1,0,1.021,1.873Z" transform="translate(-985.962 -22.552)" fill="#030504"/>
    <path id="Path_404" data-name="Path 404" d="M1030.3,47.085a1.5,1.5,0,1,0-1.866,1.018,1.5,1.5,0,0,0,1.866-1.018Z" transform="translate(-989.357 -20.712)" fill="#030504"/>
    <path id="Path_405" data-name="Path 405" d="M1032.7,51.5a1.5,1.5,0,1,0-1.868,1.018A1.5,1.5,0,0,0,1032.7,51.5Z" transform="translate(-985.674 -13.919)" fill="#030504"/>
    <path id="Path_406" data-name="Path 406" d="M1037.273,43.314a1.5,1.5,0,0,0-1.008-1.871l-.013-.005a1.5,1.5,0,1,0,1.021,1.876Z" transform="translate(-978.631 -26.526)" fill="#030504"/>
    <path id="Path_407" data-name="Path 407" d="M1035.07,44.5a1.5,1.5,0,1,0-1.869,1.015,1.506,1.506,0,0,0,1.869-1.015Z" transform="translate(-982.025 -24.687)" fill="#030504"/>
    <path id="Path_408" data-name="Path 408" d="M1038.473,45.512a1.5,1.5,0,1,0-1.868,1.018,1.5,1.5,0,0,0,1.868-1.018Z" transform="translate(-976.789 -23.132)" fill="#030504"/>
    <path id="Path_409" data-name="Path 409" d="M1029.844,62.871l0,.01a1.419,1.419,0,1,0,0-.01Z" transform="translate(-985.653 4.966)" fill="#030504"/>
    <path id="Path_410" data-name="Path 410" d="M1028.713,60.635a1.5,1.5,0,1,0,1.9-.954,1.5,1.5,0,0,0-1.9.954Z" transform="translate(-987.391 1.516)" fill="#030504"/>
    <path id="Path_411" data-name="Path 411" d="M1029.831,57.262a1.5,1.5,0,1,0,1.9-.952,1.5,1.5,0,0,0-1.9.952Z" transform="translate(-985.671 -3.67)" fill="#030504"/>
    <path id="Path_412" data-name="Path 412" d="M1037.917,61.2a1.5,1.5,0,0,0-2.854-.952l0,.01a1.5,1.5,0,0,0,2.856.942Z" transform="translate(-977.622 0.931)" fill="#030504"/>
    <path id="Path_413" data-name="Path 413" d="M1027.587,58.389a1.5,1.5,0,1,0,1.9-.954,1.505,1.505,0,0,0-1.9.954Z" transform="translate(-989.124 -1.937)" fill="#030504"/>
    <path id="Path_414" data-name="Path 414" d="M1042.757,58.768a1.5,1.5,0,1,0-1.9.954,1.5,1.5,0,0,0,1.9-.954Z" transform="translate(-970.173 -2.809)" fill="#030504"/>
    <path id="Path_415" data-name="Path 415" d="M1039.024,57.828a1.5,1.5,0,1,0-2.843-.947l0,0a1.5,1.5,0,0,0,2.846.944Z" transform="translate(-975.904 -4.252)" fill="#030504"/>
    <path id="Path_416" data-name="Path 416" d="M1035.66,56.718a1.5,1.5,0,1,0-2.849-.957l0,.01a1.5,1.5,0,0,0,2.854.947Z" transform="translate(-981.089 -5.973)" fill="#030504"/>
    <path id="Path_417" data-name="Path 417" d="M1041.63,56.528a1.5,1.5,0,1,0-2.851-.954l0,.01a1.5,1.5,0,0,0,2.854.944Z" transform="translate(-971.905 -6.265)" fill="#030504"/>
    <path id="Path_418" data-name="Path 418" d="M1043.877,55.4a1.5,1.5,0,1,0-1.9.954,1.505,1.505,0,0,0,1.9-.954Z" transform="translate(-968.452 -7.996)" fill="#030504"/>
    <path id="Path_419" data-name="Path 419" d="M1040.5,54.288a1.5,1.5,0,0,0-2.848-.96l-.005.01a1.5,1.5,0,0,0,2.854.949Z" transform="translate(-973.638 -9.714)" fill="#030504"/>
    <path id="Path_420" data-name="Path 420" d="M1038.919,67.515a1.5,1.5,0,1,0,1.9-.954,1.5,1.5,0,0,0-1.9.954Z" transform="translate(-971.689 12.104)" fill="#030504"/>
    <path id="Path_421" data-name="Path 421" d="M1040.053,69.76l0,.01a1.392,1.392,0,1,0,0-.01Z" transform="translate(-969.944 15.565)" fill="#030504"/>
    <path id="Path_422" data-name="Path 422" d="M1032.572,67.893a1.5,1.5,0,1,0,1.9-.954,1.5,1.5,0,0,0-1.9.954Z" transform="translate(-981.454 12.685)" fill="#030504"/>
    <path id="Path_423" data-name="Path 423" d="M1044.89,67.328a1.5,1.5,0,1,0,1.9-.954,1.5,1.5,0,0,0-1.9.954Z" transform="translate(-962.502 11.814)" fill="#030504"/>
    <path id="Path_424" data-name="Path 424" d="M1037.794,65.267l0,.01a1.421,1.421,0,1,0,0-.01Z" transform="translate(-973.42 8.648)" fill="#030504"/>
    <path id="Path_425" data-name="Path 425" d="M1043.768,65.079l0,.01a1.419,1.419,0,1,0,0-.01Z" transform="translate(-964.231 8.363)" fill="#030504"/>
    <path id="Path_426" data-name="Path 426" d="M1042.639,62.834l0,.01a1.741,1.741,0,1,0,0-.01Z" transform="translate(-965.97 4.905)" fill="#030504"/>
  </g>
</svg>
