<?xml version="1.0" encoding="utf-8"?>
<!-- Generator: Adobe Illustrator 26.0.1, SVG Export Plug-In . SVG Version: 6.00 Build 0)  -->
<svg version="1.1" id="Laag_1" xmlns="http://www.w3.org/2000/svg" xmlns:xlink="http://www.w3.org/1999/xlink" x="0px" y="0px"
	 viewBox="0 0 193.11 267.9" style="enable-background:new 0 0 193.11 267.9;" xml:space="preserve">
<style type="text/css">
	.st0{clip-path:url(#SVGID_00000140006224695870243750000012302932238676661662_);fill:#12100B;}
	.st1{fill:#12100B;}
</style>
<g>
	<g>
		<defs>
			<rect id="SVGID_1_" x="2.88" y="27.11" width="190.24" height="208.38"/>
		</defs>
		<clipPath id="SVGID_00000137851121215240609940000010781400201014716033_">
			<use xlink:href="#SVGID_1_"  style="overflow:visible;"/>
		</clipPath>
		<path style="clip-path:url(#SVGID_00000137851121215240609940000010781400201014716033_);fill:#12100B;" d="M137.45,134.99
			c-1,0.74-1.6,1.99-1.6,3.35v92.14h-15.95c-0.08-1.88-1.42-3.39-3.07-3.39c-1.66,0-3,1.5-3.07,3.39h-12.38
			c-0.08-1.88-1.42-3.39-3.07-3.39c-1.66,0-3,1.5-3.07,3.39H82.87c-0.08-1.88-1.42-3.39-3.07-3.39c-1.66,0-3,1.5-3.07,3.39H64.35
			c-0.08-1.88-1.42-3.39-3.07-3.39c-1.66,0-3,1.5-3.07,3.39h-7.9v-7.53c0.49,0.38,1.08,0.6,1.71,0.6c1.7,0,3.09-1.59,3.09-3.55
			c0-1.96-1.38-3.55-3.09-3.55c-0.63,0-1.22,0.22-1.71,0.6v-15.39c0.49,0.38,1.08,0.6,1.71,0.6c1.7,0,3.09-1.59,3.09-3.55
			c0-1.96-1.38-3.55-3.09-3.55c-0.63,0-1.22,0.22-1.71,0.6v-15.39c0.49,0.38,1.08,0.6,1.71,0.6c1.7,0,3.09-1.59,3.09-3.55
			c0-1.96-1.38-3.55-3.09-3.55c-0.63,0-1.22,0.22-1.71,0.6v-15.39c0.49,0.38,1.08,0.6,1.71,0.6c1.7,0,3.09-1.59,3.09-3.55
			c0-1.96-1.38-3.55-3.09-3.55c-0.63,0-1.22,0.22-1.71,0.6v-49.28l101.28-71.42l17.89,31.62L135,88.82l2.3,4.24l34.55-24.77
			l16.56,29.27L137.45,134.99L137.45,134.99z M25.62,217.6c0.95-0.75,1.51-1.98,1.51-3.31c-0.01-1.32-0.58-2.55-1.54-3.29
			L8.43,197.89l16.48-11.57c0.99-0.7,1.61-1.91,1.65-3.25c0.04-1.34-0.5-2.6-1.45-3.38L8.52,166.12l18.55-11.29
			c1.06-0.64,1.74-1.85,1.83-3.23c0.09-1.37-0.44-2.68-1.4-3.49L9.35,132.79l36.6-25.81v123.51H9.22L25.62,217.6L25.62,217.6z
			 M192.55,95.7l-37.79-66.78c-1.03-1.82-3.1-2.36-4.71-1.22L73.49,81.69L50.49,28.91c-0.5-1.15-1.61-1.74-2.69-1.45
			c-1.08,0.3-1.84,1.4-1.84,2.68v70.97L5.95,129.32c-0.98,0.69-1.6,1.9-1.65,3.22s0.48,2.58,1.41,3.37l18.07,15.25L5.21,162.47
			c-1.07,0.65-1.75,1.87-1.83,3.25c-0.08,1.39,0.46,2.7,1.45,3.5l16.67,13.64l-16.52,11.6c-1.01,0.71-1.63,1.95-1.65,3.32
			c-0.02,1.36,0.55,2.63,1.54,3.39l17.22,13.16l-17.69,13.9c-1.26,0.99-1.8,2.78-1.35,4.46c0.45,1.68,1.78,2.8,3.3,2.8h130.41
			c1.91,0,3.46-1.78,3.46-3.98V138.9l51.31-37.68c0.78-0.58,1.32-1.47,1.52-2.51C193.23,97.66,193.06,96.6,192.55,95.7L192.55,95.7z
			"/>
	</g>
	<path class="st1" d="M82.19,115.9c3.32,0.02,6.04-3.06,6.06-6.88c0.02-3.83-2.67-6.94-5.99-6.97c-3.33-0.02-6.04,3.05-6.06,6.88
		C76.18,112.76,78.86,115.88,82.19,115.9L82.19,115.9z"/>
	<path class="st1" d="M107.58,216.46c-1.71,0-3.09,1.59-3.09,3.55c0,1.96,1.38,3.55,3.09,3.55c1.7,0,3.09-1.59,3.09-3.55
		C110.66,218.05,109.28,216.46,107.58,216.46L107.58,216.46z"/>
	<path class="st1" d="M98.32,205.81c-1.71,0-3.09,1.59-3.09,3.55c0,1.96,1.38,3.55,3.09,3.55c1.71,0,3.09-1.59,3.09-3.55
		C101.4,207.4,100.02,205.81,98.32,205.81L98.32,205.81z"/>
	<path class="st1" d="M89.06,195.17c-1.7,0-3.09,1.59-3.09,3.55c0,1.96,1.38,3.55,3.09,3.55c1.7,0,3.09-1.59,3.09-3.55
		C92.14,196.76,90.76,195.17,89.06,195.17L89.06,195.17z"/>
	<path class="st1" d="M89.06,216.46c-1.7,0-3.09,1.59-3.09,3.55c0,1.96,1.38,3.55,3.09,3.55c1.7,0,3.09-1.59,3.09-3.55
		C92.14,218.05,90.76,216.46,89.06,216.46L89.06,216.46z"/>
	<path class="st1" d="M70.53,173.88c-1.7,0-3.09,1.59-3.09,3.55c0,1.96,1.38,3.55,3.09,3.55c1.7,0,3.09-1.59,3.09-3.55
		C73.62,175.47,72.24,173.88,70.53,173.88L70.53,173.88z"/>
	<path class="st1" d="M70.53,195.17c-1.7,0-3.09,1.59-3.09,3.55c0,1.96,1.38,3.55,3.09,3.55c1.7,0,3.09-1.59,3.09-3.55
		C73.62,196.76,72.24,195.17,70.53,195.17L70.53,195.17z"/>
	<path class="st1" d="M70.53,216.46c-1.7,0-3.09,1.59-3.09,3.55c0,1.96,1.38,3.55,3.09,3.55c1.7,0,3.09-1.59,3.09-3.55
		C73.62,218.05,72.24,216.46,70.53,216.46L70.53,216.46z"/>
	<path class="st1" d="M79.79,184.52c-1.7,0-3.09,1.59-3.09,3.55c0,1.96,1.38,3.55,3.09,3.55s3.09-1.59,3.09-3.55
		C82.88,186.11,81.5,184.52,79.79,184.52L79.79,184.52z"/>
	<path class="st1" d="M79.79,205.81c-1.7,0-3.09,1.59-3.09,3.55c0,1.96,1.38,3.55,3.09,3.55s3.09-1.59,3.09-3.55
		C82.88,207.4,81.5,205.81,79.79,205.81L79.79,205.81z"/>
	<path class="st1" d="M61.27,163.23c-1.7,0-3.09,1.59-3.09,3.55c0,1.96,1.38,3.55,3.09,3.55c1.7,0,3.09-1.59,3.09-3.55
		C64.36,164.82,62.98,163.23,61.27,163.23L61.27,163.23z"/>
	<path class="st1" d="M61.27,184.52c-1.7,0-3.09,1.59-3.09,3.55c0,1.96,1.38,3.55,3.09,3.55c1.7,0,3.09-1.59,3.09-3.55
		C64.36,186.11,62.98,184.52,61.27,184.52L61.27,184.52z"/>
	<path class="st1" d="M61.27,205.81c-1.7,0-3.09,1.59-3.09,3.55c0,1.96,1.38,3.55,3.09,3.55c1.7,0,3.09-1.59,3.09-3.55
		C64.36,207.4,62.98,205.81,61.27,205.81L61.27,205.81z"/>
</g>
</svg>
