<?xml version="1.0" encoding="utf-8"?>
<!-- Generator: Adobe Illustrator 26.2.1, SVG Export Plug-In . SVG Version: 6.00 Build 0)  -->
<svg version="1.1" id="Layer_1" xmlns="http://www.w3.org/2000/svg" xmlns:xlink="http://www.w3.org/1999/xlink" x="0px" y="0px"
	 viewBox="0 0 612 792" style="enable-background:new 0 0 612 792;" xml:space="preserve">
<style type="text/css">
	.st0{clip-path:url(#SVGID_00000170263095234830606280000017660923352383610277_);}
	.st1{clip-path:url(#SVGID_00000066506653572538029970000001175459162568658582_);}
	.st2{clip-path:url(#SVGID_00000150073936983157365970000010425157895892323000_);}
	.st3{clip-path:url(#SVGID_00000106827896406778280970000009079482557619407535_);}
	.st4{clip-path:url(#SVGID_00000041282126179212887200000012171689215956771512_);}
	.st5{clip-path:url(#SVGID_00000137824179885564036140000014878679504164277941_);}
	.st6{clip-path:url(#SVGID_00000094598134814424627740000013206202657301260694_);}
</style>
<g>
	<g>
		<defs>
			<rect id="SVGID_1_" x="196.09" y="54.17" width="69.98" height="99.65"/>
		</defs>
		<clipPath id="SVGID_00000174563210529682426210000006879299587255253695_">
			<use xlink:href="#SVGID_1_"  style="overflow:visible;"/>
		</clipPath>
		<path style="clip-path:url(#SVGID_00000174563210529682426210000006879299587255253695_);" d="M227.73,135.7
			c-3.72,0-5.59-2.5-5.67-2.61l-0.8,0.58l-0.8,0.57c0.1,0.14,2.5,3.43,7.27,3.43c3.81,0,7.03-3.17,7.16-3.31l-1.39-1.39
			C233.48,133,230.72,135.7,227.73,135.7L227.73,135.7z"/>
		<path style="clip-path:url(#SVGID_00000174563210529682426210000006879299587255253695_);" d="M259.27,86.38
			c-2.5,2.11-5.8,3.36-9.42,3.98c-0.24-0.2-0.55-0.32-0.88-0.32c-0.48,0-0.9,0.24-1.15,0.6c-1.95,0.21-3.96,0.26-5.97,0.18
			c-0.23-0.47-0.7-0.79-1.25-0.79c-0.49,0-0.92,0.25-1.17,0.63c-2.57-0.23-5.09-0.64-7.41-1.18c-1.25-0.29-2.46-0.59-3.62-0.9
			c0.6-0.16,1.04-0.7,1.04-1.34c0-0.77-0.62-1.4-1.4-1.4c-0.77,0-1.4,0.62-1.4,1.4c0,0.38,0.15,0.73,0.4,0.98
			c-2.32-0.64-4.44-1.29-6.36-1.93c-0.25-0.27-0.62-0.45-1.02-0.45c-0.08,0-0.16,0.01-0.23,0.02c-1.42-0.49-2.72-0.97-3.88-1.43
			c0.74-0.04,1.32-0.64,1.32-1.39c0-0.77-0.62-1.4-1.4-1.4c-0.77,0-1.4,0.62-1.4,1.4c0,0.37,0.15,0.71,0.39,0.96
			c-2.27-0.91-3.95-1.69-4.97-2.19c-0.5-0.25-1.09-0.23-1.58,0.05c-0.01,0.01-0.02,0.02-0.03,0.02c-0.22-0.15-0.49-0.24-0.78-0.24
			c-0.77,0-1.4,0.62-1.4,1.4c0,0.7,0.51,1.27,1.18,1.37c-0.4,1.9-1.51,4.45-4.54,6.12c-2,1.1-3.37,2.68-4.3,4.27v-2.17
			c0.2,0.11,0.43,0.18,0.68,0.18c0.77,0,1.4-0.62,1.4-1.4c0-0.77-0.62-1.4-1.4-1.4c-0.25,0-0.48,0.07-0.68,0.18v-5.95
			c0.2,0.11,0.43,0.18,0.68,0.18c0.77,0,1.4-0.62,1.4-1.4c0-0.77-0.62-1.4-1.4-1.4c-0.25,0-0.48,0.07-0.68,0.18V75.9
			c0.2,0.11,0.43,0.18,0.68,0.18c0.77,0,1.4-0.62,1.4-1.4c0-0.77-0.62-1.4-1.4-1.4c-0.25,0-0.48,0.07-0.68,0.18v-0.02
			c0-2.45,0.67-4.28,1.99-5.44c1.45-1.26,3.49-1.59,5.21-1.59c0.16,0,0.31,0,0.47,0.01c0.06,0.71,0.65,1.28,1.38,1.28
			c0.75,0,1.36-0.6,1.39-1.34c0.19-0.1,0.37-0.22,0.53-0.37c0.46-0.45,0.68-1.06,0.61-1.7c-0.13-1.19-0.02-2.93,1.21-4.45
			c0.76-0.94,1.86-1.68,3.28-2.24c-0.03,0.11-0.05,0.22-0.05,0.34c0,0.77,0.62,1.4,1.4,1.4c0.77,0,1.4-0.62,1.4-1.4
			c0-0.4-0.17-0.76-0.45-1.02c0.77-0.17,1.6-0.29,2.5-0.38c3.14-0.31,11.42-0.91,20.43,0.16c0.16,0.02,0.32,0.04,0.48,0.06
			c-0.39,0.25-0.65,0.68-0.65,1.17c0,0.77,0.62,1.4,1.4,1.4c0.77,0,1.4-0.62,1.4-1.4c0-0.36-0.14-0.68-0.36-0.93
			c2.13,0.32,4.13,0.72,5.97,1.2c0.13,0.64,0.69,1.12,1.37,1.12c0.4,0,0.76-0.17,1.01-0.44c3.8,1.22,6.87,2.81,9.18,4.78
			c3.04,2.6,4.69,5.87,4.91,9.72C264.4,79.06,262.78,83.42,259.27,86.38L259.27,86.38z M246.36,143.88
			c-5.16,5.21-11.46,7.97-18.22,7.97c-7.29,0-14.66-3.94-20.2-10.82c-5.87-7.28-9.3-17.18-9.66-27.86l-0.15-8.41h2.11
			c-0.53,5.25,0.05,14.6,10.6,15.66c14.09,1.42,14.97-9.98,14.97-10.77c0-0.79,1.15-2.4,2.46-2.4v-0.01h0v0.01
			c1.31,0,2.46,1.61,2.46,2.4c0,0.79,0.88,12.19,14.97,10.77c10.55-1.06,11.13-10.41,10.6-15.66h1.95
			c-0.1,4.44-0.41,13.27-1.26,17.59C255.27,131.14,251.6,138.58,246.36,143.88L246.36,143.88z M198.06,101.13
			c0.04-0.48,0.64-6.31,5.25-8.85c4.4-2.43,5.45-6.5,5.69-8.5c3.17,1.52,11.06,4.95,22.58,7.63c4.2,0.98,17.72,3.5,26.75-1.94
			l-0.02,11.67h-4.47c-6.31-0.22-15.6-0.42-18.6,1.17c-2.9,1.54-6.04,1.67-6.79,1.68h-0.34c-0.75-0.01-3.9-0.14-6.79-1.68
			c-3-1.59-12.29-1.39-18.6-1.17L198.06,101.13L198.06,101.13L198.06,101.13z M266.03,73.29c-0.26-4.41-2.14-8.14-5.6-11.1
			c-11.92-10.2-38.68-7.9-41.69-7.6c-4.43,0.44-7.6,1.79-9.41,4.02c-1.66,2.04-1.81,4.34-1.64,5.9c0,0.01,0,0.04-0.03,0.08
			c-0.02,0.02-0.05,0.04-0.1,0.03c-2.13-0.29-6.12-0.42-8.8,1.92c-1.77,1.55-2.67,3.87-2.67,6.92l0,27.66l0.22,12.1
			c0.38,11.12,3.96,21.43,10.1,29.05c5.92,7.34,13.84,11.55,21.73,11.55c7.3,0,14.08-2.96,19.61-8.55
			c5.51-5.57,9.38-13.37,11.17-22.54c1.19-6.06,1.34-20.04,1.34-20.64l0.02-14c0.08-0.07,0.17-0.14,0.25-0.21
			C264.55,84.51,266.4,79.6,266.03,73.29L266.03,73.29z"/>
	</g>
	<path d="M223.85,56.55c-0.77,0-1.4,0.62-1.4,1.4c0,0.77,0.62,1.4,1.4,1.4c0.77,0,1.4-0.62,1.4-1.4
		C225.25,57.18,224.62,56.55,223.85,56.55L223.85,56.55z"/>
	<path d="M232.23,56.55c-0.77,0-1.4,0.62-1.4,1.4c0,0.77,0.62,1.4,1.4,1.4c0.77,0,1.4-0.62,1.4-1.4
		C233.62,57.18,233,56.55,232.23,56.55L232.23,56.55z"/>
	<path d="M215.48,64.93c-0.77,0-1.4,0.62-1.4,1.4c0,0.77,0.62,1.4,1.4,1.4c0.77,0,1.4-0.62,1.4-1.4
		C216.88,65.55,216.25,64.93,215.48,64.93L215.48,64.93z"/>
	<path d="M223.85,64.93c-0.77,0-1.4,0.62-1.4,1.4c0,0.77,0.62,1.4,1.4,1.4c0.77,0,1.4-0.62,1.4-1.4
		C225.25,65.55,224.62,64.93,223.85,64.93L223.85,64.93z"/>
	<path d="M232.23,64.93c-0.77,0-1.4,0.62-1.4,1.4c0,0.77,0.62,1.4,1.4,1.4c0.77,0,1.4-0.62,1.4-1.4
		C233.62,65.55,233,64.93,232.23,64.93L232.23,64.93z"/>
	<path d="M240.6,64.93c-0.77,0-1.4,0.62-1.4,1.4c0,0.77,0.62,1.4,1.4,1.4c0.77,0,1.4-0.62,1.4-1.4
		C241.99,65.55,241.37,64.93,240.6,64.93L240.6,64.93z"/>
	<path d="M248.97,64.93c-0.77,0-1.4,0.62-1.4,1.4c0,0.77,0.62,1.4,1.4,1.4c0.77,0,1.4-0.62,1.4-1.4
		C250.36,65.55,249.74,64.93,248.97,64.93L248.97,64.93z"/>
	<path d="M257.34,64.93c-0.77,0-1.4,0.62-1.4,1.4c0,0.77,0.62,1.4,1.4,1.4c0.77,0,1.4-0.62,1.4-1.4
		C258.74,65.55,258.11,64.93,257.34,64.93L257.34,64.93z"/>
	<path d="M211.3,60.74c-0.77,0-1.4,0.62-1.4,1.4c0,0.77,0.62,1.4,1.4,1.4s1.4-0.62,1.4-1.4C212.69,61.36,212.07,60.74,211.3,60.74
		L211.3,60.74z"/>
	<path d="M219.67,60.74c-0.77,0-1.4,0.62-1.4,1.4c0,0.77,0.62,1.4,1.4,1.4c0.77,0,1.4-0.62,1.4-1.4
		C221.06,61.36,220.44,60.74,219.67,60.74L219.67,60.74z"/>
	<path d="M228.04,60.74c-0.77,0-1.4,0.62-1.4,1.4c0,0.77,0.62,1.4,1.4,1.4c0.77,0,1.4-0.62,1.4-1.4
		C229.43,61.36,228.81,60.74,228.04,60.74L228.04,60.74z"/>
	<path d="M236.41,60.74c-0.77,0-1.4,0.62-1.4,1.4c0,0.77,0.62,1.4,1.4,1.4c0.77,0,1.4-0.62,1.4-1.4
		C237.81,61.36,237.18,60.74,236.41,60.74L236.41,60.74z"/>
	<path d="M244.78,60.74c-0.77,0-1.4,0.62-1.4,1.4c0,0.77,0.62,1.4,1.4,1.4c0.77,0,1.4-0.62,1.4-1.4
		C246.18,61.36,245.55,60.74,244.78,60.74L244.78,60.74z"/>
	<path d="M253.15,60.74c-0.77,0-1.4,0.62-1.4,1.4c0,0.77,0.62,1.4,1.4,1.4c0.77,0,1.4-0.62,1.4-1.4
		C254.55,61.36,253.93,60.74,253.15,60.74L253.15,60.74z"/>
	<path d="M202.92,69.11c-0.77,0-1.4,0.62-1.4,1.4c0,0.77,0.62,1.4,1.4,1.4c0.77,0,1.4-0.62,1.4-1.4
		C204.32,69.74,203.7,69.11,202.92,69.11L202.92,69.11z"/>
	<path d="M211.3,69.11c-0.77,0-1.4,0.62-1.4,1.4c0,0.77,0.62,1.4,1.4,1.4s1.4-0.62,1.4-1.4C212.69,69.74,212.07,69.11,211.3,69.11
		L211.3,69.11z"/>
	<path d="M219.67,69.11c-0.77,0-1.4,0.62-1.4,1.4c0,0.77,0.62,1.4,1.4,1.4c0.77,0,1.4-0.62,1.4-1.4
		C221.06,69.74,220.44,69.11,219.67,69.11L219.67,69.11z"/>
	<path d="M228.04,69.11c-0.77,0-1.4,0.62-1.4,1.4c0,0.77,0.62,1.4,1.4,1.4c0.77,0,1.4-0.62,1.4-1.4
		C229.43,69.74,228.81,69.11,228.04,69.11L228.04,69.11z"/>
	<path d="M236.41,69.11c-0.77,0-1.4,0.62-1.4,1.4c0,0.77,0.62,1.4,1.4,1.4c0.77,0,1.4-0.62,1.4-1.4
		C237.81,69.74,237.18,69.11,236.41,69.11L236.41,69.11z"/>
	<path d="M244.78,69.11c-0.77,0-1.4,0.62-1.4,1.4c0,0.77,0.62,1.4,1.4,1.4c0.77,0,1.4-0.62,1.4-1.4
		C246.18,69.74,245.55,69.11,244.78,69.11L244.78,69.11z"/>
	<path d="M253.15,69.11c-0.77,0-1.4,0.62-1.4,1.4c0,0.77,0.62,1.4,1.4,1.4c0.77,0,1.4-0.62,1.4-1.4
		C254.55,69.74,253.93,69.11,253.15,69.11L253.15,69.11z"/>
	<path d="M261.53,69.11c-0.77,0-1.39,0.62-1.39,1.4c0,0.77,0.62,1.4,1.39,1.4c0.77,0,1.4-0.62,1.4-1.4
		C262.92,69.74,262.3,69.11,261.53,69.11L261.53,69.11z"/>
	<path d="M207.11,73.3c-0.77,0-1.4,0.62-1.4,1.4c0,0.77,0.62,1.4,1.4,1.4c0.77,0,1.4-0.62,1.4-1.4
		C208.51,73.92,207.88,73.3,207.11,73.3L207.11,73.3z"/>
	<path d="M215.48,73.3c-0.77,0-1.4,0.62-1.4,1.4c0,0.77,0.62,1.4,1.4,1.4c0.77,0,1.4-0.62,1.4-1.4
		C216.88,73.92,216.25,73.3,215.48,73.3L215.48,73.3z"/>
	<path d="M223.85,73.3c-0.77,0-1.4,0.62-1.4,1.4c0,0.77,0.62,1.4,1.4,1.4c0.77,0,1.4-0.62,1.4-1.4
		C225.25,73.92,224.62,73.3,223.85,73.3L223.85,73.3z"/>
	<path d="M232.23,73.3c-0.77,0-1.4,0.62-1.4,1.4c0,0.77,0.62,1.4,1.4,1.4c0.77,0,1.4-0.62,1.4-1.4
		C233.62,73.92,233,73.3,232.23,73.3L232.23,73.3z"/>
	<path d="M240.6,73.3c-0.77,0-1.4,0.62-1.4,1.4c0,0.77,0.62,1.4,1.4,1.4c0.77,0,1.4-0.62,1.4-1.4
		C241.99,73.92,241.37,73.3,240.6,73.3L240.6,73.3z"/>
	<path d="M248.97,73.3c-0.77,0-1.4,0.62-1.4,1.4c0,0.77,0.62,1.4,1.4,1.4c0.77,0,1.4-0.62,1.4-1.4
		C250.36,73.92,249.74,73.3,248.97,73.3L248.97,73.3z"/>
	<path d="M257.34,73.3c-0.77,0-1.4,0.62-1.4,1.4c0,0.77,0.62,1.4,1.4,1.4c0.77,0,1.4-0.62,1.4-1.4
		C258.74,73.92,258.11,73.3,257.34,73.3L257.34,73.3z"/>
	<path d="M223.85,81.67c-0.77,0-1.4,0.62-1.4,1.4c0,0.77,0.62,1.4,1.4,1.4c0.77,0,1.4-0.62,1.4-1.4
		C225.25,82.29,224.62,81.67,223.85,81.67L223.85,81.67z"/>
	<path d="M232.23,81.67c-0.77,0-1.4,0.62-1.4,1.4c0,0.77,0.62,1.4,1.4,1.4c0.77,0,1.4-0.62,1.4-1.4
		C233.62,82.29,233,81.67,232.23,81.67L232.23,81.67z"/>
	<path d="M240.6,81.67c-0.77,0-1.4,0.62-1.4,1.4c0,0.77,0.62,1.4,1.4,1.4c0.77,0,1.4-0.62,1.4-1.4
		C241.99,82.29,241.37,81.67,240.6,81.67L240.6,81.67z"/>
	<path d="M248.97,81.67c-0.77,0-1.4,0.62-1.4,1.4c0,0.77,0.62,1.4,1.4,1.4c0.77,0,1.4-0.62,1.4-1.4
		C250.36,82.29,249.74,81.67,248.97,81.67L248.97,81.67z"/>
	<path d="M257.34,81.67c-0.77,0-1.4,0.62-1.4,1.4c0,0.77,0.62,1.4,1.4,1.4c0.77,0,1.4-0.62,1.4-1.4
		C258.74,82.29,258.11,81.67,257.34,81.67L257.34,81.67z"/>
	<path d="M202.92,77.48c-0.77,0-1.4,0.62-1.4,1.4c0,0.77,0.62,1.4,1.4,1.4c0.77,0,1.4-0.62,1.4-1.4
		C204.32,78.11,203.7,77.48,202.92,77.48L202.92,77.48z"/>
	<path d="M211.3,77.48c-0.77,0-1.4,0.62-1.4,1.4c0,0.77,0.62,1.4,1.4,1.4s1.4-0.62,1.4-1.4C212.69,78.11,212.07,77.48,211.3,77.48
		L211.3,77.48z"/>
	<path d="M219.67,77.48c-0.77,0-1.4,0.62-1.4,1.4c0,0.77,0.62,1.4,1.4,1.4c0.77,0,1.4-0.62,1.4-1.4
		C221.06,78.11,220.44,77.48,219.67,77.48L219.67,77.48z"/>
	<path d="M228.04,77.48c-0.77,0-1.4,0.62-1.4,1.4c0,0.77,0.62,1.4,1.4,1.4c0.77,0,1.4-0.62,1.4-1.4
		C229.43,78.11,228.81,77.48,228.04,77.48L228.04,77.48z"/>
	<path d="M236.41,77.48c-0.77,0-1.4,0.62-1.4,1.4c0,0.77,0.62,1.4,1.4,1.4c0.77,0,1.4-0.62,1.4-1.4
		C237.81,78.11,237.18,77.48,236.41,77.48L236.41,77.48z"/>
	<path d="M244.78,77.48c-0.77,0-1.4,0.62-1.4,1.4c0,0.77,0.62,1.4,1.4,1.4c0.77,0,1.4-0.62,1.4-1.4
		C246.18,78.11,245.55,77.48,244.78,77.48L244.78,77.48z"/>
	<path d="M253.15,77.48c-0.77,0-1.4,0.62-1.4,1.4c0,0.77,0.62,1.4,1.4,1.4c0.77,0,1.4-0.62,1.4-1.4
		C254.55,78.11,253.93,77.48,253.15,77.48L253.15,77.48z"/>
	<path d="M261.53,77.48c-0.77,0-1.39,0.62-1.39,1.4c0,0.77,0.62,1.4,1.39,1.4c0.77,0,1.4-0.62,1.4-1.4
		C262.92,78.11,262.3,77.48,261.53,77.48L261.53,77.48z"/>
	<path d="M202.92,85.85c-0.77,0-1.4,0.62-1.4,1.4c0,0.77,0.62,1.4,1.4,1.4c0.77,0,1.4-0.62,1.4-1.4
		C204.32,86.48,203.7,85.85,202.92,85.85L202.92,85.85z"/>
	<path d="M236.41,85.85c-0.77,0-1.4,0.62-1.4,1.4c0,0.77,0.62,1.4,1.4,1.4c0.77,0,1.4-0.62,1.4-1.4
		C237.81,86.48,237.18,85.85,236.41,85.85L236.41,85.85z"/>
	<path d="M244.78,85.85c-0.77,0-1.4,0.62-1.4,1.4c0,0.77,0.62,1.4,1.4,1.4c0.77,0,1.4-0.62,1.4-1.4
		C246.18,86.48,245.55,85.85,244.78,85.85L244.78,85.85z"/>
	<path d="M253.15,85.85c-0.77,0-1.4,0.62-1.4,1.4c0,0.77,0.62,1.4,1.4,1.4c0.77,0,1.4-0.62,1.4-1.4
		C254.55,86.48,253.93,85.85,253.15,85.85L253.15,85.85z"/>
</g>
<g>
	<g>
		<defs>
			<rect id="SVGID_00000016770122169023530240000010243062625922109592_" x="123.84" y="134.68" width="67.92" height="102.18"/>
		</defs>
		<clipPath id="SVGID_00000108267971989478229100000004859108835055769993_">
			<use xlink:href="#SVGID_00000016770122169023530240000010243062625922109592_"  style="overflow:visible;"/>
		</clipPath>
		<path style="clip-path:url(#SVGID_00000108267971989478229100000004859108835055769993_);" d="M180.17,207.71
			c-0.68,0-1.35-0.07-2.01-0.21c-0.25-0.39-0.68-0.66-1.18-0.66c-0.2,0-0.38,0.04-0.55,0.11c-0.06-0.03-0.13-0.06-0.19-0.09
			c2.03-3.04,3.63-6.37,4.71-9.82c0.07,0.01,0.14,0.02,0.22,0.02c0.77,0,1.4-0.62,1.4-1.4c0-0.59-0.37-1.09-0.88-1.29
			c0.44-1.87,0.72-3.75,0.86-5.64c1.12,0.28,2.16,0.75,3.08,1.38c-0.08-0.02-0.17-0.03-0.26-0.03c-0.77,0-1.4,0.62-1.4,1.4
			c0,0.77,0.62,1.4,1.4,1.4c0.77,0,1.4-0.62,1.4-1.4c0-0.2-0.04-0.39-0.12-0.57c1.05,0.95,1.88,2.12,2.43,3.45
			c-0.53,0.2-0.91,0.7-0.91,1.3c0,0.77,0.62,1.4,1.4,1.4c0.07,0,0.13-0.01,0.2-0.02c0.04,0.34,0.06,0.68,0.06,1.03
			C189.8,203.39,185.48,207.71,180.17,207.71L180.17,207.71z M185.05,215.24c-0.62,0.14-1.09,0.69-1.09,1.36
			c0,0.57,0.34,1.06,0.83,1.28c-0.41,1.27-1.21,2.37-2.25,3.15c0.01-0.08,0.02-0.16,0.02-0.24c0-0.77-0.62-1.4-1.4-1.4
			s-1.4,0.62-1.4,1.4c0,0.55,0.32,1.01,0.77,1.24c-0.57,0.17-1.17,0.26-1.79,0.26c-3.49,0-6.34-2.84-6.34-6.34
			c0-0.75,0.14-1.47,0.38-2.14c0.77,0,1.39-0.63,1.39-1.39c0-0.24-0.07-0.46-0.17-0.66c1.16-1.31,2.85-2.14,4.74-2.14
			C182.01,209.62,184.7,212.08,185.05,215.24L185.05,215.24z M178.26,232.79c-0.22-0.49-0.71-0.84-1.28-0.84
			c-0.77,0-1.4,0.62-1.4,1.4c0,0.43,0.2,0.82,0.51,1.07c-0.7,0.3-1.46,0.47-2.27,0.47c-1.47,0-2.82-0.56-3.83-1.48
			c0-0.02,0.01-0.03,0.01-0.06c0-0.69-0.51-1.26-1.17-1.37c-0.48-0.84-0.75-1.8-0.75-2.83c0-1.02,0.27-1.97,0.73-2.8
			c0.67-0.1,1.19-0.67,1.19-1.37c0-0.04-0.01-0.06-0.02-0.08c1.02-0.92,2.36-1.49,3.84-1.49c0.81,0,1.59,0.17,2.29,0.48
			c-0.32,0.26-0.53,0.65-0.53,1.09c0,0.77,0.62,1.4,1.4,1.4c0.58,0,1.08-0.35,1.29-0.85c0.81,0.99,1.3,2.25,1.3,3.63
			C179.57,230.53,179.08,231.8,178.26,232.79L178.26,232.79z M175.11,208.51c-0.01,0.01-0.03,0.01-0.04,0.02
			c0.01-0.01,0.01-0.02,0.02-0.03C175.1,208.5,175.11,208.51,175.11,208.51L175.11,208.51z M156.02,218.14
			c-11.1,0-24.66-14.65-24.66-31.75c0-0.5,0.01-1.07,0.03-1.7h3.32c0.49,4.88,4.61,8.69,9.62,8.69c5.01,0,9.13-3.81,9.62-8.69h3.53
			c0.49,4.88,4.61,8.69,9.62,8.69c5.01,0,9.13-3.81,9.62-8.69h3.89c0.04,0.81,0.05,1.39,0.05,1.7
			C180.67,203.49,167.11,218.14,156.02,218.14L156.02,218.14z M126.95,176.12c0.68-0.1,1.2-0.67,1.2-1.38c0-0.77-0.62-1.4-1.4-1.4
			c-0.15,0-0.29,0.03-0.43,0.07c-0.34-1.85-0.52-3.75-0.52-5.66c0-0.12,0.01-0.24,0.01-0.36c0.25,0.23,0.57,0.37,0.93,0.37
			c0.77,0,1.4-0.62,1.4-1.4c0-0.77-0.62-1.4-1.4-1.4c-0.31,0-0.6,0.11-0.83,0.28c0.16-2.02,0.52-3.99,1.05-5.89
			c0.67-0.1,1.18-0.68,1.18-1.37c0-0.39-0.16-0.74-0.42-1c3.25-8.79,10.36-15.72,19.27-18.73c0.2,0.12,0.44,0.19,0.69,0.19
			c0.55,0,1.02-0.32,1.24-0.78c1.86-0.5,3.8-0.82,5.78-0.96c-0.03,0.11-0.05,0.22-0.05,0.34c0,0.77,0.62,1.4,1.4,1.4
			c0.77,0,1.4-0.62,1.4-1.4c0-0.15-0.03-0.28-0.07-0.42c1.94,0.03,3.83,0.23,5.67,0.6c0.09,0.68,0.67,1.22,1.38,1.22
			c0.47,0,0.89-0.24,1.14-0.59c9.43,2.73,17.03,9.81,20.48,18.92c-0.2-0.12-0.44-0.19-0.69-0.19c-0.77,0-1.4,0.62-1.4,1.4
			c0,0.77,0.62,1.4,1.4,1.4c0.58,0,1.08-0.36,1.29-0.87c0.91,2.92,1.4,6.02,1.4,9.23c0,6.28-1.91,12.42-5.43,17.56
			c-0.04-1.15-0.15-3.02-0.45-5.42c0.24-0.25,0.4-0.59,0.4-0.97c0-0.52-0.28-0.96-0.7-1.2c-0.05-0.31-0.1-0.64-0.16-0.96
			c-0.16-0.93-0.99-1.61-1.92-1.57l0,0c-0.36,0.01-0.87,0.03-1.49,0.03c0.06-0.15,0.09-0.31,0.09-0.48c0-0.77-0.62-1.4-1.4-1.4
			c-0.77,0-1.4,0.62-1.4,1.4c0,0.16,0.03,0.31,0.08,0.46c-1.65-0.04-3.62-0.15-5.67-0.39c0-0.02,0.01-0.04,0.01-0.07
			c0-0.77-0.62-1.4-1.4-1.4c-0.66,0-1.21,0.46-1.35,1.07c-1.01-0.17-2.03-0.38-3.01-0.64c-2.42-0.62-4.78-1.46-7.03-2.45
			c0.15-0.22,0.23-0.49,0.23-0.77c0-0.77-0.62-1.4-1.4-1.4c-0.63,0-1.16,0.42-1.33,1c-6.01-3.01-11.11-6.95-14.46-10.32
			c-0.36-0.36-0.86-0.56-1.37-0.55c-0.52,0.01-1.01,0.24-1.36,0.63c-2.56,2.84-4.32,6.27-5.53,9.76c-0.26-0.31-0.64-0.51-1.07-0.51
			c-0.77,0-1.4,0.62-1.4,1.4c0,0.77,0.62,1.4,1.4,1.4c0.13,0,0.25-0.02,0.37-0.06c-0.58,2.05-0.99,4.08-1.28,5.98
			c-0.29,0.26-0.48,0.63-0.48,1.05c0,0.29,0.09,0.56,0.24,0.78c-0.12,0.99-0.2,1.93-0.26,2.8
			C128.43,180.48,127.57,178.34,126.95,176.12L126.95,176.12z M153.95,182.73c-0.49-4.88-4.61-8.69-9.62-8.69
			c-5.01,0-9.13,3.81-9.62,8.69h-3.23c0.39-5.99,1.94-15.26,7.46-21.44c4.98,4.99,13.61,11.14,23.4,14.01
			c-2.66,1.51-4.53,4.24-4.86,7.43H153.95L153.95,182.73z M176.72,182.73c-0.22-2.16-1.14-4.1-2.54-5.6
			c2.39,0.11,4.39,0.08,5.6,0.04c0.37,2.18,0.58,4.07,0.71,5.57H176.72L176.72,182.73z M191.77,198.08c0-5.11-3.26-9.49-7.97-11.02
			c4.02-5.6,6.22-12.36,6.22-19.29c0-18.24-14.84-33.08-33.08-33.08c-14.6,0-27.01,9.51-31.39,22.65c-0.08,0.15-0.14,0.3-0.16,0.48
			c-0.99,3.14-1.53,6.49-1.53,9.96c0,6.57,1.92,12.9,5.55,18.34c0,0.09,0,0.19,0,0.28c0,8.33,3.18,16.94,8.72,23.61
			c5.26,6.33,11.95,10.11,17.91,10.11c4.88,0,10.26-2.55,14.94-6.95c-0.32,0.88-0.5,1.82-0.5,2.8c0,2.15,0.83,4.11,2.18,5.59
			c-3.68,0.58-6.51,3.76-6.51,7.6c0,4.25,3.46,7.71,7.71,7.71s7.71-3.46,7.71-7.71c0-1.88-0.68-3.61-1.81-4.95
			c4.12-0.48,7.33-3.99,7.33-8.24c0-2.8-1.4-5.28-3.53-6.78C188.29,207.73,191.77,203.3,191.77,198.08L191.77,198.08z"/>
	</g>
	<path d="M164.23,202.48c-1.23-0.56-2.17-0.96-3.37-1.48c-1.14-0.5-2.54-0.96-3.5-0.19c-0.29,0.24-0.5,0.56-0.81,0.8
		c-0.16,0.12-0.37,0.21-0.57,0.23c-0.2-0.02-0.41-0.1-0.57-0.23c-0.3-0.23-0.51-0.56-0.81-0.8c-0.96-0.77-2.36-0.31-3.5,0.19
		c-1.2,0.52-2.14,0.92-3.37,1.48c-0.79,0.39-0.81,1.3-0.61,1.76c0.19,0.47,0.58,0.87,0.97,1.25c0.97,0.95,2.02,1.87,3.33,2.51
		c1.37,0.67,2.98,0.96,4.56,0.88c1.58,0.08,3.19-0.21,4.56-0.88c1.31-0.64,2.37-1.56,3.33-2.51c0.39-0.38,0.77-0.78,0.97-1.25
		C165.04,203.78,165.03,202.88,164.23,202.48L164.23,202.48z"/>
	<path d="M143.5,142.65c0.77,0,1.4-0.62,1.4-1.4c0-0.77-0.62-1.4-1.4-1.4c-0.77,0-1.4,0.62-1.4,1.4
		C142.1,142.03,142.73,142.65,143.5,142.65L143.5,142.65z"/>
	<path d="M151.87,142.65c0.77,0,1.4-0.62,1.4-1.4c0-0.77-0.62-1.4-1.4-1.4c-0.77,0-1.4,0.62-1.4,1.4
		C150.47,142.03,151.1,142.65,151.87,142.65L151.87,142.65z"/>
	<path d="M160.24,142.65c0.77,0,1.4-0.62,1.4-1.4c0-0.77-0.62-1.4-1.4-1.4c-0.77,0-1.4,0.62-1.4,1.4
		C158.85,142.03,159.47,142.65,160.24,142.65L160.24,142.65z"/>
	<path d="M168.61,142.65c0.77,0,1.4-0.62,1.4-1.4c0-0.77-0.62-1.4-1.4-1.4c-0.77,0-1.4,0.62-1.4,1.4
		C167.22,142.03,167.84,142.65,168.61,142.65L168.61,142.65z"/>
	<path d="M139.31,146.84c0.77,0,1.4-0.62,1.4-1.4c0-0.77-0.62-1.4-1.4-1.4c-0.77,0-1.4,0.62-1.4,1.4
		C137.92,146.22,138.54,146.84,139.31,146.84L139.31,146.84z"/>
	<path d="M147.68,146.84c0.77,0,1.4-0.62,1.4-1.4c0-0.77-0.62-1.4-1.4-1.4s-1.4,0.62-1.4,1.4
		C146.29,146.22,146.91,146.84,147.68,146.84L147.68,146.84z"/>
	<path d="M156.05,146.84c0.77,0,1.4-0.62,1.4-1.4c0-0.77-0.62-1.4-1.4-1.4c-0.77,0-1.4,0.62-1.4,1.4
		C154.66,146.22,155.28,146.84,156.05,146.84L156.05,146.84z"/>
	<path d="M164.43,146.84c0.77,0,1.39-0.62,1.39-1.4c0-0.77-0.62-1.4-1.39-1.4c-0.77,0-1.4,0.62-1.4,1.4
		C163.03,146.22,163.66,146.84,164.43,146.84L164.43,146.84z"/>
	<path d="M172.8,146.84c0.77,0,1.4-0.62,1.4-1.4c0-0.77-0.62-1.4-1.4-1.4c-0.77,0-1.4,0.62-1.4,1.4
		C171.4,146.22,172.03,146.84,172.8,146.84L172.8,146.84z"/>
	<path d="M135.13,151.03c0.77,0,1.4-0.62,1.4-1.4c0-0.77-0.62-1.4-1.4-1.4c-0.77,0-1.4,0.62-1.4,1.4
		C133.73,150.4,134.36,151.03,135.13,151.03L135.13,151.03z"/>
	<path d="M143.5,151.03c0.77,0,1.4-0.62,1.4-1.4c0-0.77-0.62-1.4-1.4-1.4c-0.77,0-1.4,0.62-1.4,1.4
		C142.1,150.4,142.73,151.03,143.5,151.03L143.5,151.03z"/>
	<path d="M151.87,151.03c0.77,0,1.4-0.62,1.4-1.4c0-0.77-0.62-1.4-1.4-1.4c-0.77,0-1.4,0.62-1.4,1.4
		C150.47,150.4,151.1,151.03,151.87,151.03L151.87,151.03z"/>
	<path d="M160.24,151.03c0.77,0,1.4-0.62,1.4-1.4c0-0.77-0.62-1.4-1.4-1.4c-0.77,0-1.4,0.62-1.4,1.4
		C158.85,150.4,159.47,151.03,160.24,151.03L160.24,151.03z"/>
	<path d="M168.61,151.03c0.77,0,1.4-0.62,1.4-1.4c0-0.77-0.62-1.4-1.4-1.4c-0.77,0-1.4,0.62-1.4,1.4
		C167.22,150.4,167.84,151.03,168.61,151.03L168.61,151.03z"/>
	<path d="M176.98,151.03c0.77,0,1.4-0.62,1.4-1.4c0-0.77-0.62-1.4-1.4-1.4c-0.77,0-1.4,0.62-1.4,1.4
		C175.59,150.4,176.21,151.03,176.98,151.03L176.98,151.03z"/>
	<path d="M135.13,159.4c0.77,0,1.4-0.62,1.4-1.4c0-0.77-0.62-1.4-1.4-1.4c-0.77,0-1.4,0.62-1.4,1.4
		C133.73,158.77,134.36,159.4,135.13,159.4L135.13,159.4z"/>
	<path d="M143.5,159.4c0.77,0,1.4-0.62,1.4-1.4c0-0.77-0.62-1.4-1.4-1.4c-0.77,0-1.4,0.62-1.4,1.4
		C142.1,158.77,142.73,159.4,143.5,159.4L143.5,159.4z"/>
	<path d="M151.87,159.4c0.77,0,1.4-0.62,1.4-1.4c0-0.77-0.62-1.4-1.4-1.4c-0.77,0-1.4,0.62-1.4,1.4
		C150.47,158.77,151.1,159.4,151.87,159.4L151.87,159.4z"/>
	<path d="M160.24,159.4c0.77,0,1.4-0.62,1.4-1.4c0-0.77-0.62-1.4-1.4-1.4c-0.77,0-1.4,0.62-1.4,1.4
		C158.85,158.77,159.47,159.4,160.24,159.4L160.24,159.4z"/>
	<path d="M168.61,159.4c0.77,0,1.4-0.62,1.4-1.4c0-0.77-0.62-1.4-1.4-1.4c-0.77,0-1.4,0.62-1.4,1.4
		C167.22,158.77,167.84,159.4,168.61,159.4L168.61,159.4z"/>
	<path d="M176.98,159.4c0.77,0,1.4-0.62,1.4-1.4c0-0.77-0.62-1.4-1.4-1.4c-0.77,0-1.4,0.62-1.4,1.4
		C175.59,158.77,176.21,159.4,176.98,159.4L176.98,159.4z"/>
	<path d="M130.94,155.21c0.77,0,1.4-0.62,1.4-1.4c0-0.77-0.62-1.4-1.4-1.4c-0.77,0-1.4,0.62-1.4,1.4
		C129.54,154.59,130.17,155.21,130.94,155.21L130.94,155.21z"/>
	<path d="M139.31,155.21c0.77,0,1.4-0.62,1.4-1.4c0-0.77-0.62-1.4-1.4-1.4c-0.77,0-1.4,0.62-1.4,1.4
		C137.92,154.59,138.54,155.21,139.31,155.21L139.31,155.21z"/>
	<path d="M147.68,155.21c0.77,0,1.4-0.62,1.4-1.4c0-0.77-0.62-1.4-1.4-1.4s-1.4,0.62-1.4,1.4
		C146.29,154.59,146.91,155.21,147.68,155.21L147.68,155.21z"/>
	<path d="M156.05,155.21c0.77,0,1.4-0.62,1.4-1.4c0-0.77-0.62-1.4-1.4-1.4c-0.77,0-1.4,0.62-1.4,1.4
		C154.66,154.59,155.28,155.21,156.05,155.21L156.05,155.21z"/>
	<path d="M164.43,155.21c0.77,0,1.39-0.62,1.39-1.4c0-0.77-0.62-1.4-1.39-1.4c-0.77,0-1.4,0.62-1.4,1.4
		C163.03,154.59,163.66,155.21,164.43,155.21L164.43,155.21z"/>
	<path d="M172.8,155.21c0.77,0,1.4-0.62,1.4-1.4c0-0.77-0.62-1.4-1.4-1.4c-0.77,0-1.4,0.62-1.4,1.4
		C171.4,154.59,172.03,155.21,172.8,155.21L172.8,155.21z"/>
	<path d="M181.17,155.21c0.77,0,1.4-0.62,1.4-1.4c0-0.77-0.62-1.4-1.4-1.4s-1.4,0.62-1.4,1.4
		C179.77,154.59,180.4,155.21,181.17,155.21L181.17,155.21z"/>
	<path d="M130.94,163.58c0.77,0,1.4-0.62,1.4-1.4c0-0.77-0.62-1.4-1.4-1.4c-0.77,0-1.4,0.62-1.4,1.4
		C129.54,162.96,130.17,163.58,130.94,163.58L130.94,163.58z"/>
	<path d="M147.68,163.58c0.77,0,1.4-0.62,1.4-1.4c0-0.77-0.62-1.4-1.4-1.4s-1.4,0.62-1.4,1.4
		C146.29,162.96,146.91,163.58,147.68,163.58L147.68,163.58z"/>
	<path d="M156.05,163.58c0.77,0,1.4-0.62,1.4-1.4c0-0.77-0.62-1.4-1.4-1.4c-0.77,0-1.4,0.62-1.4,1.4
		C154.66,162.96,155.28,163.58,156.05,163.58L156.05,163.58z"/>
	<path d="M164.43,163.58c0.77,0,1.39-0.62,1.39-1.4c0-0.77-0.62-1.4-1.39-1.4c-0.77,0-1.4,0.62-1.4,1.4
		C163.03,162.96,163.66,163.58,164.43,163.58L164.43,163.58z"/>
	<path d="M172.8,163.58c0.77,0,1.4-0.62,1.4-1.4c0-0.77-0.62-1.4-1.4-1.4c-0.77,0-1.4,0.62-1.4,1.4
		C171.4,162.96,172.03,163.58,172.8,163.58L172.8,163.58z"/>
	<path d="M181.17,163.58c0.77,0,1.4-0.62,1.4-1.4c0-0.77-0.62-1.4-1.4-1.4s-1.4,0.62-1.4,1.4
		C179.77,162.96,180.4,163.58,181.17,163.58L181.17,163.58z"/>
	<path d="M151.87,167.77c0.77,0,1.4-0.62,1.4-1.4c0-0.77-0.62-1.4-1.4-1.4c-0.77,0-1.4,0.62-1.4,1.4
		C150.47,167.14,151.1,167.77,151.87,167.77L151.87,167.77z"/>
	<path d="M160.24,167.77c0.77,0,1.4-0.62,1.4-1.4c0-0.77-0.62-1.4-1.4-1.4c-0.77,0-1.4,0.62-1.4,1.4
		C158.85,167.14,159.47,167.77,160.24,167.77L160.24,167.77z"/>
	<path d="M168.61,167.77c0.77,0,1.4-0.62,1.4-1.4c0-0.77-0.62-1.4-1.4-1.4c-0.77,0-1.4,0.62-1.4,1.4
		C167.22,167.14,167.84,167.77,168.61,167.77L168.61,167.77z"/>
	<path d="M176.98,167.77c0.77,0,1.4-0.62,1.4-1.4c0-0.77-0.62-1.4-1.4-1.4c-0.77,0-1.4,0.62-1.4,1.4
		C175.59,167.14,176.21,167.77,176.98,167.77L176.98,167.77z"/>
	<path d="M185.36,167.77c0.77,0,1.4-0.62,1.4-1.4c0-0.77-0.62-1.4-1.4-1.4c-0.77,0-1.4,0.62-1.4,1.4
		C183.96,167.14,184.59,167.77,185.36,167.77L185.36,167.77z"/>
	<path d="M185.36,176.14c0.77,0,1.4-0.62,1.4-1.4c0-0.77-0.62-1.4-1.4-1.4c-0.77,0-1.4,0.62-1.4,1.4
		C183.96,175.52,184.59,176.14,185.36,176.14L185.36,176.14z"/>
	<path d="M164.43,171.96c0.77,0,1.39-0.62,1.39-1.4c0-0.77-0.62-1.4-1.39-1.4c-0.77,0-1.4,0.62-1.4,1.4
		C163.03,171.33,163.66,171.96,164.43,171.96L164.43,171.96z"/>
	<path d="M172.8,171.96c0.77,0,1.4-0.62,1.4-1.4c0-0.77-0.62-1.4-1.4-1.4c-0.77,0-1.4,0.62-1.4,1.4
		C171.4,171.33,172.03,171.96,172.8,171.96L172.8,171.96z"/>
	<path d="M181.17,171.96c0.77,0,1.4-0.62,1.4-1.4c0-0.77-0.62-1.4-1.4-1.4s-1.4,0.62-1.4,1.4
		C179.77,171.33,180.4,171.96,181.17,171.96L181.17,171.96z"/>
	<path d="M185.36,198.47c-0.77,0-1.4,0.62-1.4,1.4c0,0.77,0.62,1.4,1.4,1.4c0.77,0,1.4-0.62,1.4-1.4
		C186.75,199.09,186.13,198.47,185.36,198.47L185.36,198.47z"/>
	<path d="M181.17,202.65c-0.77,0-1.4,0.62-1.4,1.4c0,0.77,0.62,1.4,1.4,1.4s1.4-0.62,1.4-1.4
		C182.57,203.28,181.94,202.65,181.17,202.65L181.17,202.65z"/>
	<path d="M181.17,211.02c-0.77,0-1.4,0.62-1.4,1.4c0,0.77,0.62,1.4,1.4,1.4s1.4-0.62,1.4-1.4
		C182.57,211.65,181.94,211.02,181.17,211.02L181.17,211.02z"/>
	<path d="M176.98,215.21c-0.77,0-1.4,0.62-1.4,1.4c0,0.77,0.62,1.4,1.4,1.4c0.77,0,1.4-0.62,1.4-1.4
		C178.38,215.83,177.75,215.21,176.98,215.21L176.98,215.21z"/>
	<path d="M172.8,227.77c-0.77,0-1.4,0.62-1.4,1.4c0,0.77,0.62,1.4,1.4,1.4c0.77,0,1.4-0.62,1.4-1.4
		C174.19,228.39,173.57,227.77,172.8,227.77L172.8,227.77z"/>
</g>
<g>
	<g>
		<defs>
			<rect id="SVGID_00000024719818034842005380000008131756344476840113_" x="173.23" y="242.29" width="73.33" height="104.14"/>
		</defs>
		<clipPath id="SVGID_00000134214715850249846980000001710770341663169922_">
			<use xlink:href="#SVGID_00000024719818034842005380000008131756344476840113_"  style="overflow:visible;"/>
		</clipPath>
		<path style="clip-path:url(#SVGID_00000134214715850249846980000001710770341663169922_);" d="M244.59,291.14l-0.69,4.08
			c-0.25-0.22-0.57-0.36-0.93-0.36c-0.77,0-1.4,0.62-1.4,1.4c0,0.77,0.62,1.4,1.4,1.4c0.13,0,0.26-0.02,0.38-0.06
			c-0.04,0.04-0.08,0.08-0.13,0.11c-0.19,0.14-0.43,0.19-0.66,0.15l-6.66-1.13c0.05-0.15,0.09-0.3,0.09-0.47
			c0-0.77-0.62-1.4-1.4-1.4s-1.4,0.62-1.4,1.4c0,0,0,0.01,0,0.01l-18.62-3.15c0.29-0.26,0.48-0.63,0.48-1.05
			c0-0.77-0.62-1.4-1.4-1.4s-1.4,0.62-1.4,1.4c0,0.25,0.07,0.48,0.19,0.69l-5.8-0.98c-0.14-0.63-0.69-1.1-1.36-1.1
			c-0.5,0-0.94,0.27-1.19,0.67l-18.4-3.12c0.03-0.11,0.05-0.22,0.05-0.34c0-0.77-0.62-1.4-1.4-1.4c-0.73,0-1.32,0.56-1.38,1.27
			l-7.04-1.19c-0.23-0.04-0.43-0.17-0.57-0.36c-0.14-0.19-0.19-0.43-0.15-0.66l0.79-4.65c0.77-0.01,1.38-0.63,1.38-1.39
			c0-0.24-0.07-0.47-0.18-0.67c0.01,0,0.03,0,0.04,0l5.76,0.98c0.14,0.62,0.69,1.09,1.36,1.09c0.5,0,0.93-0.26,1.18-0.66l18.4,3.12
			c-0.03,0.11-0.04,0.22-0.04,0.33c0,0.77,0.62,1.4,1.4,1.4c0.73,0,1.32-0.56,1.38-1.27l18.51,3.13c-0.22,0.25-0.36,0.57-0.36,0.92
			c0,0.77,0.62,1.4,1.4,1.4c0.77,0,1.4-0.62,1.4-1.4c0-0.19-0.04-0.36-0.11-0.53l5.77,0.98c0.19,0.55,0.7,0.95,1.31,0.95
			c0.45,0,0.84-0.21,1.09-0.54l8.18,1.39C244.35,290.21,244.67,290.66,244.59,291.14L244.59,291.14z M195.38,309.33
			c-4.47,0-8.11-3.64-8.11-8.11c0-4.47,3.64-8.11,8.11-8.11c4.47,0,8.11,3.64,8.11,8.11C203.49,305.69,199.85,309.33,195.38,309.33
			L195.38,309.33z M230.03,297.72c0.52,1.08,0.79,2.28,0.79,3.5c0,4.47-3.64,8.11-8.11,8.11c-3.93,0-7.21-2.81-7.95-6.52
			c-0.01-0.37-0.05-0.73-0.13-1.08c-0.01-0.17-0.03-0.33-0.03-0.5c0-2.13,0.82-4.15,2.32-5.67c0.01-0.01,0.02-0.03,0.03-0.04
			L230.03,297.72L230.03,297.72z M214.69,295.13c-0.83,1.09-1.43,2.33-1.76,3.65c-1.03-0.95-2.4-1.52-3.89-1.52
			c-1.48,0-2.85,0.57-3.89,1.52c-0.62-2.5-2.18-4.62-4.27-6L214.69,295.13L214.69,295.13z M238.74,307.04l-12.43,14.27
			c-1.85-2.35-7.19-7.62-17.68-7.62c-10.1,0-15.27,5.22-17.1,7.59l-11.99-14.23v-17.87l13.4,2.27c-4.38,1.09-7.64,5.06-7.64,9.78
			c0,5.56,4.52,10.08,10.08,10.08c5.31,0,9.67-4.12,10.05-9.34c0.46-1.61,1.93-2.73,3.62-2.73c1.71,0,3.18,1.13,3.63,2.77
			c0.03,0.38,0.08,0.75,0.15,1.11c0.01,0.04,0.01,0.09,0.02,0.13c0.94,4.59,5.01,8.06,9.87,8.06c5.56,0,10.08-4.52,10.08-10.08
			c0-1.06-0.17-2.11-0.49-3.11l6.45,1.09V307.04L238.74,307.04z M201.6,322.74l0.8-0.57l0.8-0.58c0.07,0.1,1.87,2.5,5.44,2.5
			c2.87,0,5.51-2.6,5.54-2.62l1.39,1.39c-0.13,0.13-3.24,3.2-6.93,3.2C204.02,326.06,201.69,322.88,201.6,322.74L201.6,322.74z
			 M181.09,276.37c0.29-0.26,0.48-0.63,0.48-1.04c0-0.09-0.01-0.19-0.03-0.28c0.44-1.19,0.94-2.35,1.5-3.46
			c0.19,0.55,0.7,0.95,1.31,0.95c0.77,0,1.4-0.62,1.4-1.4c0-0.77-0.62-1.4-1.4-1.4c-0.11,0-0.22,0.02-0.33,0.04
			c2.82-4.77,6.81-8.63,11.49-11.2c0,0.48,0.25,0.9,0.61,1.15c0.07,0.05,0.15,0.09,0.24,0.13c0.17,0.07,0.35,0.11,0.54,0.11
			c0.77,0,1.4-0.62,1.4-1.4c0,0,0,0,0,0c0-0.45-0.22-0.84-0.55-1.1c3.27-1.44,6.82-2.27,10.51-2.38c0.24,0.41,0.69,0.69,1.2,0.69
			c0.5,0,0.94-0.27,1.19-0.67c2.08,0.11,4.14,0.45,6.14,1.01c1.44,0.41,2.83,0.92,4.18,1.55c-0.21,0.24-0.34,0.56-0.34,0.9
			c0,0.77,0.62,1.4,1.4,1.4c0.65,0,1.19-0.45,1.35-1.05c1.27,0.74,2.49,1.58,3.66,2.52c2.92,2.35,5.35,5.17,7.22,8.34
			c-0.61,0.15-1.07,0.7-1.07,1.35c0,0.77,0.62,1.4,1.4,1.4c0.36,0,0.69-0.14,0.94-0.37c1.52,3.16,2.53,6.59,2.96,10.17
			c-0.63,0.13-1.11,0.69-1.11,1.37c0,0.75,0.59,1.35,1.33,1.39c0.02,0.43,0.03,0.86,0.03,1.29v0.89l-15.66-2.65
			c0.21-0.25,0.35-0.56,0.35-0.91c0-0.77-0.62-1.4-1.4-1.4c-0.77,0-1.4,0.62-1.4,1.4c0,0.18,0.04,0.36,0.1,0.52l-5.77-0.98
			c-0.19-0.54-0.7-0.94-1.31-0.94c-0.44,0-0.83,0.21-1.09,0.53l-11.41-1.93c0.74-0.03,1.33-0.64,1.33-1.39c0-0.77-0.62-1.4-1.4-1.4
			c-0.77,0-1.4,0.62-1.4,1.4c0,0.58,0.35,1.08,0.85,1.29l-6.46-1.09c0.01-0.06,0.02-0.13,0.02-0.19c0-0.77-0.62-1.4-1.4-1.4
			c-0.68,0-1.24,0.48-1.37,1.12l-10.6-1.79C180.87,277.08,180.98,276.73,181.09,276.37L181.09,276.37z M225.19,245.1
			c-0.22,0.25-0.36,0.57-0.36,0.93c0,0.77,0.62,1.4,1.4,1.4l0,0l0,0c0.19,0,0.38-0.04,0.54-0.11c0.08-0.04,0.16-0.08,0.24-0.13
			c0.04-0.03,0.07-0.06,0.11-0.09c0.47,0.82,0.73,1.76,0.73,2.76c0,1.22-0.4,2.35-1.06,3.27c-0.17-0.08-0.36-0.12-0.56-0.12
			c-0.77,0-1.4,0.62-1.4,1.4c0,0.14,0.03,0.27,0.06,0.39c-0.79,0.42-1.69,0.66-2.64,0.66c-1.11,0-2.15-0.33-3.02-0.89
			c0.01-0.06,0.02-0.11,0.02-0.17c0-0.77-0.62-1.4-1.4-1.4c-0.07,0-0.14,0.01-0.21,0.02c-0.62-0.9-0.99-1.99-0.99-3.17
			c0-0.92,0.23-1.79,0.63-2.56c0.09,0.04,0.19,0.08,0.3,0.1c0.09,0.02,0.19,0.03,0.28,0.03s0.19-0.01,0.28-0.03
			c0.64-0.13,1.11-0.69,1.11-1.37c0-0.27-0.08-0.53-0.22-0.75c0.91-0.64,2.02-1.03,3.22-1.03
			C223.33,244.25,224.33,244.57,225.19,245.1L225.19,245.1z M244.2,288.19l-3.49-0.59v-1.22c0-10.46-4.53-20.1-12.43-26.46
			c-1.29-1.04-2.65-1.96-4.05-2.77c3.22-0.87,5.59-3.81,5.59-7.3c0-4.17-3.39-7.57-7.57-7.57c-4.17,0-7.57,3.39-7.57,7.57
			c0,1.48,0.43,2.85,1.17,4.02c-2.19-0.5-4.44-0.76-6.7-0.76c-14.09,0-26.43,9.83-30.32,24l-1.25-0.21
			c-0.75-0.13-1.5,0.05-2.12,0.49c-0.62,0.44-1.03,1.1-1.16,1.85l-1.01,5.99c-0.13,0.75,0.05,1.5,0.49,2.12
			c0.44,0.62,1.1,1.03,1.85,1.16l1.97,0.33v24.32c0,18.42,17.27,33.26,31.56,33.26c7.66,0,15.56-3.55,21.66-9.75
			c6.39-6.48,9.9-14.83,9.9-23.51v-13.63l1.52,0.26c0.16,0.03,0.32,0.04,0.48,0.04c0.59,0,1.16-0.18,1.64-0.53
			c0.62-0.44,1.03-1.1,1.16-1.85l1.01-5.99C246.79,289.92,245.74,288.45,244.2,288.19L244.2,288.19z"/>
	</g>
	<path d="M191.75,263.76c0.06,0.06,0.13,0.12,0.21,0.17c0.15,0.1,0.32,0.17,0.5,0.21c0.09,0.02,0.18,0.03,0.28,0.03
		c0.1,0,0.19-0.01,0.28-0.03c0.64-0.13,1.11-0.69,1.11-1.37c0-0.67-0.48-1.24-1.11-1.37c-0.09-0.02-0.18-0.03-0.28-0.03
		c-0.1,0-0.19,0.01-0.28,0.03c-0.18,0.04-0.35,0.11-0.5,0.21c-0.07,0.05-0.14,0.11-0.21,0.17c-0.19,0.19-0.32,0.43-0.38,0.71
		c-0.02,0.09-0.03,0.18-0.03,0.28c0,0.1,0.01,0.19,0.03,0.28C191.42,263.32,191.56,263.57,191.75,263.76L191.75,263.76z"/>
	<path d="M201.11,264.16L201.11,264.16L201.11,264.16c0.19,0,0.38-0.04,0.54-0.11c0.08-0.04,0.16-0.08,0.24-0.13
		c0.15-0.1,0.28-0.23,0.38-0.38c0.05-0.07,0.09-0.15,0.13-0.24c0.07-0.17,0.11-0.35,0.11-0.54c0-0.19-0.04-0.38-0.11-0.54
		c-0.04-0.08-0.08-0.16-0.13-0.24c-0.1-0.15-0.23-0.28-0.38-0.38c-0.07-0.05-0.15-0.09-0.24-0.13c-0.17-0.07-0.35-0.11-0.54-0.11
		l0,0l0,0c-0.77,0-1.4,0.62-1.4,1.4C199.71,263.54,200.34,264.16,201.11,264.16L201.11,264.16z"/>
	<path d="M216.86,263.76c0.06,0.06,0.13,0.12,0.21,0.17c0.15,0.1,0.32,0.17,0.5,0.21c0.09,0.02,0.19,0.03,0.28,0.03
		s0.19-0.01,0.28-0.03c0.64-0.13,1.11-0.69,1.11-1.37c0-0.67-0.48-1.24-1.11-1.37c-0.09-0.02-0.18-0.03-0.28-0.03
		s-0.19,0.01-0.28,0.03c-0.18,0.04-0.35,0.11-0.5,0.21c-0.07,0.05-0.14,0.11-0.21,0.17c-0.19,0.19-0.32,0.43-0.38,0.71
		c-0.02,0.09-0.03,0.18-0.03,0.28c0,0.1,0.01,0.19,0.03,0.28C216.54,263.32,216.67,263.57,216.86,263.76L216.86,263.76z"/>
	<path d="M226.22,264.16L226.22,264.16L226.22,264.16c0.19,0,0.38-0.04,0.54-0.11c0.08-0.04,0.16-0.08,0.24-0.13
		c0.15-0.1,0.28-0.23,0.38-0.38c0.05-0.07,0.09-0.15,0.13-0.24c0.07-0.17,0.11-0.35,0.11-0.54c0-0.19-0.04-0.38-0.11-0.54
		c-0.04-0.08-0.08-0.16-0.13-0.24c-0.1-0.15-0.23-0.28-0.38-0.38c-0.07-0.05-0.15-0.09-0.24-0.13c-0.17-0.07-0.35-0.11-0.54-0.11
		l0,0l0,0c-0.77,0-1.4,0.62-1.4,1.4C224.83,263.54,225.45,264.16,226.22,264.16L226.22,264.16z"/>
	<path d="M204.28,259.53c0.01,0.01,0.02,0.03,0.03,0.04c0.06,0.06,0.13,0.12,0.21,0.17c0.07,0.05,0.15,0.09,0.24,0.13
		c0.17,0.07,0.35,0.11,0.54,0.11c0.19,0,0.38-0.04,0.54-0.11c0.15-0.06,0.29-0.16,0.41-0.27c0.01-0.01,0.02-0.02,0.04-0.03
		c0.01-0.01,0.02-0.02,0.03-0.04c0.11-0.12,0.2-0.25,0.27-0.41c0.07-0.17,0.11-0.35,0.11-0.54c0-0.77-0.62-1.4-1.4-1.4l0,0l0,0
		c-0.19,0-0.38,0.04-0.54,0.11c-0.08,0.04-0.16,0.08-0.24,0.13c-0.37,0.25-0.62,0.68-0.62,1.16c0,0.19,0.04,0.38,0.11,0.54
		C204.07,259.28,204.16,259.41,204.28,259.53L204.28,259.53z"/>
	<path d="M212.88,259.74c0.07,0.05,0.15,0.09,0.24,0.13c0.17,0.07,0.35,0.11,0.54,0.11c0.17,0,0.33-0.03,0.48-0.09
		c0.11-0.04,0.21-0.09,0.3-0.15c0.14-0.09,0.25-0.21,0.35-0.34c0.1-0.14,0.18-0.3,0.22-0.47c0.03-0.11,0.05-0.22,0.05-0.34l0,0l0,0
		c0-0.39-0.16-0.73-0.41-0.99c-0.06-0.06-0.13-0.12-0.21-0.17c-0.15-0.1-0.32-0.17-0.5-0.21c-0.09-0.02-0.18-0.03-0.28-0.03
		c-0.39,0-0.73,0.16-0.99,0.41c-0.25,0.25-0.41,0.6-0.41,0.99l0,0l0,0C212.27,259.06,212.51,259.49,212.88,259.74L212.88,259.74z"/>
	<path d="M188.55,265.56c-0.77,0-1.4,0.62-1.4,1.4c0,0.77,0.62,1.4,1.4,1.4c0.77,0,1.4-0.62,1.4-1.4
		C189.94,266.18,189.32,265.56,188.55,265.56L188.55,265.56z"/>
	<path d="M196.92,268.35c0.77,0,1.4-0.62,1.4-1.4c0-0.77-0.62-1.4-1.4-1.4s-1.4,0.62-1.4,1.4
		C195.52,267.72,196.15,268.35,196.92,268.35L196.92,268.35z"/>
	<path d="M205.29,265.56c-0.77,0-1.4,0.62-1.4,1.4c0,0.77,0.62,1.4,1.4,1.4c0.77,0,1.4-0.62,1.4-1.4
		C206.69,266.18,206.06,265.56,205.29,265.56L205.29,265.56z"/>
	<path d="M213.66,268.35c0.77,0,1.4-0.62,1.4-1.4c0-0.77-0.62-1.4-1.4-1.4s-1.4,0.62-1.4,1.4
		C212.27,267.72,212.89,268.35,213.66,268.35L213.66,268.35z"/>
	<path d="M222.03,268.35c0.77,0,1.4-0.62,1.4-1.4c0-0.77-0.62-1.4-1.4-1.4c-0.77,0-1.4,0.62-1.4,1.4
		C220.64,267.72,221.26,268.35,222.03,268.35L222.03,268.35z"/>
	<path d="M230.41,268.35c0.77,0,1.4-0.62,1.4-1.4c0-0.77-0.62-1.4-1.4-1.4c-0.77,0-1.4,0.62-1.4,1.4
		C229.01,267.72,229.64,268.35,230.41,268.35L230.41,268.35z"/>
	<path d="M192.73,272.54c0.77,0,1.4-0.62,1.4-1.4c0-0.77-0.62-1.4-1.4-1.4c-0.77,0-1.4,0.62-1.4,1.4
		C191.34,271.91,191.96,272.54,192.73,272.54L192.73,272.54z"/>
	<path d="M201.11,272.54c0.77,0,1.4-0.62,1.4-1.4c0-0.77-0.62-1.4-1.4-1.4c-0.77,0-1.4,0.62-1.4,1.4
		C199.71,271.91,200.34,272.54,201.11,272.54L201.11,272.54z"/>
	<path d="M209.48,272.54c0.77,0,1.4-0.62,1.4-1.4c0-0.77-0.62-1.4-1.4-1.4c-0.77,0-1.4,0.62-1.4,1.4
		C208.08,271.91,208.71,272.54,209.48,272.54L209.48,272.54z"/>
	<path d="M217.85,272.54c0.77,0,1.4-0.62,1.4-1.4c0-0.77-0.62-1.4-1.4-1.4c-0.77,0-1.4,0.62-1.4,1.4
		C216.45,271.91,217.08,272.54,217.85,272.54L217.85,272.54z"/>
	<path d="M226.22,272.54c0.77,0,1.4-0.62,1.4-1.4c0-0.77-0.62-1.4-1.4-1.4c-0.77,0-1.4,0.62-1.4,1.4
		C224.83,271.91,225.45,272.54,226.22,272.54L226.22,272.54z"/>
	<path d="M208.49,263.76c0.06,0.06,0.13,0.12,0.21,0.17c0.15,0.1,0.32,0.17,0.5,0.21c0.09,0.02,0.18,0.03,0.28,0.03
		c0.29,0,0.56-0.09,0.78-0.24c0.15-0.1,0.28-0.23,0.38-0.38c0.05-0.07,0.09-0.15,0.13-0.24c0.07-0.17,0.11-0.35,0.11-0.54
		c0-0.19-0.04-0.38-0.11-0.54c-0.04-0.08-0.08-0.16-0.13-0.24c-0.1-0.15-0.23-0.28-0.38-0.38c-0.22-0.15-0.49-0.24-0.78-0.24
		c-0.1,0-0.19,0.01-0.28,0.03c-0.18,0.04-0.35,0.11-0.5,0.21c-0.07,0.05-0.14,0.11-0.21,0.17c-0.19,0.19-0.32,0.43-0.38,0.71
		c-0.02,0.09-0.03,0.18-0.03,0.28c0,0.1,0.01,0.19,0.03,0.28C208.17,263.32,208.3,263.57,208.49,263.76L208.49,263.76z"/>
	<path d="M209.48,280.91c0.77,0,1.4-0.62,1.4-1.4c0-0.77-0.62-1.4-1.4-1.4c-0.77,0-1.4,0.62-1.4,1.4
		C208.08,280.28,208.71,280.91,209.48,280.91L209.48,280.91z"/>
	<path d="M217.85,280.91c0.77,0,1.4-0.62,1.4-1.4c0-0.77-0.62-1.4-1.4-1.4c-0.77,0-1.4,0.62-1.4,1.4
		C216.45,280.28,217.08,280.91,217.85,280.91L217.85,280.91z"/>
	<path d="M226.22,280.91c0.77,0,1.4-0.62,1.4-1.4c0-0.77-0.62-1.4-1.4-1.4c-0.77,0-1.4,0.62-1.4,1.4
		C224.83,280.28,225.45,280.91,226.22,280.91L226.22,280.91z"/>
	<path d="M234.59,280.91c0.77,0,1.4-0.62,1.4-1.4c0-0.77-0.62-1.4-1.4-1.4s-1.4,0.62-1.4,1.4
		C233.2,280.28,233.82,280.91,234.59,280.91L234.59,280.91z"/>
	<path d="M188.55,273.93c-0.77,0-1.4,0.62-1.4,1.4c0,0.77,0.62,1.4,1.4,1.4c0.77,0,1.4-0.62,1.4-1.4
		C189.94,274.56,189.32,273.93,188.55,273.93L188.55,273.93z"/>
	<path d="M196.92,276.72c0.77,0,1.4-0.62,1.4-1.4c0-0.77-0.62-1.4-1.4-1.4s-1.4,0.62-1.4,1.4
		C195.52,276.1,196.15,276.72,196.92,276.72L196.92,276.72z"/>
	<path d="M205.29,273.93c-0.77,0-1.4,0.62-1.4,1.4c0,0.77,0.62,1.4,1.4,1.4c0.77,0,1.4-0.62,1.4-1.4
		C206.69,274.56,206.06,273.93,205.29,273.93L205.29,273.93z"/>
	<path d="M213.66,276.72c0.77,0,1.4-0.62,1.4-1.4c0-0.77-0.62-1.4-1.4-1.4s-1.4,0.62-1.4,1.4
		C212.27,276.1,212.89,276.72,213.66,276.72L213.66,276.72z"/>
	<path d="M222.03,276.72c0.77,0,1.4-0.62,1.4-1.4c0-0.77-0.62-1.4-1.4-1.4c-0.77,0-1.4,0.62-1.4,1.4
		C220.64,276.1,221.26,276.72,222.03,276.72L222.03,276.72z"/>
	<path d="M230.41,276.72c0.77,0,1.4-0.62,1.4-1.4c0-0.77-0.62-1.4-1.4-1.4c-0.77,0-1.4,0.62-1.4,1.4
		C229.01,276.1,229.64,276.72,230.41,276.72L230.41,276.72z"/>
	<path d="M222.03,251.61c0.77,0,1.4-0.62,1.4-1.4c0-0.77-0.62-1.4-1.4-1.4c-0.77,0-1.4,0.62-1.4,1.4
		C220.64,250.98,221.26,251.61,222.03,251.61L222.03,251.61z"/>
	<path d="M180.18,282.3c-0.77,0-1.4,0.62-1.4,1.4c0,0.77,0.62,1.4,1.4,1.4c0.77,0,1.4-0.62,1.4-1.4
		C181.57,282.93,180.95,282.3,180.18,282.3L180.18,282.3z"/>
	<path d="M188.55,282.3c-0.77,0-1.4,0.62-1.4,1.4c0,0.77,0.62,1.4,1.4,1.4c0.77,0,1.4-0.62,1.4-1.4
		C189.94,282.93,189.32,282.3,188.55,282.3L188.55,282.3z"/>
	<path d="M196.92,282.3c-0.77,0-1.4,0.62-1.4,1.4c0,0.77,0.62,1.4,1.4,1.4s1.4-0.62,1.4-1.4
		C198.32,282.93,197.69,282.3,196.92,282.3L196.92,282.3z"/>
	<path d="M230.41,285.09c0.77,0,1.4-0.62,1.4-1.4c0-0.77-0.62-1.4-1.4-1.4c-0.77,0-1.4,0.62-1.4,1.4
		C229.01,284.47,229.64,285.09,230.41,285.09L230.41,285.09z"/>
	<path d="M192.73,286.49c-0.77,0-1.4,0.62-1.4,1.4c0,0.77,0.62,1.4,1.4,1.4c0.77,0,1.4-0.62,1.4-1.4
		C194.13,287.11,193.5,286.49,192.73,286.49L192.73,286.49z"/>
	<path d="M201.11,286.49c-0.77,0-1.4,0.62-1.4,1.4c0,0.77,0.62,1.4,1.4,1.4c0.77,0,1.4-0.62,1.4-1.4
		C202.5,287.11,201.88,286.49,201.11,286.49L201.11,286.49z"/>
	<path d="M209.48,286.49c-0.77,0-1.4,0.62-1.4,1.4c0,0.77,0.62,1.4,1.4,1.4c0.77,0,1.4-0.62,1.4-1.4
		C210.87,287.11,210.25,286.49,209.48,286.49L209.48,286.49z"/>
	<path d="M217.85,286.49c-0.77,0-1.4,0.62-1.4,1.4c0,0.77,0.62,1.4,1.4,1.4c0.77,0,1.4-0.62,1.4-1.4
		C219.24,287.11,218.62,286.49,217.85,286.49L217.85,286.49z"/>
	<path d="M222.03,290.67c-0.77,0-1.4,0.62-1.4,1.4c0,0.77,0.62,1.4,1.4,1.4c0.77,0,1.4-0.62,1.4-1.4
		C223.43,291.3,222.81,290.67,222.03,290.67L222.03,290.67z"/>
	<path d="M230.41,290.67c-0.77,0-1.4,0.62-1.4,1.4c0,0.77,0.62,1.4,1.4,1.4c0.77,0,1.4-0.62,1.4-1.4
		C231.8,291.3,231.18,290.67,230.41,290.67L230.41,290.67z"/>
	<path d="M238.78,290.67c-0.77,0-1.4,0.62-1.4,1.4c0,0.77,0.62,1.4,1.4,1.4c0.77,0,1.4-0.62,1.4-1.4
		C240.17,291.3,239.55,290.67,238.78,290.67L238.78,290.67z"/>
</g>
<g>
	<g>
		<defs>
			<rect id="SVGID_00000037679493431313006130000010798609718110421932_" x="245.21" y="158.43" width="80.09" height="99.77"/>
		</defs>
		<clipPath id="SVGID_00000181775511437639743750000006853722087564355727_">
			<use xlink:href="#SVGID_00000037679493431313006130000010798609718110421932_"  style="overflow:visible;"/>
		</clipPath>
		<path style="clip-path:url(#SVGID_00000181775511437639743750000006853722087564355727_);" d="M309.72,169.58h1.66
			c6.46,0,11.72,5.26,11.72,11.72s-5.26,11.72-11.72,11.72h-0.12c-1.51,0-2.96,0.47-4.18,1.31L309.72,169.58L309.72,169.58z
			 M304.87,194.28c-0.57,5.37-3.25,10.03-7.15,13.21c-0.26-0.2-0.58-0.32-0.94-0.32c-0.86,0-1.56,0.7-1.56,1.56
			c0,0.16,0.03,0.3,0.07,0.45c-2.95,1.74-6.39,2.74-10.05,2.74c-10.11,0-18.55-7.58-19.62-17.64l-0.82-7.65
			c0.45-0.28,0.75-0.76,0.75-1.33c0-0.68-0.44-1.25-1.04-1.47l-0.68-6.36c0.05,0.01,0.11,0.02,0.16,0.02c0.86,0,1.56-0.7,1.56-1.56
			c0-0.86-0.7-1.56-1.56-1.56c-0.17,0-0.33,0.03-0.49,0.08l-1.48-13.83h46.45L304.87,194.28L304.87,194.28z M294.61,238.06h-18.73
			l6.29-9.63c0.36-0.55,0.55-1.19,0.55-1.84v-12.63c0.83,0.09,1.67,0.15,2.52,0.15c0.85,0,1.69-0.05,2.52-0.15v12.63
			c0,0.65,0.19,1.28,0.55,1.84L294.61,238.06L294.61,238.06z M259.25,193.01h-0.12c-6.46,0-11.72-5.26-11.72-11.72
			s5.26-11.72,11.72-11.72h1.64l1.67,15.62c0,0.04-0.01,0.07-0.01,0.11c0,0.15,0.03,0.3,0.07,0.44l0.92,8.56
			C262.19,193.47,260.75,193.01,259.25,193.01L259.25,193.01z M311.26,195.21h0.12c7.67,0,13.92-6.24,13.92-13.92
			c0-7.67-6.24-13.92-13.92-13.92h-1.43l0.73-6.86c0.06-0.53-0.12-1.07-0.47-1.46c-0.36-0.4-0.87-0.63-1.41-0.63h-47.14
			c-0.54,0-1.05,0.23-1.41,0.63c-0.36,0.4-0.53,0.93-0.47,1.46l0.73,6.86h-1.41c-7.67,0-13.92,6.24-13.92,13.92
			c0,7.67,6.24,13.92,13.92,13.92h0.12c1.48,0,2.89,0.63,3.87,1.73c1,1.12,1.46,2.56,1.29,4.06c-0.27,2.42-2.15,4.3-4.57,4.57
			c-1.51,0.17-2.95-0.29-4.06-1.29c-1.1-0.99-1.73-2.4-1.73-3.87h-2.2c0,2.1,0.9,4.11,2.46,5.51c1.36,1.22,3.13,1.88,4.95,1.88
			c0.27,0,0.55-0.01,0.82-0.05c2.83-0.31,5.13-2.17,6.09-4.72c3.04,5.34,8.23,9.23,14.35,10.57v12.99c0,0.22-0.07,0.44-0.19,0.63
			l-6.97,10.68l0.25,0.16h-8.01c-1.61,0-2.91,1.3-2.91,2.91v16.17c0,0.58,0.47,1.06,1.06,1.06h43.01c0.58,0,1.06-0.47,1.06-1.06
			v-16.17c0-1.61-1.3-2.91-2.91-2.91h-8.01l0.25-0.16l-6.97-10.68c-0.13-0.19-0.19-0.41-0.19-0.63V213.6
			c6.13-1.34,11.33-5.24,14.36-10.59c0.95,2.57,3.26,4.43,6.1,4.75c0.27,0.03,0.55,0.05,0.82,0.05c1.82,0,3.59-0.67,4.95-1.88
			c1.57-1.4,2.46-3.41,2.46-5.51h-2.2c0,1.48-0.63,2.89-1.73,3.87c-1.12,1-2.56,1.46-4.06,1.29c-2.42-0.27-4.3-2.15-4.57-4.57
			c-0.17-1.5,0.29-2.95,1.29-4.06C308.37,195.84,309.79,195.21,311.26,195.21L311.26,195.21z"/>
	</g>
	<path d="M273.36,183.74c-0.86,0-1.56,0.7-1.56,1.56c0,0.86,0.7,1.56,1.56,1.56c0.86,0,1.56-0.7,1.56-1.56
		C274.92,184.44,274.22,183.74,273.36,183.74L273.36,183.74z"/>
	<path d="M268.67,179.06c-0.86,0-1.56,0.7-1.56,1.56c0,0.86,0.7,1.56,1.56,1.56c0.86,0,1.56-0.7,1.56-1.56
		C270.23,179.76,269.53,179.06,268.67,179.06L268.67,179.06z"/>
	<path d="M268.67,188.43c-0.86,0-1.56,0.7-1.56,1.56c0,0.86,0.7,1.56,1.56,1.56c0.86,0,1.56-0.7,1.56-1.56
		C270.23,189.12,269.53,188.43,268.67,188.43L268.67,188.43z"/>
	<path d="M278.04,188.43c-0.86,0-1.56,0.7-1.56,1.56c0,0.86,0.7,1.56,1.56,1.56c0.86,0,1.56-0.7,1.56-1.56
		C279.6,189.12,278.9,188.43,278.04,188.43L278.04,188.43z"/>
	<path d="M273.36,193.11c-0.86,0-1.56,0.7-1.56,1.56c0,0.86,0.7,1.56,1.56,1.56c0.86,0,1.56-0.7,1.56-1.56
		C274.92,193.81,274.22,193.11,273.36,193.11L273.36,193.11z"/>
	<path d="M282.73,193.11c-0.86,0-1.56,0.7-1.56,1.56c0,0.86,0.7,1.56,1.56,1.56c0.86,0,1.56-0.7,1.56-1.56
		C284.29,193.81,283.59,193.11,282.73,193.11L282.73,193.11z"/>
	<path d="M273.36,202.48c-0.86,0-1.56,0.7-1.56,1.56c0,0.86,0.7,1.56,1.56,1.56c0.86,0,1.56-0.7,1.56-1.56
		C274.92,203.18,274.22,202.48,273.36,202.48L273.36,202.48z"/>
	<path d="M282.73,202.48c-0.86,0-1.56,0.7-1.56,1.56c0,0.86,0.7,1.56,1.56,1.56c0.86,0,1.56-0.7,1.56-1.56
		C284.29,203.18,283.59,202.48,282.73,202.48L282.73,202.48z"/>
	<path d="M292.09,202.48c-0.86,0-1.56,0.7-1.56,1.56c0,0.86,0.7,1.56,1.56,1.56c0.86,0,1.56-0.7,1.56-1.56
		C293.66,203.18,292.96,202.48,292.09,202.48L292.09,202.48z"/>
	<path d="M268.67,197.79c-0.86,0-1.56,0.7-1.56,1.56c0,0.86,0.7,1.56,1.56,1.56c0.86,0,1.56-0.7,1.56-1.56
		C270.23,198.49,269.53,197.79,268.67,197.79L268.67,197.79z"/>
	<path d="M278.04,197.79c-0.86,0-1.56,0.7-1.56,1.56c0,0.86,0.7,1.56,1.56,1.56c0.86,0,1.56-0.7,1.56-1.56
		C279.6,198.49,278.9,197.79,278.04,197.79L278.04,197.79z"/>
	<path d="M287.41,197.79c-0.86,0-1.56,0.7-1.56,1.56c0,0.86,0.7,1.56,1.56,1.56c0.86,0,1.56-0.7,1.56-1.56
		C288.97,198.49,288.27,197.79,287.41,197.79L287.41,197.79z"/>
	<path d="M278.04,207.16c-0.86,0-1.56,0.7-1.56,1.56c0,0.86,0.7,1.56,1.56,1.56c0.86,0,1.56-0.7,1.56-1.56
		C279.6,207.86,278.9,207.16,278.04,207.16L278.04,207.16z"/>
	<path d="M287.41,207.16c-0.86,0-1.56,0.7-1.56,1.56c0,0.86,0.7,1.56,1.56,1.56c0.86,0,1.56-0.7,1.56-1.56
		C288.97,207.86,288.27,207.16,287.41,207.16L287.41,207.16z"/>
</g>
<g>
	<g>
		<defs>
			<rect id="SVGID_00000160903202533992476970000003907967465489410723_" x="313.35" y="258.58" width="69.98" height="99.65"/>
		</defs>
		<clipPath id="SVGID_00000079471211769408979870000006962198797965593768_">
			<use xlink:href="#SVGID_00000160903202533992476970000003907967465489410723_"  style="overflow:visible;"/>
		</clipPath>
		<path style="clip-path:url(#SVGID_00000079471211769408979870000006962198797965593768_);" d="M351.69,340.12
			c3.72,0,5.59-2.5,5.67-2.61l0.8,0.58l0.8,0.57c-0.1,0.14-2.5,3.43-7.27,3.43c-3.81,0-7.03-3.17-7.16-3.31l1.39-1.39
			C345.95,337.42,348.7,340.12,351.69,340.12L351.69,340.12z"/>
		<path style="clip-path:url(#SVGID_00000079471211769408979870000006962198797965593768_);" d="M320.15,290.8
			c-3.51-2.96-5.13-7.32-4.8-12.98c0.22-3.85,1.88-7.12,4.91-9.72c2.3-1.97,5.38-3.57,9.18-4.78c0.25,0.27,0.61,0.44,1.01,0.44
			c0.68,0,1.24-0.48,1.37-1.12c1.84-0.48,3.83-0.88,5.97-1.2c-0.22,0.25-0.36,0.57-0.36,0.93c0,0.77,0.62,1.4,1.4,1.4
			c0.77,0,1.4-0.62,1.4-1.4c0-0.49-0.26-0.93-0.65-1.17c0.16-0.02,0.32-0.04,0.48-0.06c9.02-1.07,17.29-0.47,20.43-0.16
			c0.9,0.09,1.73,0.22,2.5,0.38c-0.27,0.25-0.45,0.61-0.45,1.02c0,0.77,0.62,1.4,1.4,1.4c0.77,0,1.4-0.62,1.4-1.4
			c0-0.12-0.02-0.23-0.05-0.34c1.42,0.56,2.52,1.31,3.28,2.24c1.23,1.52,1.34,3.26,1.21,4.45c-0.07,0.63,0.15,1.25,0.61,1.7
			c0.16,0.15,0.34,0.28,0.53,0.37c0.03,0.75,0.64,1.34,1.39,1.34c0.73,0,1.32-0.56,1.38-1.28c0.15-0.01,0.31-0.01,0.47-0.01
			c1.72,0,3.76,0.33,5.21,1.59c1.32,1.16,1.99,2.99,1.99,5.44v0.02c-0.2-0.11-0.43-0.18-0.68-0.18c-0.77,0-1.4,0.62-1.4,1.4
			c0,0.77,0.62,1.4,1.4,1.4c0.25,0,0.48-0.07,0.68-0.18v5.95c-0.2-0.11-0.43-0.18-0.68-0.18c-0.77,0-1.4,0.62-1.4,1.4
			c0,0.77,0.62,1.4,1.4,1.4c0.25,0,0.48-0.07,0.68-0.18v5.95c-0.2-0.11-0.43-0.18-0.68-0.18c-0.77,0-1.4,0.62-1.4,1.4
			s0.62,1.4,1.4,1.4c0.25,0,0.48-0.07,0.68-0.18v2.17c-0.93-1.59-2.29-3.16-4.3-4.27c-3.02-1.67-4.14-4.22-4.54-6.12
			c0.67-0.1,1.18-0.68,1.18-1.37c0-0.77-0.62-1.4-1.4-1.4c-0.29,0-0.56,0.09-0.78,0.24c-0.01-0.01-0.02-0.02-0.03-0.02
			c-0.49-0.28-1.08-0.29-1.58-0.05c-1.02,0.5-2.7,1.27-4.97,2.19c0.24-0.25,0.39-0.59,0.39-0.96c0-0.77-0.62-1.4-1.4-1.4
			c-0.77,0-1.4,0.62-1.4,1.4c0,0.75,0.59,1.35,1.32,1.39c-1.16,0.45-2.46,0.93-3.88,1.43c-0.08-0.01-0.15-0.02-0.23-0.02
			c-0.4,0-0.76,0.17-1.02,0.45c-1.92,0.64-4.04,1.29-6.36,1.93c0.25-0.25,0.4-0.6,0.4-0.98c0-0.77-0.62-1.4-1.4-1.4
			s-1.4,0.62-1.4,1.4c0,0.65,0.44,1.18,1.04,1.34c-1.16,0.31-2.37,0.61-3.62,0.9c-2.32,0.54-4.84,0.96-7.41,1.18
			c-0.25-0.38-0.68-0.63-1.17-0.63c-0.55,0-1.03,0.32-1.25,0.79c-2.01,0.08-4.02,0.03-5.97-0.18c-0.25-0.37-0.67-0.61-1.15-0.61
			c-0.34,0-0.64,0.12-0.88,0.32C325.95,294.15,322.65,292.9,320.15,290.8L320.15,290.8z M333.07,348.3
			c-5.24-5.3-8.92-12.74-10.64-21.53c-0.85-4.32-1.15-13.15-1.26-17.59h1.95c-0.53,5.25,0.05,14.6,10.6,15.66
			c14.09,1.42,14.97-9.98,14.97-10.77c0-0.79,1.16-2.4,2.46-2.4v-0.01h0v0.01c1.31,0,2.46,1.61,2.46,2.4
			c0,0.79,0.88,12.19,14.97,10.77c10.55-1.06,11.13-10.41,10.6-15.66h2.11l-0.15,8.41c-0.36,10.68-3.79,20.58-9.66,27.86
			c-5.54,6.88-12.91,10.82-20.2,10.82C344.53,356.27,338.23,353.51,333.07,348.3L333.07,348.3z M381.36,305.55L381.36,305.55
			l-4.64,0.01c-6.31-0.22-15.6-0.42-18.6,1.17c-2.9,1.54-6.04,1.67-6.79,1.68h-0.34c-0.75-0.01-3.9-0.14-6.79-1.68
			c-3-1.59-12.29-1.39-18.6-1.17h-4.47l-0.02-11.67c9.03,5.43,22.55,2.92,26.75,1.94c11.52-2.68,19.41-6.11,22.58-7.63
			c0.24,2,1.29,6.08,5.69,8.5C380.73,299.24,381.32,305.06,381.36,305.55L381.36,305.55z M313.39,277.71
			c-0.37,6.31,1.48,11.22,5.49,14.59c0.08,0.07,0.17,0.14,0.25,0.21l0.02,14c0.01,0.6,0.15,14.58,1.34,20.64
			c1.8,9.17,5.66,16.97,11.17,22.54c5.54,5.6,12.32,8.55,19.61,8.55c7.89,0,15.81-4.21,21.73-11.55c6.13-7.61,9.72-17.93,10.1-29.05
			l0.22-12.1l0-27.66c0-3.05-0.9-5.37-2.67-6.92c-2.68-2.34-6.66-2.21-8.8-1.92c-0.05,0.01-0.08-0.01-0.1-0.03
			c-0.03-0.03-0.03-0.06-0.03-0.08c0.17-1.56,0.02-3.86-1.64-5.9c-1.81-2.23-4.98-3.58-9.41-4.02c-3.01-0.3-29.77-2.6-41.69,7.6
			C315.53,269.57,313.65,273.3,313.39,277.71L313.39,277.71z"/>
	</g>
	<path d="M355.57,260.97c0.77,0,1.4,0.62,1.4,1.4s-0.62,1.4-1.4,1.4c-0.77,0-1.4-0.62-1.4-1.4S354.8,260.97,355.57,260.97
		L355.57,260.97z"/>
	<path d="M347.2,260.97c0.77,0,1.4,0.62,1.4,1.4s-0.62,1.4-1.4,1.4c-0.77,0-1.4-0.62-1.4-1.4S346.43,260.97,347.2,260.97
		L347.2,260.97z"/>
	<path d="M363.94,269.34c0.77,0,1.4,0.62,1.4,1.4c0,0.77-0.62,1.4-1.4,1.4c-0.77,0-1.4-0.62-1.4-1.4
		C362.55,269.97,363.17,269.34,363.94,269.34L363.94,269.34z"/>
	<path d="M355.57,269.34c0.77,0,1.4,0.62,1.4,1.4c0,0.77-0.62,1.4-1.4,1.4c-0.77,0-1.4-0.62-1.4-1.4
		C354.17,269.97,354.8,269.34,355.57,269.34L355.57,269.34z"/>
	<path d="M347.2,269.34c0.77,0,1.4,0.62,1.4,1.4c0,0.77-0.62,1.4-1.4,1.4c-0.77,0-1.4-0.62-1.4-1.4
		C345.8,269.97,346.43,269.34,347.2,269.34L347.2,269.34z"/>
	<path d="M338.83,269.34c0.77,0,1.4,0.62,1.4,1.4c0,0.77-0.62,1.4-1.4,1.4c-0.77,0-1.4-0.62-1.4-1.4
		C337.43,269.97,338.06,269.34,338.83,269.34L338.83,269.34z"/>
	<path d="M330.45,269.34c0.77,0,1.4,0.62,1.4,1.4c0,0.77-0.62,1.4-1.4,1.4c-0.77,0-1.4-0.62-1.4-1.4
		C329.06,269.97,329.68,269.34,330.45,269.34L330.45,269.34z"/>
	<path d="M322.08,269.34c0.77,0,1.4,0.62,1.4,1.4c0,0.77-0.62,1.4-1.4,1.4s-1.4-0.62-1.4-1.4
		C320.69,269.97,321.31,269.34,322.08,269.34L322.08,269.34z"/>
	<path d="M368.13,265.16c0.77,0,1.4,0.62,1.4,1.4c0,0.77-0.62,1.4-1.4,1.4s-1.4-0.62-1.4-1.4
		C366.73,265.78,367.36,265.16,368.13,265.16L368.13,265.16z"/>
	<path d="M359.76,265.16c0.77,0,1.4,0.62,1.4,1.4c0,0.77-0.62,1.4-1.4,1.4c-0.77,0-1.4-0.62-1.4-1.4
		C358.36,265.78,358.99,265.16,359.76,265.16L359.76,265.16z"/>
	<path d="M351.38,265.16c0.77,0,1.4,0.62,1.4,1.4c0,0.77-0.62,1.4-1.4,1.4s-1.4-0.62-1.4-1.4
		C349.99,265.78,350.61,265.16,351.38,265.16L351.38,265.16z"/>
	<path d="M343.01,265.16c0.77,0,1.4,0.62,1.4,1.4c0,0.77-0.62,1.4-1.4,1.4c-0.77,0-1.4-0.62-1.4-1.4
		C341.62,265.78,342.24,265.16,343.01,265.16L343.01,265.16z"/>
	<path d="M334.64,265.16c0.77,0,1.4,0.62,1.4,1.4c0,0.77-0.62,1.4-1.4,1.4c-0.77,0-1.4-0.62-1.4-1.4
		C333.25,265.78,333.87,265.16,334.64,265.16L334.64,265.16z"/>
	<path d="M326.27,265.16c0.77,0,1.4,0.62,1.4,1.4c0,0.77-0.62,1.4-1.4,1.4c-0.77,0-1.4-0.62-1.4-1.4
		C324.87,265.78,325.5,265.16,326.27,265.16L326.27,265.16z"/>
	<path d="M376.5,273.53c0.77,0,1.4,0.62,1.4,1.4c0,0.77-0.62,1.4-1.4,1.4c-0.77,0-1.4-0.62-1.4-1.4
		C375.1,274.15,375.73,273.53,376.5,273.53L376.5,273.53z"/>
	<path d="M368.13,273.53c0.77,0,1.4,0.62,1.4,1.4c0,0.77-0.62,1.4-1.4,1.4s-1.4-0.62-1.4-1.4
		C366.73,274.15,367.36,273.53,368.13,273.53L368.13,273.53z"/>
	<path d="M359.76,273.53c0.77,0,1.4,0.62,1.4,1.4c0,0.77-0.62,1.4-1.4,1.4c-0.77,0-1.4-0.62-1.4-1.4
		C358.36,274.15,358.99,273.53,359.76,273.53L359.76,273.53z"/>
	<path d="M351.38,273.53c0.77,0,1.4,0.62,1.4,1.4c0,0.77-0.62,1.4-1.4,1.4s-1.4-0.62-1.4-1.4
		C349.99,274.15,350.61,273.53,351.38,273.53L351.38,273.53z"/>
	<path d="M343.01,273.53c0.77,0,1.4,0.62,1.4,1.4c0,0.77-0.62,1.4-1.4,1.4c-0.77,0-1.4-0.62-1.4-1.4
		C341.62,274.15,342.24,273.53,343.01,273.53L343.01,273.53z"/>
	<path d="M334.64,273.53c0.77,0,1.4,0.62,1.4,1.4c0,0.77-0.62,1.4-1.4,1.4c-0.77,0-1.4-0.62-1.4-1.4
		C333.25,274.15,333.87,273.53,334.64,273.53L334.64,273.53z"/>
	<path d="M326.27,273.53c0.77,0,1.4,0.62,1.4,1.4c0,0.77-0.62,1.4-1.4,1.4c-0.77,0-1.4-0.62-1.4-1.4
		C324.87,274.15,325.5,273.53,326.27,273.53L326.27,273.53z"/>
	<path d="M317.9,273.53c0.77,0,1.39,0.62,1.39,1.4c0,0.77-0.62,1.4-1.39,1.4c-0.77,0-1.4-0.62-1.4-1.4
		C316.5,274.15,317.13,273.53,317.9,273.53L317.9,273.53z"/>
	<path d="M372.31,277.71c0.77,0,1.4,0.62,1.4,1.4c0,0.77-0.62,1.4-1.4,1.4c-0.77,0-1.4-0.62-1.4-1.4
		C370.92,278.34,371.54,277.71,372.31,277.71L372.31,277.71z"/>
	<path d="M363.94,277.71c0.77,0,1.4,0.62,1.4,1.4c0,0.77-0.62,1.4-1.4,1.4c-0.77,0-1.4-0.62-1.4-1.4
		C362.55,278.34,363.17,277.71,363.94,277.71L363.94,277.71z"/>
	<path d="M355.57,277.71c0.77,0,1.4,0.62,1.4,1.4c0,0.77-0.62,1.4-1.4,1.4c-0.77,0-1.4-0.62-1.4-1.4
		C354.17,278.34,354.8,277.71,355.57,277.71L355.57,277.71z"/>
	<path d="M347.2,277.71c0.77,0,1.4,0.62,1.4,1.4c0,0.77-0.62,1.4-1.4,1.4c-0.77,0-1.4-0.62-1.4-1.4
		C345.8,278.34,346.43,277.71,347.2,277.71L347.2,277.71z"/>
	<path d="M338.83,277.71c0.77,0,1.4,0.62,1.4,1.4c0,0.77-0.62,1.4-1.4,1.4c-0.77,0-1.4-0.62-1.4-1.4
		C337.43,278.34,338.06,277.71,338.83,277.71L338.83,277.71z"/>
	<path d="M330.45,277.71c0.77,0,1.4,0.62,1.4,1.4c0,0.77-0.62,1.4-1.4,1.4c-0.77,0-1.4-0.62-1.4-1.4
		C329.06,278.34,329.68,277.71,330.45,277.71L330.45,277.71z"/>
	<path d="M322.08,277.71c0.77,0,1.4,0.62,1.4,1.4c0,0.77-0.62,1.4-1.4,1.4s-1.4-0.62-1.4-1.4
		C320.69,278.34,321.31,277.71,322.08,277.71L322.08,277.71z"/>
	<path d="M355.57,286.09c0.77,0,1.4,0.62,1.4,1.4c0,0.77-0.62,1.4-1.4,1.4c-0.77,0-1.4-0.62-1.4-1.4
		C354.17,286.71,354.8,286.09,355.57,286.09L355.57,286.09z"/>
	<path d="M347.2,286.09c0.77,0,1.4,0.62,1.4,1.4c0,0.77-0.62,1.4-1.4,1.4c-0.77,0-1.4-0.62-1.4-1.4
		C345.8,286.71,346.43,286.09,347.2,286.09L347.2,286.09z"/>
	<path d="M338.83,286.09c0.77,0,1.4,0.62,1.4,1.4c0,0.77-0.62,1.4-1.4,1.4c-0.77,0-1.4-0.62-1.4-1.4
		C337.43,286.71,338.06,286.09,338.83,286.09L338.83,286.09z"/>
	<path d="M330.45,286.09c0.77,0,1.4,0.62,1.4,1.4c0,0.77-0.62,1.4-1.4,1.4c-0.77,0-1.4-0.62-1.4-1.4
		C329.06,286.71,329.68,286.09,330.45,286.09L330.45,286.09z"/>
	<path d="M322.08,286.09c0.77,0,1.4,0.62,1.4,1.4c0,0.77-0.62,1.4-1.4,1.4s-1.4-0.62-1.4-1.4
		C320.69,286.71,321.31,286.09,322.08,286.09L322.08,286.09z"/>
	<path d="M376.5,281.9c0.77,0,1.4,0.62,1.4,1.4c0,0.77-0.62,1.4-1.4,1.4c-0.77,0-1.4-0.62-1.4-1.4
		C375.1,282.52,375.73,281.9,376.5,281.9L376.5,281.9z"/>
	<path d="M368.13,281.9c0.77,0,1.4,0.62,1.4,1.4c0,0.77-0.62,1.4-1.4,1.4s-1.4-0.62-1.4-1.4
		C366.73,282.52,367.36,281.9,368.13,281.9L368.13,281.9z"/>
	<path d="M359.76,281.9c0.77,0,1.4,0.62,1.4,1.4c0,0.77-0.62,1.4-1.4,1.4c-0.77,0-1.4-0.62-1.4-1.4
		C358.36,282.52,358.99,281.9,359.76,281.9L359.76,281.9z"/>
	<path d="M351.38,281.9c0.77,0,1.4,0.62,1.4,1.4c0,0.77-0.62,1.4-1.4,1.4s-1.4-0.62-1.4-1.4
		C349.99,282.52,350.61,281.9,351.38,281.9L351.38,281.9z"/>
	<path d="M343.01,281.9c0.77,0,1.4,0.62,1.4,1.4c0,0.77-0.62,1.4-1.4,1.4c-0.77,0-1.4-0.62-1.4-1.4
		C341.62,282.52,342.24,281.9,343.01,281.9L343.01,281.9z"/>
	<path d="M334.64,281.9c0.77,0,1.4,0.62,1.4,1.4c0,0.77-0.62,1.4-1.4,1.4c-0.77,0-1.4-0.62-1.4-1.4
		C333.25,282.52,333.87,281.9,334.64,281.9L334.64,281.9z"/>
	<path d="M326.27,281.9c0.77,0,1.4,0.62,1.4,1.4c0,0.77-0.62,1.4-1.4,1.4c-0.77,0-1.4-0.62-1.4-1.4
		C324.87,282.52,325.5,281.9,326.27,281.9L326.27,281.9z"/>
	<path d="M317.9,281.9c0.77,0,1.39,0.62,1.39,1.4c0,0.77-0.62,1.4-1.39,1.4c-0.77,0-1.4-0.62-1.4-1.4
		C316.5,282.52,317.13,281.9,317.9,281.9L317.9,281.9z"/>
	<path d="M376.5,290.27c0.77,0,1.4,0.62,1.4,1.4c0,0.77-0.62,1.4-1.4,1.4c-0.77,0-1.4-0.62-1.4-1.4
		C375.1,290.9,375.73,290.27,376.5,290.27L376.5,290.27z"/>
	<path d="M343.01,290.27c0.77,0,1.4,0.62,1.4,1.4c0,0.77-0.62,1.4-1.4,1.4c-0.77,0-1.4-0.62-1.4-1.4
		C341.62,290.9,342.24,290.27,343.01,290.27L343.01,290.27z"/>
	<path d="M334.64,290.27c0.77,0,1.4,0.62,1.4,1.4c0,0.77-0.62,1.4-1.4,1.4c-0.77,0-1.4-0.62-1.4-1.4
		C333.25,290.9,333.87,290.27,334.64,290.27L334.64,290.27z"/>
	<path d="M326.27,290.27c0.77,0,1.4,0.62,1.4,1.4c0,0.77-0.62,1.4-1.4,1.4c-0.77,0-1.4-0.62-1.4-1.4
		C324.87,290.9,325.5,290.27,326.27,290.27L326.27,290.27z"/>
</g>
<g>
	<g>
		<defs>
			<rect id="SVGID_00000067211878104984323620000006125786329116697270_" x="381.14" y="136.01" width="67.92" height="102.18"/>
		</defs>
		<clipPath id="SVGID_00000057834064706461545860000008492684439024281744_">
			<use xlink:href="#SVGID_00000067211878104984323620000006125786329116697270_"  style="overflow:visible;"/>
		</clipPath>
		<path style="clip-path:url(#SVGID_00000057834064706461545860000008492684439024281744_);" d="M392.74,209.03
			c-5.31,0-9.63-4.32-9.63-9.63c0-0.35,0.02-0.69,0.06-1.03c0.07,0.01,0.13,0.02,0.2,0.02c0.77,0,1.4-0.62,1.4-1.4
			c0-0.6-0.38-1.11-0.91-1.3c0.55-1.32,1.38-2.5,2.43-3.45c-0.08,0.17-0.12,0.36-0.12,0.57c0,0.77,0.62,1.4,1.4,1.4
			c0.77,0,1.4-0.62,1.4-1.4c0-0.77-0.62-1.4-1.4-1.4c-0.09,0-0.18,0.01-0.26,0.03c0.92-0.63,1.95-1.1,3.08-1.38
			c0.13,1.89,0.42,3.77,0.86,5.64c-0.52,0.2-0.88,0.71-0.88,1.29c0,0.77,0.62,1.4,1.4,1.4c0.08,0,0.15-0.01,0.22-0.02
			c1.08,3.45,2.68,6.77,4.71,9.82c-0.06,0.03-0.13,0.06-0.19,0.09c-0.17-0.07-0.36-0.11-0.55-0.11c-0.5,0-0.93,0.26-1.18,0.66
			C394.09,208.96,393.42,209.03,392.74,209.03L392.74,209.03z M387.85,216.57c0.36-3.16,3.04-5.62,6.29-5.62
			c1.88,0,3.57,0.83,4.74,2.14c-0.11,0.2-0.17,0.42-0.17,0.66c0,0.77,0.62,1.39,1.39,1.39c0.24,0.67,0.38,1.39,0.38,2.14
			c0,3.49-2.84,6.34-6.34,6.34c-0.62,0-1.22-0.09-1.79-0.26c0.46-0.23,0.77-0.7,0.77-1.24c0-0.77-0.62-1.4-1.4-1.4
			s-1.4,0.62-1.4,1.4c0,0.08,0.01,0.16,0.02,0.24c-1.05-0.78-1.85-1.88-2.25-3.15c0.49-0.22,0.83-0.71,0.83-1.28
			C388.95,217.27,388.48,216.71,387.85,216.57L387.85,216.57z M394.65,234.12c-0.82-0.99-1.31-2.26-1.31-3.64
			c0-1.38,0.49-2.64,1.3-3.63c0.21,0.5,0.71,0.85,1.29,0.85c0.77,0,1.4-0.62,1.4-1.4c0-0.44-0.21-0.83-0.53-1.09
			c0.7-0.31,1.48-0.48,2.29-0.48c1.48,0,2.82,0.57,3.84,1.49c-0.01,0.02-0.02,0.05-0.02,0.08c0,0.7,0.52,1.27,1.19,1.37
			c0.46,0.83,0.73,1.78,0.73,2.8c0,1.03-0.27,1.99-0.75,2.83c-0.66,0.11-1.17,0.68-1.17,1.37c0,0.03,0.01,0.04,0.01,0.06
			c-1.02,0.92-2.36,1.48-3.83,1.48c-0.81,0-1.57-0.17-2.27-0.47c0.31-0.26,0.51-0.64,0.51-1.07c0-0.77-0.62-1.4-1.4-1.4
			C395.35,233.28,394.86,233.63,394.65,234.12L394.65,234.12z M397.8,209.84c0.01,0,0.01-0.01,0.02-0.01
			c0.01,0.01,0.01,0.02,0.02,0.03C397.83,209.85,397.81,209.84,397.8,209.84L397.8,209.84z M416.89,219.47
			c-11.1,0-24.65-14.65-24.65-31.75c0-0.31,0.01-0.89,0.05-1.7h3.89c0.49,4.88,4.61,8.69,9.62,8.69c5.01,0,9.13-3.81,9.62-8.69h3.53
			c0.49,4.88,4.61,8.69,9.62,8.69s9.13-3.81,9.62-8.69h3.32c0.02,0.63,0.03,1.2,0.03,1.7C441.55,204.82,427.99,219.47,416.89,219.47
			L416.89,219.47z M445.96,177.45c-0.62,2.22-1.48,4.36-2.58,6.4c-0.06-0.87-0.14-1.81-0.26-2.8c0.15-0.22,0.24-0.49,0.24-0.78
			c0-0.42-0.19-0.79-0.48-1.05c-0.29-1.9-0.7-3.93-1.28-5.98c0.12,0.03,0.24,0.06,0.37,0.06c0.77,0,1.4-0.62,1.4-1.4
			c0-0.77-0.62-1.4-1.4-1.4c-0.43,0-0.81,0.2-1.07,0.51c-1.21-3.49-2.97-6.92-5.53-9.76c-0.35-0.38-0.84-0.61-1.36-0.63
			c-0.51,0-1.01,0.19-1.37,0.55c-3.35,3.38-8.45,7.31-14.46,10.32c-0.17-0.57-0.7-1-1.33-1c-0.77,0-1.4,0.62-1.4,1.4
			c0,0.29,0.09,0.55,0.23,0.77c-2.25,0.99-4.61,1.83-7.03,2.45c-0.99,0.25-2,0.46-3.01,0.64c-0.15-0.61-0.7-1.07-1.35-1.07
			c-0.77,0-1.4,0.62-1.4,1.4c0,0.02,0.01,0.04,0.01,0.07c-2.06,0.24-4.02,0.35-5.67,0.39c0.05-0.14,0.08-0.3,0.08-0.46
			c0-0.77-0.62-1.4-1.4-1.4c-0.77,0-1.4,0.62-1.4,1.4c0,0.17,0.03,0.33,0.09,0.48c-0.63-0.01-1.14-0.02-1.49-0.03l0,0
			c-0.93-0.03-1.77,0.64-1.92,1.57c-0.06,0.33-0.11,0.65-0.16,0.96c-0.42,0.24-0.7,0.69-0.7,1.2c0,0.38,0.15,0.72,0.4,0.97
			c-0.3,2.4-0.41,4.27-0.45,5.42c-3.52-5.15-5.43-11.29-5.43-17.56c0-3.21,0.49-6.31,1.4-9.23c0.21,0.51,0.71,0.87,1.29,0.87
			c0.77,0,1.4-0.62,1.4-1.4c0-0.77-0.62-1.4-1.4-1.4c-0.25,0-0.48,0.07-0.69,0.19c3.44-9.11,11.04-16.19,20.48-18.92
			c0.25,0.36,0.67,0.59,1.14,0.59c0.71,0,1.29-0.53,1.38-1.22c1.84-0.37,3.73-0.57,5.67-0.6c-0.04,0.13-0.07,0.27-0.07,0.42
			c0,0.77,0.62,1.4,1.4,1.4c0.77,0,1.4-0.62,1.4-1.4c0-0.12-0.02-0.23-0.05-0.34c1.98,0.14,3.92,0.46,5.78,0.96
			c0.23,0.46,0.7,0.78,1.24,0.78c0.25,0,0.48-0.07,0.69-0.19c8.9,3.01,16.02,9.93,19.27,18.73c-0.26,0.25-0.42,0.61-0.42,1
			c0,0.7,0.51,1.27,1.18,1.37c0.53,1.9,0.89,3.86,1.05,5.89c-0.23-0.18-0.52-0.28-0.83-0.28c-0.77,0-1.4,0.62-1.4,1.4
			c0,0.77,0.62,1.4,1.4,1.4c0.36,0,0.69-0.14,0.93-0.37c0,0.12,0.01,0.24,0.01,0.36c0,1.91-0.18,3.81-0.52,5.66
			c-0.14-0.04-0.28-0.07-0.43-0.07c-0.77,0-1.4,0.62-1.4,1.4C444.76,176.78,445.28,177.35,445.96,177.45L445.96,177.45z
			 M418.95,184.05h-3.53c-0.32-3.19-2.2-5.92-4.86-7.43c9.79-2.87,18.43-9.02,23.4-14.01c5.51,6.17,7.06,15.45,7.46,21.44h-3.23
			c-0.49-4.88-4.61-8.69-9.62-8.69S419.45,179.17,418.95,184.05L418.95,184.05z M396.18,184.05h-3.77c0.13-1.5,0.34-3.38,0.71-5.57
			c1.21,0.04,3.21,0.07,5.6-0.04C397.33,179.95,396.4,181.9,396.18,184.05L396.18,184.05z M381.14,199.4c0,5.23,3.48,9.65,8.24,11.1
			c-2.13,1.5-3.53,3.98-3.53,6.78c0,4.25,3.21,7.76,7.33,8.24c-1.13,1.34-1.81,3.07-1.81,4.95c0,4.25,3.46,7.71,7.71,7.71
			s7.71-3.46,7.71-7.71c0-3.84-2.83-7.03-6.51-7.6c1.35-1.48,2.18-3.43,2.18-5.59c0-0.99-0.18-1.93-0.5-2.8
			c4.68,4.41,10.05,6.95,14.94,6.95c5.95,0,12.65-3.78,17.91-10.11c5.54-6.67,8.72-15.28,8.72-23.61c0-0.09,0-0.19,0-0.28
			c3.63-5.44,5.55-11.77,5.55-18.34c0-3.47-0.54-6.81-1.53-9.96c-0.02-0.17-0.08-0.33-0.16-0.48
			c-4.38-13.14-16.79-22.65-31.39-22.65c-18.24,0-33.08,14.84-33.08,33.08c0,6.93,2.2,13.7,6.22,19.29
			C384.4,189.92,381.14,194.3,381.14,199.4L381.14,199.4z"/>
	</g>
	<path d="M408.68,203.81c1.23-0.56,2.17-0.96,3.37-1.48c1.14-0.5,2.54-0.96,3.5-0.19c0.29,0.24,0.5,0.56,0.81,0.8
		c0.16,0.12,0.37,0.21,0.57,0.23c0.2-0.02,0.41-0.1,0.57-0.23c0.3-0.23,0.51-0.56,0.81-0.8c0.96-0.77,2.36-0.31,3.5,0.19
		c1.2,0.52,2.14,0.92,3.37,1.48c0.79,0.39,0.81,1.3,0.61,1.76c-0.19,0.47-0.58,0.87-0.97,1.25c-0.97,0.95-2.02,1.87-3.33,2.51
		c-1.37,0.67-2.98,0.96-4.56,0.88c-1.58,0.08-3.19-0.21-4.56-0.88c-1.31-0.64-2.37-1.56-3.33-2.51c-0.39-0.38-0.77-0.78-0.97-1.25
		C407.87,205.11,407.88,204.2,408.68,203.81L408.68,203.81z"/>
	<path d="M429.41,143.98c-0.77,0-1.4-0.62-1.4-1.4c0-0.77,0.62-1.4,1.4-1.4c0.77,0,1.4,0.62,1.4,1.4
		C430.81,143.36,430.18,143.98,429.41,143.98L429.41,143.98z"/>
	<path d="M421.04,143.98c-0.77,0-1.4-0.62-1.4-1.4c0-0.77,0.62-1.4,1.4-1.4c0.77,0,1.4,0.62,1.4,1.4
		C422.43,143.36,421.81,143.98,421.04,143.98L421.04,143.98z"/>
	<path d="M412.67,143.98c-0.77,0-1.4-0.62-1.4-1.4c0-0.77,0.62-1.4,1.4-1.4c0.77,0,1.4,0.62,1.4,1.4
		C414.06,143.36,413.44,143.98,412.67,143.98L412.67,143.98z"/>
	<path d="M404.3,143.98c-0.77,0-1.4-0.62-1.4-1.4c0-0.77,0.62-1.4,1.4-1.4c0.77,0,1.4,0.62,1.4,1.4
		C405.69,143.36,405.07,143.98,404.3,143.98L404.3,143.98z"/>
	<path d="M433.6,148.17c-0.77,0-1.4-0.62-1.4-1.4c0-0.77,0.62-1.4,1.4-1.4c0.77,0,1.4,0.62,1.4,1.4
		C434.99,147.54,434.37,148.17,433.6,148.17L433.6,148.17z"/>
	<path d="M425.22,148.17c-0.77,0-1.4-0.62-1.4-1.4c0-0.77,0.62-1.4,1.4-1.4s1.4,0.62,1.4,1.4
		C426.62,147.54,426,148.17,425.22,148.17L425.22,148.17z"/>
	<path d="M416.85,148.17c-0.77,0-1.4-0.62-1.4-1.4c0-0.77,0.62-1.4,1.4-1.4c0.77,0,1.4,0.62,1.4,1.4
		C418.25,147.54,417.62,148.17,416.85,148.17L416.85,148.17z"/>
	<path d="M408.48,148.17c-0.77,0-1.39-0.62-1.39-1.4c0-0.77,0.62-1.4,1.39-1.4c0.77,0,1.4,0.62,1.4,1.4
		C409.88,147.54,409.25,148.17,408.48,148.17L408.48,148.17z"/>
	<path d="M400.11,148.17c-0.77,0-1.4-0.62-1.4-1.4c0-0.77,0.62-1.4,1.4-1.4c0.77,0,1.4,0.62,1.4,1.4
		C401.51,147.54,400.88,148.17,400.11,148.17L400.11,148.17z"/>
	<path d="M437.78,152.35c-0.77,0-1.4-0.62-1.4-1.4c0-0.77,0.62-1.4,1.4-1.4c0.77,0,1.4,0.62,1.4,1.4
		C439.18,151.73,438.55,152.35,437.78,152.35L437.78,152.35z"/>
	<path d="M429.41,152.35c-0.77,0-1.4-0.62-1.4-1.4c0-0.77,0.62-1.4,1.4-1.4c0.77,0,1.4,0.62,1.4,1.4
		C430.81,151.73,430.18,152.35,429.41,152.35L429.41,152.35z"/>
	<path d="M421.04,152.35c-0.77,0-1.4-0.62-1.4-1.4c0-0.77,0.62-1.4,1.4-1.4c0.77,0,1.4,0.62,1.4,1.4
		C422.43,151.73,421.81,152.35,421.04,152.35L421.04,152.35z"/>
	<path d="M412.67,152.35c-0.77,0-1.4-0.62-1.4-1.4c0-0.77,0.62-1.4,1.4-1.4c0.77,0,1.4,0.62,1.4,1.4
		C414.06,151.73,413.44,152.35,412.67,152.35L412.67,152.35z"/>
	<path d="M404.3,152.35c-0.77,0-1.4-0.62-1.4-1.4c0-0.77,0.62-1.4,1.4-1.4c0.77,0,1.4,0.62,1.4,1.4
		C405.69,151.73,405.07,152.35,404.3,152.35L404.3,152.35z"/>
	<path d="M395.92,152.35c-0.77,0-1.4-0.62-1.4-1.4c0-0.77,0.62-1.4,1.4-1.4c0.77,0,1.4,0.62,1.4,1.4
		C397.32,151.73,396.69,152.35,395.92,152.35L395.92,152.35z"/>
	<path d="M437.78,160.73c-0.77,0-1.4-0.62-1.4-1.4c0-0.77,0.62-1.4,1.4-1.4c0.77,0,1.4,0.62,1.4,1.4
		C439.18,160.1,438.55,160.73,437.78,160.73L437.78,160.73z"/>
	<path d="M429.41,160.73c-0.77,0-1.4-0.62-1.4-1.4c0-0.77,0.62-1.4,1.4-1.4c0.77,0,1.4,0.62,1.4,1.4
		C430.81,160.1,430.18,160.73,429.41,160.73L429.41,160.73z"/>
	<path d="M421.04,160.73c-0.77,0-1.4-0.62-1.4-1.4c0-0.77,0.62-1.4,1.4-1.4c0.77,0,1.4,0.62,1.4,1.4
		C422.43,160.1,421.81,160.73,421.04,160.73L421.04,160.73z"/>
	<path d="M412.67,160.73c-0.77,0-1.4-0.62-1.4-1.4c0-0.77,0.62-1.4,1.4-1.4c0.77,0,1.4,0.62,1.4,1.4
		C414.06,160.1,413.44,160.73,412.67,160.73L412.67,160.73z"/>
	<path d="M404.3,160.73c-0.77,0-1.4-0.62-1.4-1.4c0-0.77,0.62-1.4,1.4-1.4c0.77,0,1.4,0.62,1.4,1.4
		C405.69,160.1,405.07,160.73,404.3,160.73L404.3,160.73z"/>
	<path d="M395.92,160.73c-0.77,0-1.4-0.62-1.4-1.4c0-0.77,0.62-1.4,1.4-1.4c0.77,0,1.4,0.62,1.4,1.4
		C397.32,160.1,396.69,160.73,395.92,160.73L395.92,160.73z"/>
	<path d="M441.97,156.54c-0.77,0-1.4-0.62-1.4-1.4c0-0.77,0.62-1.4,1.4-1.4c0.77,0,1.4,0.62,1.4,1.4
		C443.36,155.92,442.74,156.54,441.97,156.54L441.97,156.54z"/>
	<path d="M433.6,156.54c-0.77,0-1.4-0.62-1.4-1.4c0-0.77,0.62-1.4,1.4-1.4c0.77,0,1.4,0.62,1.4,1.4
		C434.99,155.92,434.37,156.54,433.6,156.54L433.6,156.54z"/>
	<path d="M425.22,156.54c-0.77,0-1.4-0.62-1.4-1.4c0-0.77,0.62-1.4,1.4-1.4s1.4,0.62,1.4,1.4
		C426.62,155.92,426,156.54,425.22,156.54L425.22,156.54z"/>
	<path d="M416.85,156.54c-0.77,0-1.4-0.62-1.4-1.4c0-0.77,0.62-1.4,1.4-1.4c0.77,0,1.4,0.62,1.4,1.4
		C418.25,155.92,417.62,156.54,416.85,156.54L416.85,156.54z"/>
	<path d="M408.48,156.54c-0.77,0-1.39-0.62-1.39-1.4c0-0.77,0.62-1.4,1.39-1.4c0.77,0,1.4,0.62,1.4,1.4
		C409.88,155.92,409.25,156.54,408.48,156.54L408.48,156.54z"/>
	<path d="M400.11,156.54c-0.77,0-1.4-0.62-1.4-1.4c0-0.77,0.62-1.4,1.4-1.4c0.77,0,1.4,0.62,1.4,1.4
		C401.51,155.92,400.88,156.54,400.11,156.54L400.11,156.54z"/>
	<path d="M391.74,156.54c-0.77,0-1.4-0.62-1.4-1.4c0-0.77,0.62-1.4,1.4-1.4s1.4,0.62,1.4,1.4
		C393.13,155.92,392.51,156.54,391.74,156.54L391.74,156.54z"/>
	<path d="M441.97,164.91c-0.77,0-1.4-0.62-1.4-1.4c0-0.77,0.62-1.4,1.4-1.4c0.77,0,1.4,0.62,1.4,1.4
		C443.36,164.29,442.74,164.91,441.97,164.91L441.97,164.91z"/>
	<path d="M425.22,164.91c-0.77,0-1.4-0.62-1.4-1.4c0-0.77,0.62-1.4,1.4-1.4s1.4,0.62,1.4,1.4
		C426.62,164.29,426,164.91,425.22,164.91L425.22,164.91z"/>
	<path d="M416.85,164.91c-0.77,0-1.4-0.62-1.4-1.4c0-0.77,0.62-1.4,1.4-1.4c0.77,0,1.4,0.62,1.4,1.4
		C418.25,164.29,417.62,164.91,416.85,164.91L416.85,164.91z"/>
	<path d="M408.48,164.91c-0.77,0-1.39-0.62-1.39-1.4c0-0.77,0.62-1.4,1.39-1.4c0.77,0,1.4,0.62,1.4,1.4
		C409.88,164.29,409.25,164.91,408.48,164.91L408.48,164.91z"/>
	<path d="M400.11,164.91c-0.77,0-1.4-0.62-1.4-1.4c0-0.77,0.62-1.4,1.4-1.4c0.77,0,1.4,0.62,1.4,1.4
		C401.51,164.29,400.88,164.91,400.11,164.91L400.11,164.91z"/>
	<path d="M391.74,164.91c-0.77,0-1.4-0.62-1.4-1.4c0-0.77,0.62-1.4,1.4-1.4s1.4,0.62,1.4,1.4
		C393.13,164.29,392.51,164.91,391.74,164.91L391.74,164.91z"/>
	<path d="M421.04,169.1c-0.77,0-1.4-0.62-1.4-1.4c0-0.77,0.62-1.4,1.4-1.4c0.77,0,1.4,0.62,1.4,1.4
		C422.43,168.47,421.81,169.1,421.04,169.1L421.04,169.1z"/>
	<path d="M412.67,169.1c-0.77,0-1.4-0.62-1.4-1.4c0-0.77,0.62-1.4,1.4-1.4c0.77,0,1.4,0.62,1.4,1.4
		C414.06,168.47,413.44,169.1,412.67,169.1L412.67,169.1z"/>
	<path d="M404.3,169.1c-0.77,0-1.4-0.62-1.4-1.4c0-0.77,0.62-1.4,1.4-1.4c0.77,0,1.4,0.62,1.4,1.4
		C405.69,168.47,405.07,169.1,404.3,169.1L404.3,169.1z"/>
	<path d="M395.92,169.1c-0.77,0-1.4-0.62-1.4-1.4c0-0.77,0.62-1.4,1.4-1.4c0.77,0,1.4,0.62,1.4,1.4
		C397.32,168.47,396.69,169.1,395.92,169.1L395.92,169.1z"/>
	<path d="M387.55,169.1c-0.77,0-1.4-0.62-1.4-1.4c0-0.77,0.62-1.4,1.4-1.4c0.77,0,1.4,0.62,1.4,1.4
		C388.95,168.47,388.32,169.1,387.55,169.1L387.55,169.1z"/>
	<path d="M387.55,177.47c-0.77,0-1.4-0.62-1.4-1.4c0-0.77,0.62-1.4,1.4-1.4c0.77,0,1.4,0.62,1.4,1.4
		C388.95,176.84,388.32,177.47,387.55,177.47L387.55,177.47z"/>
	<path d="M408.48,173.28c-0.77,0-1.39-0.62-1.39-1.4c0-0.77,0.62-1.4,1.39-1.4c0.77,0,1.4,0.62,1.4,1.4
		C409.88,172.66,409.25,173.28,408.48,173.28L408.48,173.28z"/>
	<path d="M400.11,173.28c-0.77,0-1.4-0.62-1.4-1.4c0-0.77,0.62-1.4,1.4-1.4c0.77,0,1.4,0.62,1.4,1.4
		C401.51,172.66,400.88,173.28,400.11,173.28L400.11,173.28z"/>
	<path d="M391.74,173.28c-0.77,0-1.4-0.62-1.4-1.4c0-0.77,0.62-1.4,1.4-1.4s1.4,0.62,1.4,1.4
		C393.13,172.66,392.51,173.28,391.74,173.28L391.74,173.28z"/>
	<path d="M387.55,199.79c0.77,0,1.4,0.62,1.4,1.4c0,0.77-0.62,1.4-1.4,1.4c-0.77,0-1.4-0.62-1.4-1.4
		C386.16,200.42,386.78,199.79,387.55,199.79L387.55,199.79z"/>
	<path d="M391.74,203.98c0.77,0,1.4,0.62,1.4,1.4c0,0.77-0.62,1.4-1.4,1.4s-1.4-0.62-1.4-1.4
		C390.34,204.6,390.97,203.98,391.74,203.98L391.74,203.98z"/>
	<path d="M391.74,212.35c0.77,0,1.4,0.62,1.4,1.4c0,0.77-0.62,1.4-1.4,1.4s-1.4-0.62-1.4-1.4
		C390.34,212.98,390.97,212.35,391.74,212.35L391.74,212.35z"/>
	<path d="M395.92,216.54c0.77,0,1.4,0.62,1.4,1.4c0,0.77-0.62,1.4-1.4,1.4c-0.77,0-1.4-0.62-1.4-1.4
		C394.53,217.16,395.15,216.54,395.92,216.54L395.92,216.54z"/>
	<path d="M400.11,229.09c0.77,0,1.4,0.62,1.4,1.4c0,0.77-0.62,1.4-1.4,1.4c-0.77,0-1.4-0.62-1.4-1.4
		C398.71,229.72,399.34,229.09,400.11,229.09L400.11,229.09z"/>
</g>
<g>
	<g>
		<defs>
			<rect id="SVGID_00000077308826461848834360000017262607751777022391_" x="309.85" y="51.92" width="73.33" height="104.14"/>
		</defs>
		<clipPath id="SVGID_00000183213970782658501850000009941496597838543262_">
			<use xlink:href="#SVGID_00000077308826461848834360000017262607751777022391_"  style="overflow:visible;"/>
		</clipPath>
		<path style="clip-path:url(#SVGID_00000183213970782658501850000009941496597838543262_);" d="M311.83,100.78
			c-0.08-0.48,0.24-0.94,0.72-1.02l8.18-1.39c0.26,0.33,0.65,0.54,1.09,0.54c0.61,0,1.13-0.4,1.31-0.95l5.77-0.98
			c-0.07,0.16-0.11,0.34-0.11,0.53c0,0.77,0.62,1.4,1.4,1.4s1.4-0.62,1.4-1.4c0-0.36-0.14-0.68-0.36-0.92l18.51-3.13
			c0.07,0.71,0.66,1.27,1.38,1.27c0.77,0,1.4-0.62,1.4-1.4c0-0.12-0.02-0.23-0.04-0.33l18.4-3.12c0.25,0.39,0.68,0.66,1.18,0.66
			c0.66,0,1.22-0.47,1.36-1.09l5.76-0.98c0.01,0,0.03,0,0.04,0c-0.11,0.2-0.18,0.43-0.18,0.67c0,0.77,0.62,1.39,1.38,1.39l0.79,4.65
			c0.04,0.23-0.01,0.47-0.15,0.66c-0.14,0.19-0.34,0.32-0.57,0.36l-7.04,1.19c-0.06-0.71-0.65-1.27-1.38-1.27
			c-0.77,0-1.4,0.62-1.4,1.4c0,0.12,0.02,0.23,0.05,0.34l-18.4,3.12c-0.25-0.4-0.68-0.67-1.19-0.67c-0.67,0-1.23,0.47-1.36,1.1
			l-5.8,0.98c0.12-0.2,0.19-0.44,0.19-0.69c0-0.77-0.62-1.4-1.4-1.4c-0.77,0-1.4,0.62-1.4,1.4c0,0.42,0.19,0.79,0.48,1.05
			l-18.62,3.15c0,0,0-0.01,0-0.01c0-0.77-0.62-1.4-1.4-1.4c-0.77,0-1.4,0.62-1.4,1.4c0,0.17,0.03,0.32,0.09,0.47l-6.66,1.13
			c-0.23,0.04-0.47-0.01-0.66-0.15c-0.05-0.03-0.09-0.07-0.13-0.11c0.12,0.03,0.25,0.06,0.38,0.06c0.77,0,1.4-0.62,1.4-1.4
			c0-0.77-0.62-1.4-1.4-1.4c-0.36,0-0.69,0.14-0.93,0.36L311.83,100.78L311.83,100.78z M361.04,118.96c-4.47,0-8.11-3.64-8.11-8.11
			c0-4.47,3.64-8.11,8.11-8.11c4.47,0,8.11,3.64,8.11,8.11C369.15,115.33,365.51,118.96,361.04,118.96L361.04,118.96z
			 M326.39,107.36l13.08-2.22c0.01,0.01,0.02,0.03,0.03,0.04c1.49,1.52,2.32,3.54,2.32,5.67c0,0.17-0.02,0.33-0.03,0.5
			c-0.08,0.35-0.12,0.72-0.13,1.08c-0.74,3.71-4.02,6.52-7.95,6.52c-4.47,0-8.11-3.64-8.11-8.11
			C325.6,109.64,325.88,108.44,326.39,107.36L326.39,107.36z M341.73,104.76l13.8-2.34c-2.09,1.37-3.65,3.5-4.27,6
			c-1.03-0.95-2.41-1.52-3.89-1.52c-1.49,0-2.86,0.57-3.89,1.52C343.16,107.09,342.57,105.85,341.73,104.76L341.73,104.76z
			 M317.68,116.67v-7.84l6.45-1.09c-0.32,1-0.49,2.05-0.49,3.11c0,5.56,4.52,10.08,10.08,10.08c4.87,0,8.94-3.47,9.87-8.06
			c0.01-0.04,0.02-0.08,0.02-0.13c0.07-0.36,0.12-0.73,0.15-1.11c0.44-1.64,1.91-2.77,3.63-2.77c1.68,0,3.16,1.12,3.62,2.73
			c0.38,5.21,4.74,9.34,10.05,9.34c5.56,0,10.08-4.52,10.08-10.08c0-4.72-3.26-8.68-7.64-9.78l13.4-2.27v17.87l-11.99,14.23
			c-1.83-2.37-6.99-7.59-17.1-7.59c-10.49,0-15.82,5.27-17.68,7.62L317.68,116.67L317.68,116.67z M354.82,132.38
			c-0.1,0.14-2.43,3.32-7.03,3.32c-3.69,0-6.8-3.07-6.93-3.2l1.39-1.39c0.03,0.03,2.67,2.62,5.54,2.62c3.57,0,5.36-2.4,5.44-2.5
			l0.8,0.58L354.82,132.38L354.82,132.38z M375.33,86c0.11,0.36,0.22,0.71,0.32,1.08l-10.6,1.79c-0.13-0.64-0.69-1.12-1.37-1.12
			c-0.77,0-1.4,0.62-1.4,1.4c0,0.07,0.01,0.13,0.02,0.19l-6.46,1.09c0.5-0.21,0.85-0.71,0.85-1.29c0-0.77-0.62-1.4-1.4-1.4
			c-0.77,0-1.4,0.62-1.4,1.4c0,0.75,0.59,1.35,1.33,1.39l-11.41,1.93c-0.26-0.32-0.64-0.53-1.09-0.53c-0.61,0-1.12,0.39-1.31,0.94
			l-5.77,0.98c0.06-0.16,0.1-0.33,0.1-0.52c0-0.77-0.62-1.4-1.4-1.4c-0.77,0-1.4,0.62-1.4,1.4c0,0.35,0.13,0.67,0.35,0.91
			l-15.66,2.65v-0.89c0-0.43,0.01-0.86,0.03-1.29c0.74-0.04,1.33-0.64,1.33-1.39c0-0.67-0.48-1.23-1.11-1.37
			c0.43-3.58,1.44-7.01,2.96-10.17c0.25,0.23,0.58,0.37,0.94,0.37c0.77,0,1.4-0.62,1.4-1.4c0-0.66-0.45-1.2-1.07-1.35
			c1.88-3.16,4.3-5.99,7.22-8.34c1.17-0.94,2.39-1.78,3.66-2.52c0.16,0.6,0.7,1.05,1.35,1.05c0.77,0,1.4-0.62,1.4-1.4
			c0-0.34-0.13-0.66-0.34-0.9c1.35-0.62,2.74-1.14,4.18-1.55c2-0.56,4.06-0.9,6.14-1.01c0.25,0.4,0.68,0.67,1.19,0.67
			c0.51,0,0.96-0.28,1.2-0.69c3.69,0.11,7.24,0.95,10.51,2.38c-0.33,0.26-0.55,0.65-0.55,1.1c0,0,0,0,0,0c0,0.77,0.62,1.4,1.4,1.4
			c0.19,0,0.38-0.04,0.54-0.11c0.08-0.04,0.16-0.08,0.24-0.13c0.37-0.25,0.61-0.67,0.61-1.15c4.68,2.57,8.67,6.42,11.49,11.2
			c-0.11-0.03-0.21-0.04-0.33-0.04c-0.77,0-1.4,0.62-1.4,1.4c0,0.77,0.62,1.4,1.4,1.4c0.61,0,1.13-0.4,1.31-0.95
			c0.56,1.11,1.07,2.27,1.5,3.46c-0.02,0.09-0.03,0.18-0.03,0.28C374.85,85.38,375.04,85.75,375.33,86L375.33,86z M331.23,54.73
			c0.86-0.53,1.86-0.84,2.94-0.84c1.2,0,2.31,0.38,3.22,1.03c-0.14,0.22-0.22,0.47-0.22,0.75c0,0.67,0.48,1.24,1.11,1.37
			c0.09,0.02,0.18,0.03,0.28,0.03s0.19-0.01,0.28-0.03c0.1-0.02,0.2-0.06,0.3-0.1c0.4,0.77,0.63,1.64,0.63,2.56
			c0,1.18-0.37,2.27-0.99,3.17c-0.07-0.01-0.14-0.02-0.21-0.02c-0.77,0-1.4,0.62-1.4,1.4c0,0.06,0.01,0.11,0.02,0.17
			c-0.87,0.56-1.91,0.89-3.02,0.89c-0.96,0-1.85-0.24-2.64-0.66c0.04-0.12,0.06-0.25,0.06-0.39c0-0.77-0.62-1.4-1.4-1.4
			c-0.2,0-0.39,0.04-0.56,0.12c-0.67-0.92-1.06-2.05-1.06-3.27c0-1,0.27-1.95,0.73-2.76c0.04,0.03,0.07,0.06,0.11,0.09
			c0.07,0.05,0.15,0.09,0.24,0.13c0.17,0.07,0.35,0.11,0.54,0.11l0,0l0,0c0.77,0,1.4-0.62,1.4-1.4
			C331.6,55.3,331.46,54.98,331.23,54.73L331.23,54.73z M312.23,97.82c-1.55,0.26-2.59,1.74-2.33,3.28l1.01,5.99
			c0.13,0.75,0.54,1.41,1.16,1.85c0.49,0.35,1.06,0.53,1.64,0.53c0.16,0,0.32-0.01,0.48-0.04l1.52-0.26v13.63
			c0,8.68,3.52,17.03,9.9,23.51c6.1,6.19,14,9.75,21.66,9.75c14.3,0,31.56-14.84,31.56-33.26V98.48l1.97-0.33
			c0.75-0.13,1.41-0.54,1.85-1.16c0.44-0.62,0.61-1.37,0.49-2.12l-1.01-5.99c-0.13-0.75-0.54-1.41-1.16-1.85
			c-0.62-0.44-1.38-0.61-2.12-0.49l-1.25,0.21c-3.89-14.18-16.23-24-30.32-24c-2.26,0-4.51,0.26-6.7,0.76
			c0.73-1.17,1.17-2.54,1.17-4.02c0-4.17-3.39-7.57-7.57-7.57c-4.17,0-7.57,3.39-7.57,7.57c0,3.49,2.38,6.42,5.59,7.3
			c-1.41,0.81-2.76,1.73-4.05,2.77c-7.9,6.35-12.43,16-12.43,26.46v1.22L312.23,97.82L312.23,97.82z"/>
	</g>
	<path d="M364.67,73.39c-0.06,0.06-0.13,0.12-0.21,0.17c-0.15,0.1-0.32,0.17-0.5,0.21c-0.09,0.02-0.18,0.03-0.28,0.03
		c-0.1,0-0.19-0.01-0.28-0.03c-0.64-0.13-1.11-0.69-1.11-1.37c0-0.67,0.48-1.24,1.11-1.37c0.09-0.02,0.18-0.03,0.28-0.03
		c0.1,0,0.19,0.01,0.28,0.03c0.18,0.04,0.35,0.11,0.5,0.21c0.07,0.05,0.14,0.11,0.21,0.17c0.19,0.19,0.32,0.43,0.38,0.71
		c0.02,0.09,0.03,0.18,0.03,0.28c0,0.1-0.01,0.19-0.03,0.28C365,72.96,364.86,73.2,364.67,73.39L364.67,73.39z"/>
	<path d="M355.31,73.8L355.31,73.8L355.31,73.8c-0.19,0-0.38-0.04-0.54-0.11c-0.08-0.04-0.16-0.08-0.24-0.13
		c-0.15-0.1-0.28-0.23-0.38-0.38c-0.05-0.07-0.09-0.15-0.13-0.24c-0.07-0.17-0.11-0.35-0.11-0.54c0-0.19,0.04-0.38,0.11-0.54
		c0.04-0.08,0.08-0.16,0.13-0.24c0.1-0.15,0.23-0.28,0.38-0.38c0.07-0.05,0.15-0.09,0.24-0.13c0.17-0.07,0.35-0.11,0.54-0.11l0,0
		l0,0c0.77,0,1.4,0.62,1.4,1.4C356.71,73.17,356.09,73.8,355.31,73.8L355.31,73.8z"/>
	<path d="M339.56,73.39c-0.06,0.06-0.13,0.12-0.21,0.17c-0.15,0.1-0.32,0.17-0.5,0.21c-0.09,0.02-0.19,0.03-0.28,0.03
		s-0.19-0.01-0.28-0.03c-0.64-0.13-1.11-0.69-1.11-1.37c0-0.67,0.48-1.24,1.11-1.37c0.09-0.02,0.18-0.03,0.28-0.03
		s0.19,0.01,0.28,0.03c0.18,0.04,0.35,0.11,0.5,0.21c0.07,0.05,0.14,0.11,0.21,0.17c0.19,0.19,0.32,0.43,0.38,0.71
		c0.02,0.09,0.03,0.18,0.03,0.28c0,0.1-0.01,0.19-0.03,0.28C339.88,72.96,339.75,73.2,339.56,73.39L339.56,73.39z"/>
	<path d="M330.2,73.8L330.2,73.8L330.2,73.8c-0.19,0-0.38-0.04-0.54-0.11c-0.08-0.04-0.16-0.08-0.24-0.13
		c-0.15-0.1-0.28-0.23-0.38-0.38c-0.05-0.07-0.09-0.15-0.13-0.24c-0.07-0.17-0.11-0.35-0.11-0.54c0-0.19,0.04-0.38,0.11-0.54
		c0.04-0.08,0.08-0.16,0.13-0.24c0.1-0.15,0.23-0.28,0.38-0.38c0.07-0.05,0.15-0.09,0.24-0.13c0.17-0.07,0.35-0.11,0.54-0.11l0,0
		l0,0c0.77,0,1.4,0.62,1.4,1.4C331.6,73.17,330.97,73.8,330.2,73.8L330.2,73.8z"/>
	<path d="M352.15,69.17c-0.01,0.01-0.02,0.03-0.03,0.04c-0.06,0.06-0.13,0.12-0.21,0.17c-0.07,0.05-0.15,0.09-0.24,0.13
		c-0.17,0.07-0.35,0.11-0.54,0.11c-0.19,0-0.38-0.04-0.54-0.11c-0.15-0.06-0.29-0.16-0.41-0.27c-0.01-0.01-0.02-0.02-0.04-0.03
		c-0.01-0.01-0.02-0.02-0.03-0.04c-0.11-0.12-0.2-0.25-0.27-0.41c-0.07-0.17-0.11-0.35-0.11-0.54c0-0.77,0.62-1.4,1.4-1.4l0,0l0,0
		c0.19,0,0.38,0.04,0.54,0.11c0.08,0.04,0.16,0.08,0.24,0.13c0.37,0.25,0.61,0.68,0.61,1.16c0,0.19-0.04,0.38-0.11,0.54
		C352.35,68.91,352.26,69.05,352.15,69.17L352.15,69.17z"/>
	<path d="M343.54,69.37c-0.07,0.05-0.15,0.09-0.24,0.13c-0.17,0.07-0.35,0.11-0.54,0.11c-0.17,0-0.33-0.03-0.48-0.09
		c-0.11-0.04-0.21-0.09-0.3-0.15c-0.14-0.09-0.25-0.21-0.35-0.34c-0.1-0.14-0.18-0.3-0.22-0.47c-0.03-0.11-0.05-0.22-0.05-0.34l0,0
		l0,0c0-0.39,0.16-0.73,0.41-0.99c0.06-0.06,0.13-0.12,0.21-0.17c0.15-0.1,0.32-0.17,0.5-0.21c0.09-0.02,0.18-0.03,0.28-0.03
		c0.39,0,0.73,0.16,0.99,0.41c0.25,0.25,0.41,0.6,0.41,0.99l0,0l0,0C344.15,68.7,343.91,69.12,343.54,69.37L343.54,69.37z"/>
	<path d="M367.87,75.19c0.77,0,1.4,0.62,1.4,1.4c0,0.77-0.62,1.4-1.4,1.4c-0.77,0-1.4-0.62-1.4-1.4
		C366.48,75.82,367.1,75.19,367.87,75.19L367.87,75.19z"/>
	<path d="M359.5,77.98c-0.77,0-1.4-0.62-1.4-1.4c0-0.77,0.62-1.4,1.4-1.4s1.4,0.62,1.4,1.4C360.9,77.36,360.27,77.98,359.5,77.98
		L359.5,77.98z"/>
	<path d="M351.13,75.19c0.77,0,1.4,0.62,1.4,1.4c0,0.77-0.62,1.4-1.4,1.4c-0.77,0-1.4-0.62-1.4-1.4
		C349.73,75.82,350.36,75.19,351.13,75.19L351.13,75.19z"/>
	<path d="M342.76,77.98c-0.77,0-1.4-0.62-1.4-1.4c0-0.77,0.62-1.4,1.4-1.4c0.77,0,1.4,0.62,1.4,1.4
		C344.15,77.36,343.53,77.98,342.76,77.98L342.76,77.98z"/>
	<path d="M334.39,77.98c-0.77,0-1.4-0.62-1.4-1.4c0-0.77,0.62-1.4,1.4-1.4c0.77,0,1.4,0.62,1.4,1.4
		C335.78,77.36,335.16,77.98,334.39,77.98L334.39,77.98z"/>
	<path d="M326.01,77.98c-0.77,0-1.4-0.62-1.4-1.4c0-0.77,0.62-1.4,1.4-1.4c0.77,0,1.4,0.62,1.4,1.4
		C327.41,77.36,326.78,77.98,326.01,77.98L326.01,77.98z"/>
	<path d="M363.69,82.17c-0.77,0-1.4-0.62-1.4-1.4c0-0.77,0.62-1.4,1.4-1.4c0.77,0,1.4,0.62,1.4,1.4
		C365.08,81.54,364.46,82.17,363.69,82.17L363.69,82.17z"/>
	<path d="M355.31,82.17c-0.77,0-1.4-0.62-1.4-1.4c0-0.77,0.62-1.4,1.4-1.4c0.77,0,1.4,0.62,1.4,1.4
		C356.71,81.54,356.09,82.17,355.31,82.17L355.31,82.17z"/>
	<path d="M346.94,82.17c-0.77,0-1.4-0.62-1.4-1.4c0-0.77,0.62-1.4,1.4-1.4c0.77,0,1.4,0.62,1.4,1.4
		C348.34,81.54,347.71,82.17,346.94,82.17L346.94,82.17z"/>
	<path d="M338.57,82.17c-0.77,0-1.4-0.62-1.4-1.4c0-0.77,0.62-1.4,1.4-1.4c0.77,0,1.4,0.62,1.4,1.4
		C339.97,81.54,339.34,82.17,338.57,82.17L338.57,82.17z"/>
	<path d="M330.2,82.17c-0.77,0-1.4-0.62-1.4-1.4c0-0.77,0.62-1.4,1.4-1.4s1.4,0.62,1.4,1.4C331.6,81.54,330.97,82.17,330.2,82.17
		L330.2,82.17z"/>
	<path d="M347.93,73.39c-0.06,0.06-0.13,0.12-0.21,0.17c-0.15,0.1-0.32,0.17-0.5,0.21c-0.09,0.02-0.18,0.03-0.28,0.03
		c-0.29,0-0.56-0.09-0.78-0.24c-0.15-0.1-0.28-0.23-0.38-0.38c-0.05-0.07-0.09-0.15-0.13-0.24c-0.07-0.17-0.11-0.35-0.11-0.54
		c0-0.19,0.04-0.38,0.11-0.54c0.04-0.08,0.08-0.16,0.13-0.24c0.1-0.15,0.23-0.28,0.38-0.38c0.22-0.15,0.49-0.24,0.78-0.24
		c0.1,0,0.19,0.01,0.28,0.03c0.18,0.04,0.35,0.11,0.5,0.21c0.07,0.05,0.14,0.11,0.21,0.17c0.19,0.19,0.32,0.43,0.38,0.71
		c0.02,0.09,0.03,0.18,0.03,0.28c0,0.1-0.01,0.19-0.03,0.28C348.25,72.96,348.12,73.2,347.93,73.39L347.93,73.39z"/>
	<path d="M346.94,90.54c-0.77,0-1.4-0.62-1.4-1.4c0-0.77,0.62-1.4,1.4-1.4c0.77,0,1.4,0.62,1.4,1.4
		C348.34,89.92,347.71,90.54,346.94,90.54L346.94,90.54z"/>
	<path d="M338.57,90.54c-0.77,0-1.4-0.62-1.4-1.4c0-0.77,0.62-1.4,1.4-1.4c0.77,0,1.4,0.62,1.4,1.4
		C339.97,89.92,339.34,90.54,338.57,90.54L338.57,90.54z"/>
	<path d="M330.2,90.54c-0.77,0-1.4-0.62-1.4-1.4c0-0.77,0.62-1.4,1.4-1.4s1.4,0.62,1.4,1.4C331.6,89.92,330.97,90.54,330.2,90.54
		L330.2,90.54z"/>
	<path d="M321.83,90.54c-0.77,0-1.4-0.62-1.4-1.4c0-0.77,0.62-1.4,1.4-1.4c0.77,0,1.4,0.62,1.4,1.4
		C323.22,89.92,322.6,90.54,321.83,90.54L321.83,90.54z"/>
	<path d="M367.87,83.56c0.77,0,1.4,0.62,1.4,1.4c0,0.77-0.62,1.4-1.4,1.4c-0.77,0-1.4-0.62-1.4-1.4
		C366.48,84.19,367.1,83.56,367.87,83.56L367.87,83.56z"/>
	<path d="M359.5,86.36c-0.77,0-1.4-0.62-1.4-1.4c0-0.77,0.62-1.4,1.4-1.4s1.4,0.62,1.4,1.4C360.9,85.73,360.27,86.36,359.5,86.36
		L359.5,86.36z"/>
	<path d="M351.13,83.56c0.77,0,1.4,0.62,1.4,1.4c0,0.77-0.62,1.4-1.4,1.4c-0.77,0-1.4-0.62-1.4-1.4
		C349.73,84.19,350.36,83.56,351.13,83.56L351.13,83.56z"/>
	<path d="M342.76,86.36c-0.77,0-1.4-0.62-1.4-1.4c0-0.77,0.62-1.4,1.4-1.4c0.77,0,1.4,0.62,1.4,1.4
		C344.15,85.73,343.53,86.36,342.76,86.36L342.76,86.36z"/>
	<path d="M334.39,86.36c-0.77,0-1.4-0.62-1.4-1.4c0-0.77,0.62-1.4,1.4-1.4c0.77,0,1.4,0.62,1.4,1.4
		C335.78,85.73,335.16,86.36,334.39,86.36L334.39,86.36z"/>
	<path d="M326.01,86.36c-0.77,0-1.4-0.62-1.4-1.4c0-0.77,0.62-1.4,1.4-1.4c0.77,0,1.4,0.62,1.4,1.4
		C327.41,85.73,326.78,86.36,326.01,86.36L326.01,86.36z"/>
	<path d="M334.39,61.24c-0.77,0-1.4-0.62-1.4-1.4c0-0.77,0.62-1.4,1.4-1.4c0.77,0,1.4,0.62,1.4,1.4
		C335.78,60.62,335.16,61.24,334.39,61.24L334.39,61.24z"/>
	<path d="M376.24,91.94c0.77,0,1.4,0.62,1.4,1.4c0,0.77-0.62,1.4-1.4,1.4c-0.77,0-1.4-0.62-1.4-1.4
		C374.85,92.56,375.47,91.94,376.24,91.94L376.24,91.94z"/>
	<path d="M367.87,91.94c0.77,0,1.4,0.62,1.4,1.4c0,0.77-0.62,1.4-1.4,1.4c-0.77,0-1.4-0.62-1.4-1.4
		C366.48,92.56,367.1,91.94,367.87,91.94L367.87,91.94z"/>
	<path d="M359.5,91.94c0.77,0,1.4,0.62,1.4,1.4c0,0.77-0.62,1.4-1.4,1.4s-1.4-0.62-1.4-1.4C358.1,92.56,358.73,91.94,359.5,91.94
		L359.5,91.94z"/>
	<path d="M326.01,94.73c-0.77,0-1.4-0.62-1.4-1.4c0-0.77,0.62-1.4,1.4-1.4c0.77,0,1.4,0.62,1.4,1.4
		C327.41,94.1,326.78,94.73,326.01,94.73L326.01,94.73z"/>
	<path d="M363.69,96.12c0.77,0,1.4,0.62,1.4,1.4c0,0.77-0.62,1.4-1.4,1.4c-0.77,0-1.4-0.62-1.4-1.4
		C362.29,96.75,362.92,96.12,363.69,96.12L363.69,96.12z"/>
	<path d="M355.31,96.12c0.77,0,1.4,0.62,1.4,1.4c0,0.77-0.62,1.4-1.4,1.4c-0.77,0-1.4-0.62-1.4-1.4
		C353.92,96.75,354.54,96.12,355.31,96.12L355.31,96.12z"/>
	<path d="M346.94,96.12c0.77,0,1.4,0.62,1.4,1.4c0,0.77-0.62,1.4-1.4,1.4c-0.77,0-1.4-0.62-1.4-1.4
		C345.55,96.75,346.17,96.12,346.94,96.12L346.94,96.12z"/>
	<path d="M338.57,96.12c0.77,0,1.4,0.62,1.4,1.4c0,0.77-0.62,1.4-1.4,1.4c-0.77,0-1.4-0.62-1.4-1.4
		C337.18,96.75,337.8,96.12,338.57,96.12L338.57,96.12z"/>
	<path d="M334.39,100.31c0.77,0,1.4,0.62,1.4,1.4c0,0.77-0.62,1.4-1.4,1.4c-0.77,0-1.4-0.62-1.4-1.4
		C332.99,100.93,333.61,100.31,334.39,100.31L334.39,100.31z"/>
	<path d="M326.01,100.31c0.77,0,1.4,0.62,1.4,1.4c0,0.77-0.62,1.4-1.4,1.4c-0.77,0-1.4-0.62-1.4-1.4
		C324.62,100.93,325.24,100.31,326.01,100.31L326.01,100.31z"/>
	<path d="M317.64,100.31c0.77,0,1.4,0.62,1.4,1.4c0,0.77-0.62,1.4-1.4,1.4c-0.77,0-1.4-0.62-1.4-1.4
		C316.25,100.93,316.87,100.31,317.64,100.31L317.64,100.31z"/>
</g>
</svg>
